<svg width="672" height="532" fill="none" xmlns="http://www.w3.org/2000/svg"><path opacity=".5" d="M362.5 591C509.132 591 628 468.55 628 317.5S509.132 44 362.5 44 97 166.45 97 317.5 215.868 591 362.5 591z" stroke="#fff" stroke-opacity=".6" stroke-width="88"/><path d="M582.353 335.637a56.825 56.825 0 01-4.246-.206l.089-1.054c1.373.119 2.774.187 4.17.203l-.013 1.057zm4.254-.106l-.063-1.054a58.805 58.805 0 004.156-.403l.14 1.054a61.268 61.268 0 01-4.225.403h-.008zm-12.725-.64a46.519 46.519 0 01-4.165-.888l.264-1.02c1.317.342 2.697.635 4.077.867l-.176 1.041zm21.152-.477l-.211-1.033a52.976 52.976 0 004.064-.973l.279 1.018a62.76 62.76 0 01-4.122.988h-.01zm-29.392-1.666a45.387 45.387 0 01-3.951-1.634l.45-.951a39.3 39.3 0 003.844 1.581l-.343 1.004zm37.581-.595l-.348-.994a59.741 59.741 0 003.891-1.521l.416.968a57.426 57.426 0 01-3.959 1.547zm-45.275-3.068l-.15-.092.561-.891.137.084-.548.899zm53.075-.301l-.485-.935a56.613 56.613 0 003.63-2.061l.553.896a56.8 56.8 0 01-3.698 2.103v-.003zm7.228-4.48l-.625-.851c1.13-.825 2.226-1.7 3.261-2.599l.69.791a52.038 52.038 0 01-3.326 2.664v-.005zm6.419-5.582l-.759-.733a44.753 44.753 0 002.755-3.125l.82.661a45.419 45.419 0 01-2.816 3.202v-.005zm5.318-6.652l-.882-.575a41.122 41.122 0 002.091-3.595l.935.483a41.122 41.122 0 01-2.144 3.692v-.005zm3.899-7.577l-.98-.382a40.05 40.05 0 001.296-3.954l1.016.277a40.531 40.531 0 01-1.332 4.064v-.005zm2.225-8.223l-1.037-.169a40.92 40.92 0 00.447-4.132l1.054.06a41.124 41.124 0 01-.464 4.246v-.005z" fill="#1A2578"/><path d="M650.422 283.409h-32.32c-6.026 0-10.911 4.887-10.911 10.915s4.885 10.915 10.911 10.915h32.32c6.026 0 10.911-4.887 10.911-10.915s-4.885-10.915-10.911-10.915z" fill="#E8D2D7"/><path d="M622.193 297.393a3.07 3.07 0 10-.002-6.14 3.07 3.07 0 00.002 6.14zm12.069 0a3.07 3.07 0 10-.002-6.14 3.07 3.07 0 00.002 6.14zm12.072 0a3.07 3.07 0 000-6.141 3.07 3.07 0 000 6.141z" fill="#fff"/><path d="M348.229 366.445l-1.009-.303c.205-.688.434-1.373.682-2.035l.988.369a38.864 38.864 0 00-.661 1.969zm80.867 73.436h-.29v-1.055h.232c1.354 0 2.679-.034 3.999-.094l.05 1.054c-1.33.06-2.674.095-3.991.095zm-4.575-.143a69.967 69.967 0 01-4.27-.4l.129-1.054a71.07 71.07 0 004.214.395l-.073 1.059zm12.836-.263l-.101-1.054c1.373-.127 2.79-.29 4.215-.48l.142 1.054c-1.435.193-2.866.359-4.251.488l-.005-.008zm-21.337-.807a64.563 64.563 0 01-4.185-.927l.263-1.02c1.341.342 2.729.648 4.125.912l-.203 1.035zm29.818-.337l-.179-1.038c1.373-.24 2.774-.509 4.162-.791l.216 1.03c-1.406.306-2.818.57-4.204.807l.005-.008zm8.364-1.739l-.245-1.026a163.88 163.88 0 004.114-1.038l.264 1.02c-1.375.369-2.755.719-4.139 1.051l.006-.007zm-46.49-.048a59.915 59.915 0 01-4.027-1.478l.398-.978a59.666 59.666 0 003.951 1.455l-.322 1.001zm54.74-2.135l-.29-1.012c1.359-.39 2.717-.793 4.072-1.209l.306 1.009c-1.363.422-2.727.827-4.094 1.215l.006-.003zm-62.679-1.114a53.689 53.689 0 01-3.761-2.077l.545-.902a52.186 52.186 0 003.688 2.035l-.472.944zm70.837-1.371l-.322-1.004c1.351-.43 2.7-.87 4.049-1.318l.326 1.002a295.41 295.41 0 01-4.059 1.328l.006-.008zm-78.175-3.089a46.8 46.8 0 01-3.351-2.699l.698-.79c1.03.912 2.134 1.8 3.274 2.635l-.621.854zm-6.43-5.706a41.822 41.822 0 01-2.769-3.305l.843-.635a40.48 40.48 0 002.698 3.223l-.772.717zm-5.174-6.897a28.095 28.095 0 01-1.904-3.893l.98-.384a26.898 26.898 0 001.844 3.747l-.92.53zm.214-4.62h-.938l.029-1.054a31.72 31.72 0 004.18-.156l.111 1.055c-.527.058-1.08.1-1.617.129-.601.018-1.183.034-1.771.034l.006-.008zm-5.237-.406a35.435 35.435 0 01-4.214-.92l.287-1.014c1.344.381 2.712.68 4.093.893l-.166 1.041zm12.889-.64l-.322-1.007a13.73 13.73 0 003.688-1.768l.601.867a14.917 14.917 0 01-3.972 1.916l.005-.008zm-21.184-1.698a36.781 36.781 0 01-3.882-1.889l.526-.917a35.906 35.906 0 003.77 1.845l-.414.961zm10.226-.722a17.716 17.716 0 01-.263-2.936v-.121c0-.44.026-.883.071-1.318l1.053.103c-.039.411-.063.82-.066 1.228l-.526.114h.526c.003.925.083 1.848.24 2.759l-1.035.171zm18.001-2.677l-.89-.567a8.778 8.778 0 001.357-3.742l1.053.113a9.876 9.876 0 01-1.525 4.204l.005-.008zm-35.739-.825a35.598 35.598 0 01-3.324-2.754l.719-.77a35.434 35.434 0 003.227 2.675l-.622.849zm19.616-4.744l-.972-.409a13.174 13.174 0 012.355-3.734l.79.709a12.035 12.035 0 00-2.178 3.45l.005-.016zm-25.901-1.168a31.938 31.938 0 01-1.159-1.484 29.79 29.79 0 01-1.373-2.018l.893-.562c.419.667.867 1.318 1.318 1.956.359.49.734.97 1.122 1.439l-.801.669zm41.787-1.397a7.075 7.075 0 00-2.771-2.759l.527-.917a8.172 8.172 0 013.177 3.163l-.933.513zm-10.489-3.241l-.437-.96.111-.05a9.255 9.255 0 014.296-.701l-.069 1.055a8.176 8.176 0 00-3.806.616l-.095.04zm-35.895-2.641a35.842 35.842 0 01-1.58-4.022l1.001-.327a34.752 34.752 0 001.53 3.904l-.951.445zm-2.655-8.202a36.502 36.502 0 01-.585-4.28l1.054-.079c.108 1.394.297 2.781.566 4.154l-1.035.205zm.395-8.552l-1.053-.045c.062-1.44.212-2.876.447-4.298l1.054.174a34.817 34.817 0 00-.448 4.164v.005zm133.584 52.937l-2.002.668.334 1 2.001-.668-.333-1z" fill="#1A2578"/><g filter="url(#filter0_d_1_89390)"><path d="M133.988 183.772v184.155a12.04 12.04 0 0012.03 12.034h258.901a12.034 12.034 0 008.506-3.524 12.022 12.022 0 003.524-8.51V183.772H133.988z" fill="#C4C8E4"/><path d="M404.919 159H146.018a12.577 12.577 0 00-12.557 12.561v12.74h284.014v-12.74A12.576 12.576 0 00404.919 159z" fill="#1A2578"/><path d="M151.547 176.395a4.742 4.742 0 004.741-4.744 4.742 4.742 0 10-9.482 0 4.742 4.742 0 004.741 4.744zm18.088 0a4.742 4.742 0 004.741-4.744 4.742 4.742 0 10-9.482 0 4.742 4.742 0 004.741 4.744zm214.153.79h-41.092a5.532 5.532 0 01-5.532-5.534 5.532 5.532 0 015.532-5.535h41.092a5.534 5.534 0 010 11.069z" fill="#fff"/><path d="M339.172 229.205h-20.546v-10.806h20.546v10.806zm-19.492-1.054h18.438v-8.697H319.68v8.697z" fill="#1A2578"/><path d="M373.579 223.407h-28.435v.791h28.435v-.791z" fill="#0B1350"/><path d="M338.642 238.432h-19.497v9.754h19.497v-9.754z" fill="#BF0830"/><path d="M373.579 242.915h-28.435v.791h28.435v-.791z" fill="#0B1350"/><path d="M290.101 308.871H178.064v4.554h112.037v-4.554zm0 13.355H178.064v4.554h112.037v-4.554zm0 13.354H178.064v4.554h112.037v-4.554z" fill="#E8D2D7"/><path d="M189.036 252.846l-.885-.569 10.974-17.076 8.242 6.038 11.664-11.638 17.29 2.374 17.852-15.151 18.633 15.199 15.552-22.718.872.595-16.2 23.665-18.844-15.371-17.543 14.891-17.238-2.367-11.932 11.905-8.069-5.909-10.368 16.132z" fill="#1A2578"/><path d="M198.872 258.898h-9.833v8.159h9.833v-8.159zm18.612-6.881h-9.833v15.041h9.833v-15.041zm18.616-5.246h-9.833v20.286h9.833v-20.286zm18.616-13.612h-9.833v33.896h9.833v-33.896zm18.612 13.763h-9.833v20.135h9.833v-20.135z" fill="#BF0830"/><path d="M293.964 267.584H177.536v-61.145h1.054v60.09h115.374v1.055z" fill="#BF0830"/><path d="M369.976 309.909a29.254 29.254 0 00-13.52-12.168 29.234 29.234 0 00-33.763 7.416 29.265 29.265 0 00-3.101 34.445 29.224 29.224 0 0031.895 13.333 29.238 29.238 0 0015.475-9.554 29.665 29.665 0 001.549-2.019l-23.883-16.868 25.348-14.585z" fill="#1A2578"/><path d="M381.945 339.04l-20.643-14.579 21.9-12.601.197.343a24.74 24.74 0 01-1.235 26.527l-.219.31zm-19.176-14.511l18.984 13.407a23.95 23.95 0 001.167-25.008l-20.151 11.601z" fill="#0B1350"/></g><path d="M577.943 176.2H449.518a4.274 4.274 0 00-4.273 4.275v48.9a4.274 4.274 0 004.273 4.274h128.425a4.274 4.274 0 004.273-4.274v-48.9a4.274 4.274 0 00-4.273-4.275z" fill="#E8D2D7"/><path d="M471.41 185.029l1.92 3.89a.385.385 0 00.287.208l4.291.625a.381.381 0 01.315.467.376.376 0 01-.104.181l-3.106 3.028a.386.386 0 00-.108.338l.732 4.277a.375.375 0 01-.153.371.383.383 0 01-.4.03l-3.843-2.019a.373.373 0 00-.353 0l-3.838 2.019a.387.387 0 01-.529-.194.385.385 0 01-.024-.207l.732-4.277a.379.379 0 00-.108-.338l-3.105-3.028a.376.376 0 01-.097-.39.369.369 0 01.117-.173.373.373 0 01.191-.085l4.29-.625a.384.384 0 00.288-.208l1.92-3.89a.376.376 0 01.342-.217.384.384 0 01.343.217zm28.443 0l1.917 3.89a.373.373 0 00.287.208l4.291.625a.38.38 0 01.211.648l-3.105 3.028a.374.374 0 00-.108.338l.732 4.277a.385.385 0 01-.349.443.39.39 0 01-.204-.042l-3.836-2.019a.373.373 0 00-.353 0l-3.837 2.019a.381.381 0 01-.554-.401l.733-4.277a.386.386 0 00-.108-.338l-3.106-3.028a.376.376 0 01-.097-.39.387.387 0 01.117-.173.373.373 0 01.191-.085l4.291-.625a.373.373 0 00.287-.208l1.92-3.89a.382.382 0 01.68 0zm28.44 0l1.918 3.89a.37.37 0 00.287.208l4.291.625a.382.382 0 01.315.467.386.386 0 01-.105.181l-3.105 3.029a.379.379 0 00-.108.337l.732 4.277a.39.39 0 01-.153.372.382.382 0 01-.4.029l-3.827-2.019a.389.389 0 00-.353 0l-3.838 2.019a.383.383 0 01-.553-.401l.732-4.277a.374.374 0 00-.108-.337l-3.106-3.029a.376.376 0 01-.097-.389.385.385 0 01.308-.259l4.291-.625a.373.373 0 00.287-.208l1.92-3.89a.387.387 0 01.336-.2.388.388 0 01.336.2z" fill="#BF0830"/><path d="M556.734 185.029l1.917 3.89a.382.382 0 00.287.208l4.291.625c.071.01.137.039.191.085a.381.381 0 01.02.563l-3.106 3.028a.387.387 0 00-.108.338l.733 4.277a.382.382 0 01-.553.401l-3.838-2.019a.377.377 0 00-.353 0l-3.843 2.019a.383.383 0 01-.554-.401l.733-4.277a.374.374 0 00-.108-.338l-3.106-3.028a.376.376 0 01-.097-.39.377.377 0 01.308-.258l4.291-.625a.373.373 0 00.287-.208l1.92-3.89a.384.384 0 01.547-.157.382.382 0 01.141.157zm11.095 25.028H459.633v.79h108.196v-.79zm-33.701 8.629h-74.495v.79h74.495v-.79zm42.038 34.835H451.297a6.052 6.052 0 00-6.051 6.053v103.115a6.052 6.052 0 006.051 6.054h124.869a6.052 6.052 0 006.051-6.054V259.574a6.052 6.052 0 00-6.051-6.053z" fill="#fff"/><path d="M531.796 274.087h-71.697v34.177h71.697v-34.177z" fill="#E8D2D7"/><path d="M567.519 274.087h-25.482v17.247h25.482v-17.247z" fill="#BF0830"/><path d="M567.519 298.979h-25.482v17.247h25.482v-17.247zm0 24.89h-25.482v17.247h25.482v-17.247z" fill="#E8D2D7"/><path d="M528.569 348.179h-65.228a3.761 3.761 0 01-3.756-3.755v-25.357a3.761 3.761 0 013.756-3.755h65.242a3.752 3.752 0 013.753 3.755v25.357a3.759 3.759 0 01-3.767 3.755zm-65.228-31.813a2.702 2.702 0 00-2.702 2.701v25.357a2.703 2.703 0 002.702 2.701h65.242a2.705 2.705 0 002.7-2.701v-25.357a2.706 2.706 0 00-2.7-2.701h-65.242z" fill="#1A2578"/><path d="M523.518 325.157h-55.14v.527h55.14v-.527zm0 6.326h-55.14v.527h55.14v-.527zm-15.133 6.326h-40.007v.527h40.007v-.527z" fill="#1A2578"/><path d="M273.676 431.606l-1.036.725 11.849 16.951 1.037-.725-11.85-16.951zm16.925-12.467l-1.242.224 5.064 28.044 1.241-.224-5.063-28.044zm22.295 4.789l-7.666 23.424 1.202.393 7.666-23.424-1.202-.393zm80.555 100.876h-44.928v8.512h44.928v-8.512z" fill="#0B1350"/><path d="M365.543 533.319h-64.302l-24.165-61.639h64.301l24.166 61.639z" fill="#BF0830"/><path d="M593.748 533.32l2.613-92.583-4.275-15.756a29.5 29.5 0 00-9.584-14.958 29.468 29.468 0 00-16.433-6.737l-51.795-4.325-37.736 12.521a34.652 34.652 0 00-23.272 27.217l-15.67 94.31 156.152.311z" fill="#1A2578"/><path d="M463.439 444.872l-1.02 37.25 1.053.029 1.021-37.25-1.054-.029z" fill="#0B1350"/><path d="M509.565 454.227l-91.372 20.543 4.926 12.788 86.446-33.331z" fill="#1A2578"/><path d="M437.597 533.013c31.314-4.032 60.832-10.35 88.19-19.416l-16.221-59.37c-29.62 8.96-59.941 16.972-90.963 24.036l18.994 54.75z" fill="#E8D2D7"/><g opacity=".8" fill="#fff"><path opacity=".8" d="M497.275 417.038c.073.925.055 1.911.034 2.868-.053 2.725-.108 5.534 1.878 7.685 1.401 1.515 3.445 2.177 5.605 2.177a12.267 12.267 0 007.692-2.807c2.542-2.177 4.093-5.029 5.595-7.791.553-1.017 1.127-2.068 1.736-3.062 4.198-6.852 11.237-12.152 19.363-15.067l-2.218-.187c-7.536 3.104-14.003 8.241-17.988 14.735-.625 1.017-1.204 2.079-1.762 3.11-1.457 2.68-2.966 5.453-5.371 7.508-3.246 2.775-9.162 3.69-11.928.709-1.712-1.845-1.664-4.348-1.612-6.992.038-.988.026-1.978-.037-2.965-.326-4.072-2.713-8.007-6.282-10.597l-1.169.387c3.669 2.406 6.145 6.281 6.464 10.289z"/><path opacity=".8" d="M483.99 418.335c.791 1.866 1.075 3.914 1.357 5.89.282 1.977.579 4.054 1.364 5.996 2.187 5.393 8.25 9.425 15.094 10.031.637.058 1.28.084 1.923.084a24.269 24.269 0 0015.931-6.117c2.479-2.216 4.409-4.867 6.277-7.432.764-1.054 1.528-2.108 2.328-3.115 7.787-9.925 19.567-17.273 32.634-20.821l-2.768-.229c-12.264 3.819-23.23 10.977-30.645 20.425a102.648 102.648 0 00-2.347 3.145c-1.844 2.522-3.738 5.128-6.14 7.274-4.652 4.161-11.043 6.325-17.106 5.798-6.483-.575-12.212-4.359-14.261-9.42-.74-1.826-1.028-3.826-1.304-5.761-.293-2.04-.593-4.151-1.423-6.133-1.23-2.933-3.608-5.424-6.606-7.042l-1.338.446c3.208 1.465 5.771 3.971 7.03 6.981z"/></g><path d="M425.275 497.727c-13.744 3.233-23.48 21.453-10.739 32.253 3.377 2.862 7.692 4.394 12.117 4.678 7.966.527 13.458-.959 14.488-4.728 2.618.306 4.159-3.392 3.234-6.012 3.688.309 2.619-5.083-.461-6.623 6.322-2.928-4.789-9.933-16.015-13.098l-2.624-6.47z" fill="#fff"/><path d="M443.908 517.82a.58.58 0 01-.16-.024l-16.658-5.311a.525.525 0 01-.081-.97.53.53 0 01.402-.034l16.655 5.311a.522.522 0 01.357.581.53.53 0 01-.515.447zm.464 6.626a.45.45 0 01-.116 0l-16.948-3.853a.538.538 0 01-.328-.235.51.51 0 01-.073-.192.525.525 0 01.636-.601l16.945 3.856a.527.527 0 01-.119 1.038l.003-.013zm-3.237 6.01a.447.447 0 01-.121-.016l-15.468-3.713a.522.522 0 01-.398-.432.522.522 0 01.646-.593l15.465 3.713a.532.532 0 01.267.944.53.53 0 01-.391.11v-.013z" fill="#0B1350"/><path d="M613.77 504.905l-17.409-64.17-37.723 1.381 17.967 57.655-34.823-6.146 3.619 32.132c7.444 1.858 18.95 4.62 27.564 6.674 9.859 2.348 20.256 1.668 29.573-2.32 3.743-1.602 6.993-3.587 8.447-5.951a24.507 24.507 0 002.785-19.255z" fill="#1A2578"/><path d="M577.364 500.441l-35.674-6.296.185-1.038 33.974 5.996-18.625-60.409 1.006-.311 19.134 62.058z" fill="#0B1350"/><path d="M499.503 492.432c-8.624-.714-11.087 5.139 8.316 8.529.321 3.921 2.094 7.532 4.62 8.728 0 0-1.232 3.906 1.541 6.99 1.093 1.215 14.993 4.973 31.422 9.079l-3.619-32.132c-38.524-8.761-51.657-10.007-42.28-1.194z" fill="#fff"/><path d="M523.397 497.401a.402.402 0 01-.098 0l-23.894-4.441a.521.521 0 01-.345-.218.52.52 0 01-.008-.593.541.541 0 01.34-.226.52.52 0 01.208.001l23.894 4.444a.51.51 0 01.198.059.525.525 0 01.092.875.539.539 0 01-.387.12v-.021zm.79 7.643a.47.47 0 01-.106 0l-16.199-3.294a.527.527 0 11.21-1.033l16.2 3.294a.528.528 0 01.474.58.531.531 0 01-.579.474v-.021zm0 8.828a.544.544 0 01-.155-.023l-12.304-3.782a.529.529 0 01-.082-.961.527.527 0 01.393-.046l12.304 3.782a.529.529 0 01.364.582.522.522 0 01-.52.448zm21.347 11.382l-.244 1.025 32.17 7.662.244-1.025-32.17-7.662zM533.221 360.82c-.993 21.683-10.075 23.338-22.5 23.338-7.945 0-11.327-7.907-16.05-15.228-2.671-4.136-7.939-6.953-8.429-14.401-.769-11.562 10.571-17.877 22.998-17.877 12.428 0 24.569 11.291 23.981 24.168z" fill="#0B1350"/><path d="M524.121 374.145l-.079 25.822-8.466 5.949-9.91 14.875-4.852-16.873.019-4.757.06-18.472.022-6.544h23.206z" fill="#fff"/><path d="M519.654 380.351c-4.357 7.458-10.869 14.339-18.821 18.809l.061-18.472 18.76-.337z" fill="#0B1350"/><path d="M521.268 351.056l-.032 2.161-.147 10.858v.411l-.127 9.657-.031 2.214-.021 1.507-2.508 5.851-.105.243s-.485.221-1.349.579c-2.687 1.107-9.093 3.479-16.068 4.27-1.961.23-3.938.308-5.911.232-4.678-.211-6.67-5.988-7.397-12.693-.21-1.824-.305-3.732-.347-5.598-.085-4.132.147-8.128.379-10.974a100 100 0 01.421-4.132l4.215-8.561 12.043-3.226 15.731 6.663 1.254.538z" fill="#fff"/><path d="M526.786 373.531c2.478-2.955 2.563-6.965.191-8.957-2.373-1.992-6.305-1.211-8.783 1.744-2.478 2.955-2.564 6.965-.191 8.957 2.373 1.992 6.305 1.211 8.783-1.744z" fill="#fff"/><path d="M488.012 355.646c2.162-2.417 4.383-4.744 7.446-5.711 0 0 6.08 6.589 13.524 6.206 7.444-.382 5.832 15.023 6.948 15.023 1.117 0 3.538-7.406 7.51-7.738l2.334-10.471-11.827-12.827-13.07.577c-10.898 2.781-13.29 8.386-12.865 14.941z" fill="#0B1350"/><path d="M535.067 360.123c7.138-1.369 11.682-8.966 10.149-16.968-1.533-8.003-8.562-13.38-15.7-12.011-7.139 1.368-11.682 8.965-10.149 16.968 1.533 8.003 8.562 13.38 15.7 12.011zm-13.339 11.651a.525.525 0 01-.527-.527c0-1.582.717-3.089 1.823-3.814a2.846 2.846 0 012.779-.182.53.53 0 01.257.689.524.524 0 01-.681.276 1.767 1.767 0 00-1.778.1c-.806.527-1.346 1.705-1.346 2.931a.529.529 0 01-.527.527zm-29.329-4.248a1.209 1.209 0 01-2.107.681 1.218 1.218 0 01-.204-1.305 1.214 1.214 0 011.107-.718 1.283 1.283 0 011.204 1.342zm9.729-.228a1.213 1.213 0 01-.833 1.018 1.214 1.214 0 01-1.27-.346 1.213 1.213 0 01.244-1.821c.196-.127.425-.195.658-.195a1.281 1.281 0 011.201 1.344zm-9.091-4.712c.082.453-1.196.925-2.718 1.265-1.523.34-2.661.409-2.795-.032-.248-.83.94-1.41 2.46-1.75 1.52-.34 2.858-.498 3.053.517zm5.55-.68c-.087.454 1.388.989 3.137 1.408 1.749.419 3.058.527 3.2.102.264-.822-1.101-1.465-2.85-1.881-1.749-.417-3.295-.654-3.487.371zm-3.345 12.627h-.016c-.074 0-1.862-.069-2.776-1.489-.69-1.075.152-1.863.827-2.499.561-.527 1.14-1.07 1.251-1.844a.536.536 0 01.602-.453.532.532 0 01.452.603c-.161 1.136-.946 1.871-1.581 2.459-.79.74-.835.89-.661 1.159.606.941 1.907 1.004 1.918 1.004a.527.527 0 010 1.055l-.016.005zm2.28 4.206a8.153 8.153 0 01-2.067-.292.523.523 0 01-.409-.437.514.514 0 01.103-.399.514.514 0 01.359-.203.532.532 0 01.21.019c2.724.709 4.359.021 5.476-2.309a.527.527 0 11.951.459c-1.014 2.116-2.536 3.162-4.623 3.162z" fill="#0B1350"/><path opacity=".4" d="M509.492 373.234a2.813 2.813 0 000-3.977 2.807 2.807 0 00-3.974 0 2.813 2.813 0 000 3.977 2.809 2.809 0 003.974 0zm-19.021.298a2.812 2.812 0 01-2.813 2.814h-.085c-.21-1.823-.305-3.732-.347-5.598a2.814 2.814 0 013.245 2.784z" fill="#BF0830"/><g filter="url(#filter1_d_1_89390)"><path d="M176.586 533.312H52.561l4.658-53.003 2.734-31.223 24.676-1.146 90.724-4.191 1.233 89.563z" fill="#1A2578"/><path d="M113.607 533.968l-1.557-.271 5.927-34.019 18.267-7.562.603 1.46-17.461 7.23-5.779 33.162zm54.355-82.418L57.219 480.309l2.734-31.223 24.676-1.146 83.333 3.61z" fill="#0B1350"/><path d="M177.51 381.597l3.524 66.942a7.797 7.797 0 01-2.123 5.764 7.79 7.79 0 01-5.64 2.428l-110.8.034a7.773 7.773 0 01-7.2-4.833 7.787 7.787 0 01-.58-2.992l.22-37.261-7.969-73.347 2.674-10.884a44.056 44.056 0 0113.123-22.074 44.023 44.023 0 0123.196-11l45.891-6.76c0 .483 18.307 6.412 33.314 11.183a45.203 45.203 0 0127.547 24.602l7.903 17.658-23.08 40.54z" fill="#BF0830"/><path d="M87.057 339.8l-40.115-1.455-7.916 32.235 39.968 1.268 8.063-32.048z" fill="#BF0830"/><path opacity=".8" d="M174.559 358.123l-30.624 3.903c-2.37.301-4.717.654-7.08.899-3.011.311-9.125-.24-7.723-4.976.829-2.796 3.819-4.514 3.161-7.756-1.644-8.215-13.224-4.641-18.439-3.584l-30.25 6.119c-.527.106-.3.899.218.791l29.239-5.914c4.791-.97 12.312-3.88 16.568-.235 4.594 3.932-.46 6.779-1.364 10.669-.54 2.322.988 4.338 3.05 5.25 3.833 1.692 9.193 0 13.129-.506l30.115-3.837c.519-.066.525-.889 0-.823z" fill="#fff"/><path d="M186.032 404.709h-66.938v8.629h66.938v-8.629z" fill="#0B1350"/><path d="M160.276 413.067c-1.443 5.671-16.131 7.664-16.131 7.664-2.055 4.744-4.446 7.116-9.04 7.189-9.588 10.342-47.857 9.393-80.109 8.076a25.997 25.997 0 01-16.9-7.236 26.02 26.02 0 01-7.892-16.611 23.805 23.805 0 01-.095-2.129c.002-2.093.257-4.178.759-6.209l8.166-33.229c11.137.348 27.69.875 39.964 1.265l-6.722 26.703c49.943 2.045 117.239 3.289 54.621 9.857 3.709 5.904 16.985 4.607 33.379 4.66z" fill="#fff"/><path d="M136.276 421.687c-4.183 0-9.285-.369-13.434-1.797a.527.527 0 01.343-.996c8.213 2.822 20.775 1.331 20.901 1.318a.528.528 0 01.59.463.531.531 0 01-.463.591 70.63 70.63 0 01-7.937.421zm-9.117 7.732a41.488 41.488 0 01-7.937-.814.524.524 0 01-.386-.611.526.526 0 01.586-.422c5.719 1.104 10.661 1.054 15.542-.164a.525.525 0 01.553.194.524.524 0 01.101.392.542.542 0 01-.205.348.542.542 0 01-.186.089c-2.638.66-5.348.992-8.068.988z" fill="#0B1350"/><path d="M234.643 391.424a24.426 24.426 0 01-5.679 8.75 5.104 5.104 0 01-.411.421l-.864.833a24.94 24.94 0 01-24.94 5.703 24.736 24.736 0 01-4.446-1.918 25.013 25.013 0 01-7.702-6.621l-13.097-16.994 23.075-40.555 6.806 15.191c9.852-27.536 26.078-75.407 28.744-51.161 5.9-12.861 14.782-28.769 16.226-17.658 2.876-2.593 4.551-.263 5.489 5.008 0 .105.032.221.053.327 3.73-2.256 3.782 1.096 3.287 8.212 8.429-1.17-12.064 52.605-26.541 90.462z" fill="#fff"/><path d="M202.999 370.545a.586.586 0 01-.171-.026.526.526 0 01-.329-.67l9.132-26.882a.526.526 0 01.848-.226.526.526 0 01.151.566l-9.133 26.882a.52.52 0 01-.498.356zm39.161-59.737a.527.527 0 01-.48-.743l10.191-22.879a.54.54 0 01.29-.3.516.516 0 01.417.004.512.512 0 01.283.307.52.52 0 01-.028.416l-10.191 22.882a.533.533 0 01-.482.313zm6.144 2.636a.514.514 0 01-.221-.05.516.516 0 01-.278-.295.527.527 0 01.015-.406l9.667-20.77a.526.526 0 01.953.443l-9.664 20.773a.527.527 0 01-.472.305zm5.445 3.69a.527.527 0 01-.224-.05.523.523 0 01-.311-.499.544.544 0 01.048-.202l7.375-15.678a.539.539 0 01.298-.279.513.513 0 01.407.017.543.543 0 01.274.302.52.52 0 01-.025.408l-7.376 15.678a.519.519 0 01-.466.303zm-20.019 6.324a.522.522 0 01-.521-.458.527.527 0 01.384-.577c2.594-.704 4.117-4.246 3.859-6.99-.111-1.183-.685-2.266-1.291-3.413-.79-1.47-1.58-2.991-1.372-4.789a.53.53 0 111.053.124c-.174 1.471.527 2.783 1.257 4.172.629 1.186 1.277 2.415 1.409 3.809.303 3.226-1.486 7.253-4.631 8.104a.486.486 0 01-.147.018zM78.994 372.361a.533.533 0 01-.453-.257.521.521 0 01-.058-.399l8.063-32.048a.525.525 0 01.64-.385.518.518 0 01.325.24.535.535 0 01.06.4l-8.066 32.04a.531.531 0 01-.511.409zm99.858 33.062a.528.528 0 01-.526-.488l-5.005-67.206a.521.521 0 01.126-.384.528.528 0 01.927.305l5.005 67.206a.52.52 0 01-.125.384.536.536 0 01-.359.183h-.043zm-54.883-82.955a19.616 19.616 0 01-2.885-.216c-5.821-.865-10.749-4.217-12.267-8.363a.54.54 0 01.017-.403.526.526 0 01.974.04c1.364 3.726 6.058 6.886 11.432 7.685 6.654.993 12.907-1.668 17.153-7.295a.524.524 0 01.348-.205.524.524 0 01.596.449.527.527 0 01-.101.391c-3.869 5.126-9.319 7.917-15.267 7.917z" fill="#0B1350"/><path opacity=".4" d="M49.866 424.482a13.562 13.562 0 01-3.825 9.488 25.997 25.997 0 01-15.836-21.832 13.694 13.694 0 0119.661 12.344zm179.098-24.309c-.129.149-.266.29-.411.422l-.864.833a24.95 24.95 0 01-24.94 5.703 11.744 11.744 0 01-.105-1.623 13.698 13.698 0 0120.096-12.131 13.704 13.704 0 016.224 6.796z" fill="#DBDBDB"/><path d="M145.642 277.864l-3.798 13.178-2.4 8.304a13.474 13.474 0 01-3.024 5.398 13.479 13.479 0 01-17.098 2.309 14.055 14.055 0 01-5.845-16.517l5.453-15.813 16.724 1.963 9.988 1.178z" fill="#fff"/><path d="M145.665 277.957l-4.721 16.248c-10.536-2.372-16.481-13.895-16.481-13.895l11.205-3.537 9.997 1.184z" fill="#0B1350"/><path d="M150.196 243.455s9.746 31.065 2.449 38.231c-7.639 7.511-28.206-1.45-28.206-1.45l-10.365-29.552 15.075-9.427 21.047 2.198z" fill="#fff"/><path d="M121.957 266.795c.772-8.726.864-13.285 8.298-15.681 34.865 8.829 30.619-34.096 9.064-17.36-14.667-5.872-26.268-2.372-31.686 12.02-10.128 6.481-7.973 19.366 7.902 27.104l6.422-6.083z" fill="#0B1350"/><path d="M122.327 276.552c2.907-2.038 3.063-6.833.348-10.712-2.715-3.878-7.273-5.37-10.18-3.332-2.908 2.037-3.064 6.833-.348 10.711 2.715 3.878 7.272 5.371 10.18 3.333z" fill="#fff"/><path d="M118.56 271.12h-.063a.527.527 0 01-.461-.585 1.774 1.774 0 00-.617-1.671c-.737-.617-2.023-.791-3.195-.433a.514.514 0 01-.414-.024.52.52 0 01-.268-.317.52.52 0 01.044-.413.534.534 0 01.33-.252c1.525-.467 3.161-.222 4.18.63a2.836 2.836 0 01.986 2.603.532.532 0 01-.522.462zm31.056-10.689c.263.767.959 1.189 1.58.944.622-.245.93-1.054.683-1.845-.248-.791-.959-1.189-1.581-.943-.622.245-.93 1.077-.682 1.844zm-9.219 3.365c.25.767.958 1.189 1.58.944.622-.245.93-1.067.68-1.845-.251-.777-.956-1.189-1.581-.943-.624.245-.943 1.077-.679 1.844zm6.96-8.235c.074.498 1.436.511 2.982.3 1.546-.211 2.634-.561 2.618-1.054-.044-.949-1.356-1.11-2.897-.899-1.541.211-2.871.532-2.703 1.653zm-5.451 1.349c.234.435-.972 1.537-2.479 2.615-1.507 1.077-2.695 1.692-2.976 1.291-.527-.751.542-1.921 2.049-3.002 1.507-1.08 2.884-1.882 3.406-.904zm7.216 11.826a.553.553 0 01-.216-1.054s1.209-.543 1.468-1.763c.084-.401-.069-.551-1.015-1.004-.79-.377-1.778-.846-2.31-1.958a.56.56 0 01-.023-.422.551.551 0 011.016-.055c.367.759 1.091 1.104 1.794 1.439.843.403 1.897.904 1.618 2.229-.38 1.79-2.044 2.52-2.108 2.551a.568.568 0 01-.224.037zm-1.558 4.836a5.68 5.68 0 01-3.764-1.492.551.551 0 01.761-.79c1.199 1.141 3.554 1.671 4.686.614a.553.553 0 01.894.209.55.55 0 01-.14.597 3.512 3.512 0 01-2.437.862z" fill="#0B1350"/><path opacity=".4" d="M140.019 269.848a2.583 2.583 0 10-5.095-.828 2.583 2.583 0 005.095.828z" fill="#CECECE"/></g><path opacity=".3" d="M519.5 120.478c4.142 0 7.5-3.465 7.5-7.739S523.642 105 519.5 105c-4.142 0-7.5 3.465-7.5 7.739s3.358 7.739 7.5 7.739z" stroke="#FFDA32" stroke-width="5"/><path opacity=".3" d="M31.5 472.478c4.142 0 7.5-3.465 7.5-7.739S35.642 457 31.5 457c-4.142 0-7.5 3.465-7.5 7.739s3.358 7.739 7.5 7.739z" stroke="#74BBFB" stroke-width="5"/><path opacity=".2" d="M170.64 74.213c8.086 0 14.641-6.763 14.641-15.106 0-8.344-6.555-15.107-14.641-15.107-8.085 0-14.64 6.763-14.64 15.106 0 8.344 6.555 15.107 14.64 15.107z" stroke="#BF0830" stroke-width="10"/><defs><filter id="filter0_d_1_89390" x="105.461" y="135" width="340.014" height="276.961" filterUnits="userSpaceOnUse" color-interpolation-filters="sRGB"><feFlood flood-opacity="0" result="BackgroundImageFix"/><feColorMatrix in="SourceAlpha" values="0 0 0 0 0 0 0 0 0 0 0 0 0 0 0 0 0 0 127 0" result="hardAlpha"/><feOffset dy="4"/><feGaussianBlur stdDeviation="14"/><feComposite in2="hardAlpha" operator="out"/><feColorMatrix values="0 0 0 0 0 0 0 0 0 0 0 0 0 0 0 0 0 0 0.06 0"/><feBlend in2="BackgroundImageFix" result="effect1_dropShadow_1_89390"/><feBlend in="SourceGraphic" in2="effect1_dropShadow_1_89390" result="shape"/></filter><filter id="filter1_d_1_89390" x="7.109" y="208.842" width="279.043" height="350.127" filterUnits="userSpaceOnUse" color-interpolation-filters="sRGB"><feFlood flood-opacity="0" result="BackgroundImageFix"/><feColorMatrix in="SourceAlpha" values="0 0 0 0 0 0 0 0 0 0 0 0 0 0 0 0 0 0 127 0" result="hardAlpha"/><feOffset dy="2"/><feGaussianBlur stdDeviation="11.5"/><feComposite in2="hardAlpha" operator="out"/><feColorMatrix values="0 0 0 0 0 0 0 0 0 0 0 0 0 0 0 0 0 0 0.09 0"/><feBlend in2="BackgroundImageFix" result="effect1_dropShadow_1_89390"/><feBlend in="SourceGraphic" in2="effect1_dropShadow_1_89390" result="shape"/></filter></defs></svg>