<svg width="662" height="390" fill="none" xmlns="http://www.w3.org/2000/svg"><path opacity=".5" d="M408.834 529.128c114.078 0 206.555-95.39 206.555-213.06 0-117.671-92.477-213.061-206.555-213.061-114.077 0-206.555 95.39-206.555 213.061 0 117.67 92.478 213.06 206.555 213.06z" stroke="#fff" stroke-opacity=".6" stroke-width="88"/><path d="M477.473 239.106l-3.538 3.637c-13.842 14.341-28.351 29.092-46.91 36.366-18.559 7.273-42.552 4.763-54.651-11.115a41.628 41.628 0 01-7.485-17.312c-5.486-27.3 11.228-54.6 32.299-72.886 28.351-24.534 61.11-41.283 90.743-65.305 17.944-14.495 38.656-27.402 61.521-28.888 22.865-1.485 48.345 11.627 53.934 34.01 4.101 16.442-3.128 34.061-14.509 46.661-11.381 12.6-26.557 21-41.424 29.247-24.916 13.88-49.525 25.558-69.98 45.585zM114.24 367.051l-3.537 3.637c-13.843 14.341-28.351 29.093-46.91 36.366-18.559 7.273-42.552 4.763-54.651-11.115a41.62 41.62 0 01-7.485-17.312c-5.486-27.3 11.227-54.6 32.298-72.885 28.351-24.535 61.111-41.284 90.744-65.305 17.943-14.496 38.655-27.403 61.521-28.888 22.865-1.486 48.345 11.626 53.933 34.009 4.102 16.442-3.127 34.062-14.509 46.662-11.381 12.6-26.556 21-41.424 29.246-24.916 13.88-49.524 25.558-69.98 45.585z" fill="#D7DEF5"/><path opacity=".4" d="M346.677 276.149a9.177 9.177 0 00-2.71-12.693 9.179 9.179 0 102.71 12.693z" stroke="#74BBFB" stroke-width="4.5" stroke-miterlimit="10"/><path d="M249.564 234.931l-.103.191.103-.191z" fill="#000"/><path d="M194.807 19.292c37.239 0 67.408 13.992 67.408 31.261 0 10.229-9.934 17.24-18.111 21.313a87.657 87.657 0 01-19.778 6.804 142.118 142.118 0 01-28.338 3.425 47.832 47.832 0 01-11.513 27.379c-2.509 2.863-5.608 5.535-9.387 6.081a58.906 58.906 0 008.516-33.859 107.65 107.65 0 01-35.157-8.487c-9.092-4-21.033-11.35-21.033-22.685-.029-17.24 30.139-31.232 67.393-31.232z" fill="#1A2578" stroke="#000" stroke-width=".5" stroke-miterlimit="10"/><path d="M241.477 48.103a10.952 10.952 0 01-21.859-.265c-.192-2.11.413-4.576 2.273-5.417a3.94 3.94 0 014.885 2.48 8.293 8.293 0 01-.413 6.14 14.762 14.762 0 01-14.863 9.033 15.154 15.154 0 01-12.634-12.177c-.399-2.155-.163-4.753 1.564-5.993 2.155-1.476 5.373.28 6.125 2.952a9.192 9.192 0 01-1.918 7.602 16.624 16.624 0 01-14.155 6.568 14.759 14.759 0 01-7.527-2.126c-2.952-2.125-5.904-8.856-3.543-12.354a2.404 2.404 0 011.963-1.166 2.508 2.508 0 011.476.664c.506.51.903 1.117 1.169 1.784.267.667.396 1.38.381 2.098a13.503 13.503 0 01-3.483 8.413 12.607 12.607 0 01-14.391 3.159 15.442 15.442 0 01-8.62-12.708c-.177-2.037.65-4.753 2.613-4.65 1.476.074 2.302 1.713 2.612 3.189a13.68 13.68 0 01-3.321 12.044 12.292 12.292 0 01-11.512 3.498" stroke="#FFF8F8" stroke-width=".5" stroke-miterlimit="10"/><path d="M266.228 170.504c.262-.152.554-.248.856-.28l.826-.148 44.678-13.106-36.117 20.796c-.517.354-1.033.753-1.476 1.137a.18.18 0 000 .103.441.441 0 000 .162.697.697 0 00.088.133c.074.089.104.162.207.28a27.27 27.27 0 012.421 2.642l.073.178 16.62 18.582 1.284-2.317 27.055-48.929-67.526 12.694 10.332 8.324.531-.162s.103-.074.148-.089z" fill="#BF0830"/><path d="M266.211 173.678l-.162-.62.428 2.169c-.059-.531-.162-1.033-.266-1.549zm-.559-2.922l.192.959v-.088l-.192-.871z" fill="#9DD1C9"/><path d="M296.973 317.792a12.021 12.021 0 01-9.018 4.516c-8.753-.103-11.912-9.638-10.067-17.092-12.796-2.538-24.663 3.72-34.316 12.015a292.278 292.278 0 00-11.498 10.405h69.002a33.074 33.074 0 00-4.103-9.844zM202.7 378.807c0 2.155-.133 4.324-.251 6.479 1.727.768 3.439 1.55 5.122 2.406h7.985l7.734-51.142a141.857 141.857 0 00-20.664 27.866v9.919c.089 1.49.104 2.981.074 4.472z" fill="#1A2578"/><path d="M287.954 322.308a12.027 12.027 0 009.018-4.517 27.882 27.882 0 00-14.848-11.453 28.852 28.852 0 00-4.236-1.122c-1.904 7.453 1.313 16.988 10.066 17.092z" fill="#222221"/><path d="M151.735 259.226a.601.601 0 01.118-.148c.28-.295.531-.62.797-.93h-1.476c.192.355.384.709.605 1.048l-.044.03zm-7.896 124.452c-4.516-.576-9.047-1.166-13.549-1.919a111.936 111.936 0 01-16.147-3.749 45.267 45.267 0 01-6.923-2.79c-3.542-7.04-6.907-14.198-10.331-21.342v.649a774.677 774.677 0 007.232 15.365 426.088 426.088 0 006.73 13.476c1.639 3.055 3.366 6.081 5.225 9.033h59.659a26.65 26.65 0 01-3.099-1.594c-8.738-5.255-18.878-5.875-28.797-7.129zm-45.415-37.872a71.218 71.218 0 00-1.387 7.025 13.78 13.78 0 012.686-3.778c6.495-6.45 19.896-3.129 27.572-.413a77.814 77.814 0 018.324 3.542l.295.148c5.107 2.553 10.022 5.535 14.908 8.531l18.493 11.335a64.383 64.383 0 009.683 5.196 90.187 90.187 0 009.239 2.819c2.273.649 4.428 1.387 6.731 2.169a113.04 113.04 0 017.483 2.952c.118-2.155.207-4.324.251-6.479v-17.476c-.192-11.409-.517-22.818.148-34.213.811-8.088 1.062-16.339 1.151-24.457 11.896-.516 24.014-2.863 35.94-4.324 10.332-1.255 20.486-2.081 27.704-10.509a14.875 14.875 0 002.11-3.041c.284-.559.53-1.135.738-1.727a29.855 29.855 0 01-1.033 1.757 19.652 19.652 0 01-3.645 4.531c-8.428 7.306-17.712-4.28-19.35-12.059a31.507 31.507 0 01-.502-8.619c.18-2.479.515-4.944 1.003-7.38-15.94-.089-31.822-.635-47.747-1.269-6.007-.237-10.834-.222-15.897-.65l.916.236.915.177a13.136 13.136 0 01-2.244 7.469 10.83 10.83 0 01-2.553 2.686 19.437 19.437 0 01-12.133 2.952 30.997 30.997 0 01-11.808-2.952 28.37 28.37 0 01-5.047-3.055 17.834 17.834 0 01-4.281-4.841c-.59-.901-1.121-1.845-1.668-2.819a43 43 0 00-8.531 2.951 50.51 50.51 0 00-16.029 12.384 42.345 42.345 0 00-6.258 9.741 100.338 100.338 0 00-6.538 20.457l-9.639 41.003z" fill="#1A2578"/><path d="M278.197 176.422l.502-.31h-.147c-.11.113-.228.217-.355.31z" fill="#fff"/><g filter="url(#filter0_d_187_5651)"><path d="M246.46 277.248c1.668 7.778 10.922 19.364 19.35 12.058a19.656 19.656 0 003.646-4.531c.369-.576.708-1.166 1.033-1.756 5.992-10.745 5.904-23.188 5.535-35.306 0-1.298-.089-2.597-.148-3.911-.354-7.66-1.122-15.306-2.184-22.907a131.855 131.855 0 01-1.476-21.461c-.005-.54.049-1.08.162-1.609a8.22 8.22 0 011.314-2.42 26.766 26.766 0 003.35-6.568c.546-1.624 1.565-4.723.753-6.435l-.074-.178a27.143 27.143 0 00-2.421-2.642c-.103-.118-.132-.191-.206-.28a.702.702 0 01-.089-.133v.089l.148.236c.182.261.35.532.502.812 0 .472-.738 1.254-1.299 1.8l-.472.487-1.122 1.24a12.695 12.695 0 01-1.963 1.83l-.251.148a4.9 4.9 0 01-1.078.546l-.575.133a36.875 36.875 0 01-1.019-4.856 351.9 351.9 0 01-.811-3.852v-.222c-.163-.811-.34-1.623-.502-2.435a9.089 9.089 0 00-1.727 1.476 25.959 25.959 0 00-5.904 18.199c.175 8.48-.618 16.953-2.362 25.254-1.845 9.49-4.428 18.804-6.612 28.22-.945 4.03-2.14 8.399-2.952 12.841a59.759 59.759 0 00-1.004 7.38 31.569 31.569 0 00.458 8.753z" fill="#fff"/></g><path d="M116.09 392.4c-1.86-2.952-3.587-5.977-5.225-9.033-2.362-4.427-4.561-8.929-6.73-13.475-2.436-5.107-4.886-10.229-7.233-15.365v-.65l-.206-.413c.088-.221.206-.428.295-.634a71.18 71.18 0 011.387-7.026l9.653-40.958a100.363 100.363 0 016.539-20.457 35.793 35.793 0 00-7.38 1.579c-11.646 3.926-19.852 13.992-24.53 25.608a63.145 63.145 0 00-2.215 6.48v.192a66.52 66.52 0 00-.738 2.951c-.03.155-.07.308-.118.458a87.603 87.603 0 00-.65 3.321c-3.483 20.885-2.228 45.548 2.672 67.437h34.435l.044-.015z" fill="#BF0830"/><path d="M197.859 391.059v-1.594a2.024 2.024 0 012.214-1.771h7.498c-1.683-.856-3.395-1.639-5.122-2.406a112.492 112.492 0 00-7.483-2.952 156.571 156.571 0 00-6.73-2.17 90.204 90.204 0 01-9.24-2.819 64.229 64.229 0 01-9.682-5.195l-18.494-11.291c-4.886-2.952-9.801-5.978-14.907-8.531l-.296-.148a77.728 77.728 0 00-8.324-3.542c-7.675-2.716-21.077-6.037-27.571.413a13.764 13.764 0 00-2.687 3.778c-.088.207-.206.414-.295.635l.207.413c3.365 7.144 6.73 14.302 10.332 21.343a45.15 45.15 0 006.922 2.789 111.671 111.671 0 0016.147 3.749c4.428.753 9.033 1.344 13.55 1.919 9.918 1.255 20.058 1.875 28.811 7.129a26.65 26.65 0 003.099 1.594h22.833a1.649 1.649 0 01-.782-1.343z" fill="#fff"/><path d="M293.502 391.546h-78.536l.516-3.439.074-.413h-15.483a2.022 2.022 0 00-2.214 1.771v1.594a1.66 1.66 0 00.783 1.343l.118.074c.397.236.851.359 1.313.355h119.894v-2.2l-.133.915h-26.332z" fill="#000"/><g filter="url(#filter1_d_187_5651)"><path d="M215.466 388.107l-.517 3.439h104.868l.133-.915 8.856-58.212a4.085 4.085 0 00-.889-3.311 4.081 4.081 0 00-3.096-1.471h-96.573a4.265 4.265 0 00-4.163 3.66l-.797 5.255-7.734 51.142-.088.413z" fill="#fff"/></g><path d="M151.736 259.225c3.1 4.693 9.86 7.571 15.114 8.147 3.276.527 6.634.038 9.624-1.402a8.007 8.007 0 004.014-6.878v-.487c.141-1.81.423-3.606.842-5.373l-8.856-6.081h.265l.606.133c3.082.662 6.262.737 9.372.221a69.287 69.287 0 00-1.004 3.897c.148-.546.694-2.125 1.211-3.734a13.421 13.421 0 005.033-4.723 29.42 29.42 0 003.586-9.801c.974-4.546 1.284-15.645-.177-21.593-.351.207-.722.38-1.107.516-5.299 1.978-11.601-1.387-16.737.96-5.137 2.347-4.856 7.055-7.218 11.07a5.537 5.537 0 01-.989 1.18 6.954 6.954 0 00-7.512-2.671 5.3 5.3 0 00-.635.221c-4.31 1.801-5.786 8.767-2.76 12.266a6.506 6.506 0 002.686 1.8l.31.118c.84.258 1.723.348 2.598.266v.236c0 .856 0 1.889-.65 2.362a1.885 1.885 0 01-1.21.236 5.711 5.711 0 01-.723-.133v4.428c0 .62 0 1.255-.133 1.874v.576c0 .472-.118.959-.192 1.476l-.133.679c-.088.472-.206.945-.324 1.476l-.178.635a18.58 18.58 0 01-.723 2.036 23.508 23.508 0 01-1.638 3.218 21.134 21.134 0 01-1.343 1.845c-.266.31-.517.635-.797.93a.567.567 0 00-.222.074z" fill="#fff"/><path d="M159.38 239.918c.708-.472.679-1.476.649-2.361v-.236a6.73 6.73 0 01-2.597-.266l-.31-.118a6.512 6.512 0 01-2.687-1.801c-3.025-3.498-1.549-10.464 2.761-12.265.206-.087.418-.161.634-.222a6.955 6.955 0 017.513 2.672c.383-.346.716-.743.989-1.181 2.361-4.014 2.243-8.782 7.217-11.07 4.974-2.287 11.439 1.019 16.738-.959a6.297 6.297 0 001.107-.517 9.005 9.005 0 004.605-7.778 14.903 14.903 0 00-1.373-5.432 12.331 12.331 0 00-3.778-5.505c-2.495-1.83-5.904-1.86-8.856-1.328a57.346 57.346 0 01-9.122 1.623c-3.926 0-7.852-1.476-11.704-.738a10.538 10.538 0 00-7.97 6.923c-1.078 3.262-1.181 6.435-3.203 9.357-2.022 2.923-4.162 5.55-4.222 9.506 0 3.217 2.347 6.213 3.543 9.077 1.063 2.553 1.476 5.343 2.745 7.837a8.481 8.481 0 005.402 4.886c.238.059.48.104.723.133.414.055.834-.028 1.196-.237z" fill="#000"/><path d="M173.371 247.329l-.605-.133h-.266l8.856 6.081c.088-.472.177-.944.28-1.476a2.41 2.41 0 00.074-.324 68.221 68.221 0 011.004-3.897 25.098 25.098 0 01-9.343-.251z" fill="#222221"/><path d="M266.536 175.198c.162.812.339 1.624.501 2.436v.221c.266 1.284.532 2.568.812 3.852.23 1.64.571 3.262 1.019 4.856l.575-.132a4.97 4.97 0 001.078-.547l.251-.147a12.886 12.886 0 001.963-1.83l1.121-1.24.473-.487c.561-.546 1.299-1.329 1.299-1.801a8.562 8.562 0 00-.502-.812l-.148-.236v-.088a.447.447 0 010-.163.18.18 0 010-.103 83.718 83.718 0 011.476-1.137l36.117-20.796-44.678 13.107-.826.147a2.163 2.163 0 00-.856.281l-.103.088-.532.163.177.87v.089c.045.455.134.905.266 1.343l.162.62c.133.443.236.945.355 1.446zm11.66 1.225c.129-.111.248-.235.354-.369h.148l-.502.369zM151.38 266.958a28.378 28.378 0 005.048 3.055 30.988 30.988 0 0011.808 2.952c4.258.377 8.523-.66 12.132-2.952a10.817 10.817 0 002.554-2.686 13.142 13.142 0 002.243-7.468l-.915-.177-.915-.236a29.421 29.421 0 01-2.465-.694l-.295-.089v.487a7.997 7.997 0 01-4.015 6.878 16.24 16.24 0 01-9.623 1.403c-5.255-.576-12.015-3.454-15.114-8.148-.222-.339-.413-.694-.605-1.048 0-.118-.133-.236-.192-.369a37.64 37.64 0 01-5.491 1.476c.546.974 1.078 1.919 1.668 2.819a17.811 17.811 0 004.177 4.797zm-1.255-6.169zm1.166-1.019l-.369.354.369-.354z" fill="#000"/><path d="M160.369 226.614a4.078 4.078 0 00-2.777 1.566 4.08 4.08 0 00-.809 3.084" fill="#fff"/><path d="M160.369 226.614a4.078 4.078 0 00-2.777 1.566 4.08 4.08 0 00-.809 3.084" stroke="#222221" stroke-width=".5" stroke-miterlimit="10"/><path opacity=".4" d="M641.506 366.427a7.922 7.922 0 00-2.339-10.957 7.922 7.922 0 00-10.957 2.339 7.922 7.922 0 002.339 10.957 7.922 7.922 0 0010.957-2.339z" stroke="#FFDA32" stroke-width="4.5" stroke-miterlimit="10"/><g filter="url(#filter2_d_187_5651)"><path d="M390.848 96.001c.027-1.094.119-2.186.274-3.269v-.383a42.71 42.71 0 01.566-3.05l.109-.548c.219-.986.475-1.972.749-2.94l.164-.566c.274-.986.567-1.972.877-2.94 0-.22.128-.42.201-.64.347-1.113.712-2.227 1.059-3.36.201-.602.384-1.223.584-1.826.201-.602.42-1.424.621-2.136.11-.366.238-.73.329-1.114.091-.384.402-1.297.584-1.936.111-.379.202-.763.274-1.15a8.181 8.181 0 01.913-3.288 5.84 5.84 0 00.567-.968 1.138 1.138 0 000-1.077 1.577 1.577 0 00-1.681-.347c-.25.072-.494.164-.73.274a5.099 5.099 0 00-1.571 1.278 8.79 8.79 0 00-.693.932 17.43 17.43 0 01-2.941 4.273 4.909 4.909 0 01-2.063.968 8.875 8.875 0 01-.201-.968H371.29c-.567 7.615-1.589 15.504-2.941 23.52-.091.53-.164 1.042-.255 1.553a205.068 205.068 0 0022.955 1.078c-.201-.42-.201-.895-.201-1.37z" fill="#fff"/></g><path d="M390.958 71.257h.11a17.4 17.4 0 002.94-4.273c.329-.713.639-1.407.949-2.027a1.339 1.339 0 011.315-.183c.236-.11.48-.202.731-.274a1.568 1.568 0 011.68.347 1.138 1.138 0 010 1.077c-.157.34-.347.665-.566.968a8.181 8.181 0 00-.913 3.287c-.072.388-.164.772-.274 1.15h40.011V.11s-52.484 32.25-56.611 35.629L323.719.109v71.22h67.148l.091-.072z" fill="#3442AC"/><path d="M437.033 0H323.811l56.611 35.629C384.549 32.25 437.033 0 437.033 0z" fill="#010209"/><path d="M394.955 64.884c-.31.62-.62 1.315-.949 2.027.21-.326.442-.637.694-.931a5.093 5.093 0 011.57-1.279 1.33 1.33 0 00-1.315.183z" fill="#1A2578"/><path d="M523.902 153.106a30.935 30.935 0 000 3.525 35.291 35.291 0 01.438-5.716c.092-.658.201-1.333.292-1.991.092-.657.201-1.57.311-2.356-.11.566-.238 1.333-.365 2.137-.42 1.899-.658 4.072-.676 4.401z" fill="#fff"/><path d="M498.026 183.804c5.058 5.205 13.842 8.072 20.179 3.415a18.994 18.994 0 006.903-12.783c-.11-3.871-.603-7.725-.932-11.56 0 0-8.82-1.369-14.609-2.684a24.721 24.721 0 003.506-1.187 20.362 20.362 0 0011.797-13.404h.165c0-.402.109-.804.146-1.205.036-.402.164-.475.219-.731.183-.858.329-1.717.493-2.575a6.915 6.915 0 005.977-6.388 6.92 6.92 0 00-.498-3.09 4.97 4.97 0 00-.804-1.497 6.24 6.24 0 00-2.922-2.027 6.08 6.08 0 00-2.556-.365 6.526 6.526 0 00-4.529 2.502 14.367 14.367 0 010-1.553c.109-1.826.237-3.652.347-5.478a9.329 9.329 0 00-.201-3.415 6.306 6.306 0 00-3.963-3.799 18.268 18.268 0 00-5.606-.876 94.113 94.113 0 01-17.842-1.826 24.562 24.562 0 01-2.502-.767 20.548 20.548 0 00-3.396 8.674c-.512 2.849-.347 7.743-1.827 10.464a37.97 37.97 0 00-.219 4.291c0 1.534.092 6.538.311 8.072.986 6.848 3.78 12.089 8.619 14.81v.639c-.402 4.73-.822 9.478-1.223 14.208 0 .347 0 .712-.092 1.077a18.243 18.243 0 001.827 4.475 18.432 18.432 0 003.232 4.583z" fill="#fff"/><path d="M513.039 158.949a24.848 24.848 0 01-3.506 1.187c5.826 1.315 14.61 2.684 14.61 2.684 0-1.57-.256-3.981-.329-6.172a30.935 30.935 0 010-3.525c0-.328.329-2.502.621-4.401.128-.803.255-1.57.365-2.136a2.89 2.89 0 01.237-.932h-.292a20.36 20.36 0 01-11.706 13.295zm-22.207-46.476c.82.299 1.655.555 2.502.767a94.103 94.103 0 0017.841 1.826 18.274 18.274 0 015.607.876 6.294 6.294 0 013.962 3.799 9.285 9.285 0 01.201 3.415c-.109 1.826-.237 3.652-.347 5.478a14.879 14.879 0 000 1.552 6.537 6.537 0 014.529-2.501 6.067 6.067 0 012.557.365 6.24 6.24 0 012.922 2.027c.352.449.623.956.803 1.497.245-.68.447-1.375.603-2.081a93.337 93.337 0 001.643-10.081 26.902 26.902 0 00-.529-10.738 18.442 18.442 0 00-9.642-10.774 29.224 29.224 0 00-11.304-2.064l-13.806-.84a18.462 18.462 0 00-7.725.73 7.138 7.138 0 00-2.538 1.7 11.966 11.966 0 00-1.826 11.084c-2.411 3.853-2.046 9.825-1.826 14.116a72.34 72.34 0 00.456 8.656c.033.337.126.664.274.968.161-.211.302-.438.42-.676 1.516-2.721 1.351-7.615 1.826-10.464a20.54 20.54 0 013.397-8.637z" fill="#161111"/><path d="M552.772 404.312c1.26 22.535 1.826 45.106 2.483 67.568a5141.282 5141.282 0 012.192 139.629v34.916c0 5.661-.001 11.34-.092 17.002v3.488c3.653-.494 9.752-1.553 9.843-2.575 3.269-36.195 3.141-65.286 3.89-103.306.566-28.58-2.283-63.697-1.497-91.729.84-30.15 1.46-59.277-3.306-89.244a182.607 182.607 0 00-4.565-19.832c-3.269.273-8.455.566-14.482.876 3.561 14.153 4.73 29.018 5.534 43.207zm-.492 263.187c0-1.918.092-3.854.092-5.771 0-6.319 0-12.655.109-18.974v-39.208a5419.883 5419.883 0 00-2.228-137.838c-.639-22.371-1.15-44.76-2.501-67.094a266.735 266.735 0 00-4.895-37.217c-17.951.84-40.54 1.571-43.827 1.479a283.554 283.554 0 01-34.077-2.812 239.993 239.993 0 01-16.234-3.013c-1.936-.439-3.89-1.187-5.844-1.826-2.958 13.897-4.255 28.104-6.172 43.207a9131.901 9131.901 0 01-12.035 91.016 9277.902 9277.902 0 01-25.365 172.609c2.721.657 5.478 1.241 8.181 1.826 3.311.621 6.635 1.126 9.971 1.516 7.277.791 14.608.962 21.914.511 3.342-.183 6.684-.457 10.007-.858a5765.037 5765.037 0 0133.218-156.265c3.89-17.148 7.305-34.022 10.957-50.603-.201.347-.42.566-.657.548v-4.895c.219-2.282.493-4.565.767-6.848.675-5.478.913-11.157 1.607-16.709a330.423 330.423 0 012.355-15.869c.402-2.247.786-4.493 1.096-6.739 0-.256.091-.53.128-.785.128 3.104.164 6.428.201 9.752 0 5.697 0 11.395.383 16.07 4.146 40.285 7.725 80.643 10.227 121.074a2634.408 2634.408 0 012.922 61.871c.548 17.111 3.743 35.701 3.049 52.466 2.827.481 5.682.774 8.547.876a237.52 237.52 0 0028.104-1.497z" fill="#1A2578"/><path d="M557.434 646.517V611.6c0-23.265-.207-46.536-.621-69.814a6656.266 6656.266 0 00-1.607-69.814c-.657-22.553-1.223-45.125-2.483-67.568-.804-14.189-1.973-29.054-5.479-43.116l-4.383.201a266.584 266.584 0 014.894 37.217c1.352 22.334 1.827 44.723 2.502 67.093a5529.812 5529.812 0 012.228 137.839v39.208c0 6.319 0 12.655-.109 18.974 0 1.917 0 3.853-.092 5.771l1.936-.146h.731c.346 0 1.241-.128 2.392-.293v-3.488c.055-5.807.073-11.413.091-17.147z" fill="#000"/><g filter="url(#filter3_d_187_5651)"><path d="M568.608 298.652h-1.644a23.574 23.574 0 01-4.73-.73c-.347-.11-.657-.256-.968-.384l.165 4.876c-.84.292-1.717.548-2.593.785-6.1 1.553-12.656 1.571-18.938 2.21a3.669 3.669 0 00-1.355.46 3.668 3.668 0 00-1.073.946 2.132 2.132 0 00-.311 2.155c0 .219.676 1.589 1.041 1.297a3.648 3.648 0 00-1.498 3.049 2.412 2.412 0 002.283 2.246 1.226 1.226 0 00-.146 1.48c.285.456.698.818 1.187 1.041a9.347 9.347 0 003.872 1.168c-2.064 0-.238 2.74.547 3.214a16.112 16.112 0 006.264 1.242c3.842.357 7.715.172 11.505-.548.767-.146 1.534-.274 2.283-.456 6.994-1.717 13.422-5.223 20.343-7.177a41.72 41.72 0 012.502-.639 95.047 95.047 0 00-3.652-17.769 74.213 74.213 0 01-15.084 1.534z" fill="#fff"/></g><path d="M656.539 273.925a10.707 10.707 0 01-5.228-3.508 10.708 10.708 0 01-2.35-5.842c-.785-9.003 5.478-13.349 11.833-13.86-6.647-34.698-40.997-58.438-73.612-68.81-18.901-6.027-38.861-8.072-58.712-8.693a6.82 6.82 0 01-3.25-1.041 18.04 18.04 0 01-.11 2.192 18.99 18.99 0 01-6.903 12.783c-6.336 4.657-15.12 1.826-20.179-3.415a18.485 18.485 0 01-3.323-4.62 18.21 18.21 0 01-1.826-4.474 6.944 6.944 0 01-.147-.859c-18.791 5.132-41.399 5.479-60.738 4.493-9.277-.493-22.279-1.607-28.287-8.693-12.546-14.81-8.346-54.675-6.611-72.353-2.155 0-4.2 0-6.209.11a205.34 205.34 0 01-22.955-1.077 294.79 294.79 0 01-5.643-.621h-.693c-4.31 26.077-8.876 61.395-6.063 87.656.146 1.406.383 2.757.657 4.09a12.501 12.501 0 019.277-2.538 12.344 12.344 0 0110.172 9.368 11.377 11.377 0 01-5.917 12.308c-.794.382-1.626.675-2.484.877 19.869 20.088 59.899 25 83.84 21.768a101.707 101.707 0 01-1.151 19.12c-.749 6.264-1.954 12.473-2.739 18.736a6241.657 6241.657 0 01-4.675 36.524 3899.179 3899.179 0 01-6.903 50c2.504.078 4.976.591 7.305 1.516 1.954.657 3.908 1.406 5.843 1.826 5.369 1.205 10.793 2.191 16.235 3.013a283.693 283.693 0 0034.058 2.867c3.287.091 25.877-.639 43.828-1.479l4.383-.201c6.026-.31 11.212-.603 14.481-.877a12.35 12.35 0 003.78-.547 195.542 195.542 0 01-2.757-21.513l-.548-15.066c-3.79.721-7.663.905-11.505.548a16.111 16.111 0 01-6.264-1.241c-.785-.475-2.611-3.178-.547-3.214a9.363 9.363 0 01-3.872-1.169 2.741 2.741 0 01-1.187-1.041 1.223 1.223 0 01.146-1.479 2.413 2.413 0 01-2.283-2.247 3.652 3.652 0 011.498-3.049c-.365.292-.968-1.078-1.041-1.297a2.145 2.145 0 01.31-2.155 3.666 3.666 0 012.429-1.406c6.282-.639 12.783-.657 18.938-2.209.876-.238 1.826-.494 2.593-.786l-.165-4.876c-.109-2.666-.2-5.332-.31-7.998-.804-21.914 3.451-43.28 5.004-64.939l.347.092c11.395 2.812 24.488 7.03 32.871 12.18a34.39 34.39 0 013.177 2.192c8.346 6.574 14.335 17.403 11.669 27.684-1.826 6.812-6.976 12.327-13.039 15.906a74.872 74.872 0 01-19.74 7.305c.931 2.356 1.826 4.748 2.483 7.177a94.943 94.943 0 013.653 17.768c.292 2.831.456 5.698.493 8.565 0 1.096 28.871-6.83 31.391-7.816a85.975 85.975 0 0024.087-14.938 51.293 51.293 0 0016.746-26.406 9.77 9.77 0 01-3.561-.311zm-114.938-23.74a22.8 22.8 0 01-2.703 7.926 10.129 10.129 0 01-6.574 4.821c-10.172 1.716-15.139-8.401-15.413-16.637 0-3.013-.256-6.957 0-9.989 0-.292 23.74.11 26.132 0-.621 4.639-.621 9.295-1.442 13.916v-.037z" fill="#BF0830"/><path d="M661.12 252.138l-.274-1.424c-6.428.511-12.618 4.857-11.833 13.86a10.7 10.7 0 007.578 9.35 9.756 9.756 0 003.561.238 52.474 52.474 0 00.968-22.024zm-285.464-57.889a12.348 12.348 0 00-10.172-9.368 12.487 12.487 0 00-9.277 2.538 39.778 39.778 0 0011.048 20.088c.857-.202 1.69-.496 2.484-.877a11.375 11.375 0 005.917-12.381zm141.196 42.094c-.164 3.031 0 6.976 0 9.989.274 8.236 5.241 18.353 15.413 16.636a10.105 10.105 0 006.574-4.821 22.787 22.787 0 002.703-7.925c.858-4.62.822-9.277 1.351-13.916-2.301.146-26.041-.255-26.041.037z" fill="#161111"/><path opacity=".2" d="M535.712 50.979c6.297 0 11.403-5.406 11.403-12.074s-5.106-12.074-11.403-12.074c-6.298 0-11.403 5.406-11.403 12.074s5.105 12.074 11.403 12.074z" stroke="#BF0830" stroke-width="5"/><defs><filter id="filter0_d_187_5651" x="219.883" y="153.125" width="84.215" height="168.502" filterUnits="userSpaceOnUse" color-interpolation-filters="sRGB"><feFlood flood-opacity="0" result="BackgroundImageFix"/><feColorMatrix in="SourceAlpha" values="0 0 0 0 0 0 0 0 0 0 0 0 0 0 0 0 0 0 127 0" result="hardAlpha"/><feOffset dy="4"/><feGaussianBlur stdDeviation="13"/><feComposite in2="hardAlpha" operator="out"/><feColorMatrix values="0 0 0 0 0 0 0 0 0 0 0 0 0 0 0 0 0 0 0.19 0"/><feBlend in2="BackgroundImageFix" result="effect1_dropShadow_187_5651"/><feBlend in="SourceGraphic" in2="effect1_dropShadow_187_5651" result="shape"/></filter><filter id="filter1_d_187_5651" x="188.949" y="305.637" width="165.916" height="115.91" filterUnits="userSpaceOnUse" color-interpolation-filters="sRGB"><feFlood flood-opacity="0" result="BackgroundImageFix"/><feColorMatrix in="SourceAlpha" values="0 0 0 0 0 0 0 0 0 0 0 0 0 0 0 0 0 0 127 0" result="hardAlpha"/><feOffset dy="4"/><feGaussianBlur stdDeviation="13"/><feComposite in2="hardAlpha" operator="out"/><feColorMatrix values="0 0 0 0 0 0 0 0 0 0 0 0 0 0 0 0 0 0 0.19 0"/><feBlend in2="BackgroundImageFix" result="effect1_dropShadow_187_5651"/><feBlend in="SourceGraphic" in2="effect1_dropShadow_187_5651" result="shape"/></filter><filter id="filter2_d_187_5651" x="356.094" y="56.355" width="54.761" height="57.025" filterUnits="userSpaceOnUse" color-interpolation-filters="sRGB"><feFlood flood-opacity="0" result="BackgroundImageFix"/><feColorMatrix in="SourceAlpha" values="0 0 0 0 0 0 0 0 0 0 0 0 0 0 0 0 0 0 127 0" result="hardAlpha"/><feOffset dy="4"/><feGaussianBlur stdDeviation="6"/><feComposite in2="hardAlpha" operator="out"/><feColorMatrix values="0 0 0 0 0 0 0 0 0 0 0 0 0 0 0 0 0 0 0.25 0"/><feBlend in2="BackgroundImageFix" result="effect1_dropShadow_187_5651"/><feBlend in="SourceGraphic" in2="effect1_dropShadow_187_5651" result="shape"/></filter><filter id="filter3_d_187_5651" x="510.703" y="275.118" width="102.641" height="78.766" filterUnits="userSpaceOnUse" color-interpolation-filters="sRGB"><feFlood flood-opacity="0" result="BackgroundImageFix"/><feColorMatrix in="SourceAlpha" values="0 0 0 0 0 0 0 0 0 0 0 0 0 0 0 0 0 0 127 0" result="hardAlpha"/><feOffset dy="4"/><feGaussianBlur stdDeviation="13"/><feComposite in2="hardAlpha" operator="out"/><feColorMatrix values="0 0 0 0 0 0 0 0 0 0 0 0 0 0 0 0 0 0 0.19 0"/><feBlend in2="BackgroundImageFix" result="effect1_dropShadow_187_5651"/><feBlend in="SourceGraphic" in2="effect1_dropShadow_187_5651" result="shape"/></filter></defs></svg>