<svg width="44" height="44" fill="none" xmlns="http://www.w3.org/2000/svg"><path d="M2.61 31.635v8.12h11.36v-8.12L8.29 28.52l-5.68 3.115z" stroke="#1A2578" stroke-width="1.5" stroke-linecap="round" stroke-linejoin="round"/><path d="M10.381 33.427h-3.96v6.327h3.96v-6.327z" stroke="#1A2578" stroke-width="1.5" stroke-linecap="round" stroke-linejoin="round"/><path d="M21.486 31.875a9.588 9.588 0 100-19.175 9.588 9.588 0 100 19.175z" stroke="#BF0830" stroke-width="1.5" stroke-linecap="round" stroke-linejoin="round"/><path d="M15.316 24.163l3.777 3.774 8.754-8.755-1.968-1.968-6.831 6.83-1.792-1.792-1.94 1.91z" stroke="#BF0830" stroke-width="1.5" stroke-linecap="round" stroke-linejoin="round"/><path d="M40.42 3.487h-11.2v10.98h11.2V3.486z" stroke="#1A2578" stroke-width="1.5" stroke-linecap="round" stroke-linejoin="round"/><path d="M36.913 9.813h-4.186v4.653h4.186V9.813zM4.748 22A16.74 16.74 0 0120.153 5.312" stroke="#1A2578" stroke-width="1.5" stroke-linecap="round" stroke-linejoin="round"/><path d="M16.8 10.975l-.953-.781 3.85-4.69-4.96-3.498L15.448 1l6.04 4.261-4.688 5.714z" fill="#1A2578"/><path d="M38.228 22a16.74 16.74 0 01-15.405 16.688" stroke="#1A2578" stroke-width="1.5" stroke-linecap="round" stroke-linejoin="round"/><path d="M26.176 33.025l.953.78-3.85 4.692 4.96 3.497L27.526 43l-6.04-4.261 4.689-5.714z" fill="#1A2578"/></svg>