<svg width="22" height="23" fill="none" xmlns="http://www.w3.org/2000/svg"><path d="M11 12.875A3.438 3.438 0 1111 6a3.438 3.438 0 010 6.875zm0-5.5a2.063 2.063 0 100 4.125 2.063 2.063 0 000-4.125z" fill="#8F90A6"/><path d="M11 21.125l-5.8-6.84-.239-.31a7.486 7.486 0 01-1.523-4.537 7.562 7.562 0 1115.125 0 7.482 7.482 0 01-1.523 4.535l-.001.002s-.206.27-.237.307L11 21.125zm-4.942-7.978c.002 0 .161.211.198.257L11 18.999l4.75-5.603c.03-.038.192-.25.192-.252a6.12 6.12 0 001.245-3.707 6.187 6.187 0 10-12.374 0 6.123 6.123 0 001.246 3.71z" fill="#8F90A6"/></svg>