<svg width="180" height="36" fill="none" xmlns="http://www.w3.org/2000/svg"><path fill-rule="evenodd" clip-rule="evenodd" d="M180 8.322a.616.616 0 00-.315-.504c-.408-.207-1.003-.348-2.214-.348-2.733 0-5.15 1.368-6.205 3.657V8.331a.44.44 0 00-.268-.406.426.426 0 00-.166-.034h-4.092a.431.431 0 00-.402.272.44.44 0 00-.033.168V27.18c0 .242.194.438.435.438h4.287a.432.432 0 00.401-.27.437.437 0 00.033-.168v-8.478c0-3.788 2.612-5.67 6.01-5.67.793 0 1.584.177 1.982.31.272.09.547-.136.547-.426V8.322zm-27.394 14.67c-2.931 0-5.196-2.09-5.196-5.245 0-3.156 2.267-5.248 5.196-5.248s5.195 2.092 5.195 5.248-2.266 5.247-5.195 5.247v-.002zm0-15.584c-6.016 0-10.507 4.184-10.507 10.339 0 6.154 4.492 10.336 10.507 10.336 6.013 0 10.505-4.182 10.505-10.335 0-6.156-4.492-10.34-10.505-10.34zm-23.852 15.585c-2.931 0-5.197-2.09-5.197-5.246 0-3.156 2.266-5.248 5.197-5.248 2.929 0 5.193 2.092 5.193 5.248s-2.264 5.247-5.193 5.247zm0-15.585c-6.016 0-10.509 4.184-10.509 10.339 0 6.154 4.493 10.336 10.509 10.336 6.012 0 10.505-4.182 10.505-10.336 0-6.155-4.493-10.339-10.505-10.339zm-23.82 15.633c-2.929 0-5.117-2.09-5.117-5.285 0-3.197 2.188-5.288 5.117-5.288 2.892 0 5.117 2.013 5.117 5.288 0 3.234-2.225 5.285-5.117 5.285zm9.683-23.04h-4.287a.434.434 0 00-.435.438v10.293c-1.328-1.894-3.515-3.355-6.56-3.355-4.766 0-8.83 3.711-8.83 10.379 0 6.667 4.062 10.375 8.906 10.375 2.852 0 5.078-1.263 6.486-3.274v2.323c0 .242.193.438.431.438h4.289a.436.436 0 00.433-.438V.44a.44.44 0 00-.433-.439zm-22.95 21.645c0 4.5-3.242 6.432-8.436 6.432-3.59 0-6.676-.974-8.442-2.994a.452.452 0 01-.01-.57l2.478-3.248a.428.428 0 01.5-.132c.057.024.108.06.15.106 1.31 1.355 3.324 2.183 5.832 2.183 1.443 0 2.615-.394 2.615-1.499 0-1.065-1.053-1.302-4.335-2.013-2.89-.59-6.485-1.932-6.485-6.233 0-3.985 3.127-6.272 8.242-6.272 3.366 0 5.787 1.026 7.491 2.64a.447.447 0 01.04.594l-2.351 3.084a.422.422 0 01-.465.154.42.42 0 01-.151-.086c-1.153-1.04-3.07-1.691-4.954-1.691-1.6 0-2.499.513-2.499 1.38 0 .987 1.056 1.223 4.531 1.973 3.396.75 6.248 2.051 6.248 6.194v-.002zm-19.825.012c0 4.499-3.243 6.433-8.436 6.433-3.588 0-6.675-.976-8.44-2.996a.452.452 0 01-.013-.569l2.479-3.25a.43.43 0 01.5-.13c.057.024.108.06.15.106 1.31 1.353 3.325 2.183 5.831 2.183 1.445 0 2.617-.393 2.617-1.5 0-1.065-1.055-1.301-4.335-2.012-2.892-.592-6.486-1.934-6.486-6.233 0-3.985 3.127-6.273 8.243-6.273 3.365 0 5.784 1.025 7.49 2.64a.449.449 0 01.042.594l-2.354 3.085a.42.42 0 01-.614.069c-1.154-1.04-3.07-1.694-4.954-1.694-1.602 0-2.5.514-2.5 1.381 0 .987 1.056 1.225 4.53 1.975 3.399.748 6.249 2.05 6.249 6.191h.001zm-25.695-2.01c0 2.17-1.755 4.064-4.491 4.064-1.797 0-2.773-.83-2.773-2.093 0-1.104.821-1.933 2.422-2.17l4.842-.591v.791zM42.75 7.456c-4.091 0-7.172 1.383-8.55 4.118a.451.451 0 00.142.558l3.125 2.256a.4.4 0 00.59-.12c.87-1.578 2.812-2.117 4.693-2.117 2.304 0 3.396.829 3.396 1.973v.315c0 .474-.272.71-1.015.79l-5.35.473c-3.593.354-6.248 2.604-6.248 6.194 0 3.63 2.732 6.154 6.599 6.154 3.046 0 5-1.498 6.014-3.076v2.244c0 .242.193.439.434.439h4.288a.44.44 0 00.434-.438V15.465c0-5.484-2.852-8.009-8.554-8.009h.002zM29.996.438v26.74a.436.436 0 01-.434.438h-4.326a.433.433 0 01-.435-.438V.43c0-.238.19-.43.426-.43h4.335c.24 0 .434.195.434.438zM10.428 23.021c-2.93 0-5.117-2.091-5.117-5.287 0-3.195 2.188-5.287 5.117-5.287 2.93 0 5.077 2.013 5.077 5.288 0 3.233-2.148 5.286-5.077 5.286zM20.11 7.87h-4.28a.446.446 0 00-.44.444v2.319c-1.095-1.777-3.36-3.237-6.367-3.237C4.18 7.397 0 11.067 0 17.657c0 6.547 3.984 10.137 9.178 10.137 2.812 0 4.999-1.184 6.289-3.038v1.263c0 2.84-1.369 5.09-5.743 5.09-2.198 0-3.964-.74-5.513-2.125a.424.424 0 00-.651.092l-1.941 3.288c-.252.425-.218.665-.06.804C3.555 34.918 6.149 36 9.921 36c8.201 0 10.623-4.614 10.623-9.705V8.31a.442.442 0 00-.268-.406.431.431 0 00-.167-.034z" fill="#0CAA41"/></svg>