<svg width="720" height="486" fill="none" xmlns="http://www.w3.org/2000/svg"><g filter="url(#filter0_d_1_243149)"><g clip-path="url(#clip0_1_243149)"><rect x="35" y="222" width="178" height="177" rx="88.5" fill="#fff"/><path d="M123.006 403.828c50.494 0 91.427-40.704 91.427-90.914S173.5 222 123.006 222c-50.494 0-91.428 40.704-91.428 90.914s40.934 90.914 91.428 90.914z" fill="#BF0830"/><path d="M113.254 256.85s-6.404-5.324-10.564 1.124c-4.16 6.449-.651 14.722.592 18.007 1.243 3.285 4.914 19.642 4.914 19.642s.734 2.745 6.118 6.395c5.383 3.649 4.404-6.622 4.404-6.622l-5.464-38.546z" fill="#120283"/><path d="M207.014 475.061l-29.803.367-1.733.02-93.808 1.155-9.7.12-40.377.486s.076-2.005.262-5.56c.029-.569.062-1.178.098-1.825.06-1.129.132-2.377.215-3.73a448.692 448.692 0 01.15-2.419 761.965 761.965 0 01.574-8.392c.04-.511.076-1.027.115-1.55.04-.524.08-1.052.123-1.589a400.8 400.8 0 01.127-1.626l.132-1.662c.044-.559.093-1.126.14-1.703 1.57-18.858 4.29-43.819 8.828-66.493a63.76 63.76 0 011.755-6.84 57.379 57.379 0 011.608-4.443 58.817 58.817 0 011.468-3.3 43.29 43.29 0 011.223-2.329c.428-.756.859-1.493 1.293-2.212.149-.243.298-.486.447-.71a50.854 50.854 0 011.393-2.056 48.457 48.457 0 012.466-3.181c.172-.202.343-.404.514-.601a46.736 46.736 0 012.114-2.285l.544-.542c16.532-16.303 40.107-17.26 43.235-18.007l.134-.034a8.99 8.99 0 00.468-.134l.217-.07.221-.076.217-.082.221-.088a12.18 12.18 0 002.814-1.63l.225-.175c.149-.12.299-.244.445-.37.074-.064.147-.127.221-.195l.215-.197.223-.214a17.926 17.926 0 00.641-.667l.21-.243c.071-.081.14-.161.208-.244l.203-.243.196-.243c1.899-2.47 3.426-5.891 4.038-10.398 1.306-9.59-.066-30.596-.066-30.596l7.806 4.564 15.115 8.838c-.244 6.047-.332 10.909-.102 14.863.376 6.48 1.617 10.531 4.485 13.383.211.212.431.416.658.611.113.102.23.2.348.292l.362.285c.117.092.245.187.377.275.132.087.259.182.391.267.697.461 1.424.874 2.178 1.234h.012c.155.075.311.151.47.221.159.071.331.154.49.224.159.071.34.149.514.219.173.071.335.139.509.207l.567.219c.389.146.792.29 1.209.431.149.053.301.102.455.153.49.161.999.321 1.522.487l.49.141.183.054.779.221 1.223.326c2.07.545 4.324 1.217 6.69 2.005.591.2 1.188.406 1.792.621.605.217 1.214.442 1.828.674.615.233 1.234.477 1.857.73 15.59 6.265 33.488 18.125 36.29 39.05 3.58 26.776 7.048 96.211 7.048 96.211z" fill="#FFE6E6"/><path d="M207.013 475.061l-9.21.114-20.592.243-1.733.02-93.808 1.156-3.336.041-6.362.078-19.682.243-20.707.244s.025-.67.083-1.92c.025-.54.054-1.193.09-1.947.028-.518.055-1.083.086-1.703.033-.57.066-1.178.098-1.825.064-1.129.135-2.378.216-3.731.037-.579.074-1.177.11-1.795a992.04 992.04 0 01.614-9.016c.04-.511.076-1.027.115-1.55 0-.109.017-.221.027-.333.03-.414.064-.832.095-1.256l.054-.684.074-.941.132-1.662a820.546 820.546 0 011.588-17.301c.066-.64.132-1.285.203-1.947a711.51 711.51 0 012.379-19.856c.085-.642.176-1.284.266-1.929a505.53 505.53 0 013.133-19.795 384.506 384.506 0 011.4-7.381 63.734 63.734 0 011.754-6.84 59.268 59.268 0 011.608-4.443 51.91 51.91 0 011.272-2.869c.066-.143.137-.287.206-.431l.734-1.46c.154-.296.31-.588.472-.878.42-.756.85-1.493 1.292-2.212.15-.243.299-.487.448-.71.303-.471.61-.932.92-1.385a51.753 51.753 0 012.939-3.852c.171-.202.342-.404.514-.601a50.257 50.257 0 012.114-2.285l.543-.542a53.15 53.15 0 017.902-6.403 55.812 55.812 0 012.843-1.773c14.543-8.505 29.999-9.247 32.49-9.838.044 0 .088-.02.135-.034l.036-.013c.142-.036.287-.077.431-.121l.218-.071.22-.075.218-.083.22-.088a12.298 12.298 0 002.814-1.63l.225-.175a11.647 11.647 0 00.666-.565c.073-.068.144-.129.215-.197l.223-.214c.147-.141.291-.287.431-.438.073-.075.142-.151.21-.229.069-.077.142-.155.211-.243.068-.088.139-.161.208-.243l.203-.244.198-.243c18.38 7.857 28.168 2.927 31.283.703a13.17 13.17 0 001.006.903c.117.095.245.19.362.285.118.095.245.185.377.275.132.09.259.18.392.267.698.459 1.425.871 2.177 1.234h.013c.154.076.31.149.47.222.159.073.33.153.489.223.159.071.34.149.514.219.163.072.326.14.489.205l.568.219c.388.146.791.289 1.209.43.149.054.301.103.455.154.489.16.998.321 1.522.486l.061.017.426.125.184.053.778.222 1.223.326a109.4 109.4 0 016.691 2.005c.589.197 1.189.404 1.791.62a89.938 89.938 0 013.685 1.404 87.344 87.344 0 0110.912 5.242 84.062 84.062 0 012.936 1.769c7.248 4.611 13.885 10.677 18.108 18.556a39.326 39.326 0 014.363 13.481 299.31 299.31 0 011.136 9.872c.112 1.093.223 2.215.333 3.365.489 5.061.957 10.648 1.412 16.459.049.645.1 1.292.149 1.947.489 6.526.979 13.288 1.409 19.87l.128 1.947c.46 7.056.876 13.87 1.223 19.885.037.659.076 1.309.113 1.947.568 9.818.957 17.276 1.089 19.897.041.672.058 1.027.058 1.027z" fill="#5661E1"/><path d="M177.491 346.808c-14.437.917-29.318 1.267-43.648 1.267-14.988 0-29.365-.382-41.957-.902-9.544-.395-18.598-.884-26.825-1.4A55.812 55.812 0 0167.904 344c7.484.452 15.583.878 24.077 1.228 23.803.974 53.973 1.477 82.576-.189a66.937 66.937 0 012.934 1.769zm19.056 20.422c-20.005 2.13-41.94 2.864-62.699 2.864-14.988 0-29.364-.382-41.957-.902a1283.507 1283.507 0 01-44.914-2.66c.067-.144.138-.287.206-.431l.734-1.46c12.01.913 27.263 1.903 44.065 2.597 29.756 1.216 69.467 1.703 103.623-1.874.331.608.645 1.231.942 1.866zm4.549 21.487c-21.196 2.526-44.903 3.377-67.248 3.377-14.988 0-29.365-.382-41.957-.903a1294.87 1294.87 0 01-50.948-3.136c.116-.649.233-1.291.352-1.927a1287.07 1287.07 0 0050.691 3.119c31.306 1.292 73.63 1.742 108.912-2.465.067.633.133 1.278.198 1.935z" fill="#3547C9"/><path d="M112.378 291.929s.653 10.548 8.32 20.301c5.009 6.38 10.434 5.597 13.591 4.283-.233-3.954-.142-8.816.1-14.863l-15.115-8.838-6.896-.883z" fill="#120283"/><path d="M106.341 281.152c1.894-.244 3.14.243 3.876.742-.12-9.879.867-21.9.867-21.9h37.043l-.1 21.742s-.069 1.075 0 7.898c.083 8.293-6.693 20.927-15.771 20.927-13.966 0-19.087-10.196-21.057-18.085-2.203.487-5.653.767-6.84-1.764-1.808-3.83-1.453-9.12 1.982-9.56z" fill="#FFE6E6"/><path d="M126.654 288.899c.603 0 1.092-.485 1.092-1.085 0-.599-.489-1.085-1.092-1.085-.602 0-1.091.486-1.091 1.085 0 .6.489 1.085 1.091 1.085zm11.406 0c.602 0 1.091-.485 1.091-1.085 0-.599-.489-1.085-1.091-1.085-.603 0-1.092.486-1.092 1.085 0 .6.489 1.085 1.092 1.085zm-6.874-8.344s-.675.181-3.707.181-4.38.292-4.324 0c.245-1.256 5.643-1.884 6.548-1.75.906.134 1.858.764 1.483 1.569zm4.765 0s.675.181 3.707.181 4.383.292 4.326 0c-.244-1.256-5.645-1.884-6.548-1.75-.903.134-1.86.764-1.485 1.569z" fill="#120283"/><path d="M109.346 280.867l2.244 7.806s.166-9.341 1.248-15.291c1.082-5.949 4.405-7.441 7.769-8.03.113-.015.226-.015.338 0h24.312s7.05-2.295.11-10.11c-.69-.351-4.703-1.112-5.484-1.324-9.524-2.562-24.05-6.263-26.629 2.92 0 0-3.915-3.363-5.237 4.353-1.321 7.716 1.329 19.676 1.329 19.676z" fill="#120283"/><path d="M100.571 334.115c22.687 13.608 39.114 4.38 45.077-.15-2.958-1.112-5.202-2.383-6.886-4.062-3.115 2.222-12.891 7.149-31.273-.662-2.09 2.706-4.633 4.281-6.918 4.874z" fill="#3547C9"/><path d="M133.271 295.396c.185-.055.374-.094.565-.116.774-.127 1.738-.283 1.889-.825.084-.29-.085-.609-.514-.974-1.595-1.36-1.316-4.355-1.314-4.38l-.33-.034c-.012.132-.296 3.198 1.427 4.67.308.263.452.486.411.635-.096.341-1.089.501-1.623.589a2.119 2.119 0 00-.695.168l.184.267zm.056 1.65s-2.826-.277-4.759-1.423c0 0 .472 3.384 4.759 1.423zm14.8-18.077s-1.084-6.967-5.075-10.933c0 0-9.84-3.528-14.563 8.045-4.722 11.573-19.131 4.786-19.131 4.786l1.885-.949s10.767 3.879 14.467-3.616c0 0-4.755 6.436-15.485 2.677l2.165-18.209 36.584-2.19s3.328 7.295-.847 20.389z" fill="#120283"/><path d="M109.011 257.901s-4.241-7.105 1.877-11.485c6.117-4.38 18.108-2.068 21.656 0 3.548 2.068 10.464-4.38 15.571 1.095 5.107 5.475-.521 15.695-.521 15.695l-38.583-5.305z" fill="#120283"/><path d="M143.04 268.036s-1.862 11.695 5.383 14.809c0 0 5.171-12.816.539-24.277l-5.922 9.468zM81.67 476.603l-9.7.12c2.838-29.891 11.846-108.677 12.059-110.529-.128 1.839-5.293 77.26-2.36 110.409zm95.541-1.175l-1.733.02-8.976-107.463 10.709 107.443zm24.218-83.346c-6.005-36.145-40.31-52.353-52.531-57.037l.426.124.183.054.778.221 1.224.326c2.07.545 4.324 1.217 6.69 2.005a80.1 80.1 0 011.792.621c.605.217 1.214.442 1.827.674.616.233 1.235.477 1.858.73a87.258 87.258 0 0110.88 5.239 84.062 84.062 0 012.936 1.769c7.248 4.611 13.885 10.677 18.108 18.556a39.326 39.326 0 014.363 13.481 299.31 299.31 0 011.136 9.872c.111 1.087.221 2.208.33 3.365z" fill="#120283"/></g></g><g filter="url(#filter1_d_1_243149)"><g clip-path="url(#clip1_1_243149)"><rect x="243" y="343" width="164" height="164" rx="82" fill="#fff"/><path d="M324.614 546.823c57.63 0 104.348-46.718 104.348-104.347 0-57.629-46.718-104.347-104.348-104.347-57.629 0-104.347 46.718-104.347 104.347 0 57.629 46.718 104.347 104.347 104.347z" fill="#BF0830"/><path d="M343.164 376.383s10.376-.481 9.851 11.8c-.746 17.801-4.581 35.05-14.431 38.242-9.851 3.193-10.23-16.665-10.23-16.665l14.81-33.377z" fill="#000"/><path d="M345.008 377.835s.977-11.867-20.612-12.78c-21.589-.913-31.28 15.361-28.152 31.534 3.128 16.174 5.248 26.893 13.437 28.264 8.188 1.371 18.678-15.082 18.678-15.082l16.649-31.936z" fill="#000"/><path d="M402.82 548.186v.408c-.215.355-.436.701-.662 1.053-.123.187-.249.374-.366.558-4.382 6.541-10.655 12.057-17.975 16.693a62.365 62.365 0 01-2.645 1.612c-17.218 10.102-39.393 15.785-56.715 18.908-15.986 2.882-27.845 3.583-27.845 3.583l-37.748-19.628-7.82-4.067-.726-.38-2.771-1.441L243 563.12v-46.013s0-.33.031-.933c.023-.36.056-.821.101-1.368a66.155 66.155 0 013.142-14.892c.145-.433.301-.874.461-1.318a61.056 61.056 0 017.356-14.445c.302-.424.603-.838.919-1.273a54.724 54.724 0 0114.947-13.875 52.351 52.351 0 012.014-1.212c5.516-3.173 12.079-5.743 19.888-7.368 2.1-.436 4.293-.807 6.58-1.098l51.668-.22.19.058c.559.174 2.329.732 4.879 1.704l.134.05.165.065c.065.022.141.053.226.092a105.45 105.45 0 0114.224 6.758c.684.393 1.373.799 2.07 1.218 5.865 3.567 11.959 8.15 16.888 13.861.361.414.718.838 1.059 1.263a42.452 42.452 0 017.851 14.5c.139.439.279.885.419 1.338 1.368 4.547 2.365 9.646 3.072 14.964a155.227 155.227 0 01.609 5.27c.368 3.743.617 7.541.77 11.264.02.464.037.919.056 1.38.193 5.367.193 10.582.101 15.296z" fill="#fff"/><path d="M371.995 469.07a692.179 692.179 0 01-51.729 1.955c-14.47 0-27.156-.469-37.704-1.117a481.792 481.792 0 01-12.604-.897 54.149 54.149 0 012.013-1.212c3.393.27 6.961.518 10.705.746 21.318 1.282 51.389 1.885 87.25-.704.685.393 1.375.802 2.069 1.229zm17.947 15.109a694.064 694.064 0 01-69.676 3.533c-14.47 0-27.155-.469-37.704-1.117-11.057-.668-20.62-1.556-28.471-2.452.302-.425.604-.838.919-1.274a536.944 536.944 0 0027.666 2.36c24.977 1.503 61.985 2.073 106.208-2.326.36.427.717.849 1.058 1.276z" fill="#5C5249"/><path d="M355.177 460.873c-7.656 6.289-19.816 14.062-32.747 13.503-17.511-.743-27.465-10.375-30.571-13.964a85.436 85.436 0 016.58-1.098l51.668-.22.19.058c.576.19 2.33.749 4.88 1.721z" fill="#EA5E42"/><path d="M350.11 459.108c-5.725 4.764-11.272 7.658-16.495 9.233h-.033c-17.224 5.167-30.951-4.092-36.293-8.566.388-.148.773-.296 1.153-.452a19.118 19.118 0 002.893-1.45c13.616-8.348 11.138-27.672 11.138-27.672h24.156a51.512 51.512 0 00.098 9.706c.818 7.99 3.767 15.025 13.383 19.201z" fill="#fff"/><path d="M336.732 439.915c-1.416 2.421-3.443 4.133-6.315 4.371-11.263.938-17.595-10.127-17.463-11.149l.583-2.927h23.092a51.586 51.586 0 00.103 9.705z" fill="#000"/><path d="M351.898 409.056c0-3.155-2.235-5.714-4.98-5.714-2.745 0-4.982 2.559-4.982 5.714 0 3.156 2.234 7.12 4.979 7.12 2.746 0 4.983-3.964 4.983-7.12z" fill="#fff"/><path d="M345.614 411.014l-.352-.036c0-.039.427-3.762 3.885-3.854v.352c-3.142.083-3.531 3.502-3.533 3.538z" fill="#000"/><path d="M349.023 410.484c-.586-.609-1.189-.894-1.787-.866-.908.053-1.522.838-1.53.838l-.28-.213a2.644 2.644 0 011.785-.985c.72-.042 1.396.279 2.067.969l-.255.257z" fill="#000"/><path d="M296.604 409.056c0-3.155 2.235-5.714 4.977-5.714 2.743 0 4.98 2.559 4.98 5.714 0 3.156-2.234 7.12-4.98 7.12-2.745 0-4.977-3.964-4.977-7.12z" fill="#fff"/><path d="M303.439 411.014l.352-.036c0-.039-.428-3.762-3.885-3.854v.352c3.142.083 3.53 3.502 3.533 3.538z" fill="#000"/><path d="M300.026 410.484c.589-.609 1.19-.894 1.79-.866a2.348 2.348 0 011.528.838l.279-.213a2.65 2.65 0 00-1.782-.985c-.72-.042-1.396.279-2.067.969l.252.257z" fill="#000"/><path d="M338.486 430.992c-3.689 4.236-8.359 6.965-13.964 6.876-5.586.089-10.269-2.64-13.964-6.876a.538.538 0 00-.065-.078c-6.608-8.351-7.954-20.517-6.164-34.998 1.288-10.42 11.11-14.459 16.565-15.919a14.036 14.036 0 017.245 0c5.454 1.449 15.279 5.488 16.567 15.919 1.804 14.529.447 26.725-6.22 35.076z" fill="#fff"/><path d="M332.063 410.461a1.198 1.198 0 100-2.395 1.198 1.198 0 000 2.395zm-15.833 0a1.198 1.198 0 100-2.395 1.198 1.198 0 000 2.395zm22.231-11.157s-2.874.117-6.65.148c-3.776.031-4.748-.031-4.412-1.561.335-1.531 4.125-1.503 6.487-.972 2.363.53 4.575 2.385 4.575 2.385zm-28.909 0s2.874.117 6.65.148c3.776.031 4.748-.031 4.41-1.561-.338-1.531-4.122-1.503-6.485-.972-2.363.53-4.575 2.385-4.575 2.385zm14.171 18.377a1.653 1.653 0 01-1.092-.279.63.63 0 01-.187-.598c.173-1.101.813-5.469.818-5.51l.349.05c0 .045-.647 4.413-.821 5.516a.285.285 0 00.081.279c.327.307 1.467.19 2.112.042l.078.343c-.44.097-.888.15-1.338.157zm1.204 2.566a6.424 6.424 0 01-1.276-.114.185.185 0 01-.123-.087.2.2 0 01-.028-.071.2.2 0 01.24-.225c.179.042 4.421.964 6.619-3.052a.208.208 0 01.051-.063.19.19 0 01.072-.037.189.189 0 01.156.022.19.19 0 01.062.051.19.19 0 01.037.072.215.215 0 01.006.08.228.228 0 01-.026.076c-1.59 2.874-4.226 3.348-5.79 3.348zm2.704.83a.194.194 0 01-.202-.176.195.195 0 01.163-.212c.294-.057.578-.162.837-.313a.195.195 0 11.199.338 3.029 3.029 0 01-.964.36l-.033.003zm15.776-31.462l1.321 19.645 1.416-6.624s4.215-8.798-2.737-13.021zm-37.765-2.298l-1.852 21.943-.879-6.624s-4.22-8.798 2.731-15.319z" fill="#000"/><path d="M344.536 397.321s-1.629-3.631-6.128-11.107c0 0-19.757 13.215-35.411 8.054 0 0-2.312-6.144 4.008-11.501 6.32-5.357 12.831-9.096 22.212-6.032 9.381 3.063 17.905 11.679 15.319 20.586z" fill="#000"/><path d="M339.335 386.401s-.382 4.278 3.572 11.107c0 0-3.365-3.809-4.53-10.214 0 0-7.404 7.726-15.64 9.13 0 0 8.041-1.15 15.445-10.853l1.153.83z" fill="#000"/><path d="M402.82 548.186v.408c-.215.355-.436.701-.662 1.053-.123.187-.248.374-.366.558 1.143-67.813-40.89-87.02-46.082-89.128a105.45 105.45 0 0114.224 6.758c.683.393 1.373.799 2.07 1.218 5.865 3.566 11.959 8.15 16.888 13.861.36.413.718.838 1.059 1.262 3.536 4.274 6.2 9.2 7.842 14.498.14.439.279.886.419 1.338 1.368 4.547 2.366 9.647 3.072 14.964a155.227 155.227 0 01.609 5.27c.369 3.743.617 7.541.771 11.264.019.464.036.919.056 1.38a278.59 278.59 0 01.1 15.296z" fill="#EA5E42"/></g></g><g filter="url(#filter2_d_1_243149)"><g clip-path="url(#clip2_1_243149)"><rect x="533" y="350" width="152" height="156" rx="76" fill="#fff"/><path d="M608.151 507.829c43.116 0 78.069-35.873 78.069-80.124s-34.953-80.124-78.069-80.124c-43.117 0-78.069 35.873-78.069 80.124s34.952 80.124 78.069 80.124z" fill="#BF0830"/><path d="M616.48 378.295s5.468-4.69 9.02.993c3.553 5.683.556 12.975-.505 15.87-1.062 2.895-4.196 17.31-4.196 17.31s-.627 2.419-5.224 5.636-3.761-5.837-3.761-5.837l4.666-33.972z" fill="#30262A"/><path d="M536.419 570.609l7.865.101 11.814.15 2.211.028 3.552.045 1.48.017 20.782.264 13.306.17 24.395.311 21.619.274 2.848.037 5.433.068 2.781.035 3.37.042 10.657.135 17.681.226s0-.148-.018-.429v-.292c0-.073 0-.152-.011-.238a473.527 473.527 0 00-.104-2.322v-.123c-.013-.227-.023-.467-.036-.716 0-.157-.014-.32-.023-.487 0-.094-.01-.191-.014-.289a361 361 0 00-.084-1.609c-.015-.248-.027-.504-.042-.765l-.044-.804c-.029-.549-.062-1.121-.098-1.716 0-.127-.014-.255-.023-.386l-.071-1.197c-.012-.18-.023-.364-.033-.549l-.044-.703c-.029-.472-.059-.959-.092-1.454a383.115 383.115 0 00-.266-3.91c-.032-.437-.063-.88-.094-1.329l-.098-1.366c0-.097-.014-.195-.023-.294-.025-.365-.054-.733-.081-1.107-.015-.199-.029-.401-.046-.602l-.063-.83-.113-1.465a757.49 757.49 0 00-.844-9.886c-.052-.581-.109-1.169-.163-1.761-.054-.592-.113-1.186-.171-1.786-.059-.601-.117-1.201-.178-1.808-.056-.564-.113-1.132-.173-1.705a628.192 628.192 0 00-.936-8.608l-.134-1.158c-.075-.624-.148-1.25-.224-1.879a498.348 498.348 0 00-.591-4.733c-.048-.373-.096-.746-.146-1.121-.073-.566-.151-1.132-.228-1.701-.081-.613-.164-1.227-.251-1.842-.079-.575-.159-1.152-.242-1.728-.059-.429-.119-.854-.182-1.274a363.168 363.168 0 00-.969-6.406c-.097-.618-.195-1.233-.297-1.851-.117-.724-.238-1.451-.362-2.174-.11-.665-.225-1.33-.34-1.99l-.032-.18-.031-.178a193.39 193.39 0 00-.27-1.521 301.628 301.628 0 00-.894-4.801 57.73 57.73 0 00-1.498-6.029 53.569 53.569 0 00-1.373-3.916c-.098-.251-.209-.499-.303-.744a29.001 29.001 0 00-.257-.607c-.088-.201-.161-.373-.244-.557-.084-.185-.188-.416-.282-.62-.057-.127-.117-.253-.176-.38-.102-.214-.209-.428-.311-.643a24.01 24.01 0 00-.32-.643l-.138-.271a47.635 47.635 0 00-1.369-2.453c-.127-.214-.254-.429-.382-.626a40.991 40.991 0 00-1.189-1.812c-.169-.245-.34-.487-.512-.727-.171-.24-.347-.474-.522-.708a37.01 37.01 0 00-.8-1.031c-.09-.114-.182-.215-.272-.337a42.396 42.396 0 00-2.244-2.543l-.464-.479c-.134-.135-.268-.27-.403-.403-.268-.267-.54-.53-.815-.789a62.13 62.13 0 00-1.672-1.488c-.13-.112-.257-.215-.387-.326a42.63 42.63 0 00-1.314-1.055 28.323 28.323 0 00-.861-.644l-.434-.317-.372-.266c-.168-.118-.333-.234-.5-.347h-.016l-.46-.314-.255-.169-.46-.3-.627-.397-.585-.358-.025-.015-.418-.249-.248-.146-.107-.062-.481-.274-.29-.163-.265-.148c-.3-.163-.597-.323-.893-.479l-.152-.079-.571-.292-.05-.025-.384-.193-.372-.183-.107-.049-.227-.109c-.021-.013-.044-.022-.065-.032l-.385-.181-.121-.055-.783-.354-.28-.127-.349-.15-.145-.06c-.208-.09-.417-.176-.626-.262-.209-.085-.431-.178-.646-.261l-.489-.193-.069-.026-.384-.148-.297-.111-.23-.11-.134-.049-.372-.135-.37-.131-.369-.129-.161-.055-.349-.118-.174-.056-.432-.144-.431-.135-.522-.165-.075-.024-.56-.167-.525-.156-.505-.142-.454-.127-.117-.032-.639-.169-.232-.06-.105-.026-.242-.06-.596-.148-.614-.146-.115-.025-.062-.015-.12-.028-.098-.022-.094-.021-.405-.09-.209-.048-.366-.079-.543-.111-.13-.026-.56-.112-.171-.032-.209-.038-.376-.071-.069-.013-.209-.036-.209-.037-.255-.045-.499-.086-.103-.017-.516-.084-.253-.04-.077-.013-.418-.064h-.037l-.64-.095-.788-.114-.459-.064-.418-.056-.282-.038-.172-.024-.15-.021-.153-.022-.242-.036c-.418-.06-.725-.114-.934-.165l-.115-.03c-.071-.02-.144-.039-.209-.062l-.184-.056-.186-.062-.188-.067-.186-.073-.188-.077c-.058-.024-.119-.049-.177-.077a10.333 10.333 0 01-2.226-1.36l-.192-.154a14.27 14.27 0 01-.38-.326c-.063-.056-.126-.112-.188-.172l-.184-.173-.19-.189-.184-.189-.184-.197a5.653 5.653 0 01-.18-.202l-.18-.214a9.183 9.183 0 01-.177-.215c-.059-.073-.117-.146-.174-.214l-.167-.215c-1.607-2.144-2.898-5.134-3.431-9.05 0-.036-.012-.075-.016-.113-.55-4.154-.544-10.742-.4-16.365.049-1.793.109-3.491.172-4.977.14-3.335.284-5.623.284-5.623h-.013l-.108.066-5.696 3.431-.849.513-12.907 7.789c.109 2.85.184 5.4.197 7.69.008 1.132 0 2.205-.023 3.217 0 .384-.021.757-.036 1.124-.014.366-.029.722-.05 1.072a42.98 42.98 0 01-.286 3.163c-.512 3.929-1.582 6.62-3.552 8.638-.18.187-.368.367-.563.538-.096.09-.196.176-.296.258l-.309.251a5.198 5.198 0 01-.322.242c-.113.077-.222.161-.335.236-.439.302-.895.579-1.364.83-.16.088-.325.174-.495.257h-.011l-.108.054-.293.141a19.22 19.22 0 01-.857.391c-.14.062-.28.122-.418.18l-.484.193a33.49 33.49 0 01-1.032.379c-.128.047-.258.09-.389.135-.418.142-.853.283-1.3.429l-.052.015-.364.11-.156.047-.665.195-.85.236-.186.051c-.456.125-.924.256-1.4.393l-.652.193-.481.146-.608.188c-.836.261-1.693.547-2.572.858-.504.174-1.016.356-1.53.547l-.177.067-.468.175a72.317 72.317 0 00-2.501.995 73.982 73.982 0 00-3.197 1.409c-.492.228-.983.464-1.474.708l-.549.275a67.802 67.802 0 00-3.498 1.889l-.579.339-.372.214c-.15.088-.301.18-.449.273-.148.092-.328.199-.491.302l-.418.262c-.26.164-.52.331-.779.501l-.046.03-.316.215-.436.296c-.209.139-.418.279-.613.429-.246.171-.491.343-.733.521l-.364.266a24.88 24.88 0 00-.733.547 55.354 55.354 0 00-2.311 1.863l-.569.493a48.719 48.719 0 00-2.102 1.969l-.34.343-.023.024a50.135 50.135 0 00-.686.714l-.346.373a43.709 43.709 0 00-2.326 2.771l-.123.161c-.111.145-.22.291-.328.429a28.28 28.28 0 00-.418.581c-.136.195-.276.394-.418.592-.142.197-.27.398-.401.6-.264.403-.52.813-.769 1.229-.124.214-.247.416-.368.628-.121.213-.238.429-.355.644a44.401 44.401 0 00-.554 1.046c-.069.135-.136.272-.209.408a33 33 0 00-.698 1.522 17.078 17.078 0 00-.205.485c-.062.154-.152.371-.225.557l-.025.063c-.076.195-.151.39-.222.585-.071.195-.15.41-.221.616-.147.411-.282.829-.418 1.25-.065.214-.126.412-.186.62a.048.048 0 010 .017 38.49 38.49 0 00-.318 1.179l-.05.215c-.046.188-.092.377-.134.568-.035.15-.069.3-.1.452 0 .033-.015.063-.019.095-.019.077-.033.154-.05.234-.038.186-.073.373-.109.557-.035.185-.075.412-.11.62-.036.208-.071.429-.105.643-.012.088-.027.176-.04.264-.025.178-.05.356-.073.536a328.185 328.185 0 00-.652 5.576c-.018.199-.041.401-.062.603-.03.272-.057.546-.086.823-.057.558-.114 1.129-.169 1.716-.049.48-.096.968-.142 1.462-.025.249-.048.498-.071.746l-.071.758v.01c-.077.837-.154 1.689-.232 2.556-.046.515-.09 1.034-.136 1.56-.138 1.589-.274 3.216-.418 4.889-.046.556-.091 1.115-.134 1.677a82.12 82.12 0 00-.067.858l-.037.487a.028.028 0 010 .013c0 .115-.017.233-.027.351 0 .071-.011.144-.017.215-.023.315-.048.643-.073.952-.025.309-.048.643-.073.958-.042.569-.086 1.139-.128 1.716-.209 2.876-.418 5.803-.627 8.737l-.148 2.2v.148l-.113 1.675c-.039.626-.08 1.25-.123 1.872-.034.506-.065 1.012-.098 1.518l-.088 1.362-.109 1.716-.073 1.164a883.236 883.236 0 00-.236 3.824l-.1 1.658c0 .079-.011.158-.015.238l-.134 2.226v.068a2767.068 2767.068 0 00-.418 7.142l-.069 1.209c0 .097-.01.195-.016.292-.028.476-.053.948-.08 1.413 0 .135-.014.27-.023.403l-.044.794-.044.791c-.014.262-.031.577-.048.858l-.018.337-.038.709-.061 1.103c0 .163-.018.323-.027.484-.033.638-.067 1.256-.1 1.853 0 .146-.015.292-.023.429 0 .109-.01.215-.017.328-.01.204-.023.403-.033.601-.011.197-.021.429-.034.643 0 .092-.01.184-.014.275l-.019.358c0 .15-.015.298-.023.444l-.027.516c-.015.256-.027.504-.04.749 0 .094 0 .189-.015.283 0 .18-.018.356-.027.527 0 .123-.006.244-.019.361-.014.3-.031.592-.043.87 0 .11-.013.215-.017.322-.004.107-.011.187-.015.279-.004.092 0 .129 0 .193 0 .129-.012.253-.019.375-.006.122-.012.227-.016.337-.013.261-.025.51-.038.742v.71c0 .131-.012.255-.019.371-.006.115 0 .173-.012.253-.013.079 0 .158-.011.229v.028c0 .094-.01.182-.014.262v.098c-.08.286-.088.461-.088.461z" fill="#fff"/><path d="M617.225 409.215s-.555 9.296-7.104 17.892c-4.275 5.621-8.91 4.932-11.603 3.774.198-3.485.119-7.77-.086-13.099l12.905-7.789 5.888-.778z" fill="#30262A"/><path d="M622.381 399.713c-1.617-.215-2.679.214-3.308.656.1-8.707-.74-19.301-.74-19.301h-31.621l.084 19.161s.059.948 0 6.959c-.071 7.311 5.717 18.443 13.469 18.443 11.925 0 16.299-8.987 17.97-15.94 1.881.429 4.829.678 5.851-1.555 1.534-3.371 1.231-8.033-1.705-8.423z" fill="#fff"/><path d="M605.037 406.543a.944.944 0 00.932-.957.944.944 0 00-.932-.956.945.945 0 00-.932.956c0 .529.418.957.932.957zm-9.739 0a.944.944 0 00.932-.957.944.944 0 00-.932-.956.944.944 0 00-.932.956c0 .529.417.957.932.957zm5.87-7.354s.576.159 3.165.159 3.741.257 3.692 0c-.209-1.107-4.818-1.66-5.591-1.542-.773.118-1.586.671-1.266 1.383zm-4.07 0s-.577.159-3.166.159-3.74.257-3.692 0c.209-1.107 4.818-1.66 5.591-1.542.773.118 1.586.671 1.267 1.383z" fill="#30262A"/><path d="M619.817 399.464l-1.918 6.879s-.142-8.232-1.064-13.478c-.921-5.245-3.761-6.556-6.636-7.077a.92.92 0 00-.287 0h-20.759s-6.02-2.022-.096-8.91c.591-.311 4.016-.98 4.685-1.167 8.13-2.258 20.535-5.52 22.738 2.574 0 0 3.343-2.964 4.471 3.838 1.129 6.803-1.134 17.341-1.134 17.341zm-20.43 12.803a3.059 3.059 0 00-.482-.101c-.661-.112-1.484-.251-1.614-.727-.071-.258.074-.538.439-.858 1.361-1.199 1.122-3.839 1.12-3.86l.282-.03c.013.116.255 2.818-1.218 4.115-.261.232-.386.429-.351.56.082.298.932.442 1.388.517.204.016.404.066.593.148l-.157.236zm-.05 1.452s2.414-.247 4.067-1.255c0 .004-.404 2.987-4.067 1.255z" fill="#30262A"/><path d="M686.22 572.512l-4.628-.058h-.627l-7.5-.097h-.626l-4.301-.056-3.197-.04h-.627l-6.83-.086h-1.296l-2.075-.026-2.781-.034-2.641-.034h-.627l-2.167-.028-2.848-.037-2.484-.032h-.627l-7.497-.096h-.627l-7.499-.095h-.627l-2.257-.028-1.622-.021-3.619-.045h-.626l-7.498-.097h-.633l-7.499-.096h-.627l-2.278-.03-5.223-.067h-.627l-7.46-.094h-.666l-7.498-.094h-.627l-7.499-.095h-.627l-3.865-.049-1.48-.017-2.152-.028h-.627l-.779-.011-2.211-.028-4.509-.058h-.627l-6.687-.085h-1.446l-6.419-.082s0-.176.025-.512v-.099c0-.079.011-.167.015-.262v-.028c0-.072 0-.148.011-.229.01-.081 0-.165.012-.253.013-.088.013-.24.019-.371v-.71l.038-.742c0-.109.01-.214.016-.337l.019-.375v-.193c0-.064 0-.184.015-.279.014-.094.01-.214.016-.321.013-.279.03-.571.044-.871 0-.119.007-.239.019-.36 0-.172.019-.348.027-.528 0-.094 0-.189.015-.283.012-.244.025-.493.04-.748 0-.17.016-.341.027-.517.01-.176.014-.294.023-.444l.019-.358c0-.09.01-.183.014-.275.013-.214.023-.429.034-.643.01-.215.023-.399.033-.601 0-.109.013-.214.017-.328 0-.143.016-.289.023-.429.033-.597.067-1.215.1-1.852 0-.161.019-.322.027-.485l.061-1.102.037-.71.019-.337c.017-.283.032-.57.048-.858.017-.287.029-.525.044-.791l.044-.794c0-.133.015-.268.023-.403.028-.463.054-.934.079-1.413 0-.096 0-.195.017-.292l.069-1.209c.074-1.287.15-2.604.23-3.952.06-1.047.123-2.11.188-3.189v-.069l.134-2.226c0-.079 0-.159.014-.238l.101-1.658a879.944 879.944 0 01.236-3.823l.073-1.165c.035-.568.073-1.141.109-1.716l.087-1.361c.034-.506.065-1.013.098-1.519l.124-1.872.113-1.675v-.148c.047-.733.096-1.466.148-2.2.209-2.934.418-5.861.627-8.737l.127-1.715c.025-.32.048-.644.073-.959l.074-.952c0-.071.01-.144.016-.215l.025-.336a.038.038 0 000-.015c.013-.167.028-.333.04-.5.021-.283.044-.566.067-.858l.134-1.677c.133-1.666.269-3.3.418-4.889.043-.525.088-1.045.135-1.559l.232-2.557v-.01c.023-.253.046-.506.071-.757.025-.251.046-.498.071-.747.046-.493.094-.982.142-1.462.056-.579.113-1.151.17-1.716l.085-.823c.021-.202.044-.403.063-.603.209-2.022.435-3.892.652-5.576.023-.18.048-.358.073-.536l.04-.264c.033-.214.067-.428.104-.643.038-.214.071-.414.111-.62l.069-.353.04-.215c.014-.079.031-.157.05-.234 0-.032.012-.062.019-.094.031-.152.064-.302.1-.453.036-.15.069-.3.104-.448l.03-.12.05-.214a41.917 41.917 0 01.234-.882c.033-.116.054-.199.083-.298a.048.048 0 000-.017c.061-.214.122-.414.186-.62.13-.429.268-.838.418-1.25.071-.214.145-.412.222-.615.077-.204.146-.391.221-.586l.025-.062c.074-.187.149-.373.226-.558.077-.184.128-.306.194-.459a8.03 8.03 0 01.128-.293c.063-.144.125-.286.19-.429.127-.279.257-.554.391-.826.067-.135.133-.272.209-.407.075-.136.136-.268.209-.404.113-.214.227-.428.344-.643.117-.214.237-.429.356-.643a39.059 39.059 0 011.538-2.458c.135-.199.271-.394.417-.592.147-.197.278-.388.418-.581.109-.148.209-.294.328-.429l.124-.161c.113-.148.23-.298.344-.444.308-.387.622-.769.941-1.147.104-.122.209-.244.315-.364l.312-.354a13.7 13.7 0 01.418-.461l.346-.374a50.023 50.023 0 01.686-.714l.023-.023.34-.343a45.883 45.883 0 012.102-1.969l.569-.493a58.268 58.268 0 012.311-1.864c.234-.18.468-.356.706-.527l.027-.02.286-.214.078-.056c.077-.058.157-.114.236-.169.165-.12.33-.236.497-.352.209-.144.418-.283.612-.429l.437-.296.316-.214.046-.03c.259-.169.519-.336.779-.502l.418-.262c.163-.103.328-.214.491-.302.163-.088.299-.185.449-.273l.372-.214.579-.339a77 77 0 012.507-1.379l.314-.163.313-.161c.122-.064.245-.124.366-.186l.55-.275a76.733 76.733 0 014.67-2.116c.533-.221 1.062-.435 1.586-.644l.321-.124.314-.12.28-.107.033-.013.435-.163.177-.067a69.615 69.615 0 011.53-.547c.878-.304 1.735-.59 2.572-.857l.608-.189.481-.146.652-.193 1.045-.294.313-.086.046-.012.186-.052.081-.021.769-.215.665-.195.157-.047.363-.109.052-.015c.448-.14.882-.281 1.3-.429.132-.045.261-.088.389-.135.355-.125.699-.251 1.032-.38l.485-.193c.139-.057.278-.117.418-.18.149-.062.295-.126.438-.193.145-.062.287-.129.418-.197l.04-.02.253-.122.109-.054h.01c.169-.085.332-.171.495-.257l.082-.045c.106-.058.209-.118.313-.178.105-.06.209-.116.299-.176l.015-.011a13.129 13.129 0 00.986-.654c.111-.079.209-.161.322-.242.112-.081.209-.165.309-.251s.209-.167.297-.257a10.594 10.594 0 002.171-2.683c1.116.379 2.253.691 3.406.933l.313.066.313.06c2.474.464 4.986.671 7.5.618h.627a44.422 44.422 0 007.497-.914l.313-.064.314-.069a52.574 52.574 0 003.619-.932 15.49 15.49 0 001.195 1.878l.134.176.033.045c.057.075.115.148.174.215.058.066.117.143.177.214l.18.214c.058.069.117.136.18.202l.023.024c.106.115.208.229.321.338l.023.024.19.189.184.173c.063.06.126.116.188.172.126.114.253.214.381.326l.192.154c.098.08.209.155.297.228l.016.013c.099.072.209.143.297.214l.314.214c.173.11.348.215.524.311a9.415 9.415 0 00.955.468l.188.077.186.073.188.067.186.062.184.055.184.052.031.011c.04.013.077.021.115.03.209.051.522.105.934.165l.242.036.153.022.15.021.172.024.282.038.418.056.459.064.788.114.64.094h.037l.418.065.077.013.251.04.063.011.313.049.14.024.103.017.499.086.255.045.209.036.209.037.069.013.376.071.188.034.186.036.56.112.13.026.442.092.101.019.365.079.209.048.406.09.094.021.098.022.125.027.063.015.115.026h.038l.478.114.098.021.596.148.242.06h.038l.067.015.232.06.209.054.137.036.303.08.117.032.314.088.129.036.184.052.322.09.525.156.56.168c.338.103.683.214 1.028.324l.537.178.069.021.349.118.125.045.035.011.37.128.161.058.209.073.372.135.134.05.24.09.297.111.384.148.069.026.489.193.56.227.086.035c.192.079.382.158.575.242l.043.019.145.06c.041.017.083.035.125.056.042.021.102.043.155.066l.069.028.089.041.19.086.784.354.121.055.385.181c.021 0 .044.019.065.032l.227.109.107.049.234.116.138.067.384.193.05.025.571.292.152.079c.297.156.595.316.893.479l.096.055.169.093.29.163.481.274.107.062.248.146.418.249.025.015.585.358.627.397.153.098.307.202.249.165.064.045.395.268h.017c.167.114.332.23.499.348l.372.266.435.317c.288.212.575.426.861.643.159.12.315.245.47.367.234.189.47.378.702.571a37.198 37.198 0 01.529.443 62.17 62.17 0 011.671 1.489c.279.257.551.52.815.789.136.133.27.268.403.403l.341.352c.042.041.082.083.123.126.042.043.13.135.191.215.106.111.208.214.313.336.442.477.875.968 1.302 1.474.146.173.292.351.438.529.09.112.182.215.272.337.269.336.536.68.8 1.032.176.233.349.469.523.707.173.238.342.483.512.727.136.195.269.393.403.592.266.399.528.806.786 1.22.127.215.255.416.382.627a47.582 47.582 0 011.369 2.453l.138.27c.108.215.209.429.319.644.086.173.17.347.253.523.021.038.04.079.059.12.058.126.119.253.175.379l.08.172c.066.148.135.298.209.448.037.084.075.168.11.253.036.086.09.202.134.305.088.201.173.403.257.607.102.244.209.493.303.744a53.083 53.083 0 011.853 5.571c.385 1.403.724 2.86 1.018 4.373a311.138 311.138 0 01.894 4.802c.092.506.182 1.014.27 1.52l.031.178.032.18c.115.661.229 1.325.34 1.99.123.723.245 1.45.362 2.175.102.617.209 1.233.296 1.851a388.104 388.104 0 011.152 7.679 473.589 473.589 0 01.493 3.571l.065.48c.056.408.11.813.163 1.22.052.408.098.749.146 1.122v.032c.095.735.188 1.47.28 2.205l.033.272c.094.744.184 1.484.274 2.224.075.628.148 1.254.224 1.878l.133 1.159c.211 1.827.412 3.634.604 5.421.114 1.072.225 2.134.332 3.187.061.572.117 1.141.174 1.705l.178 1.807.171 1.787c.056.592.111 1.179.163 1.76.052.582.106 1.163.159 1.737a725.255 725.255 0 01.906 11.047c.028.373.057.742.082 1.106 0 .099.017.198.023.294l.098 1.366c.034.451.063.892.094 1.33l.057.813c.071 1.072.14 2.104.209 3.096l.091 1.454.044.704c0 .184.021.369.034.549.023.409.046.808.071 1.196 0 .131.014.26.023.386l.098 1.716.044.804c.015.262.027.517.042.766l.083 1.608c0 .099.011.195.015.29 0 .167.017.33.023.486l.035.717v.122c.028.613.053 1.147.071 1.593.013.268.023.504.034.71a1.802 1.802 0 00.01.258v.291c.101.2.107.348.107.348z" fill="#1A2578"/><path d="M543.465 480.754v89.943h-.627v-87.305l.04-.215c.015-.079.031-.156.05-.233 0-.033.013-.063.019-.095.031-.152.065-.302.1-.452.036-.15.069-.3.105-.448l.029-.121.05-.214c.046-.18.092-.358.14-.536.029-.095.061-.208.094-.324zm8.124-14.645v104.694h-.627V466.828c.105-.123.209-.245.316-.365.106-.12.205-.236.311-.354zm8.126-7.223v112.026h-.627V459.354l.028-.019.286-.215.077-.056c.077-.066.157-.122.236-.178zm8.125-4.908v117.03h-.627V454.301l.313-.163.314-.16zm8.128-3.588v120.717h-.627V450.634l.314-.12.28-.107.033-.017zm8.122-2.612v123.436h-.627V447.949l.314-.086.046-.012.186-.052.081-.021zm8.126-3.153v126.692h-.627V445.005c.107-.058.209-.118.314-.178.104-.06.209-.116.299-.176l.014-.026zm8.124-3.028V571.42h-.627V441.471l.314.066.313.06zm8.127.601v129.325h-.634V442.215h.314l.32-.017zm8.124-1.047v130.477h-.627V441.284l.313-.064.314-.069zm8.124 4.077v126.503h-.627V444.797l.017.013c.098.073.209.143.296.214l.314.204zm8.126 2.024v124.582h-.627V447.152l.251.04.062.011.314.049zm8.124 1.795v122.881h-.627V448.871l.313.088.13.037.184.051zm8.136 2.898v120.093h-.626V451.677l.043.019.145.06c.041.017.083.034.125.056.042.021.102.042.155.066l.069.028.089.039zm8.115 4.449v115.755h-.627V455.966l.307.201.249.165.071.062zm8.126 6.934v108.918h-.627V462.661c.042.041.081.083.123.126.042.043.13.135.19.215.107.101.211.212.314.326zm8.124 12.498v96.523h-.627v-97.896c.021.039.04.08.058.12.059.127.119.254.176.38.027.056.052.114.079.172.067.148.136.298.209.448.032.083.069.167.105.253z" fill="#fff"/><path d="M625.239 445.539c-.123.141-.255.281-.391.429-4.129 4.289-13.352 8.694-13.53 8.578a11.349 11.349 0 01-.687-1.229l-.297-.566c-.418-.798-.915-1.78-1.416-2.771l-.291-.575c-.577-1.14-1.13-2.241-1.525-3.03l-.293-.577-.292-.589s-.209.332-.541.87l-.364.569a88.412 88.412 0 01-2.039 3.047l-.37.523c-.64.888-1.294 1.739-1.881 2.406-.148.17-.294.326-.434.468-.556.568-1.028.911-1.342.883-.995-.092-5.696-5.016-8.903-8.49l.252-.122.109-.054h.011c.152-.077.298-.154.445-.231l.05-.026c.184-.101.365-.214.541-.309l.152-.09.019-.013a13.16 13.16 0 00.987-.654c.11-.079.208-.161.321-.242l.132-.103.178-.148c.1-.081.209-.167.296-.257l.03-.026c.183-.167.361-.337.532-.513a11.847 11.847 0 00.907-1.059c.257-.343.494-.701.709-1.072 4.363 1.501 12.581 3.03 23.902-.32.167.307.338.603.52.888.117.191.24.377.364.558.123.18.209.291.311.429l.134.175.033.045c.057.075.115.148.174.215.058.066.117.144.177.214l.18.215c.058.068.117.135.18.201l.023.024.208.229.107.11.023.023.19.189.174.163h.01c.063.06.125.116.188.172.126.113.253.214.38.326l.193.154a10.28 10.28 0 00.996.703c.157.088.308.178.458.26z" fill="#fff"/><path d="M606.837 445.18l-.627.004.769 125.69.627-.004-.769-125.69z" fill="#7F573C"/><path d="M612.966 467.04c.787 0 1.425-.655 1.425-1.463 0-.807-.638-1.462-1.425-1.462s-1.425.655-1.425 1.462c0 .808.638 1.463 1.425 1.463zm0 15.946c.787 0 1.425-.654 1.425-1.462 0-.808-.638-1.463-1.425-1.463s-1.425.655-1.425 1.463.638 1.462 1.425 1.462z" fill="#fff"/><path d="M605.976 446.069l-.364.568-10.424-4.504c.144-.167.279-.341.417-.518l10.341 4.458.03-.004zm15.126-4.405l-14 4.701-.292-.577 13.92-4.682c.117.191.24.378.372.558zm-17.53 8.02l-.369.524-9.543-6.584.177-.148c.101-.082.209-.167.297-.257l.029-.026 9.409 6.491zm19.448-5.777l-14.103 6.054-.29-.575 13.9-5.972.106.109.023.024.19.188.174.172zm-21.7 8.707c-.148.169-.294.326-.434.467l-9.428-8.02.05-.026c.184-.101.365-.215.541-.309l9.271 7.888zm23.919-7.075c-.123.141-.255.281-.391.429l-14.209 7.345-.296-.566 14.453-7.468c.142.088.293.178.443.26z" fill="#1A2578"/><path d="M586.449 396.777s1.951-4.182 2.787-8.686c.836-4.503 2.74-2.466 5.132 2.038 2.393 4.503 13.778 14.679 23.913 7.662v-1.014s-8.262 4.182-14.418-2.145c0 0 8.567 5.576 14.418.751 5.85-4.825 5.85-17.731 5.85-17.731s-.317-8.432-8.358-8.54c-8.04-.107-23.298-7.291-27.268-1.93-3.97 5.362-1.793 6.648-1.793 6.648s-8.799 3.432-.263 22.947z" fill="#30262A"/></g></g><g filter="url(#filter3_d_1_243149)"><g clip-path="url(#clip3_1_243149)"><rect x="407" y="181" width="177" height="179" rx="88.5" fill="#fff"/><path d="M495.915 386.411c56.089 0 101.558-45.983 101.558-102.705 0-56.723-45.469-102.706-101.558-102.706-56.089 0-101.558 45.983-101.558 102.706 0 56.722 45.469 102.705 101.558 102.705z" fill="#1A2578"/><path d="M478.453 229.147s-9.514-.824-13.604 11.601c-4.091 12.425 4.262 37.11-11.8 41.957-21.009 6.322-33.76 30.142-8.848 60.638 24.912 30.497 62.277 7.293 62.277 7.293l8.932-46.41-36.957-75.079z" fill="#000"/><path d="M474.24 232.636s4.57-12.546 21.806-12.598c17.97-.05 32.393 9.695 33.048 37.954.408 17.566-3.95 26.637 10.981 29.834 28.354 6.072 35.237 40.775 7.704 62.153-27.533 21.379-61.035-18.728-61.035-18.728l9.824-64.715-22.328-33.9z" fill="#000"/><path d="M518.044 313.729c-5.33 4.489-10.495 7.213-15.36 8.698h-.033c-16.037 4.866-28.813-3.849-33.801-8.068.362-.14.72-.275 1.087-.426.935-.381 1.836-.84 2.694-1.375 12.678-7.864 10.37-29.463 10.37-29.463h22.512a49.167 49.167 0 00.093 9.143c.736 7.549 3.485 17.571 12.438 21.491z" fill="#fff"/><path d="M505.587 292.268c-1.319 2.279-3.205 3.89-5.88 4.124-10.489.882-16.391-9.539-16.266-10.501l.544-2.749h21.509a49.157 49.157 0 00.093 9.126z" fill="#000"/><path d="M574.466 372.658c-.027.698-.06 1.399-.098 2.103a239.94 239.94 0 01-1.122 13.816c-.071.709-.15 1.419-.229 2.122a286.198 286.198 0 01-.72 5.8c-.375 2.81-.775 5.562-1.188 8.22-.111.717-.223 1.432-.334 2.136a460.51 460.51 0 01-2.523 14.168c-.144.742-.288 1.457-.426 2.147-1.468 7.347-2.591 11.993-2.591 11.993l-70.551 17.901-74.229-13.923s-.701-5.528-1.449-14.02a89.125 89.125 0 01-.177-2.037 485.688 485.688 0 01-.97-13.689c-.033-.671-.071-1.347-.103-2.029a379.504 379.504 0 01-.481-13.624c0-.67-.025-1.347-.033-2.015-.052-4.502 0-9.071.158-13.519.021-.668.054-1.339.078-2.001.218-4.635.571-9.143 1.115-13.374.087-.663.178-1.319.272-1.968a80.011 80.011 0 012.28-10.88c.223-.762.46-1.498.71-2.221.215-.655.437-1.292.682-1.925.019-.057.046-.118.065-.178l.294-.742c.375-.935.769-1.828 1.18-2.692.138-.291.271-.582.421-.86.149-.278.293-.586.446-.869.117-.225.242-.451.367-.676.125-.225.236-.426.353-.629l.353-.605c.139-.226.272-.451.414-.676.21-.334.422-.658.636-.974.138-.214.271-.426.426-.624.414-.61.846-1.187 1.292-1.751.347-.442.701-.874 1.068-1.292a.645.645 0 01.051-.066l.12-.14c.182-.206.362-.404.544-.596.306-.343.62-.675.943-.995.106-.105.204-.212.31-.311.214-.212.424-.418.641-.616a30.41 30.41 0 012.012-1.756c.217-.182.44-.352.663-.525.223-.174.451-.352.688-.525.236-.174.465-.339.696-.504.231-.164.394-.274.589-.409a49.79 49.79 0 019.093-4.808c.255-.113.519-.217.78-.319.897-.363 1.81-.709 2.718-1.033l1.218-.438c.231-.079.459-.159.69-.23 1.631-.55 3.298-1.1 4.95-1.592l.753-.239.802-.245c2.128-.657 4.246-1.3 6.331-1.99.272-.085.543-.179.815-.275.473-.159.938-.316 1.403-.484.236-.08.467-.165.704-.25.497-.173.989-.36 1.473-.55a43.766 43.766 0 007.657 5.185 40.491 40.491 0 004.787 2.141c6.334 2.348 14.344 3.373 23.287.099a38.544 38.544 0 004.719-2.114 48.713 48.713 0 008.755-5.957c.171.066.343.14.519.212.675.273 1.362.525 2.064.756.271.093.557.187.848.275.291.088.595.187.902.275a.442.442 0 00.101.033l.084.019c.525.154 1.049.3 1.585.431.271.075.565.146.848.212l.859.201c.693.159 1.394.305 2.109.451l.756.151 1.514.275a.3.3 0 01.084.013l1.704.297c1.069.187 2.137.36 3.213.55.139.019.272.047.408.066l1.487.245c.413.066.832.14 1.253.211.609.099 1.212.207 1.821.319.609.113 1.207.22 1.811.338.418.08.845.165 1.263.253l1.226.259 1.215.275.816.203c.272.066.565.14.84.212.688.181 1.359.371 2.052.577.217.06.432.126.65.201.576.184 1.152.376 1.723.574.571.198 1.101.407 1.645.624a38.013 38.013 0 013.533 1.644c.288.151.571.313.854.478.562.319 1.12.657 1.663 1.015h.014c.272.178.544.363.799.549.256.187.459.33.69.498a28.34 28.34 0 012.398 2.034c.101.094.204.193.302.3.144.132.288.275.426.418.237.236.473.489.71.742.149.17.299.344.446.517.339.39.674.789.989 1.198.196.253.386.512.576.778a47.208 47.208 0 01.683.979c.176.275.353.55.524.825.025.046.057.093.085.14.163.275.32.55.478.824.041.069.079.135.117.207.138.239.272.483.402.736.057.105.117.217.169.33a19.192 19.192 0 01.551 1.116c.066.146.172.358.251.536.078.179.182.404.271.616.381.883.735 1.805 1.063 2.765a13.257 13.257 0 01.283.842c.125.365.236.742.353 1.127.074.253.152.511.218.775 1.041 3.807 1.69 8.183 2.025 12.92.046.668.092 1.344.125 2.034.223 4.283.209 8.832.024 13.478z" fill="#BF0830"/><path d="M476.507 319.563a40.491 40.491 0 004.787 2.141 539.728 539.728 0 01-29.683-1.71c1.631-.55 3.298-1.099 4.95-1.592 6.209.476 12.909.88 19.936 1.161h.01zm65.512-.498c-12.455 1.649-25.141 2.474-37.438 2.749a38.544 38.544 0 004.719-2.114c8.57-.275 17.282-.855 25.929-1.803.139.019.272.046.408.066l1.487.244c.413.066.831.14 1.253.212.609.099 1.212.206 1.821.319.609.112 1.218.214 1.821.327zm23.273 11.383c-22.599 5.278-47.384 7.013-70.23 7.013-26.525 0-50.426-2.34-65.21-4.195a.53.53 0 01.051-.066l.12-.14c.182-.206.361-.404.543-.597.307-.343.621-.674.944-.995 27.725 3.409 84.713 8.123 132.2-2.697.144.132.288.275.427.418.236.237.473.49.709.742.15.171.299.344.446.517zm7 13.775c-24.402 6.677-52.008 8.797-77.233 8.797-32.075 0-60.298-3.423-73.212-5.273.214-.654.437-1.292.682-1.924 23.377 3.329 94.471 11.444 149.192-3.513.125.365.236.742.353 1.127.082.256.161.53.218.786zm2.158 14.957c-24.918 7.147-53.416 9.396-79.372 9.396-35.119 0-65.62-4.104-76.472-5.756.087-.664.178-1.32.272-1.969 18.756 2.859 97.168 13.195 155.46-3.705.033.668.079 1.344.112 2.034z" fill="#F2D7C0"/><path d="M522.475 315.285c-5.526 5.372-16.644 14.02-31.839 12.81-14.194-1.141-22.42-7.988-26.184-12.167a95.79 95.79 0 004.392-1.55c6.491 5.498 26.255 18.654 49.2-.638.171.066.34.14.519.212 1.267.506 2.563.943 3.912 1.333zm-2.764-52.084c0-2.971-2.077-5.379-4.638-5.379-2.56 0-4.637 2.408-4.637 5.379 0 2.972 2.077 6.708 4.637 6.708 2.561 0 4.638-3.736 4.638-6.708z" fill="#fff"/><path d="M513.85 265.046l-.327-.033c0-.036.397-3.544 3.618-3.629v.33c-2.919.08-3.291 3.299-3.291 3.332z" fill="#000"/><path d="M517.035 264.548c-.543-.574-1.109-.844-1.666-.824a2.18 2.18 0 00-1.424.8l-.272-.201a2.473 2.473 0 011.663-.929c.669-.039 1.305.275 1.925.915l-.226.239z" fill="#000"/><path d="M468.214 263.201c0-2.971 2.077-5.379 4.637-5.379 2.561 0 4.637 2.408 4.637 5.379 0 2.972-2.076 6.708-4.637 6.708-2.56 0-4.637-3.736-4.637-6.708z" fill="#fff"/><path d="M474.58 265.046l.326-.033c0-.036-.397-3.544-3.618-3.629v.33c2.928.08 3.289 3.299 3.292 3.332z" fill="#000"/><path d="M471.402 264.548c.544-.574 1.109-.844 1.667-.824a2.182 2.182 0 011.424.8l.272-.201a2.485 2.485 0 00-1.664-.929c-.668-.039-1.304.275-1.924.915l.225.239z" fill="#000"/><path d="M507.22 283.862c-3.436 3.992-7.785 6.562-13.001 6.477-5.211.085-9.566-2.474-13.001-6.477a.88.88 0 00-.06-.074c-6.154-7.865-7.407-19.322-5.741-32.962 1.672-13.682 18.802-15.669 18.802-15.669s17.125 1.998 18.802 15.669c1.677 13.67.407 25.171-5.801 33.036z" fill="#fff"/><path d="M500.248 265.824c.76 0 1.375-.623 1.375-1.391s-.615-1.391-1.375-1.391-1.375.623-1.375 1.391.615 1.391 1.375 1.391zm-13.14 0c.76 0 1.376-.623 1.376-1.391s-.616-1.391-1.376-1.391c-.759 0-1.375.623-1.375 1.391s.616 1.391 1.375 1.391zm21.278-12.181s-2.914.074-6.741.094c-3.827.019-4.814-.02-4.471-1.012.342-.992 4.18-.973 6.575-.63 1.614.276 3.178.798 4.637 1.548zm-29.302 0s2.914.074 6.738.094c3.825.019 4.817-.02 4.475-1.012-.343-.992-4.181-.973-6.576-.63a16.077 16.077 0 00-4.637 1.548zm14.379 18.418c-.36.033-.72-.064-1.016-.275a.6.6 0 01-.177-.55c.163-1.036.758-5.149.764-5.19l.326.047c0 .041-.603 4.156-.766 5.196a.266.266 0 000 .148.265.265 0 00.076.126c.304.289 1.359.179 1.965.042l.073.321a6.054 6.054 0 01-1.245.135z" fill="#000"/><path d="M499.669 270.92c.185.749.094 1.54-.256 2.226a3.153 3.153 0 01-1.644 1.502 3.111 3.111 0 01-2.216.031 3.15 3.15 0 01-1.685-1.455l5.801-2.304z" fill="#E5DDDD"/><path d="M511.803 244.891l.816 17.318 1.726-5.055s3.933-8.283-2.542-12.263z" fill="#000"/><path d="M474.779 263.201s.97-6.625 1.707-14.165c0 0 3.06-1.833 5.164-6.048 0 0 6.146 13.426 22.371 13.841 0 0-14.423-1.245-20.569-12.681 0 0 13.01 14.751 31.621 10.941 0 0 1.485-13.593-5.235-18.896-6.719-5.303-29.226-5.223-35.065 3.315-5.839 8.538-.997 16.989-.997 16.989l1.003 6.704zm99.687 109.457c-.027.698-.059 1.399-.097 2.103a240.843 240.843 0 01-1.123 13.816c-.071.709-.15 1.419-.228 2.122a286.166 286.166 0 01-.721 5.8c4.994-46.456-7.945-63.434-14.338-69.066-4.64-4.094-21.246-8.646-29.999-10.834l.756.151 1.514.275a.336.336 0 01.084.014l1.705.297c1.068.187 2.136.36 3.213.55.138.019.271.046.407.066l1.487.244c.413.066.832.14 1.253.212.609.099 1.213.206 1.822.319.608.112 1.207.22 1.81.338.419.08.845.165 1.264.253l1.226.258 1.215.275.815.204c.272.066.566.14.84.211.688.182 1.359.371 2.053.577.217.061.432.127.649.201.576.184 1.153.377 1.724.575.57.198 1.1.406 1.644.624.905.371 1.797.761 2.669 1.201.288.146.577.291.865.443.288.151.571.313.853.478.563.319 1.12.657 1.664 1.014h.013c.272.179.544.363.799.55.256.187.46.33.691.498a27.96 27.96 0 012.397 2.034c.101.093.204.192.302.299.144.132.288.275.427.418.236.237.473.49.709.742.15.171.299.344.446.517.34.391.674.789.99 1.199.195.253.386.511.576.778a47.118 47.118 0 01.682.978c.177.275.353.55.525.825.024.047.057.093.084.14a58.372 58.372 0 01.595 1.031c.139.239.272.484.403.737.057.104.116.217.168.33.12.22.231.445.343.67.07.146.144.3.209.446.065.145.171.357.25.536.079.178.182.404.272.615.38.884.735 1.806 1.063 2.766a14.057 14.057 0 01.282.841c.125.366.237.742.354 1.127.073.253.152.511.217.775 1.041 3.808 1.691 8.184 2.025 12.92.046.668.093 1.345.125 2.035.226 4.277.212 8.826.027 13.472z" fill="#000"/></g></g><g filter="url(#filter4_d_1_243149)"><g clip-path="url(#clip4_1_243149)"><rect x="225" y="54" width="188" height="190" rx="94" fill="#fff"/><path d="M318.093 266.102c57.954 0 104.934-47.48 104.934-106.051 0-58.57-46.98-106.051-104.934-106.051s-104.935 47.481-104.935 106.051c0 58.571 46.981 106.051 104.935 106.051z" fill="#D73659"/><path d="M341.126 128.01s15.447 4.136 15.627 23.057c.18 18.922 32.394 5.49 24.342 37.849-8.052 32.358-41.755 22.327-48.681 18.544-6.926-3.784-48.777-10.029-48.777-10.029s-2.056-16.1 4.873-30.655c6.928-14.556 15.02-15.709 9.802-32.172-5.219-16.463 42.814-6.594 42.814-6.594z" fill="#120283"/><path d="M327.732 146.716s7.451-.59 11.872-13.826 10.035-36.333-5.938-46.917c-13.416-8.905-47.007-6.623-47.746 18.734-.738 25.356 5.12 28.183 5.12 28.183l36.692 13.826z" fill="#120283"/><path d="M422.618 351.717l-201.354-2.518s3.982-80.996 8.094-112.236c4.112-31.241 36.619-45.161 55.61-50.241 6.935-1.86 11.575-3.753 14.605-6.841 3.295-3.335 4.718-8.061 5.148-15.612.264-4.612.16-10.284-.118-17.337l17.349-10.309 8.962-5.328s-1.578 24.507-.078 35.694c.707 5.256 2.454 9.247 4.634 12.128 2.457 3.245 5.46 5.084 8.145 5.74 5.055 1.237 56.534 2.957 66.634 54.254 10.099 51.297 12.369 112.606 12.369 112.606z" fill="#fff"/><path d="M422.618 351.717l-44.48-.568-20.632-.258-92.838-1.161-5.713-.071-37.691-.472s3.979-80.995 8.094-112.236c3.898-29.597 33.279-43.647 52.521-49.369 1.067-.318 2.097-.611 3.089-.878a69.007 69.007 0 006.716-2.106c3.395-1.297 5.971-2.776 7.903-4.737 3.575 2.591 14.796 8.339 35.897-.772 2.396 3.165 5.314 4.993 7.937 5.677.065.022.132.04.199.054 1.525.374 7.303.792 14.886 2.611 17.511 4.198 44.71 15.853 51.754 51.66 10.105 51.303 12.358 112.626 12.358 112.626z" fill="#A8A4DF"/><path d="M329.88 135.578s-.747 12.305-9.549 23.681c-2.076 2.685-4.213 4.284-6.269 5.155-4.367 1.853-9.176-1.419-9.176-6.222 0-3.307-.104-7.042-.281-11.274l17.349-10.31 7.926-1.03z" fill="#120283"/><path d="M337.879 132.146c-1.362 2.952-4.104 4.638-6.631 4.073-2.247 9.203-8.145 21.096-24.154 21.096-10.42 0-18.2-14.76-18.104-24.411.078-7.948 0-9.214 0-9.214l-.071-15.591h43.065c.236 4.731.438 10.519.376 15.781.842-.567 2.275-1.135 4.449-.851 3.937.488 3.131 4.644 1.07 9.117z" fill="#fff"/><path d="M313.214 132.325a1.26 1.26 0 001.253-1.266 1.26 1.26 0 00-1.253-1.266 1.26 1.26 0 00-1.253 1.266 1.26 1.26 0 001.253 1.266zm-13.088 0c.692 0 1.252-.567 1.252-1.266 0-.699-.56-1.266-1.252-1.266a1.26 1.26 0 00-1.253 1.266 1.26 1.26 0 001.253 1.266zm5.71 9.214s3.244-.327 5.463-1.661c0 .006-.542 3.954-5.463 1.661zm-.348-2.345a2.73 2.73 0 01-1.84-.627.835.835 0 01-.281-.869c.244-.775 1.059-3.071 1.067-3.094l.396.145c0 .023-.82 2.31-1.061 3.077a.45.45 0 00.171.434c.463.446 1.564.698 2.528.332l.146.4a3.234 3.234 0 01-1.126.202zm11.841-17.241s-7.48.639-9.058.247c0 0 .067-.829 1.438-1.24 1.371-.412 5.373.02 7.62.993zm-23.593 0s7.477.639 9.058.247c0 0-.067-.829-1.441-1.24-1.373-.412-5.37.02-7.617.993z" fill="#120283"/><path d="M331.08 123.404s-6.011-3.123-9.139-12.583c0 0-11.592-.852-15.319 4.164-3.727 5.015-6.1 12.015-18.112 10.973v-19.395h42.943l-.373 16.841z" fill="#120283"/><path d="M335.304 106.563c-.146 7.891-1.944 16.108-1.944 16.108l-.396 1.4c-2.452 8.949-1.123 18.964-1.05 19.469-.124-.423-2.143-7.446-2.034-13.179.07-3.741.051-9.083.028-12.521a59.852 59.852 0 00-.561-3.9c-.677-3.781-2.115-6.017-3.91-7.38l9.867.003zm-9.861-20.684c-.379-1.561-.261-12.773 9.861-12.064 10.122.71 18.256 12.632 9.701 19.87-8.555 7.238-14.63 4.116-14.63 4.116l-4.932-11.922z" fill="#120283"/><path d="M358.509 187.451c-10.013 12.205-27.32 24.663-45.71 24.49-21.261-.198-28.749-17.34-30.923-24.348 1.067-.318 2.097-.61 3.089-.877a69.561 69.561 0 006.716-2.106c3.395-1.297 5.971-2.776 7.903-4.738 3.576 2.592 14.796 8.34 35.897-.772 2.396 3.165 5.314 4.993 7.937 5.677.065.022.132.04.199.054 1.54.383 7.306.801 14.892 2.62z" fill="#fff"/><path d="M258.954 349.67l5.713-123.556v123.627l-5.713-.071zm119.183 1.49l-20.632-.258c6.803-23.843 17.992-72.146 13.743-120.587 0 0 8.367 59.242 6.889 120.845z" fill="#DD5454"/></g></g><g filter="url(#filter5_d_1_243149)"><g clip-path="url(#clip5_1_243149)"><rect x="439" y="10" width="130" height="130" rx="65" fill="#fff"/><path d="M504.3 149.604c39.738 0 71.951-32.213 71.951-71.95 0-39.738-32.213-71.951-71.951-71.951-39.737 0-71.951 32.213-71.951 71.95 0 39.738 32.214 71.951 71.951 71.951z" fill="#120283"/><path d="M511.504 32.921s13.288-3.755 9.468 17.3c0 0 7.576 1.54 7.832 12.71 0 0 7.318 2.696 8.858 10.784 0 0-15.539 7.141-37.09 6.548-21.552-.593-34.934-7.703-34.934-7.703s2.952-7.786 9.741-9.032c0 0 .787-10.326 5.024-13.022 0 0-2.55-13.252 3.613-19.8 6.162-6.547 23.637-9.436 27.488 2.215z" fill="#000"/><path d="M575.97 207.686l-138.061-1.708s2.729-54.952 5.55-76.148c2.821-21.195 25.106-30.639 38.13-34.086 4.755-1.261 7.938-2.546 10.014-4.643 2.259-2.263 3.236-5.47 3.53-10.592.181-3.129.112-6.977-.081-11.762l11.896-6.995 6.145-3.613s-1.08 16.626-.052 24.215c.483 3.567 1.681 6.275 3.176 8.23 1.685 2.2 3.745 3.448 5.584 3.893 3.467.84 38.764 2.007 45.689 36.811 6.926 34.805 8.48 76.398 8.48 76.398z" fill="#fff"/><path d="M575.97 207.686l-138.063-1.708s2.731-54.952 5.55-76.148c2.82-21.195 25.109-30.639 38.14-34.086a47.832 47.832 0 004.603-1.429c2.328-.88 4.096-1.885 5.419-3.214 2.452 1.758 10.145 5.658 24.613-.524 1.643 2.148 3.646 3.388 5.443 3.852.048.015.092.027.136.036 3.467.84 38.764 2.007 45.688 36.812 6.923 34.804 8.471 76.409 8.471 76.409z" fill="#D73659"/><mask id="a" style="mask-type:alpha" maskUnits="userSpaceOnUse" x="437" y="90" width="139" height="118"><path d="M575.97 207.686l-138.063-1.708s2.731-54.952 5.55-76.148c2.819-21.195 25.108-30.639 38.14-34.086a47.9 47.9 0 004.602-1.429c2.329-.88 4.097-1.885 5.42-3.214 2.451 1.758 10.145 5.658 24.613-.524 1.643 2.148 3.645 3.388 5.442 3.852.048.015.093.027.137.036 3.466.84 38.764 2.007 45.687 36.812 6.923 34.804 8.472 76.409 8.472 76.409z" fill="#5661E1"/></mask><g mask="url(#a)" fill="#F4E294"><path d="M451.103 129.605a.666.666 0 00-.891 0c-.709.639-2.005 1.982-1.909 3.155.097 1.172 1.283 2.49 1.926 3.137a.597.597 0 00.842 0c.653-.647 1.841-1.976 1.935-3.137.094-1.162-1.192-2.516-1.903-3.155zm15.309 0a.667.667 0 00-.892 0c-.709.639-2.005 1.982-1.908 3.155.096 1.172 1.282 2.49 1.925 3.137a.597.597 0 00.842 0c.653-.647 1.841-1.976 1.926-3.137.084-1.162-1.177-2.516-1.893-3.155zm15.57.697a.667.667 0 00-.892 0c-.708.641-2.004 1.982-1.908 3.155.096 1.172 1.282 2.49 1.926 3.137a.59.59 0 00.648.129.59.59 0 00.193-.129c.651-.647 1.839-1.974 1.936-3.137.096-1.164-1.194-2.514-1.903-3.155zm15.307 0a.666.666 0 00-.891 0c-.709.641-2.005 1.982-1.909 3.155.097 1.172 1.283 2.49 1.926 3.137a.6.6 0 00.649.129.6.6 0 00.193-.129c.651-.647 1.839-1.974 1.935-3.137.096-1.164-1.194-2.514-1.903-3.155zm15.57.697a.665.665 0 00-.891 0c-.709.642-2.005 1.984-1.909 3.155.097 1.171 1.283 2.492 1.926 3.139a.597.597 0 00.842 0c.65-.647 1.839-1.976 1.925-3.139.087-1.163-1.184-2.513-1.893-3.155zm15.316 0a.665.665 0 00-.891 0c-.709.642-2.005 1.984-1.909 3.155.096 1.171 1.283 2.492 1.926 3.139a.597.597 0 00.842 0c.651-.647 1.839-1.976 1.925-3.139.087-1.163-1.192-2.513-1.893-3.155zm15.563.699a.668.668 0 00-.892 0c-.709.642-2.005 1.982-1.91 3.155.094 1.173 1.284 2.49 1.925 3.137a.599.599 0 00.842 0c.651-.647 1.839-1.976 1.926-3.137.086-1.161-1.183-2.513-1.891-3.155zm15.307 0a.666.666 0 00-.891 0c-.709.642-2.005 1.982-1.911 3.155.095 1.173 1.283 2.49 1.936 3.137a.595.595 0 00.841 0c.651-.647 1.839-1.976 1.926-3.137.087-1.161-1.188-2.513-1.901-3.155zM443.32 114.376a.662.662 0 00-.892 0c-.709.641-2.005 1.984-1.908 3.154.096 1.171 1.282 2.492 1.925 3.139a.596.596 0 00.842 0c.651-.647 1.839-1.975 1.926-3.139.086-1.163-1.185-2.513-1.893-3.154zm15.57.699a.667.667 0 00-.892 0c-.709.639-2.005 1.982-1.911 3.155.095 1.172 1.283 2.49 1.926 3.137a.597.597 0 00.842 0c.651-.647 1.839-1.976 1.926-3.137.086-1.162-1.183-2.516-1.891-3.155zm15.308 0a.667.667 0 00-.892 0c-.709.639-2.005 1.982-1.91 3.155.094 1.172 1.282 2.49 1.935 3.137a.597.597 0 00.842 0c.65-.647 1.839-1.976 1.925-3.137.087-1.162-1.192-2.516-1.9-3.155zm15.57.697a.667.667 0 00-.892 0c-.71.642-2.005 1.982-1.91 3.155.094 1.172 1.282 2.49 1.926 3.137a.596.596 0 00.841 0c.651-.647 1.839-1.974 1.926-3.137.087-1.164-1.183-2.513-1.891-3.155zm15.307 0a.666.666 0 00-.891 0c-.711.642-2.005 1.982-1.911 3.155.095 1.172 1.283 2.49 1.936 3.137a.6.6 0 00.649.129.596.596 0 00.192-.129c.651-.647 1.84-1.974 1.926-3.137.087-1.164-1.192-2.513-1.901-3.155zm15.568.697a.665.665 0 00-.891 0c-.709.642-2.005 1.984-1.909 3.155.097 1.171 1.283 2.492 1.926 3.139a.597.597 0 00.842 0c.653-.647 1.841-1.976 1.926-3.139.084-1.163-1.183-2.513-1.894-3.155zm15.309 0a.666.666 0 00-.892 0c-.709.642-2.005 1.984-1.908 3.155.096 1.171 1.282 2.492 1.925 3.139a.597.597 0 00.842 0c.653-.647 1.841-1.976 1.935-3.139.095-1.163-1.192-2.513-1.902-3.155zm15.57.705a.669.669 0 00-.892 0c-.709.642-2.005 1.982-1.909 3.155.097 1.172 1.283 2.49 1.926 3.137a.597.597 0 00.842 0c.653-.647 1.841-1.976 1.935-3.137.095-1.162-1.194-2.519-1.902-3.155zm15.308 0a.669.669 0 00-.892 0c-.709.642-2.005 1.982-1.909 3.155.097 1.172 1.283 2.49 1.926 3.137a.597.597 0 00.842 0c.651-.647 1.839-1.976 1.926-3.137.086-1.162-1.185-2.519-1.893-3.155zm-115.727-16.927a.662.662 0 00-.891 0c-.709.641-2.005 1.981-1.909 3.154.097 1.173 1.283 2.49 1.926 3.137a.587.587 0 00.649.13.587.587 0 00.193-.13c.653-.647 1.841-1.976 1.935-3.137.094-1.161-1.192-2.513-1.903-3.154zm15.309 0a.666.666 0 00-.892 0c-.709.641-2.005 1.981-1.908 3.154.096 1.173 1.282 2.49 1.925 3.137a.587.587 0 00.649.13.587.587 0 00.193-.13c.653-.647 1.841-1.976 1.926-3.137.084-1.161-1.177-2.513-1.893-3.154zm15.57.697a.662.662 0 00-.892 0c-.708.641-2.004 1.981-1.908 3.154.096 1.173 1.282 2.49 1.926 3.139a.598.598 0 00.841 0c.651-.649 1.839-1.976 1.936-3.139.096-1.163-1.194-2.513-1.903-3.154zm15.307 0a.662.662 0 00-.891 0c-.709.641-2.005 1.981-1.909 3.154.097 1.173 1.283 2.49 1.926 3.139a.598.598 0 00.842 0c.651-.649 1.839-1.976 1.935-3.139.096-1.163-1.194-2.513-1.903-3.154zm15.57.699a.654.654 0 00-.445-.173.655.655 0 00-.446.173c-.709.639-2.005 1.981-1.909 3.154.097 1.173 1.283 2.49 1.926 3.137a.598.598 0 00.842 0c.65-.647 1.839-1.976 1.925-3.137.087-1.161-1.184-2.515-1.893-3.154zm15.316 0a.656.656 0 00-.891 0c-.709.639-2.005 1.981-1.909 3.154.096 1.173 1.283 2.49 1.926 3.137a.598.598 0 00.842 0c.651-.647 1.839-1.976 1.925-3.137.087-1.161-1.192-2.515-1.893-3.154zm15.563.703a.664.664 0 00-.892 0c-.709.641-2.005 1.981-1.91 3.154.094 1.173 1.284 2.49 1.925 3.137a.597.597 0 00.649.13.587.587 0 00.193-.13c.651-.647 1.839-1.976 1.926-3.137.086-1.161-1.183-2.519-1.891-3.154zm15.307 0a.662.662 0 00-.891 0c-.709.641-2.005 1.981-1.911 3.154.095 1.173 1.283 2.49 1.936 3.137a.577.577 0 00.42.175.59.59 0 00.421-.175c.651-.647 1.839-1.976 1.926-3.137.087-1.161-1.188-2.519-1.901-3.154zM443.32 85.014a.661.661 0 00-.892 0c-.709.64-2.005 1.981-1.908 3.154.096 1.173 1.282 2.49 1.925 3.137a.599.599 0 00.842 0c.651-.647 1.839-1.976 1.926-3.137.086-1.161-1.185-2.51-1.893-3.154zm15.57.703a.668.668 0 00-.892 0c-.709.64-2.005 1.981-1.911 3.154.095 1.173 1.283 2.49 1.926 3.137a.595.595 0 00.842 0c.651-.647 1.839-1.976 1.926-3.137.086-1.161-1.183-2.51-1.891-3.154zm15.308 0a.668.668 0 00-.892 0c-.709.64-2.005 1.981-1.91 3.154.094 1.173 1.282 2.49 1.935 3.137a.595.595 0 00.842 0c.65-.647 1.839-1.976 1.925-3.137.087-1.161-1.192-2.51-1.9-3.154zm15.57.697a.664.664 0 00-.892 0c-.71.641-2.005 1.981-1.91 3.154.094 1.173 1.282 2.49 1.926 3.14a.595.595 0 00.841 0c.651-.65 1.839-1.977 1.926-3.14.087-1.163-1.182-2.513-1.891-3.154zm15.307 0a.664.664 0 00-.891 0c-.711.641-2.005 1.981-1.911 3.154.095 1.173 1.283 2.49 1.936 3.14a.597.597 0 00.841 0c.651-.65 1.84-1.977 1.926-3.14.087-1.163-1.192-2.513-1.901-3.154zm15.569.699a.662.662 0 00-.892 0c-.709.64-2.005 1.981-1.909 3.154.097 1.173 1.283 2.49 1.926 3.137a.597.597 0 00.842 0c.653-.647 1.841-1.976 1.926-3.137.084-1.161-1.183-2.515-1.893-3.154zm15.308 0a.662.662 0 00-.892 0c-.709.64-2.005 1.981-1.908 3.154.096 1.173 1.282 2.49 1.925 3.137a.597.597 0 00.842 0c.653-.647 1.841-1.976 1.935-3.137.095-1.161-1.192-2.515-1.902-3.154zm15.57.697a.666.666 0 00-.892 0c-.709.641-2.005 1.982-1.909 3.154.097 1.173 1.283 2.49 1.926 3.138a.595.595 0 00.842 0c.653-.648 1.841-1.976 1.935-3.138.095-1.16-1.194-2.513-1.902-3.154zm15.308 0a.666.666 0 00-.892 0c-.709.641-2.005 1.982-1.909 3.154.097 1.173 1.283 2.49 1.926 3.138a.595.595 0 00.842 0c.651-.648 1.839-1.976 1.926-3.138.086-1.16-1.185-2.513-1.893-3.154z"/></g><path d="M512.384 61.045s-.512 8.349-6.547 16.067c-1.423 1.824-2.889 2.906-4.297 3.498-2.996 1.257-6.293-.963-6.291-4.222 0-2.243-.072-4.778-.193-7.649l11.894-6.994 5.434-.7z" fill="#120283"/><path d="M518.705 60.086c-.934 2.003-3.659 1.78-5.392 1.397-1.541 6.243-5.585 14.312-16.562 14.312-7.145 0-12.479-10.014-12.414-16.562.054-5.392 0-6.25 0-6.25l-.048-10.58h29.538c.161 3.211.3 7.138.258 10.708.578-.385 1.56-.78 3.05-.587 2.704.34 2.983 4.527 1.57 7.562z" fill="#fff"/><path d="M500.957 58.648a.86.86 0 100-1.719.86.86 0 000 1.719zm-8.976 0a.86.86 0 100-1.719.86.86 0 000 1.719z" fill="#120283"/><path d="M521.674 94.433c-17.854 10.769-30.78 3.466-35.475-.12 2.328-.88 4.096-1.885 5.419-3.214 2.452 1.758 10.145 5.658 24.614-.524 1.642 2.142 3.645 3.388 5.442 3.858z" fill="#A81A39"/><path d="M495.896 65.095s2.224-.22 3.748-1.126c0 0-.374 2.679-3.748 1.126zm-.237-1.595a1.903 1.903 0 01-1.264-.423.57.57 0 01-.192-.591c.166-.526.724-2.084.73-2.099l.271.098c0 .016-.56 1.568-.726 2.09a.294.294 0 00.118.292c.316.303 1.072.474 1.733.226l.102.271c-.247.09-.509.137-.772.137zm8.117-11.706s-5.126.433-6.211.17c0 0 .047-.563.988-.844.942-.281 3.682.023 5.223.674zm-16.176 0s5.128.433 6.21.17c0 0-.046-.563-.986-.844s-3.684.025-5.224.674z" fill="#120283"/><path d="M513.205 52.79s-4.121-2.119-6.265-8.54c0 0-7.95-.577-10.503 2.826-2.554 3.403-4.185 8.152-12.421 7.447v-13.16h29.445l-.256 11.427z" fill="#000"/><path d="M516.103 41.362c-.1 5.354-1.332 10.929-1.332 10.929l-.268.947c-1.681 6.072-.77 12.867-.72 13.21-.085-.288-1.47-5.052-1.395-8.942.049-2.538.035-6.163.02-8.495a40.142 40.142 0 00-.385-2.646c-.465-2.565-1.451-4.082-2.681-5.007l6.761.004z" fill="#000"/><path d="M489.162 101.308s7.953 5.777 26.941 0c0 0-16.253 8.953-26.941 0zm47.087 26.023c.046.325.483 3.466.849 8.192l-.849-8.192z" fill="#A81A39"/><path d="M544.597 207.686h-50.33c12.359-5.958 29.734-15.657 36.489-25.792 7.782-11.67 7.289-34.229 6.342-46.373l7.499 72.165zm-76.274-74.926l-1.772 74.926h-2.475c1.061-19.054 4.247-74.926 4.247-74.926z" fill="#A81A39"/></g></g><path opacity=".5" d="M266.5 320c10.217 0 18.5-8.283 18.5-18.5s-8.283-18.5-18.5-18.5-18.5 8.283-18.5 18.5 8.283 18.5 18.5 18.5z" fill="#D73659"/><path opacity=".5" d="M552 179c8.284 0 15-6.716 15-15 0-8.284-6.716-15-15-15-8.284 0-15 6.716-15 15 0 8.284 6.716 15 15 15z" fill="#FFDA32"/><path opacity=".5" d="M151 181c20.987 0 38-16.565 38-37s-17.013-37-38-37-38 16.565-38 37 17.013 37 38 37z" fill="#6258C4"/><path opacity=".5" d="M477 433c9.941 0 18-7.611 18-17s-8.059-17-18-17-18 7.611-18 17 8.059 17 18 17z" fill="#74BBFB"/><defs><clipPath id="clip0_1_243149"><rect x="35" y="222" width="178" height="177" rx="88.5" fill="#fff"/></clipPath><clipPath id="clip1_1_243149"><rect x="243" y="343" width="164" height="164" rx="82" fill="#fff"/></clipPath><clipPath id="clip2_1_243149"><rect x="533" y="350" width="152" height="156" rx="76" fill="#fff"/></clipPath><clipPath id="clip3_1_243149"><rect x="407" y="181" width="177" height="179" rx="88.5" fill="#fff"/></clipPath><clipPath id="clip4_1_243149"><rect x="225" y="54" width="188" height="190" rx="94" fill="#fff"/></clipPath><clipPath id="clip5_1_243149"><rect x="439" y="10" width="130" height="130" rx="65" fill="#fff"/></clipPath><filter id="filter0_d_1_243149" x="0" y="212" width="248" height="247" filterUnits="userSpaceOnUse" color-interpolation-filters="sRGB"><feFlood flood-opacity="0" result="BackgroundImageFix"/><feColorMatrix in="SourceAlpha" values="0 0 0 0 0 0 0 0 0 0 0 0 0 0 0 0 0 0 127 0" result="hardAlpha"/><feOffset dy="25"/><feGaussianBlur stdDeviation="17.5"/><feColorMatrix values="0 0 0 0 0.0862745 0 0 0 0 0.0901961 0 0 0 0 0.282353 0 0 0 0.05 0"/><feBlend in2="BackgroundImageFix" result="effect1_dropShadow_1_243149"/><feBlend in="SourceGraphic" in2="effect1_dropShadow_1_243149" result="shape"/></filter><filter id="filter1_d_1_243149" x="208" y="333" width="234" height="234" filterUnits="userSpaceOnUse" color-interpolation-filters="sRGB"><feFlood flood-opacity="0" result="BackgroundImageFix"/><feColorMatrix in="SourceAlpha" values="0 0 0 0 0 0 0 0 0 0 0 0 0 0 0 0 0 0 127 0" result="hardAlpha"/><feOffset dy="25"/><feGaussianBlur stdDeviation="17.5"/><feColorMatrix values="0 0 0 0 0.0862745 0 0 0 0 0.0901961 0 0 0 0 0.282353 0 0 0 0.05 0"/><feBlend in2="BackgroundImageFix" result="effect1_dropShadow_1_243149"/><feBlend in="SourceGraphic" in2="effect1_dropShadow_1_243149" result="shape"/></filter><filter id="filter2_d_1_243149" x="498" y="340" width="222" height="226" filterUnits="userSpaceOnUse" color-interpolation-filters="sRGB"><feFlood flood-opacity="0" result="BackgroundImageFix"/><feColorMatrix in="SourceAlpha" values="0 0 0 0 0 0 0 0 0 0 0 0 0 0 0 0 0 0 127 0" result="hardAlpha"/><feOffset dy="25"/><feGaussianBlur stdDeviation="17.5"/><feColorMatrix values="0 0 0 0 0.0862745 0 0 0 0 0.0901961 0 0 0 0 0.282353 0 0 0 0.05 0"/><feBlend in2="BackgroundImageFix" result="effect1_dropShadow_1_243149"/><feBlend in="SourceGraphic" in2="effect1_dropShadow_1_243149" result="shape"/></filter><filter id="filter3_d_1_243149" x="372" y="171" width="247" height="249" filterUnits="userSpaceOnUse" color-interpolation-filters="sRGB"><feFlood flood-opacity="0" result="BackgroundImageFix"/><feColorMatrix in="SourceAlpha" values="0 0 0 0 0 0 0 0 0 0 0 0 0 0 0 0 0 0 127 0" result="hardAlpha"/><feOffset dy="25"/><feGaussianBlur stdDeviation="17.5"/><feColorMatrix values="0 0 0 0 0.0862745 0 0 0 0 0.0901961 0 0 0 0 0.282353 0 0 0 0.05 0"/><feBlend in2="BackgroundImageFix" result="effect1_dropShadow_1_243149"/><feBlend in="SourceGraphic" in2="effect1_dropShadow_1_243149" result="shape"/></filter><filter id="filter4_d_1_243149" x="190" y="44" width="258" height="260" filterUnits="userSpaceOnUse" color-interpolation-filters="sRGB"><feFlood flood-opacity="0" result="BackgroundImageFix"/><feColorMatrix in="SourceAlpha" values="0 0 0 0 0 0 0 0 0 0 0 0 0 0 0 0 0 0 127 0" result="hardAlpha"/><feOffset dy="25"/><feGaussianBlur stdDeviation="17.5"/><feColorMatrix values="0 0 0 0 0.0862745 0 0 0 0 0.0901961 0 0 0 0 0.282353 0 0 0 0.05 0"/><feBlend in2="BackgroundImageFix" result="effect1_dropShadow_1_243149"/><feBlend in="SourceGraphic" in2="effect1_dropShadow_1_243149" result="shape"/></filter><filter id="filter5_d_1_243149" x="404" y="0" width="200" height="200" filterUnits="userSpaceOnUse" color-interpolation-filters="sRGB"><feFlood flood-opacity="0" result="BackgroundImageFix"/><feColorMatrix in="SourceAlpha" values="0 0 0 0 0 0 0 0 0 0 0 0 0 0 0 0 0 0 127 0" result="hardAlpha"/><feOffset dy="25"/><feGaussianBlur stdDeviation="17.5"/><feColorMatrix values="0 0 0 0 0.0862745 0 0 0 0 0.0901961 0 0 0 0 0.282353 0 0 0 0.05 0"/><feBlend in2="BackgroundImageFix" result="effect1_dropShadow_1_243149"/><feBlend in="SourceGraphic" in2="effect1_dropShadow_1_243149" result="shape"/></filter></defs></svg>