<svg width="44" height="44" fill="none" xmlns="http://www.w3.org/2000/svg"><path d="M2 35.103l10.061-7.776s4.503-3.137 8.71.617l9.216 2.19a2.088 2.088 0 011.564 2.453v0a2.09 2.09 0 01-2.461 1.628l-9.296-1.877 9.32 1.89a1.91 1.91 0 001.521-.336l8.282-6.103a1.938 1.938 0 012.539.175v0a1.938 1.938 0 01-.169 2.89L30.97 39.002a4.053 4.053 0 01-2.515.873H11.721L7.988 43" stroke="#1A2578" stroke-width="1.5" stroke-linecap="round" stroke-linejoin="round"/><path d="M29.32 5.923c1.305 0 6.56 1.114 6.56 6.624 0 0-.255 3.727-2.643 5.415 0 0-1.178.668-1.178 4.203v3.154h-5.888v-3.284s.422-2.63-1.465-4.237c-1.497-1.273-2.424-3.024-2.293-5.702.123-2.61 2.512-6.173 6.907-6.173zm-3.154 17.129h5.894m.117-2.652h-6.01" stroke="#BF0830" stroke-width="1.5" stroke-linecap="round" stroke-linejoin="round"/><path d="M29.701 9.326l-1.814 3.376h2.612l-1.88 3.185m6.529-9.3l1.528-1.497m.988 7.644h2.198m-4.714 6.083l1.528 1.401m-13.599-1.401l-1.592 1.401m-.925-7.484h-2.196m4.713-6.02L21.485 5.09m7.627-.956L29.172 2" stroke="#BF0830" stroke-width="1.5" stroke-linecap="round" stroke-linejoin="round"/></svg>