<svg width="109" height="109" fill="none" xmlns="http://www.w3.org/2000/svg"><path d="M40.263 56.09a3.945 3.945 0 01-1.62-.324c-.486-.216-.918-.486-1.242-.864a4.49 4.49 0 01-.783-1.296c-.189-.486-.27-.999-.27-1.566 0-.54.081-1.08.27-1.593a4.02 4.02 0 01.756-1.323c.324-.378.756-.675 1.242-.891a3.988 3.988 0 013.267 0c.486.216.891.513 1.242.891.324.378.594.837.783 1.323a5.33 5.33 0 01.27 1.593c0 .567-.108 1.08-.297 1.566a4.49 4.49 0 01-.783 1.296c-.324.378-.729.648-1.215.864a3.945 3.945 0 01-1.62.324zm1.377 1.782l-4.077 6.507 1.836 1.188 2.133-3.537 1.917-3.24 1.485-2.484.756-1.323c.216-.405.378-.864.54-1.377a6.392 6.392 0 00.216-1.647c0-.756-.135-1.485-.405-2.241a6 6 0 00-1.215-1.971c-.54-.594-1.188-1.053-1.944-1.431-.756-.351-1.647-.54-2.619-.54-.999 0-1.89.189-2.646.54-.756.378-1.404.837-1.944 1.431-.54.594-.918 1.269-1.188 2.025a6.705 6.705 0 00-.405 2.268c0 .783.135 1.539.405 2.268.27.756.675 1.404 1.215 1.971a5.497 5.497 0 001.89 1.404c.756.351 1.593.513 2.565.513.459 0 .783-.027.999-.108.216-.054.378-.135.486-.216zm20.223 1.026a7.36 7.36 0 00-.513-2.754 6.023 6.023 0 00-1.323-1.971 5.914 5.914 0 00-1.944-1.161 6.441 6.441 0 00-2.241-.405 8.44 8.44 0 00-1.782.216 6.94 6.94 0 00-1.647.567v-5.184h9.045V46.1H50.253v10.746c.27-.216.62-.459 1.026-.729.378-.243.81-.459 1.242-.675.432-.189.918-.351 1.404-.486a5.683 5.683 0 011.512-.216c.54 0 1.08.108 1.593.27a4.16 4.16 0 011.323.81 3.7 3.7 0 01.89 1.296c.217.54.352 1.134.352 1.836a4.98 4.98 0 01-.351 1.863c-.216.54-.513.972-.891 1.323a3.379 3.379 0 01-1.323.81 4.447 4.447 0 01-1.566.27c-.54 0-1.053-.081-1.485-.243a4.594 4.594 0 01-1.188-.648 3.827 3.827 0 01-.891-.972 5.371 5.371 0 01-.621-1.161l-1.971 1.053c.216.54.486 1.026.864 1.512a5.9 5.9 0 001.296 1.296 6.38 6.38 0 001.755.918c.648.243 1.404.351 2.214.351s1.593-.108 2.376-.378c.756-.27 1.458-.648 2.052-1.188a6.17 6.17 0 001.458-1.998c.35-.81.54-1.755.54-2.862zm15.422 4.968c-.378 0-.729-.054-1.053-.216a2.361 2.361 0 01-.864-.594 2.667 2.667 0 01-.567-.864 2.704 2.704 0 01-.189-1.053c0-.378.054-.729.19-1.053a2.99 2.99 0 01.566-.864c.243-.243.54-.432.864-.594a2.718 2.718 0 011.053-.216c.378 0 .73.081 1.053.216.324.162.594.351.837.594.243.27.432.54.567.864.135.324.216.675.216 1.053a2.7 2.7 0 01-.216 1.053 2.667 2.667 0 01-.567.864c-.243.27-.513.459-.837.594-.324.162-.675.216-1.053.216zm0-6.912c-.594 0-1.16.108-1.674.324a4.082 4.082 0 00-1.323.891 4.477 4.477 0 00-.918 1.323 4.169 4.169 0 00-.324 1.647c0 .594.108 1.161.324 1.647.216.513.54.945.918 1.323s.81.675 1.323.891c.513.216 1.08.324 1.674.324.594 0 1.134-.108 1.647-.324a4.082 4.082 0 002.241-2.214 4.085 4.085 0 00.351-1.647c0-.594-.135-1.134-.35-1.647a4.392 4.392 0 00-.892-1.323 4.2 4.2 0 00-1.35-.891 4.169 4.169 0 00-1.647-.324zm.918-11.394L65.756 64.703l1.215.837 12.393-19.197-1.16-.783zm-9.936 7.128c-.378 0-.729-.054-1.053-.216a2.361 2.361 0 01-.864-.594 2.667 2.667 0 01-.567-.864 2.704 2.704 0 01-.189-1.053c0-.378.054-.729.19-1.053a2.99 2.99 0 01.566-.864c.243-.243.54-.432.864-.594a2.718 2.718 0 011.053-.216c.378 0 .73.081 1.053.216.324.162.594.351.837.594.243.27.432.54.567.864.135.324.216.675.216 1.053a2.7 2.7 0 01-.216 1.053 2.667 2.667 0 01-.567.864c-.243.27-.513.459-.837.594-.324.162-.675.216-1.053.216zm0-6.912c-.594 0-1.16.108-1.674.324a4.082 4.082 0 00-1.323.891 4.477 4.477 0 00-.918 1.323 4.169 4.169 0 00-.324 1.647c0 .594.108 1.161.324 1.647.216.513.54.945.918 1.323s.81.675 1.323.891c.513.216 1.08.324 1.674.324.594 0 1.134-.108 1.647-.324a4.082 4.082 0 002.241-2.214 4.085 4.085 0 00.351-1.647c0-.594-.135-1.134-.35-1.647a4.392 4.392 0 00-.892-1.323 4.2 4.2 0 00-1.35-.891 4.169 4.169 0 00-1.647-.324z" fill="#0DAA41"/><path d="M96.066 33.655a46.497 46.497 0 01-20.721 62.411 46.497 46.497 0 01-62.411-20.721 46.499 46.499 0 1183.132-41.69h0z" stroke="#D3E0D7" stroke-width="16"/><mask id="a" fill="#fff"><path d="M54.5 0a54.5 54.5 0 11-16.841 2.667l4.98 15.33A38.381 38.381 0 1054.5 16.12V0z"/></mask><path d="M54.5 0a54.5 54.5 0 11-16.841 2.667l4.98 15.33A38.381 38.381 0 1054.5 16.12V0z" fill="#fff"/><path d="M54.5 0a54.5 54.5 0 11-16.841 2.667l4.98 15.33A38.381 38.381 0 1054.5 16.12V0z" stroke="#0DAA41" stroke-width="32" mask="url(#a)"/><path d="M54.5 0a54.5 54.5 0 11-16.841 2.667l4.98 15.33A38.381 38.381 0 1054.5 16.12V0z" stroke="#0DAA41" stroke-width="32" mask="url(#a)"/></svg>