<svg width="36" height="35" fill="none" xmlns="http://www.w3.org/2000/svg"><path fill-rule="evenodd" clip-rule="evenodd" d="M18 26.644l7.243 4.25c.76.446 1.684-.238 1.479-1.096l-1.912-7.967 6.335-5.335c.683-.575.328-1.689-.562-1.762l-8.368-.69-3.298-7.566c-.35-.8-1.485-.8-1.834 0l-3.298 7.566-8.368.69c-.89.073-1.245 1.187-.562 1.761l6.335 5.336-1.912 7.967c-.205.858.718 1.542 1.479 1.096L18 26.644z" fill="#00A738"/><mask id="a" style="mask-type:alpha" maskUnits="userSpaceOnUse" x="4" y="5" width="28" height="27"><path fill-rule="evenodd" clip-rule="evenodd" d="M18 26.644l7.243 4.25c.76.446 1.684-.238 1.479-1.096l-1.912-7.967 6.335-5.335c.683-.575.328-1.689-.562-1.762l-8.368-.69-3.298-7.566c-.35-.8-1.485-.8-1.834 0l-3.298 7.566-8.368.69c-.89.073-1.245 1.187-.562 1.761l6.335 5.336-1.912 7.967c-.205.858.718 1.542 1.479 1.096L18 26.644z" fill="#fff"/></mask><g mask="url(#a)"><path fill="#0DAA41" d="M0 0h36v35H0z"/></g></svg>