<svg width="585" height="544" fill="none" xmlns="http://www.w3.org/2000/svg"><path opacity=".5" d="M322 507c124.264 0 225-103.87 225-232S446.264 43 322 43 97 146.87 97 275s100.736 232 225 232z" stroke="#fff" stroke-opacity=".77" stroke-width="73"/><g filter="url(#filter0_d_1_258217)"><circle cx="326.266" cy="129.924" r="94.964" fill="#1A2578"/><path d="M208.511 118.18s12.05 21.902 23.938 21.671c11.887-.231 19.589-18.665 19.589-18.665s-5.666-24.886-9.76-25.834c-4.094-.948-5.111 11.125-5.111 11.125l-7.91-4.395-20.746 16.098z" fill="#fff"/><path d="M362.174 60.081s10.407-8.673 21.185 0c10.778 8.673 2.753 22.504 2.753 22.504s9.991-.532 13.298 7.818c3.308 8.349-4.001 15.241-4.001 15.241a16.189 16.189 0 0113.299 13.6c2.035 14.062-15.427 24.747-15.427 24.747L345.66 125.35l4.14-52.27 12.374-12.999z" fill="#000"/><path d="M367.68 118.365a51.765 51.765 0 0114.802 4.302c5.644 3.099 12.929 22.365 12.929 22.365l-26.343 32.866-25.95-13.091 24.562-46.442zm-138.354 24.4s24.447 39.804 55.231 44.245c30.783 4.44 60.295-39.527 60.295-39.527l-24.007-32.217s-15.774 16.074-36.751 20.237c-12.212 2.313-31.408-19.913-31.408-19.913l-23.36 27.175z" fill="#4E58AA"/><path d="M285.899 145.656a2.091 2.091 0 01-.902-.208c-2.96-1.365-4.024-9.76-4.14-10.709a.652.652 0 01.347-.624.604.604 0 01.694.139c.671.693 6.453 6.938 6.152 9.714a1.713 1.713 0 01-.717 1.202 2.63 2.63 0 01-1.434.486zm-3.538-9.09c.578 3.215 1.711 7.101 3.145 7.772a1.048 1.048 0 001.156-.185.398.398 0 00.162-.324c.162-1.365-2.289-4.742-4.463-7.263z" fill="#fff"/><path d="M327.831 84.273s-9.021-15.102 11.772-25.279c20.792-10.176 34.484 6.407 34.114 14.849a15.79 15.79 0 01-5.389 12.026s.717 18.341-16.722 16.005a31.265 31.265 0 01-23.775-17.6z" fill="#000"/><path d="M353.479 99.052l-.555 14.756s-2.822 4.14-11.564 4.51c-6.453.277-8.673-1.249-8.673-1.249l1.179-7.447 1.157-7.24 15.727-2.868 2.729-.462z" fill="#fff"/><path d="M353.477 98.335c-.095.49-.259.965-.485 1.41-3.585 7.263-15.311 9.692-19.035 9.877l1.156-7.239 18.364-4.048z" fill="#000"/><path d="M333.078 68.616s-8.441 18.202-5.758 28.61c2.682 10.408 12.119 8.974 17.785 7.1a18.756 18.756 0 008.373-5.273 7.933 7.933 0 008.835-2.845c3.631-4.81 1.596-10.477-1.388-11.841a8.28 8.28 0 00-6.592.74l2.915-5.274s-11.195-27.569-24.17-11.217z" fill="#fff"/><path d="M330.352 76.063a.576.576 0 01-.579-.579.576.576 0 01.579-.578l3.585-.555a.604.604 0 01.615.508.602.602 0 01-.43.672l-3.608.532h-.162zm13.436 1.481a.42.42 0 01-.232 0l-4.186-1.735a.6.6 0 01-.301-.786.566.566 0 01.316-.32.554.554 0 01.448.019l4.186 1.758a.572.572 0 01.323.313.58.58 0 01.001.45.604.604 0 01-.555.3zm-10.592 13.46a.578.578 0 01-.578-.532 12.952 12.952 0 012.105-9.552.58.58 0 01.821-.058.585.585 0 01.058.822 12.209 12.209 0 00-1.827 8.673.603.603 0 01-.532.647h-.047zm21.023 1.526a.604.604 0 01-.562-.468.605.605 0 01.308-.665l7.424-3.376a.6.6 0 01.786.3.582.582 0 01-.114.635.58.58 0 01-.187.129l-7.424 3.376a.438.438 0 01-.231.07z" fill="#000"/><path d="M360.903 94.24a.578.578 0 01-.393-.184l-3.284-3.215a.57.57 0 01-.177-.416.567.567 0 01.177-.417.6.6 0 01.832 0l3.261 3.238a.6.6 0 010 .833.623.623 0 01-.416.162zm-33.073-9.966a30.373 30.373 0 017.331-11.703l5.829-6.13s-.648 11.565 4.626 16.584c5.273 5.019 8.811 2.012 8.811 2.012l9.922-8.696-17.647-16.19s-19.82-.833-18.872 24.123z" fill="#000"/><path d="M334.267 113.397l-13.11 2.263s-11.699 15.847-12.018 33.477c-.318 17.63 2.686 25.723 2.686 25.723l-3.939 46.352c9.131 8.239 17.154 4.288 31.859 3.063 17.154-3.676 28.795-8.577 34.922-11.948 0 0-2.914-87.017-2.914-94.431-.022-5.009-37.486-4.499-37.486-4.499z" fill="#4E58AA"/><path d="M333.403 112.536l-5.713 1.758s-1.896 10.939 11.194 11.564c13.739.694 24.632-11.564 24.632-11.564l-12.003-1.92-18.11.162z" fill="#fff"/><path d="M340.158 126.506a13.291 13.291 0 01-10.616-3.886 11.311 11.311 0 01-2.313-8.418.559.559 0 01.671-.486.6.6 0 01.509.671 10.099 10.099 0 002.058 7.47 12.211 12.211 0 009.714 3.493c13.877 0 22.897-11.148 22.99-11.264a.602.602 0 01.832 0 .599.599 0 010 .833s-9.505 11.564-23.868 11.564l.023.023zm-31.086 27.846a.64.64 0 01-.555-.347c-6.476-13.183 5.597-30.575 6.106-31.315a.622.622 0 01.856-.139.625.625 0 01.138.833c0 .185-12.165 17.554-6.013 30.066a.61.61 0 01.03.463.61.61 0 01-.307.347.463.463 0 01-.255.092z" fill="#fff"/><path d="M373.184 78.26a.6.6 0 01-.601-.648c1.388-14.362-8.141-18.502-8.558-18.664a.555.555 0 01-.3-.763.576.576 0 01.763-.324s10.732 4.626 9.251 19.867a.578.578 0 01-.555.532z" fill="#BF0830"/><path d="M339.441 84.435h-.185a.573.573 0 01-.345-.277.588.588 0 01-.048-.44l.717-2.313-.532-2.313a.58.58 0 01.428-.705.58.58 0 01.705.428l.578 2.313a.664.664 0 010 .3l-.763 2.544a.575.575 0 01-.555.463zm-9.091-1.249h-.162a.602.602 0 01-.393-.74l.717-2.313-.555-2.313a.604.604 0 01.459-.636.6.6 0 01.698.359l.578 2.312a.768.768 0 010 .324l-.763 2.544a.602.602 0 01-.579.463zm7.007 14.178c-1.457 0-2.59-2.174-2.798-2.66a.435.435 0 010-.44.546.546 0 01.301-.346l4.625-2.082a.58.58 0 01.602 0 .583.583 0 01.208.602c-.255.994-1.18 4.348-2.637 4.764l-.301.162zM335.9 94.75c.509.833 1.203 1.527 1.527 1.411.324-.115 1.017-1.364 1.457-2.729l-2.984 1.319z" fill="#000"/><path d="M204.255 175.075a70.65 70.65 0 019.218-67.886 70.655 70.655 0 01119.432 9.885 70.657 70.657 0 01-2.069 68.478 19.01 19.01 0 00-1.41 16.537l2.312 6.129a16.707 16.707 0 01-.28 12.798 16.705 16.705 0 01-3.744 5.345 16.701 16.701 0 01-5.505 3.505l-36.357 14.132a16.725 16.725 0 01-21.648-9.506l-2.313-6.199a18.989 18.989 0 00-12.304-11.24 70.472 70.472 0 01-45.332-41.978z" fill="#BF0830"/><path d="M242.301 169.616a.81.81 0 01-.763-.532c-.463-1.179-10.755-29.026.37-35.224 3.238-1.804 6.938-.833 10.893 2.798a25.09 25.09 0 011.55 1.573c.879-5.25 3.145-9.714 6.938-11.286 4.626-1.92 10.154 1.364 14.548 5.805-.149-3.243.21-6.49 1.064-9.622.81-2.474 2.058-3.793 3.677-3.908 11.264-.764 22.759 22.504 23.244 23.498a.8.8 0 01.041.62.827.827 0 01-.411.467.81.81 0 01-1.087-.37c-.115-.231-11.564-23.406-21.671-22.573-1.11 0-1.827 1.549-2.313 2.775a32.386 32.386 0 00-.925 10.917 34.136 34.136 0 015.181 7.655c2.313 5.042.809 6.731-.278 7.286a2.312 2.312 0 01-2.59-.37c-2.035-1.735-3.492-7.795-3.886-13.877-4.348-4.811-9.945-8.373-14.039-6.684-3.584 1.48-5.573 6.175-6.198 11.564 4.626 5.967 8.072 14.362 6.638 17.392-.197.43-.53.784-.949 1.005-.418.222-.897.3-1.364.221-2.891-.37-5.065-4.209-5.874-10.246a34.648 34.648 0 01-.139-7.91 27.582 27.582 0 00-2.313-2.544c-2.313-2.151-5.759-4.348-8.997-2.544-9.899 5.505.254 32.935.37 33.212a.834.834 0 01-.486 1.064l-.231-.162zm13.253-27.152a35.7 35.7 0 00.254 5.689c.671 5.019 2.452 8.558 4.464 8.835.439 0 .555-.115.647-.3.787-1.966-1.526-8.697-5.365-14.224zm22.249-5.089c.532 4.973 1.735 9.252 3.146 10.593.37.301.601.255.786.139.948-.486.763-2.452-.463-5.135a30.2 30.2 0 00-3.376-5.666l-.093.069z" fill="#fff"/><path d="M303.545 236.227a.8.8 0 01-.588-.229.806.806 0 01-.245-.58l-.485-114.509a.81.81 0 011.618 0l.509 114.509a.818.818 0 01-.237.572.798.798 0 01-.572.237z" fill="#fff"/><path d="M304.076 237.638a.79.79 0 01-.601-.278l-76.994-84.765a.833.833 0 010-1.157.809.809 0 011.156 0l76.994 84.743a.83.83 0 010 1.156.767.767 0 01-.555.301zm6.406-134.099a.802.802 0 01-.601-.277c-.162-.162-16.56-17.763-47.02-15.01a.809.809 0 01-.879-.74.791.791 0 01.717-.88c31.316-2.868 48.223 15.358 48.385 15.543a.81.81 0 010 1.156.834.834 0 01-.602.208zm-91.099-.809s-6.245-9.644 0-10.292c6.244-.647 21.37 13.739 18.017 19.359-3.354 5.62-18.017-9.067-18.017-9.067z" fill="#fff"/><path d="M212.882 109.691s-6.245-9.668 0-10.292c6.244-.625 21.37 13.715 18.017 19.358-3.354 5.644-18.017-9.066-18.017-9.066z" fill="#fff"/><path d="M208.512 118.18s-6.938-7.47-1.503-8.973c5.435-1.504 20.7 8.742 18.503 14.154-2.198 5.412-17-5.181-17-5.181z" fill="#fff"/><path d="M222.388 125.582a12.052 12.052 0 01-5.597-1.874.6.6 0 01.648-.994s5.527 3.515 7.655.324a1.898 1.898 0 00.301-1.596c-.44-1.665-2.961-3.284-3.909-3.77l-8.974-7.586a.606.606 0 01-.284-.68.608.608 0 01.33-.39.6.6 0 01.718.168l8.927 7.47s3.724 1.92 4.394 4.464a2.996 2.996 0 01-.462 2.521 4.144 4.144 0 01-3.747 1.943z" fill="#000"/><path d="M227.823 120.816a10.705 10.705 0 01-6.407-3.261.582.582 0 01-.131-.642.582.582 0 01.131-.19.578.578 0 01.833 0 9.788 9.788 0 005.574 2.914 3.563 3.563 0 002.683-1.295c1.572-1.828-1.272-6.314-2.498-7.887l-10.13-9.251a.6.6 0 01.809-.879l10.177 9.251c.578.74 5.018 6.592 2.521 9.459a4.634 4.634 0 01-3.446 1.689l-.116.092z" fill="#000"/><path d="M234.393 113.509a9.783 9.783 0 01-6.337-2.984.6.6 0 01-.173-.416.59.59 0 011.005-.417c.185.185 4.626 4.626 8.165 1.642.159-.131.285-.298.37-.486.084-.189.123-.394.115-.601 0-3.608-8.002-11.564-11.101-14.455a.572.572 0 01-.177-.416.567.567 0 01.177-.416.6.6 0 01.832 0c.463.44 11.564 10.454 11.564 15.357a2.43 2.43 0 01-.878 1.966 5.14 5.14 0 01-3.562 1.226z" fill="#000"/><path d="M353.41 176.786s-25.441-3.955-31.663-1.133c-6.222 2.822-.185 23.452 1.873 27.176 2.059 3.724 27.754-3.192 27.754-3.192l6.939-11.078-4.903-11.773z" fill="#fff"/><path d="M321.84 175.653s-14.825 11.079-15.102 17.578c-.278 6.499 17.901-7.887 17.901-7.887l-2.799-9.691zm11.102 25.812s13.067 2.313 9.112 6.06c-3.955 3.746-17.045-1.458-18.503-4.626-1.457-3.169 7.841-7.794 7.841-7.794l1.55 6.36z" fill="#fff"/><path d="M368.097 115.104s49.263 9.598 52.524 49.402c2.475 30.067-68.136 42.486-68.136 42.486l-5.204-33.258 35.109-25.603-14.293-33.027z" fill="#4E58AA"/><path d="M349.848 170.681a.555.555 0 01-.532-.324.623.623 0 01.254-.809c1.064-.509 25.765-12.883 36.543-13.369a.604.604 0 01.625.555.626.626 0 01-.555.625c-10.547.462-35.826 13.114-36.081 13.252a.527.527 0 01-.254.07z" fill="#fff"/><path d="M368.789 162.216a.526.526 0 01-.346 0 .595.595 0 01-.185-.694c.439-1.087 4.486-10.639 9.066-10.223.948 0 1.272.532 1.388.902.624 2.175-6.476 7.725-9.552 10.015a.562.562 0 01-.371 0zm8.257-9.876c-2.498 0-5.18 4.279-6.73 7.401 4.256-3.353 7.447-6.522 7.262-7.331a.881.881 0 00-.347 0l-.185-.07z" fill="#fff"/><path d="M334.258 203.453a.6.6 0 01-.578-.578.547.547 0 01.145-.423.569.569 0 01.41-.178l2.96-.139-1.526-2.174a.575.575 0 01-.107-.437.594.594 0 01.442-.481.594.594 0 01.613.224l2.174 3.053a.607.607 0 01.05.611.606.606 0 01-.513.337l-4.024.185h-.046zm-15.031-14.732a.577.577 0 01-.44-.971 30.852 30.852 0 015.782-5.736.584.584 0 01.64.131.57.57 0 01.124.193.58.58 0 01-.324.763 31.002 31.002 0 00-5.32 5.412.573.573 0 01-.462.208zm1.825 7.378a.541.541 0 01-.416-.162.567.567 0 01-.177-.416.582.582 0 01.177-.416l7.147-7.124a.589.589 0 01.832.833l-7.146 7.123a.597.597 0 01-.417.162z" fill="#000"/><path d="M278.982 256.348l56.734-22.088a5.483 5.483 0 003.122-7.1 5.485 5.485 0 00-7.1-3.122l-56.804 22.11a5.477 5.477 0 00-3.384 7.196 5.49 5.49 0 005.208 3.488 5.474 5.474 0 002.155-.484h.069z" fill="#40507F"/><path d="M282.659 265.831l56.804-22.111a5.458 5.458 0 003.49-4.975 5.468 5.468 0 00-7.445-5.225l-56.827 22.088a5.482 5.482 0 00-3.494 4.993 5.477 5.477 0 001.522 3.912 5.482 5.482 0 005.95 1.318z" fill="#40507F"/></g><g filter="url(#filter1_d_1_258217)"><circle cx="428.312" cy="383.922" r="83.123" fill="#1A2578"/><path d="M482.481 337.23s6.041-12.546 6.966-21.278c.924-8.733-.743-11.919-2.031-12.265-1.287-.347-3.086 4.952-3.086 4.952s.627-8.254-2.196-8.914c-2.823-.66-4.209 6.454-4.209 6.454s-.76-5.992-3.153-5.1c-2.394.891-8.353 17.365-8.353 17.365l3.054 13.058 13.008 5.728z" fill="#fff"/><path d="M461.186 319.847s-.478 19.116 5.695 19.809c4.487.402 9 .402 13.487 0 0 0 8.254-13.024 5.497-18.29-8.683-16.293-24.679-1.519-24.679-1.519z" fill="#fff"/><path d="M470.745 331.452h-.149a.43.43 0 01-.264-.545c1.552-4.308 6.471-6.042 6.603-6.124a.444.444 0 01.573.43.41.41 0 01-.292.379s-4.738 1.651-6.141 5.612a.442.442 0 01-.33.248z" fill="#000"/><path d="M545.853 228.199a65.86 65.86 0 00-49.667-40.156 65.862 65.862 0 00-75.574 50.118 65.87 65.87 0 0017.665 61.377 65.872 65.872 0 0028.439 16.711 17.558 17.558 0 0111.555 10.301l2.311 5.711a15.603 15.603 0 0020.305 8.584l33.691-13.668a15.557 15.557 0 008.498-8.364 15.577 15.577 0 00.086-11.924l-2.377-5.678a17.762 17.762 0 011.172-15.484 65.728 65.728 0 003.896-57.528z" fill="#BF0830"/><path d="M458.33 270.474a.747.747 0 01-.727-.528c-.313-.991-7.477-24.134.743-30.803 1.189-.958 2.856-.858 4.953.314a28.549 28.549 0 016.867 5.827c.165-5.811 1.815-11.556 6.157-13.206 3.615-1.387 8.006.214 11.968 3.186v-2.047c.313-4.952 2.261-8.023 5.612-8.865 11.473-2.922 22.318 22.566 22.78 23.639a.789.789 0 01-.412 1.007.777.777 0 01-1.007-.413c-.099-.247-10.746-25.355-20.998-22.764-3.301.859-4.275 4.54-4.457 7.495a23.615 23.615 0 000 3.301 33.041 33.041 0 014.953 5.448c3.301 4.605 4.275 8.6 2.575 10.68a1.967 1.967 0 01-2.361.677c-2.922-1.139-5.959-9.013-6.603-16.029-3.813-3.202-8.253-5.101-11.555-3.83-3.846 1.47-5.365 7.478-5.233 13.503 3.681 4.457 6.603 9.509 6.306 12.001a2.079 2.079 0 01-1.519 1.899c-1.106.313-3.202.132-4.853-4.771a32.258 32.258 0 01-1.386-8.501 30.021 30.021 0 00-7.61-6.801c-1.057-.578-2.476-1.123-3.302-.463-7.412 6.009-.313 28.921-.247 29.153.03.095.042.195.034.295a.773.773 0 01-.269.519.756.756 0 01-.261.143.578.578 0 01-.148-.066zm13.486-20.865a28.06 28.06 0 001.238 6.008c.875 2.608 2.031 4.061 2.972 3.781.198 0 .379-.149.429-.595.181-1.733-1.816-5.464-4.639-9.194zm18.34-10.78c.925 6.306 3.648 12.364 5.464 13.074.182.083.363.116.627-.214 1.189-1.453.132-4.953-2.624-8.832a31.816 31.816 0 00-3.467-4.028z" fill="#fff"/><path d="M517.113 333.368a.743.743 0 01-.561-.248l-72.881-77.965a.766.766 0 01-.22-.548.767.767 0 01.239-.54.762.762 0 011.087.048l72.881 77.965a.742.742 0 010 1.073.725.725 0 01-.545.215z" fill="#fff"/><path d="M517.625 334.655a.759.759 0 01-.759-.743l-1.981-106.72a.765.765 0 01.211-.542.758.758 0 01.532-.234.779.779 0 01.776.743l1.997 106.72a.776.776 0 01-.759.776h-.017zm-90.081-86.845a.76.76 0 01-.76-.743c0-.231-.198-23.375 22.863-41.483a.763.763 0 011.229.696.765.765 0 01-.288.509c-22.467 17.63-22.285 40.03-22.285 40.245a.765.765 0 01-.211.542.751.751 0 01-.532.234h-.016zm32.603 60.548c4.655.132 11.126 12.051 10.168 14.51-.957 2.46-8.716 5.679-8.716 5.679s-6.091-20.337-1.452-20.189z" fill="#fff"/><path d="M547.157 331.09l-52.659 21.294a5.12 5.12 0 01-6.484-6.711 5.117 5.117 0 012.638-2.764l52.725-21.278a5.1 5.1 0 016.613 6.719 5.104 5.104 0 01-2.784 2.74h-.049z" fill="#5C69A5"/><path d="M550.706 339.872l-52.659 21.344a5.105 5.105 0 01-6.644-2.815 5.105 5.105 0 012.815-6.644l52.658-21.344a5.12 5.12 0 011.956-.373 5.12 5.12 0 013.596 1.523 5.11 5.11 0 011.465 3.62 5.087 5.087 0 01-1.523 3.596 5.106 5.106 0 01-1.664 1.093z" fill="#5C69A5"/><mask id="a" style="mask-type:alpha" maskUnits="userSpaceOnUse" x="345" y="300" width="167" height="168"><circle cx="428.312" cy="383.922" r="83.123" fill="#1A2578"/></mask><g mask="url(#a)"><path d="M434.765 352.611s6.686-17.316 17.795-7.577c11.11 9.74-8.138 21.46-13.915 18.406-5.778-3.054-3.88-10.829-3.88-10.829z" fill="#000"/><path d="M378.36 454.099s-10.714 8.914-18.951 11.935c-8.237 3.021-11.753 2.162-12.397 1.007-.644-1.156 4.077-4.226 4.077-4.226s-7.824 2.625-9.178 0c-1.353-2.625 5.25-5.646 5.25-5.646s-5.993.71-5.712-1.816c.281-2.525 10.631-6.256 10.631-6.256s-7.94-.512-7.742-2.459c.198-1.948 12.397-6.191 16.26-5.993a37.668 37.668 0 019.062 2.163l8.7 11.291z" fill="#fff"/><path d="M362.117 451.756c-6.207 0-8.716-2.939-8.832-3.104a.434.434 0 01.096-.539.434.434 0 01.548-.006s3.929 4.556 14.163 1.998a.43.43 0 01.529.297.447.447 0 01-.314.528 25.515 25.515 0 01-6.19.826z" fill="#000"/><path d="M361.819 440.316s15.286-10.334 22.847-21.212a204.676 204.676 0 0122.07-26.875l24.91 30.341-26.709 28.343-26.841 12.827-16.277-23.424z" fill="#D95B76"/><path d="M417.615 348.22a20.664 20.664 0 0114.329 0 13.974 13.974 0 018.253 10.416s3.302 3.302 0 8.039a24.243 24.243 0 01-9.409 7.33l-13.173-25.785z" fill="#000"/><path d="M526.514 504.826s-34.286 3.781-47.707-13.205c-15.896-20.173-27.749-45.643-27.749-45.643l-52.675 2.839s-5.233 55.448-4.523 92.639c.71 37.192 4.408 67.829 5.712 69.216 1.304 1.387 42.044.512 44.454 0 2.41-.512-1.535-42.754-1.882-55.036-.346-12.281 0-30.571 0-30.571s12.546 17.96 35.673 22.07c23.127 4.11 52.824 0 54.821-1.271 1.997-1.271-6.124-41.038-6.124-41.038z" fill="#C9C9C9"/><path d="M458.157 468.329c-.116 0-9.904-.347-11.555-10.037a.407.407 0 01.192-.423.413.413 0 01.154-.055.449.449 0 01.496.346c1.568 8.997 10.68 9.31 10.779 9.31a.45.45 0 01.413.446.436.436 0 01-.303.397.437.437 0 01-.176.016zm-27.354-90.907l-.281 11.324s-2.179 3.219-8.996 3.582c-5.084.281-6.603-2.294-6.603-2.294l1.486-9.905 12.347-2.327 2.047-.38z" fill="#fff"/><path d="M430.804 376.745c-.06.381-.183.749-.363 1.09-2.741 5.596-11.968 7.725-14.857 7.907l.842-5.58 14.378-3.417z" fill="#000"/><path d="M414.411 354.262s-5.992 15.435-4.258 22.005c2.079 7.989 9.623 6.768 14.08 5.282a14.7 14.7 0 006.603-4.127 6.333 6.333 0 003.833-.056 6.325 6.325 0 003.1-2.255c2.807-3.73 1.139-8.055-1.221-9.079a6.604 6.604 0 00-5.183.627l2.245-4.077s-9.079-20.931-19.199-8.32z" fill="#fff"/><path d="M431.348 366.66s-6.224 1.238-10.549-5.53c-4.324-6.768-3.928-9.525-3.928-9.525l-4.325 6.982s-.958-4.836 1.023-7.923c1.981-3.087 4.045-2.443 4.045-2.443l13.734 3.301 3.631 10.73-3.631 4.408zm-16.391 5.512a.436.436 0 01-.253-.084.44.44 0 01-.16-.213 7.824 7.824 0 011.337-6.19.43.43 0 01.804.161c.006.06 0 .121-.019.179a.437.437 0 01-.092.155 7.086 7.086 0 00-1.221 5.448.409.409 0 01-.122.448.407.407 0 01-.142.08l-.132.016zm16.985 1.09a.367.367 0 01-.28-.116.419.419 0 01-.128-.305.431.431 0 01.128-.305l3.945-4.045a.44.44 0 01.31-.168.433.433 0 01.431.271.428.428 0 01-.13.492l-3.945 4.044a.442.442 0 01-.331.132z" fill="#000"/><path d="M436.119 372.189l-2.79-.412a.43.43 0 01-.346-.496.41.41 0 01.479-.346l2.723.412a.43.43 0 010 .842h-.066zm-23.952-5.777h-.132a.43.43 0 01-.281-.528l.76-2.394-.727-1.452a.411.411 0 01-.027-.319.407.407 0 01.209-.242.438.438 0 01.324-.023.452.452 0 01.254.204l.809 1.651a.562.562 0 010 .33l-.809 2.542a.415.415 0 01-.38.231z" fill="#000"/><path d="M427.617 387.69s22.153-38.463 25.752-58.701l29.994 9.013c-5.547 43.993-27.683 69.975-27.683 69.975s-.38 40.757-.957 41.516c-.578.76-16.26 4.144-33.89 3.203-17.63-.941-21.46-3.401-22.417-3.962-.958-.561 8.353-56.505 8.353-56.505s6.982-4.358 20.848-4.539z" fill="#D95B76"/><path d="M419.481 367.088h-.116a.402.402 0 01-.243-.208.413.413 0 01-.021-.32l.743-2.36-.71-1.205a.431.431 0 01.726-.43l.809 1.354a.374.374 0 010 .347l-.792 2.542a.445.445 0 01-.396.28zm-7.314-6.47a.448.448 0 01-.429-.347.419.419 0 01.078-.324.43.43 0 01.285-.171l2.559-.446a.443.443 0 01.324.077.437.437 0 01.171.286.412.412 0 01-.346.479l-2.576.446h-.066zm10.696 1.65a.441.441 0 01-.198 0l-4.209-2.08a.431.431 0 01-.22-.247.433.433 0 01.022-.33.417.417 0 01.561-.182l4.226 2.08a.415.415 0 01.241.402.4.4 0 01-.043.159.467.467 0 01-.38.198z" fill="#000"/><path d="M398.317 446.44a.424.424 0 01-.316-.137.43.43 0 01-.113-.325l2.361-25.917a.443.443 0 01.462-.38.431.431 0 01.379.462l-2.36 25.934a.413.413 0 01-.413.363z" fill="#A37B90"/><path d="M427.617 387.689s-9.227 7.247-11.802 1.865c-2.576-5.381 11.802-1.865 11.802-1.865z" fill="#fff"/><path d="M418.225 375.953a2.968 2.968 0 01-.726-.099.43.43 0 01-.281-.529.415.415 0 01.495-.231 1.899 1.899 0 002.163-1.188.424.424 0 01.397-.264c.056 0 .112.011.164.033a.407.407 0 01.231.223.399.399 0 010 .321 2.833 2.833 0 01-2.443 1.734z" fill="#000"/><path d="M419.876 391.931h-.247a5.621 5.621 0 01-4.144-2.096.426.426 0 01-.159-.329.434.434 0 01.318-.419.437.437 0 01.36.064.438.438 0 01.125.139 4.955 4.955 0 003.533 1.8c3.714.165 7.593-3.665 7.642-3.698a.407.407 0 01.298-.126.407.407 0 01.297.126.445.445 0 010 .611c-.165.165-4.045 3.928-8.023 3.928z" fill="#A37B90"/><path d="M361.819 460.933a.413.413 0 01-.313-.148l-8.254-9.228a.462.462 0 010-.611.445.445 0 01.611 0l8.253 9.228a.428.428 0 010 .594.457.457 0 01-.297.165z" fill="#000"/></g></g><g filter="url(#filter2_d_1_258217)"><circle cx="144.801" cy="428.755" r="70.367" fill="#1A2578"/><path d="M214.143 417.699s-5.284 24.949-22.211 31.79c-13.873 5.597-27.413-2.715-27.413-2.715l10.174-26.577c5.808.9 11.753.009 17.043-2.555a19.416 19.416 0 009.253-11.036l13.154 11.093z" fill="#fff"/><path d="M224.251 407.136s-10.157 14.626-15.341 12.194a15.846 15.846 0 01-7.242-6.962s-4.579-15.776 2.485-16.028c8.617-.322 20.098 10.796 20.098 10.796z" fill="#fff"/><path d="M219.134 396.173s3.5-6.654-.638-6.688c-4.138-.035-13.113 10.193-10.582 13.658 2.531 3.465 11.22-6.97 11.22-6.97z" fill="#fff"/><path d="M223.775 400.356s3.499-6.654-.639-6.703c-4.138-.049-13.112 10.208-10.581 13.673 2.531 3.465 11.22-6.97 11.22-6.97z" fill="#fff"/><path d="M227.11 405.638s4.06-5.283.456-5.978c-3.604-.695-12.968 6.907-11.304 10.317 1.664 3.411 10.848-4.339 10.848-4.339z" fill="#fff"/><path d="M309.055 366.177a59.59 59.59 0 00-46.183-67.831 59.591 59.591 0 00-55.337 16.686 59.585 59.585 0 00-.988 82.054 15.915 15.915 0 014.056 13.419l-.892 5.503a14.1 14.1 0 0011.661 16.166l32.478 5.282a14.117 14.117 0 0016.12-11.721l.907-5.532a16.058 16.058 0 018.176-11.433 59.419 59.419 0 0030.002-42.593z" fill="#BF0830"/><path d="M276.579 368.378l-.12.001a.667.667 0 01-.449-.266.681.681 0 01-.123-.507c-.002-.254 3.598-24.67-5.547-27.482-2.993-.907-5.428 1.527-6.968 3.703-.548.8-1.042 1.637-1.478 2.504a29.118 29.118 0 011.265 6.564c.405 5.107-.723 8.654-3.034 9.46a1.791 1.791 0 01-2.139-.585c-1.717-2.26-.374-9.782 2.414-15.52-1.446-4.263-3.917-7.788-7.132-8.381-3.649-.68-7.658 3.259-10.408 7.981.749 5.179.617 10.453-.761 12.239a1.881 1.881 0 01-2.072.759c-1.002-.277-2.533-1.478-1.53-5.965a28.96 28.96 0 012.943-7.233 27.154 27.154 0 00-2.683-8.827c-.544-.953-1.387-2.038-2.328-1.913-8.567 1.173-13.845 22.223-13.903 22.493a.69.69 0 01-.566.538.685.685 0 01-.703-.339.687.687 0 01-.062-.535c.218-.897 5.555-22.172 15.047-23.455 1.358-.188 2.603.671 3.706 2.576a26.247 26.247 0 012.572 7.737c2.856-4.424 6.836-8.108 10.994-7.342 3.439.621 6.088 3.921 7.742 8.078.305-.516.636-1.017.992-1.499 2.561-3.691 5.51-5.143 8.503-4.235 10.267 3.163 6.655 27.937 6.497 28.999a.669.669 0 01-.669.452zm-15.6-20.145c-2.237 5.302-2.918 11.266-1.908 12.679.105.149.225.253.583.131 1.61-.562 2.456-3.809 2.116-8.064a27.507 27.507 0 00-.776-4.746h-.015zm-19.241-.285a25.183 25.183 0 00-1.865 5.225c-.553 2.438-.348 4.095.519 4.329.165-.001.359.072.611-.258.964-1.246 1.119-5.101.75-9.296h-.015z" fill="#fff"/><path d="M237.786 434.104a.7.7 0 01-.691-.548l-19.717-94.555a.685.685 0 01.533-.809.698.698 0 01.825.532l19.717 94.555a.69.69 0 01-.533.81l-.134.015z" fill="#fff"/><path d="M237.585 435.345a.759.759 0 01-.359-.087.704.704 0 01-.245-.955l48.617-83.458a.687.687 0 01.694-.358.687.687 0 01.491 1.053l-48.633 83.458a.669.669 0 01-.565.347zM208.71 325.85a.694.694 0 01-.345-.087.691.691 0 01-.244-.94c.103-.18 10.837-18.171 37.213-21.336a.673.673 0 01.765.608.684.684 0 01-.592.765c-25.629 3.145-36.054 20.478-36.157 20.657a.691.691 0 01-.64.333zm-8.269 71.797a3.666 3.666 0 001.371 4.339c.454.306.971.507 1.513.587 4.396.675 11.215 1.948 11.375-1.205.132-2.779-6.887-4.992-9.641-5.916a3.692 3.692 0 00-4.618 2.18v.015z" fill="#fff"/><path d="M209.999 414.259l-.135.001a.39.39 0 01-.227-.492 13.832 13.832 0 00-.628-9.9.464.464 0 01-.002-.373.426.426 0 01.327-.196c3.599-.127 4.326-.893 4.473-1.327.307-1.182-2.425-3.302-4.224-4.351a.406.406 0 01-.138-.537.39.39 0 01.1-.11.385.385 0 01.284-.067.383.383 0 01.138.054c.525.296 5.128 3.076 4.588 5.2-.277 1.092-1.782 1.714-4.589 1.881a14.324 14.324 0 01.42 9.976.377.377 0 01-.387.241z" fill="#000"/><path d="M261.716 446.37l-50.749-8.232a4.637 4.637 0 01-4.011-3.461 4.635 4.635 0 011.862-4.96 4.64 4.64 0 013.586-.715l50.75 8.247a4.618 4.618 0 011.997 8.294 4.616 4.616 0 01-3.435.827z" fill="#1A2578"/><path d="M260.35 454.818l-50.765-8.232a4.617 4.617 0 111.438-9.121l50.765 8.233a4.617 4.617 0 11-1.438 9.12z" fill="#1A2578"/><mask id="b" style="mask-type:alpha" maskUnits="userSpaceOnUse" x="74" y="358" width="142" height="142"><circle cx="144.801" cy="428.755" r="70.367" fill="#C4C4C4"/></mask><g mask="url(#b)"><path d="M172.418 419.419l14.931-1.183 5.655 33.053s-12.872 3.067-17.58.213c-4.708-2.854-6.795-26.443-3.006-32.083z" fill="#5C69A5"/><path d="M158.323 396.158s7.292-6.916 3.289-11.791c-4.004-4.875-11.182 1.04-11.182 1.04a5.975 5.975 0 00-7.23.044c-4.001 2.758-3.98 8.674-3.98 8.674s-4.3.265-4.104 5.492c.197 5.227 6.212 9.418 6.212 9.418l16.995-12.877z" fill="#000"/><path d="M102.467 441.882a47.818 47.818 0 00-8.331 15.184c-4.407 12.171-2.792 31.775-2.792 31.775l17.225.372s6.381-26.36 11.786-26.811c5.404-.452-17.888-20.52-17.888-20.52zm1.445 57.293c-1.497-.469-7.43 6.424-8.115 6.787-.684.363 1.051 5.715-.56 6.113-1.61.398-4.587-.211-6.958.401-2.371.613-27.106 22.887-31.362 27.828a.989.989 0 00.172 1.418 37.552 37.552 0 005.25 3.508 15.658 15.658 0 008.245 2.25c6.465-.548 15.6-6.594 20.27-7.265 4.672-.671 12.137 1.061 13.107-1.395.971-2.456.674-9.475 5.984-13.152 5.31-3.678 8.562-4.534 8.817-6.777.184-1.569-6.036-9.806-10.55-15.126a28.2 28.2 0 00-4.3-4.59z" fill="#fff"/><path d="M103.912 499.175c-1.497-.469-7.43 6.424-8.115 6.787-.684.363 1.051 5.715-.56 6.113-1.61.398-4.587-.211-6.958.401-2.371.613-27.106 22.887-31.362 27.828a.989.989 0 00.172 1.418 37.552 37.552 0 005.25 3.508l45.903-41.466a28.252 28.252 0 00-4.33-4.589z" fill="#fff"/><path d="M129.506 483.362s-2.747 14.731-3.985 27.256c-1.237 12.526-3.241 29.239-3.241 29.239s-9.786 38.569 14.896 41.734c30.616 3.83 28.616-32.382 28.616-32.382l-10.116-75.717-26.17 9.87z" fill="#A37B90"/><path d="M179.565 478.873s9.468 40.916 6.605 70.928c-2.862 30.013-13.85 65.125-13.85 65.125l-37.259-.712 6.794-48.948 8.568-83.705 29.142-2.688z" fill="#A37B90"/><path d="M180.315 459.852l2.271 24.394-53.76 2.691s-6.09-52.708-3.349-58.775c5.499-11.834 46.836-8.742 46.836-8.742l8.002 40.432z" fill="#5C69A5"/><path d="M113.411 499.116c.011 1.778-2.206 5.571-2.206 5.571s-.215 6.394-2.033 7.063c-1.818.668-4.195-1.991-4.195-1.991s-3.631 2.173-5.126 2.048c-1.495-.125-8.559.053-10.656-3.295-2.097-3.348 2.21-19.672 2.21-19.672l15.216-3.186s6.72 11.7 6.79 13.462zm32.275-88.45l.757 11.512s2.081 3.139 8.191 3.162c4.556-.028 6.072-1.248 6.072-1.248l-1.032-5.072-.98-6.328-11.139-1.724-1.869-.302z" fill="#fff"/><path d="M147.518 412.357c.077.34.205.667.379.969 2.72 5.017 9.147 5.665 11.776 5.694l-.932-5.85-11.223-.813z" fill="#000"/><path d="M158.796 390.479s6.154 12.076 4.599 19.166c-1.554 7.09-7.952 6.368-11.828 5.242a12.622 12.622 0 01-5.772-3.341 5.361 5.361 0 01-5.986-1.756c-2.573-3.151-1.342-7.027.638-8.01a5.53 5.53 0 014.484.331l-2.098-3.498s6.845-18.789 15.963-8.134z" fill="#fff"/><path d="M144.874 407.489a.329.329 0 01-.194.001l-4.723-2.884a.35.35 0 01-.11-.1.369.369 0 01-.013-.422.39.39 0 01.522-.137l4.723 2.958a.376.376 0 01.177.384.383.383 0 01-.054.138.378.378 0 01-.328.062z" fill="#000"/><path d="M140.798 407.738a.397.397 0 01-.375-.251.404.404 0 01.236-.495l2.982-.974a.352.352 0 01.292.011.377.377 0 01.118.092.367.367 0 01.069.133.365.365 0 01-.017.289.386.386 0 01-.09.118.382.382 0 01-.129.072l-2.892.989-.194.016zm10.027-11.4a.4.4 0 01-.209.001.388.388 0 01-.108-.537 3.062 3.062 0 013.816-1.308.384.384 0 01.15.486.39.39 0 01-.46.218 2.3 2.3 0 00-2.861 1.033.404.404 0 01-.328.107zm9.613-1.194a.426.426 0 01-.224.001 1.956 1.956 0 00-2.211-.061.39.39 0 01-.546-.094.394.394 0 01.094-.546 2.77 2.77 0 013.108.071.376.376 0 01.162.248.37.37 0 01-.069.289.374.374 0 01-.314.092zm-.935 10.686l-.09.001a.376.376 0 01-.236-.164.373.373 0 01-.051-.283 5.402 5.402 0 00-1.901-5.575.365.365 0 01-.155-.241.364.364 0 01.062-.281.394.394 0 01.246-.165.392.392 0 01.291.057 6.245 6.245 0 012.205 6.365.372.372 0 01-.371.286zm1.248-5.893a.386.386 0 01-.36-.267l-.79-2.235a.356.356 0 01.103-.411.367.367 0 01.133-.069.387.387 0 01.494.236l.79 2.221a.385.385 0 01-.236.494l-.134.031zm-6.286.592a.403.403 0 01-.36-.252l-.79-2.236a.368.368 0 01.01-.298.368.368 0 01.226-.196.39.39 0 01.494.236l.791 2.236a.388.388 0 01-.236.479l-.135.031z" fill="#000"/><path d="M160.052 393.22a4.216 4.216 0 00-3.715-1.755 5.356 5.356 0 00-3.797 2.025s1.399 4.099-1.797 6.569a8.334 8.334 0 01-5.873 2.052l-2.514-.701-2.067-3.438 6.507-8.151 8.809-5.537 4.984 3.898-.537 5.038zm-3.204 15.703a3.697 3.697 0 01-3.283-1.832.383.383 0 01-.006-.465.387.387 0 01.445-.137.393.393 0 01.231.225 2.99 2.99 0 002.997 1.475.391.391 0 01.435.326.36.36 0 01-.058.287.357.357 0 01-.253.148 2.54 2.54 0 01-.508-.027z" fill="#000"/><path d="M159.673 419.02a17.717 17.717 0 013.967 6.159c.925 2.31 1.036 5.835.544 5.883-.493.047-4.724-5.424-7.13-5.573-2.406-.15-3.826 6.939-4.825 7.274-.999.335-5.181-2.059-6.923-5.932a7.208 7.208 0 01.972-7.117s12.662 8.885 13.395-.694z" fill="#fff"/><path d="M111.207 505.075a.372.372 0 01-.375-.341l-.873-8.345a.393.393 0 01.085-.28.393.393 0 01.406-.129.37.37 0 01.27.329l.873 8.345a.389.389 0 01-.341.421h-.045z" fill="#000"/><path d="M135.103 421.844s-12.93 3.455-21.93 9.486a80.65 80.65 0 00-14.444 12.203l23.457 22.606 8.274-5.025 4.643-39.27z" fill="#5C69A5"/><path d="M180.317 460.225a.373.373 0 01-.375-.311l-2.514-12.891a.367.367 0 01.052-.288.366.366 0 01.244-.162.374.374 0 01.45.296l2.514 12.906a.374.374 0 01-.296.45h-.075zm-53.649 3.587a.29.29 0 01-.149.001.37.37 0 01-.227-.402c.458-3.2 1.441-8.598 2.709-8.785.389-.003.689.204.946.756 1.424 3.202-2.803 8.128-2.936 8.338a.438.438 0 01-.343.092zm2.383-8.47c-.432.242-1.219 3.414-1.767 6.658 1.126-1.59 2.811-4.498 1.948-6.36-.106-.253-.181-.298-.181-.298zm2.858 44.542a.417.417 0 01-.345-.222.373.373 0 01.176-.509c5.242-2.631 8.681-9.344 8.71-9.419a.404.404 0 01.522-.168.404.404 0 01.168.522c-.148.285-3.587 6.998-9.052 9.75l-.179.046z" fill="#fff"/></g></g><g filter="url(#filter3_d_1_258217)"><circle cx="90.326" cy="254.253" r="59.326" fill="#1A2578"/><path d="M146.785 283.657s-16.171.16-17.091-4.96a14.437 14.437 0 011.333-9.025s9.332-11.665 13.198-6.573c4.773 6.213 2.56 20.558 2.56 20.558z" fill="#fff"/><path d="M151.158 268.525s9.106-.72 9.825 1.52c.72 2.24-2.839 2.666-2.839 2.666s6.372-.106 5.839 2.56c-.533 2.666-3.693 3.546-3.693 3.546s3.093 1.96-.16 3.84-22.064.386-22.064.386l.84-13.985 8.213-3.026 4.039 2.493z" fill="#fff"/><path d="M135.681 277.99a.318.318 0 01-.28-.28.318.318 0 01.2-.426 12.777 12.777 0 007.559-7.239.347.347 0 01.426-.214.347.347 0 01.214.427 13.216 13.216 0 01-7.999 7.666l-.12.066zm13.051 4.094a.36.36 0 01-.333-.374l1.013-11.025a.33.33 0 01.121-.233.337.337 0 01.252-.074.345.345 0 01.228.117.314.314 0 01.064.114.354.354 0 01.015.129l-1.013 11.039a.35.35 0 01-.347.307z" fill="#000"/><path d="M132.881 232.997a40.72 40.72 0 0128.467-27.372 40.723 40.723 0 0138.298 9.637 40.73 40.73 0 01-13.332 67.781 10.898 10.898 0 00-6.546 6.96l-1.119 3.639a9.64 9.64 0 01-11.999 6.359l-21.49-6.666a9.65 9.65 0 01-6.373-11.998l1.133-3.653a10.949 10.949 0 00-1.533-9.479 40.682 40.682 0 01-5.506-35.208z" fill="#BF0830"/><path d="M189.006 254.42h-.107a.468.468 0 01-.347-.573c0-.133 3.187-14.665-1.706-17.944-.533-.374-1.333 0-2.013.453a18.594 18.594 0 00-4.319 4.599 19.616 19.616 0 01-.414 5.333c-.746 3.093-2.026 3.333-2.733 3.186a1.328 1.328 0 01-1.026-1.093c-.307-1.52 1.213-4.773 3.253-7.719-.254-3.719-1.507-7.346-4-7.999-2.146-.613-4.733.8-6.919 2.96 0 4.359-1.493 9.332-3.226 10.238a1.241 1.241 0 01-1.493-.293c-1.16-1.2-.787-3.706 1.013-6.666a20.302 20.302 0 012.773-3.626 13.755 13.755 0 00-.16-1.986c-.267-1.813-1.027-4-3.146-4.386-6.44-1.027-11.679 14.984-11.732 15.144a.467.467 0 01-.593.3.468.468 0 01-.3-.593c.226-.693 5.532-16.958 12.785-15.771 2.106.346 3.466 2.133 3.919 5.159.068.442.112.887.133 1.333 2.28-2.053 4.906-3.253 7.199-2.666 2.76.786 4.093 4.253 4.493 7.826a18.074 18.074 0 013.92-4c1.253-.826 2.279-.973 3.066-.453 5.413 3.679 2.226 18.317 2.093 18.944a.493.493 0 01-.413.293zm-9.332-12.145c-1.533 2.427-2.587 4.853-2.373 5.906 0 .28.173.32.293.347.6.133 1.24-.84 1.64-2.493.263-1.236.397-2.496.4-3.76h.04zm-11.879-5.679a19.211 19.211 0 00-1.92 2.666c-1.493 2.507-1.959 4.746-1.146 5.586.187.187.293.147.4.094 1.04-.56 2.4-4.413 2.626-8.346h.04z" fill="#fff"/><path d="M156.132 296.282a.486.486 0 01-.426-.272.477.477 0 01.052-.502l40.768-51.9a.51.51 0 01.137-.152.489.489 0 01.577.013.486.486 0 01.183.355.482.482 0 01-.15.371l-40.781 51.9a.477.477 0 01-.36.187z" fill="#fff"/><path d="M155.878 297.095a.484.484 0 01-.48-.44l-4.426-65.858a.445.445 0 01.26-.452.45.45 0 01.179-.041.444.444 0 01.181.025.452.452 0 01.267.238.469.469 0 01.046.176l4.439 65.859a.46.46 0 01-.117.338.473.473 0 01-.323.155h-.026zm50.899-58.272a.476.476 0 01-.317-.131.47.47 0 01-.149-.309c0-.147-1.107-13.958-15.865-23.623a.48.48 0 01-.204-.295.465.465 0 01.191-.483.463.463 0 01.52-.009c15.171 9.932 16.291 24.197 16.291 24.343a.48.48 0 01-.113.347.463.463 0 01-.327.16h-.027z" fill="#fff"/><path d="M137.534 296.468l33.582 10.359a3.159 3.159 0 101.853-6.039L139.4 290.429a3.148 3.148 0 00-3.365 1.002 3.15 3.15 0 00-.715 2.311 3.166 3.166 0 002.214 2.726z" fill="#40507F"/><path d="M135.814 302.068l33.569 10.305a3.16 3.16 0 101.866-6.039l-33.582-10.359a3.157 3.157 0 00-2.448.186 3.175 3.175 0 00-.979.782 3.15 3.15 0 00-.349 3.544 3.168 3.168 0 001.923 1.527v.054z" fill="#40507F"/><path d="M135.2 264.192s10.905-3.426 12.558-.586c1.653 2.839-12.812 9.132-12.812 9.132s-5.186-5.133.254-8.546z" fill="#fff"/><mask id="c" style="mask-type:alpha" maskUnits="userSpaceOnUse" x="31" y="194" width="119" height="120"><circle cx="90.326" cy="254.253" r="59.326" fill="#C4C4C4"/></mask><g mask="url(#c)"><path d="M137.865 287.123s-34.808 12.572-49.127-4.079c-14.318-16.652-3.612-30.663-3.612-30.663l19.85 6.666a54.485 54.485 0 0013.879 2.666l12.345.773 6.665 24.637z" fill="#BF0830"/><path d="M105.176 312.573s12.252 30.97 11.998 58.953c-.253 27.983-8.718 58.259-8.718 58.259l-37.209.693s6.253-29.703 6.786-36.542c.533-6.839 1.933-50.153 1.933-50.153l.4-29.423 24.81-1.787z" fill="#233587"/><path d="M58.196 312.574s-1.16 17.331-1.493 26.236c-.334 8.906-10.666 20.864-18.931 23.597A42.24 42.24 0 0121.32 364.1l-1.066 32.33s28.143 7.532 47.9-4.84c19.758-12.371 18.491-38.142 18.491-38.142l1.467-41.581-29.916.707z" fill="#233587"/><path d="M72.633 250.448c14.852-1.44 27.197 8.986 29.223 23.784l1.2 8.812s3.893 29.223 3.253 30.356c-.64 1.133-14.145 4-27.183 3.4-13.039-.6-21.33-2.92-21.93-3.4a24.967 24.967 0 00-.694-7.119c-2.533-7.999-7.839-21.571-7.466-34.276.24-8.132 9.452-19.517 9.452-19.664 0-.146 6.173-1.12 14.145-1.893z" fill="#BF0830"/><path d="M74.38 229.371s8.598.413 9.092-7.826c.506-8.785-7.613-9.625-11.052-6.079a8.788 8.788 0 00-2.813 7.159 3.538 3.538 0 00-3.953-.401 3.528 3.528 0 00-1.073.894c-1.92 1.96-.933 5.146-.933 5.146s-4.427-.173-4 3.707a8.627 8.627 0 003.173 5.826l11.558-8.426z" fill="#000"/><path d="M66.527 244.542l.88 9.172s1.907 2.466 7.293 2.386c4 0 5.332-1.106 5.332-1.106l-1.013-4.573-.987-4.453-9.852-1.186-1.653-.24z" fill="#fff"/><path d="M68.18 244.742c.075.299.192.587.347.853 2.493 4.373 8.173 4.8 10.492 4.786l-.986-4.452-9.852-1.187z" fill="#000"/><path d="M78.073 224.905s5.919 10.985 4.652 17.531c-1.266 6.546-7.185 6.026-10.772 5.066a11.57 11.57 0 01-5.332-2.96 4.945 4.945 0 01-5.6-1.466c-2.426-2.853-1.333-6.453.427-7.399a5.15 5.15 0 014.12.213l-2.16-3.173s5.972-17.411 14.665-7.812z" fill="#fff"/><path d="M65.581 240.823a.39.39 0 01-.173 0l-4.4-2.559a.32.32 0 01-.12-.454.32.32 0 01.453-.133l4.413 2.56a.347.347 0 01.12.466.332.332 0 01-.293.12z" fill="#000"/><path d="M61.82 241.143a.331.331 0 01-.32-.227.333.333 0 01.214-.427l2.666-.959a.333.333 0 01.427.2.32.32 0 01-.2.426l-2.666.973-.12.014zm9-10.692a.27.27 0 01-.173 0 .344.344 0 01-.155-.344.327.327 0 01.048-.123 2.782 2.782 0 011.493-1.289 2.782 2.782 0 011.973.022.35.35 0 01.174.44.31.31 0 01-.072.111.311.311 0 01-.24.095.334.334 0 01-.128-.032 2.133 2.133 0 00-2.667 1.013.344.344 0 01-.253.107zm8.813-1.293a.317.317 0 01-.187-.067 1.87 1.87 0 00-2.066 0 .33.33 0 01-.372.011.343.343 0 01-.095-.091.337.337 0 01-.063-.247.328.328 0 01.13-.219 2.561 2.561 0 012.853 0 .331.331 0 01.08.466.335.335 0 01-.28.147zm-1.227 10.398a.384.384 0 01-.253-.137.38.38 0 01-.08-.276 6.854 6.854 0 00-1.333-5.693.329.329 0 01-.075-.37.335.335 0 01.075-.11.329.329 0 01.24-.102c.044 0 .089.009.13.027a.328.328 0 01.11.075 7.496 7.496 0 011.506 6.279.344.344 0 01-.32.307zm1.614-6.012a.335.335 0 01-.307-.213l-.787-2.04a.347.347 0 01.64-.24l.773 2.04a.319.319 0 01-.186.426.238.238 0 01-.134.027zm-5.76.68a.346.346 0 01-.32-.214l-.773-2.039a.332.332 0 01.2-.44.318.318 0 01.426.2l.787 2.039a.333.333 0 01-.2.427.202.202 0 01-.12.027z" fill="#000"/><path d="M79.246 227.398a3.87 3.87 0 00-3.453-1.534 4.934 4.934 0 00-1.93.61 4.935 4.935 0 00-1.522 1.337s1.333 3.733-1.52 6.079a7.617 7.617 0 01-5.333 2l-2.333-.587-1.96-3.119 5.813-7.639 7.999-5.333 4.666 3.479-.427 4.707zm-2.694 14.492a3.32 3.32 0 01-2.973-1.613.335.335 0 01.12-.454.329.329 0 01.377.01.332.332 0 01.09.097 2.756 2.756 0 002.813 1.253.345.345 0 01.4.267.36.36 0 01-.267.4c-.185.027-.372.04-.56.04z" fill="#000"/><path d="M82.392 237.836a3.998 3.998 0 01-1.511-7.84 4.003 4.003 0 014.263 1.574 4 4 0 01.728 2.267 3.748 3.748 0 01-3.48 3.999zm0-7.226a3.312 3.312 0 00-3.385 1.668 3.306 3.306 0 106.198 1.612 3.065 3.065 0 00-2.813-3.28z" fill="#fff"/><path d="M73.607 238.729a3.995 3.995 0 01-3.695-2.469 3.995 3.995 0 01.867-4.358 4 4 0 112.828 6.827zm0-7.225a3.274 3.274 0 00-3.04 2.015 3.28 3.28 0 103.04-2.015z" fill="#fff"/><path d="M79.246 234.224h-2.2a.348.348 0 01-.347-.333.349.349 0 01.347-.347h2.2a.346.346 0 01.346.347.347.347 0 01-.346.333zm-16.104 1.426a.33.33 0 01-.36-.271.335.335 0 01.24-.382 17.344 17.344 0 017.012-.56.348.348 0 01.168.612.341.341 0 01-.248.068 16.876 16.876 0 00-6.665.507l-.147.026zm11.678 20.425a14.056 14.056 0 01-8.452-2.773.348.348 0 010-.48.31.31 0 01.095-.091.323.323 0 01.372.024c7.079 5.199 14.664 1.147 14.798 1.093a.36.36 0 01.466.147.347.347 0 01-.133.453 16.386 16.386 0 01-7.146 1.627zm36.143 13.277h-.213a1.218 1.218 0 01-1.04-.706c-.934-2 2.746-7.746 3.159-8.399a.35.35 0 01.374-.147.358.358 0 01.175.113.354.354 0 01.078.194c0 .28.426 6.759-1.413 8.505a1.559 1.559 0 01-1.12.44zm1.906-7.826c-1.44 2.387-3.053 5.72-2.546 6.813a.547.547 0 00.506.333.968.968 0 00.787-.266c1.12-1.067 1.293-4.68 1.253-6.88zM80.445 286.91l3.586 2.773s14.852 2.28 15.145 4c.293 1.719-9.639 2.373-9.639 2.373s1.334 3.493.987 4.772c-.347 1.28-1.24 7.439-4.52 8.746-3.28 1.306-16.717-4.986-16.717-4.986l-.4-13.692a94.753 94.753 0 019.332-4.532 1.992 1.992 0 012.226.546z" fill="#fff"/><path d="M58.489 252.381s-32.143 10.985-31.503 36.502c.64 25.517 44.101 21.33 44.101 21.33V286.59l-19.678-15.625 7.08-18.584z" fill="#BF0830"/><path d="M89.538 296.376l-4-.266a.345.345 0 01-.228-.117.326.326 0 01-.078-.243.37.37 0 01.36-.32l4 .266a.349.349 0 01.319.36.36.36 0 01-.373.32zm-5.506-6.36h-6.986a.348.348 0 01-.307-.306.346.346 0 01.347-.347h6.986a.347.347 0 01.346.347.351.351 0 01-.129.234.348.348 0 01-.257.072z" fill="#000"/><path d="M71.087 286.924h-.093a225.793 225.793 0 00-25.077-5.213.345.345 0 01-.168-.611.328.328 0 01.248-.069 227.91 227.91 0 0125.184 5.213.358.358 0 01.24.413.35.35 0 01-.334.267z" fill="#fff"/><path d="M55.73 283.377h-.094c-.854-.266-8.293-2.666-8.853-4.932a1.243 1.243 0 01.387-1.227 1.736 1.736 0 011.413-.507c2.813.174 7.226 5.893 7.413 6.133a.347.347 0 010 .4.342.342 0 01-.267.133zm-7.293-6.012a1.057 1.057 0 00-.787.32.579.579 0 00-.213.586c.32 1.333 4.28 3.04 7.306 4.08-1.574-1.88-4.44-4.866-6.213-4.986h-.093zm22.65 33.142H57.529a.332.332 0 01-.334-.333.348.348 0 01.334-.347h13.558a.348.348 0 01.333.347.332.332 0 01-.333.333z" fill="#fff"/></g></g><path d="M461.5 121.584l-7.597-1.389-6.027 32.973 7.597 1.389 6.027-32.973z" fill="#FFDA32"/><path d="M459.469 111.235l3.157 8.825 3.146 8.825-9.216-1.685-9.217-1.684 6.07-7.14 6.06-7.141z" fill="#FFDA32"/><path d="M297.203 2.8l-1.804 6.185a.138.138 0 00-.013.06c0 .02.004.041.013.06l3.51 5.425a.488.488 0 01-.415.77l-6.497.098a.173.173 0 00-.12.055l-3.927 5.35a.49.49 0 01-.475.19.492.492 0 01-.389-.332l-2.078-6.608a.175.175 0 00-.098-.098l-6.562-2.17a.482.482 0 01-.343-.387.476.476 0 01.211-.47l5.469-3.82a.189.189 0 00.066-.108l.24-6.511a.477.477 0 01.538-.486.49.49 0 01.25.106l5.468 3.646a.156.156 0 00.12 0l6.246-1.67a.495.495 0 01.554.147.484.484 0 01.036.568z" fill="#BF0830"/><path d="M271.576 21.188l-.572-.89a30.17 30.17 0 017.288-3.538l.297 1.06a30.34 30.34 0 00-7.013 3.368zM257.158 36.21l-.9-.55a49.468 49.468 0 016.483-8.475l.774.72a49.39 49.39 0 00-6.357 8.306zm-6.864 17.024l-1.06-.254a66.465 66.465 0 012.342-7.66l.995.371a66.75 66.75 0 00-2.277 7.543z" fill="#fff"/><path d="M170.125 146.267l-.954 6.208a.12.12 0 000 .117l4.047 4.831a.467.467 0 01-.296.794l-6.23.901a.151.151 0 00-.106.074l-3.072 5.668a.465.465 0 01-.847 0l-2.829-6.134a.137.137 0 00-.043-.055.147.147 0 00-.063-.03l-6.515-1.25a.478.478 0 01-.233-.826l4.725-4.418a.17.17 0 00.053-.117l-.583-6.356a.468.468 0 01.205-.462.469.469 0 01.505-.004l5.668 2.85a.143.143 0 00.116 0l5.784-2.267a.471.471 0 01.626.236.484.484 0 01.042.24z" fill="#BF0830"/><path d="M151.703 167.879l-.773-.731a30.617 30.617 0 016.134-5.296l.529.911a30.064 30.064 0 00-5.89 5.116zm-10.224 18.169l-1.059-.307a50.262 50.262 0 014.163-9.874l.933.519a48.11 48.11 0 00-4.037 9.662zm-3.475 18.168a68.253 68.253 0 01.361-7.998l1.059.116a65.915 65.915 0 00-.36 7.872l-1.06.01z" fill="#fff"/><path d="M320.113 290.403l5.54 2.955a.148.148 0 00.117 0l5.901-2.225c.081-.036.171-.049.26-.036a.468.468 0 01.24.107c.069.057.12.133.147.218a.467.467 0 01.009.262l-1.218 6.177a.143.143 0 000 .127l4.322 4.799a.468.468 0 01.092.492.472.472 0 01-.157.207.465.465 0 01-.242.095l-6.727.636a.138.138 0 00-.116.063l-3.348 5.742a.48.48 0 01-.44.233.475.475 0 01-.408-.286l-2.553-5.911a.14.14 0 00-.038-.053.14.14 0 00-.057-.032l-6.145-1.536a.477.477 0 01-.211-.826l4.576-4.407a.16.16 0 000-.106l-.339-6.251a.475.475 0 01.526-.572.474.474 0 01.269.128z" fill="#BF0830"/><path d="M334.796 316.633a30.521 30.521 0 00-4.428-6.356l.752-.742a30.728 30.728 0 014.609 6.621l-.933.477zm5.319 20.128a49.202 49.202 0 00-1.505-10.382l1.06-.265a49.95 49.95 0 011.536 10.594l-1.091.053zm-1.229 18.434l-1.06-.276a64.77 64.77 0 001.632-7.712l1.059.159a66.745 66.745 0 01-1.631 7.829z" fill="#fff"/><path d="M145.265 113.026c20.584 0 37.27-16.686 37.27-37.27 0-20.583-16.686-37.269-37.27-37.269-20.583 0-37.269 16.686-37.269 37.27 0 20.583 16.686 37.269 37.269 37.269z" fill="#BF0830"/><path d="M106.217 55.056l39.049 20.7-19.959-38.678-19.09 17.978z" fill="#1A2578"/><path d="M85.014 144.494l-4.893 5.975 25.933 21.237 4.893-5.975-25.933-21.237z" fill="#6258C4"/><path d="M74.998 141.275l9.244 1.519 9.242 1.508-5.937 7.251-5.936 7.251-3.308-8.77-3.305-8.759z" fill="#6258C4"/><path d="M322 430.941l-6.596-4.018-17.438 28.625 6.595 4.018L322 430.941z" fill="#74BBFB"/><path d="M323.796 420.576l-.222 9.365-.223 9.365-7.998-4.873-8.009-4.873 8.231-4.492 8.221-4.492z" fill="#74BBFB"/><path d="M59.142 356.925l6.18 1.113a.21.21 0 00.117.005l4.951-3.916a.477.477 0 01.783.327l.717 6.25a.139.139 0 00.07.109l5.58 3.275a.463.463 0 01.172.682.462.462 0 01-.204.165l-6.217 2.637a.147.147 0 00-.078.103l-1.484 6.432a.466.466 0 01-.824.202l-4.227-4.845a.13.13 0 00-.05-.043.144.144 0 00-.064-.015l-6.376.395a.47.47 0 01-.454-.215.463.463 0 01.004-.502l3.021-5.589a.15.15 0 00.005-.116l-2.217-5.852a.476.476 0 01.595-.602z" fill="#BF0830"/><path d="M84.568 351.76a15.962 15.962 0 00-5.448 5.306l-.936-.491a16.663 16.663 0 015.814-5.706l.57.891zm16.953-4.765l-.041 1.058a35.889 35.889 0 00-7.817.393l-.172-1.066a37.27 37.27 0 018.03-.385z" fill="#fff"/><path d="M513.513 143.816l1.617 6.072a.15.15 0 00.039.044c.017.012.035.02.055.025l5.632 2.817c.081.035.15.092.2.165a.47.47 0 01.028.498.476.476 0 01-.181.186l-5.346 3.331a.136.136 0 00-.075.103l-.562 6.445a.48.48 0 01-.56.426.474.474 0 01-.234-.115l-5.055-4.482a.13.13 0 00-.038-.046.13.13 0 00-.056-.023l-6.48 1.475a.483.483 0 01-.475-.163.478.478 0 01-.066-.497l2.57-5.905a.14.14 0 00-.003-.121l-3.073-5.537a.467.467 0 01.501-.684l6.333.322a.197.197 0 00.107-.039l4.338-4.518a.47.47 0 01.213-.114.469.469 0 01.449.126c.058.058.1.13.122.209z" fill="#BF0830"/><path d="M490.473 156.977l-.191-1.046a30.61 30.61 0 018.078-.644l-.103 1.054a29.584 29.584 0 00-7.784.636zm-18.969 8.581l-.673-.874a48.968 48.968 0 019.196-5.5l.437.963a48.703 48.703 0 00-8.96 5.411zm-13.565 12.621a68.34 68.34 0 015.021-6.237l.785.721a65.88 65.88 0 00-4.945 6.134l-.861-.618z" fill="#fff"/><defs><filter id="filter0_d_1_258217" x="168.443" y="7.96" width="283.787" height="293.244" filterUnits="userSpaceOnUse" color-interpolation-filters="sRGB"><feFlood flood-opacity="0" result="BackgroundImageFix"/><feColorMatrix in="SourceAlpha" values="0 0 0 0 0 0 0 0 0 0 0 0 0 0 0 0 0 0 127 0" result="hardAlpha"/><feOffset dy="4"/><feGaussianBlur stdDeviation="15.5"/><feComposite in2="hardAlpha" operator="out"/><feColorMatrix values="0 0 0 0 0 0 0 0 0 0 0 0 0 0 0 0 0 0 0.25 0"/><feBlend in2="BackgroundImageFix" result="effect1_dropShadow_1_258217"/><feBlend in="SourceGraphic" in2="effect1_dropShadow_1_258217" result="shape"/></filter><filter id="filter1_d_1_258217" x="314.189" y="160.052" width="270.704" height="341.992" filterUnits="userSpaceOnUse" color-interpolation-filters="sRGB"><feFlood flood-opacity="0" result="BackgroundImageFix"/><feColorMatrix in="SourceAlpha" values="0 0 0 0 0 0 0 0 0 0 0 0 0 0 0 0 0 0 127 0" result="hardAlpha"/><feOffset dy="4"/><feGaussianBlur stdDeviation="15.5"/><feComposite in2="hardAlpha" operator="out"/><feColorMatrix values="0 0 0 0 0 0 0 0 0 0 0 0 0 0 0 0 0 0 0.25 0"/><feBlend in2="BackgroundImageFix" result="effect1_dropShadow_1_258217"/><feBlend in="SourceGraphic" in2="effect1_dropShadow_1_258217" result="shape"/></filter><filter id="filter2_d_1_258217" x="43.435" y="269.994" width="297.398" height="264.129" filterUnits="userSpaceOnUse" color-interpolation-filters="sRGB"><feFlood flood-opacity="0" result="BackgroundImageFix"/><feColorMatrix in="SourceAlpha" values="0 0 0 0 0 0 0 0 0 0 0 0 0 0 0 0 0 0 127 0" result="hardAlpha"/><feOffset dy="4"/><feGaussianBlur stdDeviation="15.5"/><feComposite in2="hardAlpha" operator="out"/><feColorMatrix values="0 0 0 0 0 0 0 0 0 0 0 0 0 0 0 0 0 0 0.25 0"/><feBlend in2="BackgroundImageFix" result="effect1_dropShadow_1_258217"/><feBlend in="SourceGraphic" in2="effect1_dropShadow_1_258217" result="shape"/></filter><filter id="filter3_d_1_258217" x="0" y="167.928" width="243.532" height="180.651" filterUnits="userSpaceOnUse" color-interpolation-filters="sRGB"><feFlood flood-opacity="0" result="BackgroundImageFix"/><feColorMatrix in="SourceAlpha" values="0 0 0 0 0 0 0 0 0 0 0 0 0 0 0 0 0 0 127 0" result="hardAlpha"/><feOffset dy="4"/><feGaussianBlur stdDeviation="15.5"/><feComposite in2="hardAlpha" operator="out"/><feColorMatrix values="0 0 0 0 0 0 0 0 0 0 0 0 0 0 0 0 0 0 0.25 0"/><feBlend in2="BackgroundImageFix" result="effect1_dropShadow_1_258217"/><feBlend in="SourceGraphic" in2="effect1_dropShadow_1_258217" result="shape"/></filter></defs></svg>