<svg width="188" height="31" fill="none" xmlns="http://www.w3.org/2000/svg"><path d="M13.225 3.954c6.265 0 10.947 3.5 12.466 9.227h-7.024c-1.076-2.29-3.1-3.372-5.505-3.372-3.923 0-6.644 2.927-6.644 7.636s2.72 7.636 6.644 7.636c2.404 0 4.43-1.145 5.505-3.372h7.024c-1.519 5.727-6.201 9.227-12.466 9.227C5.442 30.872 0 25.336 0 17.38 0 9.427 5.442 3.954 13.225 3.954zM38.473 31c-6.138 0-10.757-4.137-10.757-10.819 0-6.681 4.746-10.818 10.884-10.818S49.483 13.5 49.483 20.181c0 6.682-4.872 10.819-11.01 10.819zm0-5.6c2.278 0 4.43-1.719 4.43-5.219 0-3.563-2.089-5.218-4.367-5.218-2.34 0-4.366 1.655-4.366 5.218.063 3.5 1.962 5.219 4.303 5.219zm23.73 5.6c-6.138 0-10.758-4.137-10.758-10.819 0-6.681 4.746-10.818 10.884-10.818S73.213 13.5 73.213 20.181C73.213 26.863 68.34 31 62.203 31zm0-5.6c2.278 0 4.429-1.719 4.429-5.219 0-3.563-2.088-5.218-4.366-5.218-2.341 0-4.366 1.655-4.366 5.218 0 3.5 1.961 5.218 4.303 5.218zM75.49 3.954h6.391V18.21l6.329-8.53h7.91l-8.67 10.5 8.796 10.5h-7.91l-6.39-8.845v8.845h-6.391V3.954h-.064zm22.149.064c0-1.973 1.518-3.5 3.796-3.5 2.278 0 3.797 1.527 3.797 3.5 0 1.909-1.519 3.436-3.797 3.436-2.278 0-3.796-1.527-3.796-3.436zm.633 5.6h6.391v21h-6.391v-21zM117.57 31c-6.138 0-10.567-4.137-10.567-10.819 0-6.681 4.366-10.818 10.567-10.818 6.075 0 10.441 4.073 10.441 10.5 0 .573-.063 1.273-.126 1.91h-14.491c.253 2.736 1.898 4.008 3.987 4.008 1.771 0 2.784-.89 3.353-2.036h6.834C126.493 27.818 122.822 31 117.57 31zm-4.113-12.855h8.037c0-2.29-1.772-3.627-3.924-3.627-2.151 0-3.733 1.272-4.113 3.627zM157.563 31c-6.138 0-10.568-4.137-10.568-10.819 0-6.681 4.366-10.818 10.568-10.818 6.074 0 10.44 4.073 10.44 10.5 0 .573-.063 1.273-.126 1.91h-14.491c.253 2.736 1.899 4.008 3.987 4.008 1.771 0 2.784-.89 3.353-2.036h6.834c-1.075 4.073-4.809 7.255-9.997 7.255zm-4.177-12.855h8.036c0-2.29-1.771-3.627-3.923-3.627-2.088 0-3.733 1.272-4.113 3.627zM179.583 31c-5.568 0-9.302-3.119-9.618-7.191h6.328c.126 1.463 1.455 2.418 3.227 2.418 1.645 0 2.531-.764 2.531-1.718 0-3.373-11.39-.955-11.39-8.655 0-3.563 3.037-6.49 8.479-6.49 5.379 0 8.416 2.99 8.796 7.127h-5.948c-.19-1.4-1.266-2.355-3.101-2.355-1.519 0-2.341.573-2.341 1.59 0 3.374 11.326.955 11.453 8.846.063 3.628-3.164 6.428-8.416 6.428z" fill="#404041"/><path d="M134.656 10h-6.644l6.074 11.327h6.645L134.656 10z" fill="#0056A7"/><path d="M133.96 21.008l.19.319h6.644l-4.366-7.955-2.468 7.636z" fill="#2E3191"/><path d="M146.109.454l-11.96 20.873h6.645L152.753.454h-6.644zm-11.96 23.99h6.455V31h-6.455v-6.555z" fill="#0056A7"/></svg>