<svg width="145" height="53" fill="none" xmlns="http://www.w3.org/2000/svg"><g clip-path="url(#clip0_1_258182)" fill="#000"><path d="M11.5 33.4v7.2c0 .9.2 1.6.6 2.1.4.5 1 .8 1.6.8h2.9v1.7h-2.8c-1.1 0-2.1-.4-2.9-1.2-.8-.8-1.2-1.9-1.2-3.4v-7.2c0-1.3-.2-2.6-.7-3.7-.4-1.1-1-2-1.7-2.7-.7-.7-1.6-1.3-2.5-1.7-.9-.4-1.9-.6-3-.6H0V23h1.9c1.3 0 2.5.2 3.6.7 1.2.5 2.2 1.1 3.1 2 .9.9 1.6 2 2.1 3.3.6 1.4.8 2.8.8 4.4zm-3.4 0v7.2c0 2 .6 3.5 1.7 4.6 1.1 1.1 2.5 1.7 4.1 1.7h2.8v1.7h-2.8c-2.1 0-3.9-.7-5.3-2.2C7.1 45 6.4 43 6.4 40.6v-7.2c0-1.7-.4-3-1.2-3.9-.8-.9-1.9-1.4-3.2-1.4H0v-1.7h1.9c1.7 0 3.2.6 4.4 1.9 1.2 1.2 1.8 2.9 1.8 5.1zm-3.4 0v7.2c0 2.9.9 5.3 2.7 7 1.8 1.8 4 2.7 6.5 2.7h2.9V52H14c-1.9 0-3.7-.5-5.4-1.4-1.7-.9-3-2.2-4-4-1-1.8-1.5-3.8-1.5-6.1v-7.2c0-.7-.1-1.2-.3-1.4-.2-.2-.5-.4-.9-.4H0v-1.7h1.8c.8 0 1.5.3 2 .9.6.6.9 1.5.9 2.7zm-.1-11.1l-1.7-.2c0-.3.1-.6.1-.9V12c0-2.3.5-4.3 1.5-6.1 1-1.8 2.4-3.1 4-4C10.1 1 11.9.5 13.9.5h2.8v1.7h-2.9c-2.5 0-4.7.9-6.5 2.7-1.8 1.8-2.7 4.1-2.7 7v9.2c.1.5 0 .9 0 1.2zm3.1 1.4l-1.6-.8c.2-.8.2-1.4.2-1.7V12c0-2.4.7-4.4 2.2-5.8C10 4.8 11.7 4 13.8 4h2.8v1.7h-2.8c-1.6 0-3 .6-4.1 1.7-1.1 1.1-1.6 2.7-1.6 4.6v9.2c0 .8-.1 1.6-.4 2.5zm2.8 2.4l-1.3-1.3c.4-1.1.6-2.3.6-3.6V12c0-1.4.4-2.5 1.2-3.4.8-.7 1.7-1.1 2.9-1.1h2.8v1.7h-2.9c-.7 0-1.2.3-1.6.8-.4.5-.6 1.2-.6 2.1v9.2c-.1 1.7-.4 3.3-1.1 4.8zm48-11.9l-1.5.9c-1.8-2.7-4.1-4.7-7-6.3-2.9-1.5-6-2.3-9.3-2.3-2.7 0-5.2.5-7.7 1.6-2.4 1-4.5 2.4-6.3 4.2-1.8 1.8-3.2 3.9-4.2 6.3s-1.6 5-1.6 7.7.5 5.2 1.6 7.7c1 2.4 2.4 4.5 4.2 6.3 1.8 1.8 3.9 3.2 6.3 4.2s5 1.6 7.7 1.6c3.3 0 6.4-.8 9.3-2.3 2.9-1.6 5.2-3.7 7-6.3l1.4 1c-2 2.9-4.5 5.1-7.6 6.8-3.1 1.7-6.5 2.5-10.1 2.5-2.9 0-5.7-.6-8.3-1.7-2.6-1.1-4.9-2.7-6.8-4.6-1.9-1.9-3.4-4.2-4.6-6.8-1.1-2.6-1.7-5.4-1.7-8.3 0-2.9.6-5.7 1.7-8.3 1.1-2.6 2.7-4.9 4.6-6.8 1.9-1.9 4.2-3.4 6.8-4.6C35 5.5 37.8 5 40.7 5c3.6 0 7 .8 10.1 2.5 3.2 1.5 5.7 3.8 7.7 6.7zm-2.8 2l-1.4.9c-1.5-2.2-3.4-3.9-5.8-5.2-2.4-1.3-4.9-1.9-7.7-1.9-2.2 0-4.3.4-6.3 1.3s-3.7 2-5.2 3.5-2.6 3.2-3.5 5.2c-.9 2-1.3 4.1-1.3 6.3s.4 4.3 1.3 6.3 2 3.8 3.5 5.2c1.5 1.5 3.2 2.6 5.2 3.5 2 .9 4.1 1.3 6.3 1.3 2.8 0 5.3-.6 7.7-1.9 2.4-1.3 4.3-3 5.8-5.2l1.4 1c-1.7 2.4-3.8 4.3-6.4 5.7-2.6 1.4-5.4 2.1-8.5 2.1-3.3 0-6.3-.8-9-2.4-2.8-1.6-4.9-3.8-6.6-6.6-1.6-2.8-2.4-5.8-2.4-9s.8-6.3 2.4-9c1.6-2.8 3.8-4.9 6.6-6.6 2.8-1.6 5.8-2.4 9-2.4 3 0 5.9.7 8.5 2.1 2.6 1.4 4.7 3.3 6.4 5.8zm-2.9 1.9l-1.4.9c-1.2-1.7-2.7-3.1-4.6-4.1-1.9-1-3.9-1.5-6.1-1.5-2.3 0-4.5.6-6.5 1.7-2 1.2-3.5 2.7-4.7 4.7-1.2 2-1.7 4.1-1.7 6.5 0 2.3.6 4.5 1.7 6.5s2.7 3.5 4.7 4.7c2 1.2 4.1 1.7 6.5 1.7 2.2 0 4.2-.5 6.1-1.5 1.9-1 3.4-2.4 4.6-4.1l1.4 1c-1.3 2-3.1 3.5-5.2 4.7-2.1 1.1-4.4 1.7-6.9 1.7-2.6 0-5.1-.7-7.3-2s-4-3.1-5.3-5.3c-1.3-2.2-2-4.7-2-7.3 0-2.6.7-5.1 2-7.3s3.1-4 5.3-5.3c2.2-1.3 4.7-2 7.3-2 2.5 0 4.8.6 6.9 1.7 2.1 1.1 3.9 2.6 5.2 4.6zM50 20l-1.4.9c-.9-1.3-2-2.3-3.3-3-1.3-.7-2.9-1.1-4.5-1.1-2.6 0-4.8.9-6.7 2.8-1.8 1.8-2.8 4.1-2.8 6.7 0 2.6.9 4.8 2.8 6.7 1.8 1.8 4.1 2.8 6.7 2.8 1.6 0 3.1-.4 4.5-1.1 1.4-.7 2.5-1.8 3.3-3l1.4 1c-1 1.5-2.3 2.7-4 3.5-1.6.9-3.4 1.3-5.2 1.3-1.5 0-2.9-.3-4.3-.9-1.4-.6-2.6-1.4-3.6-2.4s-1.8-2.2-2.4-3.6c-.6-1.4-.9-2.8-.9-4.3s.3-2.9.9-4.3c.6-1.4 1.4-2.6 2.4-3.6s2.2-1.8 3.6-2.4c1.4-.6 2.8-.9 4.3-.9 1.9 0 3.6.4 5.3 1.3 1.5.9 2.9 2.1 3.9 3.6zm27.7 2h-2.9c-1.2 0-2.1-.3-2.6-.9-.5-.6-.8-1.5-.8-2.5 0-2.3 1.7-3.4 5.1-3.4 3.2 0 5.6.5 7.2 1.4l-1.4 1c-1.1-.5-3.1-.8-5.9-.8-1.4 0-2.3.2-2.8.5-.4.3-.6.7-.6 1.2s.1 1 .4 1.3c.3.3.7.5 1.4.5h3c2.1 0 4.1.4 5.8 1.1 1.7.7 3.1 1.7 4.2 3s2 2.7 2.5 4.4c.6 1.6.9 3.4.9 5.3 0 1.5-.2 3-.6 4.3-.4 1.4-1.1 2.6-1.9 3.8-.9 1.1-1.9 2.1-3.1 3-1.2.8-2.7 1.5-4.3 2-1.7.5-3.5.7-5.4.7-3.1 0-5.9-.5-8.6-1.4-2.7-.9-4.9-2.2-6.7-3.9l1.4-1c1.6 1.5 3.6 2.6 6.1 3.4 2.4.8 5 1.2 7.8 1.2 2.2 0 4.1-.3 5.9-.9 1.8-.6 3.2-1.5 4.3-2.6 1.1-1.1 2-2.4 2.6-3.8.6-1.4.9-3 .9-4.7 0-2.2-.4-4.2-1.3-6-.9-1.8-2.2-3.2-4.1-4.3-1.9-1.1-4-1.9-6.5-1.9zm-2.9 8.5h2.6c1.2 0 2.1.3 2.6 1 .5.6.8 1.5.8 2.5 0 2.3-1.7 3.4-5.1 3.4-3.2 0-5.6-.5-7.3-1.4l1.4-1c1.1.5 3.1.8 5.9.8 1.4 0 2.3-.2 2.8-.5s.7-.7.7-1.3c0-.5-.1-.9-.4-1.3-.3-.3-.7-.5-1.4-.5h-2.6c-2.2 0-4.2-.4-5.9-1.1-1.8-.7-3.2-1.7-4.4-3-1.1-1.3-2-2.7-2.6-4.4-.6-1.5-.9-3.2-.9-5.2 0-1.5.2-3 .6-4.3.4-1.4 1.1-2.6 1.9-3.8.9-1.1 1.9-2.1 3.1-3 1.2-.9 2.7-1.5 4.3-2 1.6-.5 3.5-.7 5.4-.7 3.1 0 5.9.5 8.6 1.4 2.7.9 4.9 2.2 6.7 3.9l-1.4 1c-1.6-1.5-3.6-2.6-6.1-3.4-2.4-.8-5-1.2-7.8-1.2-2.2 0-4.1.3-5.9.9-1.8.6-3.2 1.5-4.3 2.6-1.1 1.1-2 2.4-2.6 3.8-.6 1.4-.9 3-.9 4.7 0 2.2.5 4.3 1.4 6 .9 1.8 2.3 3.2 4.1 4.3 2 1.3 4.2 1.8 6.7 1.8zm0-6.8h2.7c3.2 0 5.7 1 7.6 3 1.8 2 2.7 4.4 2.7 7.3 0 3-1.1 5.4-3.2 7.4s-5.1 2.9-8.9 2.9c-2.5 0-4.9-.3-7.1-1-2.2-.7-4-1.7-5.5-3l1.3-1.1c1.3 1.1 2.9 1.9 4.9 2.5 2 .6 4.1.9 6.4.9 3.3 0 5.9-.8 7.7-2.4 1.8-1.6 2.7-3.7 2.7-6.2s-.7-4.5-2.2-6.1c-1.5-1.6-3.6-2.4-6.4-2.4h-2.7c-2.3 0-4.1-.6-5.2-1.9-1.1-1.3-1.7-2.9-1.7-5s.7-3.7 2.2-5c1.4-1.3 3.6-1.9 6.5-1.9 2 0 3.9.2 5.6.7 1.7.5 3.2 1.1 4.3 2L85 15.5c-2-1.4-4.8-2-8.5-2-2.4 0-4.1.5-5.2 1.4-1.1.9-1.7 2.2-1.7 3.7 0 1.6.4 2.8 1.2 3.7.8.9 2.1 1.4 4 1.4zm0 3.4h2.6c2.3 0 4.1.6 5.2 1.9 1.2 1.3 1.7 2.9 1.7 4.9 0 2-.7 3.7-2.2 5-1.4 1.3-3.6 1.9-6.5 1.9-2 0-3.9-.2-5.6-.7-1.7-.5-3.2-1.1-4.3-2l1.4-1c2 1.4 4.8 2 8.6 2 2.4 0 4.1-.5 5.2-1.4 1.1-.9 1.7-2.2 1.7-3.7s-.4-2.8-1.2-3.7c-.8-.9-2.2-1.4-4-1.4h-2.6c-3.3 0-5.8-1-7.6-2.9-1.8-1.9-2.7-4.4-2.7-7.4s1.1-5.4 3.2-7.4c2.1-1.9 5.1-2.9 8.9-2.9 2.5 0 4.9.3 7.1 1 2.2.7 4 1.7 5.5 3l-1.3 1.1c-1.3-1.1-2.9-1.9-4.9-2.5-2-.6-4.1-.9-6.4-.9-3.3 0-5.9.8-7.7 2.4-1.8 1.6-2.7 3.7-2.7 6.2s.7 4.5 2.2 6.2c1.5 1.5 3.6 2.3 6.4 2.3zm36.1-5.1H108c-1.2 0-2.1-.3-2.6-.9-.5-.6-.8-1.5-.8-2.5 0-2.3 1.7-3.4 5.1-3.4 3.2 0 5.6.5 7.2 1.4l-1.4 1c-1.1-.5-3.1-.8-5.9-.8-1.4 0-2.3.2-2.8.5s-.7.7-.7 1.3c0 .6.1 1 .4 1.3.3.3.7.5 1.4.5h3c2.1 0 4.1.4 5.8 1.1 1.7.7 3.1 1.7 4.2 3s2 2.7 2.5 4.4c.6 1.6.9 3.4.9 5.3 0 1.5-.2 3-.6 4.3-.4 1.4-1.1 2.6-1.9 3.8-.9 1.1-1.9 2.1-3.1 3-1.2.8-2.7 1.5-4.3 2-1.7.5-3.5.7-5.4.7-3.1 0-5.9-.5-8.6-1.4-2.7-.9-4.9-2.2-6.7-3.9l1.4-1c1.6 1.5 3.6 2.6 6.1 3.4 2.4.8 5 1.2 7.8 1.2 2.2 0 4.1-.3 5.9-.9 1.8-.6 3.2-1.5 4.3-2.6 1.1-1.1 2-2.4 2.6-3.8.6-1.4.9-3 .9-4.7 0-2.2-.4-4.2-1.3-6-.9-1.8-2.2-3.2-4.1-4.3-1.9-1.1-3.9-2-6.4-2zm-2.8 8.5h2.6c1.2 0 2.1.3 2.6 1 .5.6.8 1.5.8 2.5 0 2.3-1.7 3.4-5.1 3.4-3.2 0-5.6-.5-7.3-1.4l1.4-1c1.1.5 3.1.8 5.9.8 1.4 0 2.3-.2 2.8-.5s.7-.7.7-1.3c0-.5-.1-.9-.4-1.3-.3-.3-.7-.5-1.4-.5h-2.6c-2.2 0-4.2-.4-5.9-1.1-1.8-.7-3.2-1.7-4.4-3-1.1-1.3-2-2.7-2.6-4.4-.6-1.7-.9-3.4-.9-5.3 0-1.5.2-3 .6-4.3.4-1.4 1.1-2.6 1.9-3.8.9-1.1 1.9-2.1 3.1-3 1.2-.8 2.7-1.5 4.3-2 1.6-.5 3.5-.7 5.4-.7 3.1 0 5.9.5 8.6 1.4 2.7.9 4.9 2.2 6.7 3.9l-1.4 1c-1.6-1.5-3.6-2.6-6.1-3.4-2.4-.8-5-1.2-7.8-1.2-2.2 0-4.1.3-5.9.9-1.8.6-3.2 1.5-4.3 2.6-1.1 1.1-2 2.4-2.6 3.8-.6 1.4-.9 3-.9 4.7 0 2.2.5 4.3 1.4 6 .9 1.8 2.3 3.2 4.1 4.3 1.9 1.4 4.1 1.9 6.7 1.9zm0-6.8h2.7c3.2 0 5.7 1 7.6 3 1.9 2 2.7 4.4 2.7 7.3 0 3-1.1 5.4-3.2 7.4s-5.1 2.9-8.9 2.9c-2.5 0-4.9-.3-7.1-1-2.2-.7-4-1.7-5.5-3l1.3-1.1c1.3 1.1 2.9 1.9 4.9 2.5 2 .6 4.1.9 6.4.9 3.3 0 5.9-.8 7.7-2.4 1.8-1.6 2.7-3.7 2.7-6.2s-.7-4.5-2.2-6.1c-1.5-1.6-3.6-2.4-6.4-2.4h-2.7c-2.3 0-4.1-.6-5.2-1.9-1.1-1.3-1.7-2.9-1.7-5s.7-3.7 2.2-5c1.4-1.3 3.6-1.9 6.5-1.9 2 0 3.9.2 5.6.7 1.7.5 3.2 1.1 4.3 2l-1.4 1c-2-1.4-4.8-2-8.5-2-2.4 0-4.1.5-5.2 1.4-1.1.9-1.7 2.2-1.7 3.7 0 1.6.4 2.8 1.2 3.7.8.9 2 1.5 3.9 1.5zm0 3.4h2.6c2.3 0 4.1.6 5.2 1.9 1.2 1.3 1.7 2.9 1.7 4.9 0 2-.7 3.7-2.2 5-1.4 1.3-3.6 1.9-6.5 1.9-2 0-3.9-.2-5.6-.7-1.7-.5-3.2-1.1-4.3-2l1.4-1c2 1.4 4.8 2 8.6 2 2.4 0 4.1-.5 5.2-1.4 1.1-.9 1.7-2.2 1.7-3.7s-.4-2.8-1.2-3.7c-.8-.9-2.2-1.4-4-1.4h-2.6c-3.3 0-5.8-1-7.6-2.9-1.8-1.9-2.7-4.4-2.7-7.4s1.1-5.4 3.2-7.4 5.1-2.9 8.9-2.9c2.5 0 4.9.3 7.1 1 2.2.7 4 1.7 5.5 3l-1.3 1.1c-1.3-1.1-2.9-1.9-4.9-2.5-2-.6-4.1-.9-6.4-.9-3.3 0-5.9.8-7.7 2.4-1.8 1.6-2.7 3.7-2.7 6.2s.7 4.5 2.2 6.2c1.4 1.5 3.6 2.3 6.4 2.3zm31.5-7.9V12c0-2.9-.9-5.3-2.7-7-1.8-1.7-4-2.7-6.5-2.7h-2.9V.5h2.8c1.9 0 3.7.5 5.4 1.4 1.6.9 3 2.2 4 4 1 1.8 1.5 3.8 1.5 6.1v7.2c0 .7.1 1.2.3 1.4.2.2.5.4.9.4h1.8v1.7h-1.8c-.8 0-1.5-.3-2-.9-.5-.6-.8-1.5-.8-2.6zm-3.4 0V12c0-2-.6-3.5-1.7-4.6-1.1-1.1-2.5-1.7-4.1-1.7h-2.8V3.9h2.8c2.1 0 3.9.7 5.3 2.2 1.5 1.4 2.2 3.4 2.2 5.8v7.2c0 1.7.4 3 1.2 3.9.8.9 1.9 1.4 3.2 1.4h2v1.7h-1.9c-1.7 0-3.2-.6-4.4-1.9-1.2-1.2-1.8-2.9-1.8-5zm-3.4 0V12c0-.9-.2-1.6-.6-2.1-.4-.5-1-.8-1.6-.8h-2.9V7.4h2.8c1.1 0 2.1.4 2.9 1.2.8.8 1.2 1.9 1.2 3.4v7.2c0 1.3.2 2.6.7 3.7.4 1.1 1 2 1.8 2.7.7.7 1.6 1.3 2.5 1.7.9.4 1.9.6 3 .6h1.9v1.6h-1.9c-1.3 0-2.5-.2-3.6-.7-1.2-.5-2.2-1.2-3.1-2-.9-.9-1.6-2-2.1-3.3-.7-1.3-1-2.8-1-4.3zm1 7.3l1.3 1.3c-.4 1.1-.6 2.3-.6 3.6v9.1c0 1.4-.4 2.5-1.2 3.4-.8.8-1.7 1.2-2.9 1.2h-2.8v-1.7h2.9c.7 0 1.2-.3 1.6-.8.4-.5.6-1.2.6-2.1v-9.2c.1-1.7.4-3.3 1.1-4.8zm2.8 2.4l1.6.8c-.2.8-.2 1.4-.2 1.7v9.1c0 2.4-.7 4.4-2.2 5.8-1.5 1.4-3.2 2.2-5.3 2.2h-2.8v-1.7h2.8c1.6 0 3-.6 4.1-1.7 1.1-1.1 1.7-2.7 1.7-4.6v-9.2c-.1-.7 0-1.6.3-2.4zm3.1 1.3l1.7.2c-.1.3-.1.6-.1.9v9.2c0 2.3-.5 4.3-1.5 6.1-1 1.8-2.4 3.1-4 4-1.6.9-3.4 1.4-5.4 1.4h-2.8v-1.7h2.9c2.5 0 4.7-.9 6.5-2.7 1.8-1.8 2.7-4.1 2.7-7v-9.2c-.1-.5 0-.9 0-1.2z"/></g><defs><clipPath id="clip0_1_258182"><path fill="#fff" transform="translate(0 .5)" d="M0 0h145v52H0z"/></clipPath></defs></svg>