<svg width="116" height="28" fill="none" xmlns="http://www.w3.org/2000/svg"><path d="M115.886-.254H0v28.508h115.886V-.254z" fill="#8F90A6"/><path fill-rule="evenodd" clip-rule="evenodd" d="M46.296 6.468l-5.659 9.6c-.116.211-1.236 1.853-3.515 2.008-2.26.096-4.172-1.97-4.133-4.192.077-2.201 1.776-3.978 4.036-4.017 1.932.039 3.342 1.468 3.322 1.487.406.348.676.6.985 1.043L43.4 8.901c-.367-.367-.522-.54-.985-.869-1.178-1.023-2.897-1.835-5.312-1.912-2.317-.038-4.674.889-6.47 3.148-1.12 1.43-1.564 2.724-1.622 4.616.02 2.222.85 4.018 2.066 5.312 2.086 2.105 4.597 2.607 5.93 2.607 1.931-.077 3.341-.54 4.674-1.39.425-.29.87-.657 1.352-1.14h3.592v2.183h3.69V6.468h-4.018zm.367 9.676h-1.97l1.97-3.399v3.4zm7.301 5.409v-11.53h-2.898V6.525h9.735v3.496h-2.994v11.53h-3.843zm15.276-5.756H65.3v5.756h-3.823V6.526H65.3v5.698h3.94V6.526h3.863v15.027H69.24v-5.756zm35.732-9.271v8.344l-5.755-8.344h-3.458v5.08c-.386-1.159-1.081-2.221-2.047-3.129a8.171 8.171 0 00-5.601-2.221c-2.221 0-4.172.734-5.717 2.202-1.545 1.448-2.376 3.36-2.376 5.427 0 1.642.425 3.09 1.236 4.346h-2.936V6.526h-3.824v15.027H82.8v-1.584c1.449 1.236 3.245 1.854 5.292 1.854 2.183 0 4.269-.83 5.775-2.337.889-.869 1.507-1.912 1.893-3.052v5.119h3.844V13.19l5.852 8.363h3.38V6.526h-3.863zm-16.9 11.57c-2.163 0-4.133-1.816-4.133-4.192 0-2.202 1.835-3.96 4.172-3.96 2.202 0 4.036 1.758 4.036 3.96.02 2.473-1.815 4.192-4.075 4.192z" fill="#fff"/><path fill-rule="evenodd" clip-rule="evenodd" d="M29.029 9.77V6.448h-8.537v6.18c-.251-1.796-1.005-3.244-2.183-4.326-1.641-1.487-3.38-1.796-5.871-1.796h-5.37v15.027h5.891c2.202 0 3.69-.29 5.37-1.855 1.178-1.12 1.912-2.53 2.163-4.19v5.967h8.537V18.23h-4.77v-2.781h4.132v-3.226h-4.133V9.79h4.77v-.02zm-16.572 8.48h-1.545v-8.5h1.526c2.82 0 4.345 1.527 4.345 4.23 0 2.956-1.39 4.27-4.326 4.27z" fill="#fff"/></svg>