<svg width="100" height="28" fill="none" xmlns="http://www.w3.org/2000/svg"><path d="M64.47 22.038l-4.69-6.327 4.69-6.326h-3.318l-4.714 6.326V5.171h-2.62v16.864h2.62V15.71l4.714 6.327h3.318zM37.093 5.172V10.5a5.83 5.83 0 00-3.426-1.115c-3.338 0-6.044 2.832-6.044 6.325 0 3.493 2.706 6.325 6.044 6.325a5.831 5.831 0 003.426-1.115v1.115h2.62V5.172h-2.62zm-3.426 14.123c-1.892 0-3.426-1.605-3.426-3.585s1.534-3.586 3.426-3.586c1.892 0 3.426 1.605 3.426 3.586 0 1.98-1.534 3.585-3.426 3.585z" fill="#8F90A6"/><path d="M69.337 9.385c-3.338 0-6.044 2.832-6.044 6.325 0 3.493 2.706 6.325 6.044 6.325 3.338 0 6.044-2.832 6.044-6.325 0-3.494-2.706-6.325-6.044-6.325zm0 9.91c-1.892 0-3.426-1.605-3.426-3.586 0-1.98 1.534-3.585 3.426-3.585 1.892 0 3.426 1.605 3.426 3.585s-1.534 3.586-3.426 3.586zm27.408-9.907V10.5a5.834 5.834 0 00-3.426-1.115c-3.338 0-6.044 2.832-6.044 6.325 0 3.493 2.706 6.325 6.044 6.325a5.835 5.835 0 003.426-1.115v1.115h2.62V9.388h-2.62zm-3.426 9.907c-1.892 0-3.426-1.605-3.426-3.586 0-1.98 1.534-3.585 3.426-3.585 1.892 0 3.426 1.605 3.426 3.585s-1.534 3.586-3.426 3.586zM78.908 15.62H76.29v6.415h2.62V15.62z" fill="#8F90A6"/><path d="M76.293 15.711h2.617c.001-1.979 1.534-3.583 3.425-3.584v-2.74c-3.337.001-6.041 2.832-6.042 6.324zm9.872-6.323h-2.62v12.647h2.62V9.388zM84.86 7.927c.728 0 1.317-.617 1.317-1.378 0-.76-.59-1.377-1.316-1.377-.727 0-1.316.617-1.316 1.377s.59 1.378 1.316 1.378zM49.187 18.241a3.332 3.332 0 01-2.422 1.054c-1.504 0-2.778-1.014-3.239-2.424h9.179c.067-.377.103-.764.103-1.161 0-3.493-2.705-6.325-6.043-6.325-2.817 0-5.184 2.016-5.854 4.745h-.001v.003a6.618 6.618 0 00-.19 1.577c0 3.493 2.707 6.325 6.045 6.325 2.477 0 4.605-1.561 5.538-3.794h-3.116zm-2.422-6.116c1.349 0 2.513.818 3.071 2.005h-6.143c.558-1.187 1.722-2.005 3.072-2.005zM.473-.203V28.81h7.655v-2.74H3.093V2.539h17.936v23.53H13.37v-3.297h-2.62v3.298h-.003v2.741H23.65V-.203" fill="#8F90A6"/><path d="M16.641 8.275c-.452.093-1.278.366-1.278.366s-.149-.442-.63-.957c-.97-1.04-2.664-2.056-2.664-2.056s-1.694 1.016-2.665 2.056c-.48.515-.63.957-.63.957s-.825-.273-1.278-.366C6.412 8.05 5.539 8.05 5.539 8.05l.004 6.54c0 3.09 2.439 6.54 6.526 6.54s6.525-3.45 6.525-6.54l.004-6.54s-.873 0-1.957.225zm-5.2.803c.262-.26.628-.508.628-.508s.365.248.628.508c.264.26.45.556.45.556s-.406.214-.623.381a3.96 3.96 0 00-.406.367v-.002s-.278-.212-.505-.365c-.226-.152-.623-.38-.623-.38s.187-.297.45-.557zm-3.46 1.914s1.256.482 2.09.969c.199.116.417.252.634.392-1.177 2.043-2.049 4.481-2.056 4.501-.666-1.08-.667-2.27-.667-2.27v-3.592zm8.175 3.592s0 3.99-4.087 3.99c-1.855 0-2.866-.822-3.42-1.72.013-.024 1.265-2.374 5.418-4.893.825-.5 2.089-.969 2.089-.969v3.592z" fill="#8F90A6"/></svg>