<svg width="142" height="28" fill="none" xmlns="http://www.w3.org/2000/svg"><path d="M141.122 17.517c-.209-1.055-1.158-1.816-2.171-1.74-1.133.086-1.987.926-2.042 2.03a2.152 2.152 0 001.823 2.296c1.012.17 2.019-.485 2.342-1.51.035-.114 0-.251.11-.342v-.565c-.062-.04-.05-.108-.062-.169zm-2.089 2.267a1.828 1.828 0 01-1.293-3.123 1.828 1.828 0 013.123 1.294 1.83 1.83 0 01-1.83 1.83zM46.46 13.033c-1.619-1.124-3.443-1.582-5.383-1.608-2.374-.03-4.75 0-7.124 0-.559 0-.661.1-.661.648v15.573c0 .503.128.628.628.628h6.906c.89.003 1.776-.1 2.64-.31 2.658-.658 4.643-2.137 5.687-4.724.62-1.535.735-3.143.522-4.768-.298-2.264-1.317-4.118-3.214-5.44zm-2.988 9.715c-.747.74-1.676 1.037-2.701 1.068-.742.023-1.485 0-2.228 0-.177 0-.232-.048-.232-.228.007-2.506.007-5.013 0-7.52 0-.161.047-.213.212-.21.43.011.859 0 1.288 0 .731 0 1.465-.034 2.182.162 1.556.407 2.521 1.6 2.656 3.292.105 1.315-.219 2.484-1.177 3.434v.002zm39.548-6.834c-1.851-.443-3.496 0-4.897 1.296-.209.194-.389.417-.59.637-.427-1.086-1.193-1.756-2.316-1.973-1.916-.368-3.593.13-5.04 1.457-.014-.02-.023-.026-.023-.034v-.69c0-.405-.146-.552-.544-.553h-3.39c-.4 0-.548.14-.548.548v11.122c0 .403.149.541.557.541h3.295c.507 0 .63-.121.63-.623v-6.639c0-.121-.028-.244.07-.354.347-.392.744-.72 1.27-.81 1.048-.191 1.832.191 1.815 1.457-.025 2.131 0 4.262 0 6.393 0 .464.128.589.598.589h3.264c.494 0 .607-.113.607-.605v-6.639a.529.529 0 01.11-.406 2.58 2.58 0 01.986-.701c1.228-.456 2.094.136 2.105 1.432v6.391c0 .38.135.53.486.531h3.484c.324 0 .486-.162.486-.485 0-2.904.016-5.807 0-8.71-.037-1.632-.93-2.814-2.416-3.172zM26.362 5.329L20.83-.307a.957.957 0 00-.748-.31c-.423-.03-.682.264-.954.543l-4.21 4.297c-1.39 1.418-2.78 2.836-4.172 4.252-.128.128-.162.199-.012.345 3.078 3.13 6.15 6.26 9.22 9.39.213.22.294.095.43-.045 2.823-2.882 5.646-5.762 8.468-8.64.528-.539.525-1.133-.01-1.67-.83-.837-1.652-1.686-2.48-2.526zM20.1 11.067a2.395 2.395 0 11.043-4.79 2.395 2.395 0 01-.043 4.79zm-.7 7.731c-.212-.199-.408-.42-.612-.628-2.85-2.9-5.698-5.8-8.546-8.705-.183-.187-.277-.215-.486-.01a1270.017 1270.017 0 01-5.464 5.577c-1.017 1.036-2.039 2.07-3.049 3.114-.486.497-.47 1.08.008 1.58.217.227.444.442.664.667l7.391 7.55a1.033 1.033 0 00.765.314 1.1 1.1 0 00.764-.367c1.333-1.36 2.667-2.717 4-4.072a4031.2 4031.2 0 014.576-4.649c.156-.157.13-.236-.01-.37zM6.576 21.276a2.385 2.385 0 112.35-2.41 2.34 2.34 0 01-2.35 2.413v-.003zm6.906.113a2.37 2.37 0 01-2.318-2.382 2.335 2.335 0 112.318 2.382zm93.718-2.235c-.06-1.667-1.108-2.937-2.733-3.26-1.99-.397-3.797 0-5.343 1.507v-.797c0-.42-.125-.547-.536-.547h-3.36c-.424 0-.572.14-.572.555v11.091c0 .421.144.566.562.566h3.327c.455 0 .579-.122.579-.57 0-2.14.016-4.281-.012-6.422a1.103 1.103 0 01.509-1.022c.092-.068.187-.132.286-.19 1.457-.831 2.843-.046 2.843 1.618v5.954c0 .526.112.635.648.635h3.266c.427 0 .555-.128.555-.562v-4.762c-.001-1.266.028-2.53-.019-3.794zm-49.438-3.452c-3.481-.162-6.477 2.6-6.6 6.21-.115 3.363 2.335 6.389 5.889 6.666 3.468.268 6.53-2.453 6.747-6.017.222-3.658-2.508-6.695-6.036-6.859zm1.867 6.419c-.067 1.251-1.043 2.168-2.251 2.105a2.183 2.183 0 112.25-2.105zm55.019-6.355c-3.219.387-5.565 3.112-5.565 6.447a5.8 5.8 0 00.206 1.637c.809 3.198 4.093 5.301 7.261 4.65a6.449 6.449 0 004.281-3.027 6.425 6.425 0 00.612-5.207c-.864-2.863-3.586-4.885-6.795-4.5zm.746 8.5a2.192 2.192 0 01-2.14-2.187 2.195 2.195 0 012.129-2.199 2.196 2.196 0 012.14 2.188 2.19 2.19 0 01-2.129 2.199zm19.113-3.162c-.876-.427-1.823-.584-2.775-.724-.63-.092-1.271-.123-1.88-.333-.162-.059-.335-.14-.347-.358a.47.47 0 01.292-.444 1.81 1.81 0 01.809-.19 5.145 5.145 0 013.273.97c.314.216.536.163.724-.17.382-.671.759-1.343 1.133-2.017.18-.324.125-.518-.185-.709a8.848 8.848 0 00-4.321-1.334c-1.307-.062-2.591.02-3.808.567-1.335.6-2.168 1.577-2.206 3.099-.04 1.61.684 2.752 2.149 3.427.921.425 1.911.593 2.901.753.608.099 1.225.162 1.804.38.238.093.476.22.458.527-.017.308-.264.385-.485.465-.43.137-.883.189-1.333.152-1.295-.07-2.448-.572-3.551-1.213-.388-.227-.565-.19-.793.196-.421.708-.84 1.418-1.257 2.13-.233.398-.195.584.196.827a10.123 10.123 0 004.778 1.457c1.296.026 2.277-.059 3.227-.343 1.888-.567 2.951-1.782 3.121-3.563.16-1.622-.514-2.862-1.924-3.552zm-42.83-5.047h-3.262c-.538 0-.664.125-.664.66V27.52c0 .648.094.75.733.75h3.203c.415 0 .567-.149.568-.565V16.619c-.004-.412-.16-.562-.578-.562zm31.16-5.897a2.476 2.476 0 00-2.074 2.779c.152.994.895 1.718 2.006 1.907.256.044.225.13.149.3a1.658 1.658 0 01-.63.719.276.276 0 00-.157.186.278.278 0 00.047.24c.427.66.345.692 1.02.359l.084-.04c1.519-.828 2.438-2.049 2.526-3.516.008-1.965-1.359-3.173-2.971-2.934zm-32.719-.092a2.56 2.56 0 102.511 2.562 2.535 2.535 0 00-2.51-2.562zM20.742 25.374c-.243.027-.575-.207-.719.209-.162.44-.332.874-.52 1.363l-.425-1.124c-.183-.485-.183-.47-.71-.464-.19 0-.254.056-.25.249.009.7.014 1.399 0 2.105 0 .254.12.247.305.259.225.013.255-.088.251-.275-.011-.47 0-.94 0-1.41.231.47.438.95.62 1.44.04.098.04.233.203.24.163.006.184-.14.227-.25.189-.485.372-.961.556-1.444.042.48.055.96.04 1.441 0 .217.079.263.275.256.196-.006.314 0 .307-.254-.018-.669 0-1.336-.011-2.005-.007-.127.097-.364-.15-.336zm-3.149-.018c-.523.015-1.046.011-1.567 0-.19 0-.253.052-.253.246s.05.295.261.269c.083-.011.162 0 .251 0 .178-.02.24.055.232.231-.013.27 0 .543 0 .81s.011.564 0 .845c-.013.248.162.191.291.196.13.005.29.03.282-.207-.015-.449 0-.897 0-1.347 0-.506 0-.515.516-.527.19 0 .225-.08.222-.246-.003-.165-.011-.275-.235-.27z" fill="#8F90A6"/><path d="M139.987 17.265c-.086-.353-.398-.552-.874-.554h-.692c-.144 0-.202.042-.202.196v2.105c0 .11 0 .204.162.202.162-.001.215-.035.205-.192a4.639 4.639 0 010-.5c.008-.101-.069-.255.107-.282.141-.021.285-.033.379.136.109.2.259.38.366.583.126.242.298.314.58.208l-.598-.924c.488-.238.669-.555.567-.978zm-1.041.628c-.399.034-.394-.175-.365-.382 0-.531-.055-.476.418-.486.434 0 .632.131.638.425.007.293-.201.403-.691.443z" fill="#8F90A6"/></svg>