<svg width="196" height="37" fill="none" xmlns="http://www.w3.org/2000/svg"><g clip-path="url(#clip0_12510_157)"><path d="M103.459 21.088c0 1.864-.285 3.523-.856 4.98-.571 1.457-1.375 2.68-2.41 3.67-1.036.991-2.276 1.742-3.718 2.254-1.442.51-3.05.766-4.822.766-1.773 0-3.38-.27-4.82-.812-1.442-.54-2.682-1.313-3.719-2.32-1.035-1.006-1.84-2.23-2.41-3.67-.57-1.443-.856-3.065-.856-4.868 0-1.772.285-3.38.856-4.82.57-1.442 1.375-2.666 2.41-3.674 1.037-1.006 2.276-1.78 3.718-2.32 1.442-.54 3.048-.81 4.82-.81 1.773 0 3.381.278 4.823.832 1.442.557 2.68 1.337 3.718 2.344 1.037 1.006 1.839 2.23 2.41 3.673.571 1.44.856 3.033.856 4.775zm-15.77 0c0 1.832.352 3.237 1.058 4.213.707.977 1.69 1.464 2.952 1.464s2.231-.495 2.907-1.487c.676-.99 1.014-2.388 1.014-4.19 0-1.802-.345-3.19-1.037-4.168-.692-.976-1.668-1.464-2.929-1.464-1.26 0-2.238.488-2.928 1.464-.694.976-1.037 2.366-1.037 4.168zm20.095 10.949a4.816 4.816 0 01-1.149-1.487c-.285-.571-.428-1.216-.428-1.937 0-.6.143-1.194.428-1.78a8.29 8.29 0 011.059-1.646l7.751-9.102h-8.291a7.38 7.38 0 01-.519-1.261 5.42 5.42 0 01-.247-1.668c0-1.051.233-1.81.699-2.274.464-.466 1.088-.7 1.87-.7h14.193a4.84 4.84 0 011.149 1.487c.286.571.428 1.218.428 1.939 0 .601-.142 1.194-.428 1.78a8.373 8.373 0 01-1.058 1.645l-7.571 9.102h8.832c.18.331.352.752.518 1.262.165.51.248 1.067.248 1.667 0 1.052-.233 1.81-.699 2.275-.466.466-1.09.699-1.87.699h-14.915v-.001zm20.728-27.981c0-1.142.383-2.102 1.149-2.884C130.427.392 131.44 0 132.702 0c1.261 0 2.276.392 3.042 1.172.766.782 1.149 1.742 1.149 2.884s-.383 2.103-1.149 2.883c-.766.783-1.78 1.171-3.042 1.171-1.262 0-2.275-.388-3.041-1.17-.766-.781-1.149-1.742-1.149-2.884zm8.021 27.936c-.33.06-.818.142-1.465.247-.645.105-1.299.158-1.96.158a10.58 10.58 0 01-1.78-.136c-.525-.09-.968-.27-1.329-.54a2.601 2.601 0 01-.833-1.104c-.197-.466-.293-1.073-.293-1.825V10.454c.33-.06.817-.143 1.464-.248a12.196 12.196 0 011.96-.157c.66 0 1.254.045 1.779.135.526.09.969.271 1.33.542.361.27.638.638.833 1.104.195.466.293 1.075.293 1.825v18.337h.001zm-83.36-22.53c1.23 0 2.44.173 3.627.518 1.186.345 2.215.864 3.086 1.554.9-.6 1.915-1.096 3.04-1.487 1.127-.39 2.486-.585 4.08-.585 1.141 0 2.26.15 3.356.451 1.097.3 2.073.774 2.93 1.419.855.646 1.538 1.503 2.05 2.569.51 1.066.766 2.365.766 3.897v14.194c-.3.09-.774.18-1.419.27-.646.09-1.315.135-2.005.135-.661 0-1.254-.046-1.78-.136-.526-.09-.968-.27-1.33-.54a2.606 2.606 0 01-.832-1.104c-.197-.465-.293-1.073-.293-1.825V18.024c0-.902-.257-1.554-.766-1.96-.511-.407-1.203-.608-2.073-.608-.42 0-.872.098-1.351.293-.48.195-.842.399-1.082.609.029.12.045.233.045.338v15.297c-.33.09-.819.18-1.464.27-.646.09-1.3.135-1.96.135-.661 0-1.254-.045-1.78-.136-.525-.09-.968-.269-1.33-.54a2.583 2.583 0 01-.832-1.104c-.197-.464-.293-1.073-.293-1.824V18.025c0-.901-.278-1.554-.833-1.96-.556-.406-1.225-.607-2.005-.607-.54 0-1.007.083-1.397.247-.39.166-.72.324-.992.474v15.816c-.3.09-.773.18-1.418.269-.647.09-1.315.135-2.006.135a10.59 10.59 0 01-1.78-.135c-.527-.09-.97-.27-1.33-.54a2.597 2.597 0 01-.834-1.104c-.195-.465-.292-1.074-.292-1.825V15.188c0-.81.173-1.456.518-1.937.345-.48.819-.93 1.419-1.351 1.02-.721 2.29-1.306 3.807-1.758a16.47 16.47 0 014.753-.68z" fill="#fff"/><path d="M7.936 34.198a17.436 17.436 0 01-3.993-3.59c.212-.372.303-.801.303-1.276V14.46c.105.076.163.127.228.164 1.088.625 2.175 1.253 3.268 1.866.156.087.185.187.185.345-.002 5.665-.001 11.332-.005 16.997 0 .124.004.245.014.366zm8.084 2.748a17.242 17.242 0 01-4.643-1.018c.593-.42.912-.976.914-1.71.003-4.93.001-9.86.001-14.79v-.35c.386.233.725.448 1.075.645.74.418 1.481.835 2.23 1.234.317.169.435.378.434.76-.015 5.077-.012 10.154-.01 15.229zm1.375.054h-.011c1.023 0 2.027-.09 3.001-.26.004-5.237.003-10.474 0-15.71 0-.487.006-.98-.061-1.458-.04-.284-.195-.563-.338-.822-.233-.42-.647-.648-1.047-.878-.565-.323-1.132-.642-1.697-.965-.619-.356-1.232-.718-1.852-1.07-.807-.458-1.621-.9-2.424-1.362-.886-.512-1.76-1.043-2.644-1.56-.431-.252-.874-.488-1.31-.736-.857-.485-1.714-.97-2.569-1.457-.533-.305-1.061-.615-1.596-.917-.39-.22-.807-.399-1.175-.648a.928.928 0 00-.063-.04 17.41 17.41 0 014.401-4.06c-.145.46-.113.949.078 1.448.204.535.62.899 1.108 1.177.808.459 1.625.906 2.434 1.366.754.43 1.502.871 2.255 1.305.656.379 1.31.756 1.968 1.13.556.316 1.115.626 1.673.94.443.248.887.495 1.324.75.482.284.952.585 1.438.862.636.364 1.281.712 1.92 1.07.501.281 1 .567 1.499.85.232.13.371.27.37.596-.016 5.607-.01 11.216-.016 16.823 0 .45.065.863.288 1.265.15.27.334.484.545.651a17.392 17.392 0 003.533-2.263c.012-2.925.004-5.849.004-8.773 0-3.057-.001-6.114.002-9.172a2.53 2.53 0 00-.242-1.123 2.145 2.145 0 00-.874-.945c-.616-.361-1.245-.698-1.864-1.053-.903-.519-1.798-1.05-2.701-1.567-.807-.462-1.624-.908-2.432-1.366a654.889 654.889 0 01-3.101-1.773c-.753-.432-1.503-.87-2.255-1.306-.557-.325-1.112-.654-1.671-.977a82.37 82.37 0 00-1.088-.615c-.312-.172-.644-.313-.935-.514a1.906 1.906 0 00-.485-.24 17.282 17.282 0 015.998-1.292c.11.089.23.172.362.248 1.003.578 2 1.168 3.004 1.744.696.4 1.404.78 2.103 1.177.664.376 1.321.763 1.984 1.14.563.32 1.131.63 1.695.947.444.25.885.504 1.325.762.392.23.775.476 1.171.7.482.273.98.517 1.462.791.664.377 1.317.772 1.978 1.153.169.1.25.207.25.43-.01 5.656-.011 11.313.002 16.97 0 .129.009.263.026.395a17.285 17.285 0 002.597-9.13v.012C34.743 29.233 26.975 37 17.395 37z" fill="#D60936"/><path d="M3.93 30.633A17.302 17.302 0 010 19.628c0-3.964 1.328-7.618 3.564-10.542l.048.03A17.272 17.272 0 00.047 19.653a17.27 17.27 0 003.897 10.956.22.22 0 01-.015.025zm7.438 5.3a17.357 17.357 0 01-3.43-1.715v-.02a17.31 17.31 0 003.439 1.73.042.042 0 01-.009.006zM17.371 37c-.454 0-.905-.018-1.351-.051v-.002c.45.035.904.054 1.363.054L17.371 37z" fill="#E3E3E3"/><path d="M17.384 37c-.459 0-.913-.019-1.363-.054-.002-5.075-.005-10.152.011-15.229.002-.381-.116-.59-.434-.76-.75-.4-1.49-.817-2.23-1.234-.349-.198-.688-.413-1.074-.645v.35c0 4.93.001 9.86-.002 14.79 0 .734-.319 1.29-.911 1.709a17.307 17.307 0 01-3.442-1.73 4.331 4.331 0 01-.014-.366c.004-5.665.003-11.332.006-16.997 0-.159-.03-.258-.185-.345-1.094-.613-2.18-1.241-3.268-1.866-.066-.038-.124-.089-.23-.164V29.33c0 .475-.09.904-.302 1.276A17.274 17.274 0 01.049 19.65c0-3.963 1.328-7.614 3.564-10.536.02.013.04.028.062.041.37.249.785.43 1.175.648.535.302 1.064.612 1.597.916.853.49 1.71.974 2.566 1.46.435.245.876.481 1.307.735.884.517 1.758 1.048 2.645 1.56.803.463 1.618.904 2.424 1.361.62.353 1.233.715 1.852 1.07.565.326 1.132.643 1.697.966.402.23.814.458 1.047.878.143.26.298.536.338.822.067.48.06.973.06 1.46.004 5.235.005 10.472 0 15.707-.972.17-1.975.26-3 .26z" fill="#BF0830"/><path d="M8.014 5.056c.008-.029.019-.056.029-.086a17.27 17.27 0 012.665-1.39c.028.007.054.016.082.024-.973.402-1.903.89-2.776 1.452z" fill="#E3E3E3"/><path d="M24.896 35.29a2.083 2.083 0 01-.544-.65c-.223-.403-.289-.818-.289-1.266.006-5.609-.001-11.216.016-16.823.002-.326-.138-.466-.37-.597-.5-.284-.997-.57-1.498-.85-.64-.358-1.286-.706-1.921-1.07-.485-.279-.956-.58-1.438-.861-.438-.257-.882-.503-1.323-.752-.558-.313-1.117-.623-1.674-.94a383.41 383.41 0 01-1.967-1.13c-.752-.433-1.5-.875-2.256-1.304-.809-.46-1.625-.906-2.434-1.366-.488-.277-.904-.642-1.108-1.177-.19-.5-.223-.989-.077-1.448a17.204 17.204 0 012.776-1.45c.167.057.329.135.485.242.29.2.623.34.935.514.364.202.726.406 1.087.614.558.324 1.115.653 1.672.978.752.437 1.502.873 2.255 1.306 1.032.593 2.065 1.184 3.1 1.772.808.46 1.626.905 2.432 1.366.903.517 1.799 1.049 2.702 1.567.619.356 1.248.692 1.864 1.053.383.225.677.535.874.945.172.36.242.729.242 1.122-.003 3.057-.002 6.114-.002 9.172 0 2.924.009 5.849-.004 8.773a17.557 17.557 0 01-3.535 2.26z" fill="#BF0830"/><path d="M34.743 19.64c-.007-9.575-7.771-17.336-17.348-17.336-.204 0-.406.003-.609.01-.019-.014-.036-.03-.054-.046.213-.008.426-.012.64-.012 9.594 0 17.371 7.777 17.371 17.371v.013z" fill="#E3E3E3"/><path d="M32.145 28.77a3.045 3.045 0 01-.026-.396 4705.24 4705.24 0 01-.002-16.97c0-.222-.08-.33-.25-.428-.662-.381-1.314-.777-1.978-1.153-.482-.274-.979-.519-1.462-.791-.396-.223-.78-.47-1.171-.699-.44-.258-.881-.511-1.326-.762-.563-.317-1.133-.627-1.695-.946-.662-.377-1.32-.765-1.983-1.14-.7-.397-1.406-.778-2.103-1.177-1.005-.577-2.001-1.167-3.005-1.745a2.76 2.76 0 01-.36-.248c.202-.007.404-.01.608-.01 9.577 0 17.342 7.761 17.348 17.337 0 3.348-.95 6.476-2.595 9.128z" fill="#BF0830"/><path d="M14.323 13.302c.679 0 1.346.096 2.001.286a4.92 4.92 0 011.703.857 7.395 7.395 0 011.677-.82c.622-.215 1.37-.323 2.25-.323.63 0 1.247.083 1.851.25a4.721 4.721 0 011.616.783c.471.357.849.829 1.13 1.417.28.588.422 1.305.422 2.15v7.829c-.166.05-.427.099-.784.148-.356.05-.725.074-1.105.074-.365 0-.692-.024-.982-.074a1.668 1.668 0 01-.733-.298 1.45 1.45 0 01-.46-.609c-.108-.256-.162-.593-.162-1.006v-5.94c0-.497-.142-.859-.423-1.083-.282-.223-.662-.335-1.143-.335-.233 0-.48.054-.746.162-.265.108-.464.22-.597.335a.797.797 0 01.025.186v8.438c-.182.05-.451.1-.808.149-.357.05-.717.074-1.08.074a5.87 5.87 0 01-.982-.074 1.654 1.654 0 01-.733-.299 1.44 1.44 0 01-.46-.608c-.108-.257-.162-.593-.162-1.007v-5.94c0-.497-.153-.858-.46-1.082-.307-.223-.676-.335-1.105-.335-.299 0-.555.045-.77.137a6.004 6.004 0 00-.548.26v8.724c-.166.05-.427.099-.782.148-.357.05-.726.075-1.106.075-.365 0-.692-.025-.981-.075a1.655 1.655 0 01-.733-.298 1.45 1.45 0 01-.46-.609c-.108-.256-.162-.593-.162-1.006v-7.506c0-.447.095-.804.286-1.07a3.21 3.21 0 01.782-.745c.563-.397 1.264-.72 2.1-.97a9.32 9.32 0 012.624-.37z" fill="#fff"/></g><defs><clipPath id="clip0_12510_157"><path fill="#fff" d="M0 0h196v37H0z"/></clipPath></defs></svg>