<svg width="137" height="38" fill="none" xmlns="http://www.w3.org/2000/svg"><path d="M103.459 21.587c0 1.864-.285 3.523-.856 4.98-.571 1.457-1.375 2.68-2.41 3.671-1.036.99-2.276 1.742-3.718 2.253-1.442.51-3.05.766-4.822.766-1.773 0-3.38-.27-4.82-.811-1.442-.54-2.682-1.314-3.719-2.32-1.035-1.006-1.84-2.231-2.41-3.672-.57-1.441-.856-3.064-.856-4.867 0-1.772.285-3.38.856-4.82.57-1.442 1.375-2.665 2.41-3.673 1.037-1.006 2.276-1.78 3.718-2.32 1.442-.54 3.048-.811 4.82-.811 1.773 0 3.381.278 4.823.833 1.442.556 2.68 1.337 3.718 2.343 1.037 1.006 1.839 2.231 2.41 3.673.571 1.44.856 3.034.856 4.775zm-15.77 0c0 1.832.352 3.238 1.058 4.214.707.977 1.69 1.463 2.952 1.463s2.231-.495 2.907-1.487c.676-.99 1.014-2.388 1.014-4.19 0-1.801-.345-3.19-1.037-4.168-.692-.976-1.668-1.463-2.929-1.463-1.26 0-2.238.488-2.928 1.463-.694.976-1.037 2.367-1.037 4.168zm20.095 10.949a4.816 4.816 0 01-1.149-1.487c-.285-.57-.428-1.216-.428-1.937 0-.6.143-1.194.428-1.78a8.29 8.29 0 011.059-1.645l7.751-9.102h-8.291a7.38 7.38 0 01-.519-1.262 5.42 5.42 0 01-.247-1.667c0-1.052.233-1.81.699-2.275.464-.466 1.088-.699 1.87-.699h14.193c.481.42.864.918 1.149 1.487.286.57.428 1.217.428 1.938 0 .602-.142 1.195-.428 1.78a8.373 8.373 0 01-1.058 1.646l-7.571 9.102h8.832c.18.33.352.751.518 1.261.165.511.248 1.068.248 1.668 0 1.051-.233 1.81-.699 2.274-.466.466-1.09.7-1.87.7h-14.915v-.002zm20.728-27.981c0-1.141.383-2.101 1.149-2.883.766-.78 1.779-1.173 3.041-1.173 1.261 0 2.276.392 3.042 1.173.766.782 1.149 1.742 1.149 2.883 0 1.142-.383 2.103-1.149 2.884-.766.782-1.78 1.17-3.042 1.17-1.262 0-2.275-.388-3.041-1.17-.766-.78-1.149-1.742-1.149-2.884zm8.021 27.936c-.33.06-.818.143-1.465.248-.645.105-1.299.157-1.96.157a10.58 10.58 0 01-1.78-.136c-.525-.09-.968-.27-1.329-.54a2.601 2.601 0 01-.833-1.104c-.197-.466-.293-1.073-.293-1.825V10.953c.33-.06.817-.143 1.464-.247a12.196 12.196 0 011.96-.158c.66 0 1.254.045 1.779.136.526.09.969.27 1.33.541.361.27.638.638.833 1.104.195.466.293 1.075.293 1.825v18.337h.001zm-83.36-22.53c1.23 0 2.44.174 3.627.519 1.186.345 2.215.863 3.086 1.554.9-.6 1.915-1.097 3.04-1.487 1.127-.39 2.486-.586 4.08-.586 1.141 0 2.26.15 3.356.452 1.097.3 2.073.773 2.93 1.418.855.647 1.538 1.503 2.05 2.57.51 1.065.766 2.364.766 3.896v14.194c-.3.09-.774.18-1.419.27-.646.09-1.315.135-2.005.135-.661 0-1.254-.045-1.78-.136-.526-.09-.968-.269-1.33-.54a2.606 2.606 0 01-.832-1.104c-.197-.464-.293-1.073-.293-1.825V18.523c0-.901-.257-1.554-.766-1.96-.511-.406-1.203-.607-2.073-.607-.42 0-.872.097-1.351.292-.48.195-.842.4-1.082.61.029.12.045.232.045.337v15.298c-.33.09-.819.18-1.464.269-.646.09-1.3.135-1.96.135-.661 0-1.254-.045-1.78-.135-.525-.09-.968-.27-1.33-.54a2.583 2.583 0 01-.832-1.104c-.197-.465-.293-1.074-.293-1.825V18.525c0-.902-.278-1.554-.833-1.96-.556-.407-1.225-.608-2.005-.608-.54 0-1.007.083-1.397.248-.39.166-.72.323-.992.473v15.816c-.3.09-.773.18-1.418.27-.647.09-1.315.135-2.006.135a10.59 10.59 0 01-1.78-.136c-.527-.09-.97-.269-1.33-.54-.36-.27-.64-.638-.834-1.104-.195-.464-.292-1.073-.292-1.825V15.688c0-.812.173-1.457.518-1.937.345-.48.819-.93 1.419-1.352 1.02-.72 2.29-1.306 3.807-1.758 1.516-.454 3.1-.68 4.753-.68z" fill="#1A2578"/><path d="M7.936 34.697a17.436 17.436 0 01-3.993-3.59c.212-.371.303-.8.303-1.276V14.96c.105.076.163.127.228.165 1.088.625 2.175 1.252 3.268 1.865.156.088.185.187.185.346-.002 5.665-.001 11.331-.005 16.997 0 .123.004.244.014.365zm8.084 2.748a17.242 17.242 0 01-4.643-1.018c.593-.42.912-.975.914-1.71.003-4.93.001-9.86.001-14.79v-.35c.386.233.725.449 1.075.645.74.418 1.481.835 2.23 1.234.317.169.435.379.434.76-.015 5.077-.012 10.154-.01 15.23zm1.375.054h-.011c1.023 0 2.027-.09 3.001-.26.004-5.236.003-10.473 0-15.709 0-.488.006-.98-.061-1.459-.04-.284-.195-.562-.338-.821-.233-.421-.647-.648-1.047-.878-.565-.324-1.132-.643-1.697-.966-.619-.355-1.232-.718-1.852-1.07-.807-.458-1.621-.899-2.424-1.362-.886-.511-1.76-1.043-2.644-1.56-.431-.252-.874-.488-1.31-.735-.857-.485-1.714-.97-2.569-1.458-.533-.305-1.061-.615-1.596-.916-.39-.22-.807-.4-1.175-.648a.928.928 0 00-.063-.041A17.41 17.41 0 018.01 5.557c-.145.46-.113.948.078 1.448.204.534.62.898 1.108 1.176.808.46 1.625.906 2.434 1.366.754.43 1.502.871 2.255 1.305.656.379 1.31.756 1.968 1.13.556.317 1.115.627 1.673.94.443.249.887.495 1.324.751.482.283.952.584 1.438.861.636.364 1.281.712 1.92 1.07.501.282 1 .567 1.499.85.232.13.371.27.37.597-.016 5.607-.01 11.215-.016 16.822 0 .45.065.864.288 1.266.15.269.334.483.545.65a17.392 17.392 0 003.533-2.263c.012-2.924.004-5.848.004-8.773 0-3.057-.001-6.113.002-9.172a2.53 2.53 0 00-.242-1.123 2.15 2.15 0 00-.874-.945c-.616-.361-1.245-.697-1.864-1.053-.903-.518-1.798-1.05-2.701-1.567-.807-.462-1.624-.907-2.432-1.366a654.016 654.016 0 01-3.101-1.772c-.753-.433-1.503-.87-2.255-1.307-.557-.324-1.112-.654-1.671-.977-.36-.208-.724-.412-1.088-.614-.312-.172-.644-.314-.935-.515a1.906 1.906 0 00-.485-.24 17.282 17.282 0 015.998-1.292c.11.09.23.172.362.248 1.003.578 2 1.168 3.004 1.745.696.399 1.404.78 2.103 1.176.664.376 1.321.764 1.984 1.14.563.321 1.131.63 1.695.947.444.25.885.504 1.325.762.392.23.775.476 1.171.7.482.273.98.518 1.462.791.664.378 1.317.772 1.978 1.154.169.099.25.207.25.43-.01 5.656-.011 11.312.002 16.969 0 .13.009.263.026.396a17.285 17.285 0 002.597-9.13v.012c.001 9.583-7.767 17.35-17.347 17.35z" fill="#D60936"/><path d="M3.93 31.132A17.302 17.302 0 010 20.128c0-3.964 1.328-7.618 3.564-10.543l.048.03A17.272 17.272 0 00.047 20.152c0 4.155 1.46 7.97 3.897 10.956a.22.22 0 01-.015.025zm7.438 5.301a17.357 17.357 0 01-3.43-1.715v-.02a17.31 17.31 0 003.439 1.73.042.042 0 01-.009.005zm6.003 1.066c-.454 0-.905-.017-1.351-.05v-.002c.45.035.904.054 1.363.054-.003-.002-.007-.002-.012-.002z" fill="#E3E3E3"/><path d="M17.384 37.5c-.459 0-.913-.02-1.363-.054-.002-5.076-.005-10.153.011-15.23.002-.381-.116-.59-.434-.76-.75-.4-1.49-.817-2.23-1.233-.349-.198-.688-.414-1.074-.645v.349c0 4.93.001 9.86-.002 14.79 0 .735-.319 1.291-.911 1.709a17.307 17.307 0 01-3.442-1.73 4.331 4.331 0 01-.014-.366c.004-5.665.003-11.331.006-16.997 0-.159-.03-.257-.185-.345-1.094-.613-2.18-1.24-3.268-1.865-.066-.038-.124-.09-.23-.165v14.873c0 .474-.09.904-.302 1.275A17.274 17.274 0 01.049 20.15 17.27 17.27 0 013.613 9.615c.02.013.04.027.062.04.37.25.785.43 1.175.649.535.301 1.064.611 1.597.915.853.49 1.71.975 2.566 1.46.435.246.876.482 1.307.735.884.517 1.758 1.049 2.645 1.56.803.463 1.618.904 2.424 1.362.62.352 1.233.715 1.852 1.07.565.325 1.132.642 1.697.966.402.23.814.457 1.047.878.143.26.298.536.338.821.067.48.06.973.06 1.46.004 5.235.005 10.472 0 15.708-.972.17-1.975.259-3 .26z" fill="#BF0830"/><path d="M8.014 5.556c.008-.03.019-.057.029-.086a17.27 17.27 0 012.665-1.391c.028.007.054.016.082.025-.973.402-1.903.89-2.776 1.452z" fill="#E3E3E3"/><path d="M24.896 35.79a2.083 2.083 0 01-.544-.651c-.223-.402-.289-.817-.289-1.266.006-5.608-.001-11.215.016-16.822.002-.326-.138-.466-.37-.597-.5-.284-.997-.57-1.498-.85-.64-.359-1.286-.707-1.921-1.071-.485-.278-.956-.58-1.438-.86-.438-.257-.882-.503-1.323-.752-.558-.313-1.117-.624-1.674-.94a383.41 383.41 0 01-1.967-1.13c-.752-.434-1.5-.875-2.256-1.305-.809-.46-1.625-.906-2.434-1.366-.488-.276-.904-.642-1.108-1.177-.19-.5-.223-.988-.077-1.447a17.204 17.204 0 012.776-1.45c.167.056.329.135.485.241.29.201.623.34.935.514.364.203.726.407 1.087.615.558.323 1.115.652 1.672.977.752.437 1.502.874 2.255 1.306 1.032.593 2.065 1.184 3.1 1.773.808.458 1.626.904 2.432 1.366.903.517 1.799 1.048 2.702 1.567.619.355 1.248.692 1.864 1.053.383.224.677.534.874.945.172.36.242.728.242 1.121-.003 3.057-.002 6.114-.002 9.172 0 2.925.009 5.85-.004 8.773a17.557 17.557 0 01-3.535 2.26z" fill="#BF0830"/><path d="M34.743 20.14c-.007-9.576-7.771-17.337-17.348-17.337-.204 0-.406.003-.609.01-.019-.014-.036-.03-.054-.046.213-.007.426-.012.64-.012 9.594 0 17.371 7.777 17.371 17.372v.013z" fill="#E3E3E3"/><path d="M32.145 29.27a3.045 3.045 0 01-.026-.397 4705.24 4705.24 0 01-.002-16.97c0-.222-.08-.33-.25-.427-.662-.382-1.314-.778-1.978-1.154-.482-.274-.979-.518-1.462-.79-.396-.223-.78-.471-1.171-.7-.44-.257-.881-.51-1.326-.761-.563-.318-1.133-.628-1.695-.947-.662-.377-1.32-.764-1.983-1.14-.7-.396-1.406-.778-2.103-1.177-1.005-.577-2.001-1.166-3.005-1.745a2.76 2.76 0 01-.36-.247c.202-.008.404-.01.608-.01 9.577 0 17.342 7.76 17.348 17.336 0 3.348-.95 6.476-2.595 9.128z" fill="#BF0830"/><path d="M14.323 13.802c.679 0 1.346.096 2.001.285a4.92 4.92 0 011.703.858 7.395 7.395 0 011.677-.82c.622-.216 1.37-.323 2.25-.323.63 0 1.247.083 1.851.249a4.721 4.721 0 011.616.783c.471.357.849.829 1.13 1.417.28.589.422 1.305.422 2.15v7.83a5.974 5.974 0 01-.784.148c-.356.05-.725.074-1.105.074-.365 0-.692-.025-.982-.074a1.668 1.668 0 01-.733-.299 1.45 1.45 0 01-.46-.609c-.108-.256-.162-.592-.162-1.006v-5.94c0-.497-.142-.858-.423-1.082-.282-.223-.662-.335-1.143-.335-.233 0-.48.053-.746.161-.265.108-.464.22-.597.335a.797.797 0 01.025.187v8.438c-.182.05-.451.099-.808.148-.357.05-.717.075-1.08.075a5.87 5.87 0 01-.982-.075 1.654 1.654 0 01-.733-.298 1.44 1.44 0 01-.46-.61c-.108-.255-.162-.592-.162-1.005v-5.94c0-.498-.153-.859-.46-1.083-.307-.223-.676-.335-1.105-.335-.299 0-.555.045-.77.137a6.004 6.004 0 00-.548.26v8.724c-.166.05-.427.1-.782.149-.357.05-.726.074-1.106.074-.365 0-.692-.025-.981-.074a1.655 1.655 0 01-.733-.299 1.45 1.45 0 01-.46-.609c-.108-.256-.162-.592-.162-1.006v-7.506c0-.447.095-.804.286-1.069a3.21 3.21 0 01.782-.745c.563-.398 1.264-.721 2.1-.97a9.32 9.32 0 012.624-.37z" fill="#fff"/></svg>