<svg width="18" height="18" fill="none" xmlns="http://www.w3.org/2000/svg"><path fill-rule="evenodd" clip-rule="evenodd" d="M5.625 0h6.428a5.358 5.358 0 015.357 5.357v6.429a5.358 5.358 0 01-5.357 5.357H5.625a5.358 5.358 0 01-5.357-5.357V5.357A5.358 5.358 0 015.625 0zm6.428 15.536a3.754 3.754 0 003.75-3.75V5.357a3.754 3.754 0 00-3.75-3.75H5.625a3.754 3.754 0 00-3.75 3.75v6.429a3.754 3.754 0 003.75 3.75h6.428z" fill="#fff"/><path fill-rule="evenodd" clip-rule="evenodd" d="M4.553 8.572a4.286 4.286 0 118.572 0 4.286 4.286 0 01-8.572 0zm1.607 0a2.682 2.682 0 002.678 2.678 2.682 2.682 0 002.679-2.678 2.682 2.682 0 00-2.679-2.679A2.682 2.682 0 006.16 8.572z" fill="#fff"/><circle cx="13.446" cy="3.964" r=".571" fill="#fff"/></svg>