<svg width="68" height="20" fill="none" xmlns="http://www.w3.org/2000/svg"><path d="M61.917 0c-11.689.003-14.653 6.273-15.13 10.53-.542 4.78 2.939 9.47 11.52 9.47 3.613 0 5.975-.597 6.812-.849a.604.604 0 00.27-.166.56.56 0 00.14-.274l.484-2.414a.464.464 0 00-.019-.248.487.487 0 00-.145-.208.523.523 0 00-.495-.1 16.55 16.55 0 01-4.704.668c-4.101 0-7.063-2.34-6.686-6.367.363-3.899 3.13-6.87 6.937-6.87 2.29 0 3.303 1.141 3.227 2.66v.088a.468.468 0 00.14.36.515.515 0 00.368.152h1.555c.24 0 .447-.159.503-.379l1.088-4.668a.546.546 0 00-.067-.418.597.597 0 00-.351-.259A21.118 21.118 0 0061.92.003L61.917 0zM5.645.308a.577.577 0 00-.348.116A.528.528 0 005.1.72l-.3 1.285a.503.503 0 00.058.371.547.547 0 00.304.24l.093.026c.58.217 1.256.705.971 1.984l-2.21 9.602c-.579 2.618-1.514 3.157-2.402 3.252h-.028a.573.573 0 00-.317.132.525.525 0 00-.174.285l-.285 1.23a.485.485 0 00.106.428c.05.06.113.107.185.14a.56.56 0 00.231.05h9.735a.503.503 0 00.494-.376l.335-1.44a.467.467 0 00-.049-.334.506.506 0 00-.264-.224l-.061-.026c-.494-.186-1.167-.594-.994-1.353l1.13-4.907c3.878 6.724 5.16 8.663 9.81 8.66h4.205a.523.523 0 00.317-.105.477.477 0 00.177-.271l.293-1.247a.493.493 0 00-.102-.433.568.568 0 00-.417-.199c-1.05-.015-1.563-.246-2.61-1.525l-5.394-6.933 7.007-5.539c.941-.7 2.088-.896 2.725-.976l.061-.005a.53.53 0 00.293-.12.487.487 0 00.162-.262L28.473.9a.464.464 0 00-.102-.41.537.537 0 00-.4-.182H19.54a.574.574 0 00-.345.116.525.525 0 00-.194.295l-.285 1.22a.508.508 0 00.064.384.555.555 0 00.321.24c.497.182.606.636.176.97l-7.183 5.671 1.229-5.342a1.79 1.79 0 01.484-.815 1.93 1.93 0 01.847-.477l.07-.02a.56.56 0 00.243-.148.52.52 0 00.134-.243l.296-1.265a.458.458 0 00-.1-.405.527.527 0 00-.394-.18L5.645.31zm24.79 0a.577.577 0 00-.346.117.527.527 0 00-.195.296l-.299 1.282a.482.482 0 00.053.354c.063.108.165.19.288.232l.056.021c.57.204 1.36.727 1.016 2.01L27.63 19.158a.46.46 0 00.1.408.531.531 0 00.398.18h7.751a.51.51 0 00.5-.379l.335-1.45a.44.44 0 00-.04-.307.476.476 0 00-.234-.214 3.637 3.637 0 01-.075-.034c-.491-.228-1.223-.756-.977-1.777.025-.133.754-3.29.754-3.29h6.594c.24 0 .446-.159.502-.379l.617-2.652a.463.463 0 00-.1-.413.509.509 0 00-.403-.182h-6.364l1.192-5.145 4.444-.008c1.438 0 1.876.716 1.792 1.93l-.005.064a.463.463 0 00.127.381.513.513 0 00.383.163h1.64c.24 0 .446-.16.496-.382L48.174.897a.465.465 0 00-.104-.409.536.536 0 00-.399-.18H30.435z" fill="#8F90A6"/></svg>