<svg width="17" height="17" fill="none" xmlns="http://www.w3.org/2000/svg"><g clip-path="url(#clip0_12460_204)"><path d="M4.017 16.572H.78V5.936h3.33v10.636h-.093zM2.352 4.456C1.335 4.456.41 3.624.41 2.514c0-1.018.833-1.942 1.942-1.942 1.018 0 1.943.832 1.943 1.942 0 1.11-.833 1.942-1.943 1.942zM16.41 16.572h-3.33v-5.18c0-1.202 0-2.774-1.664-2.774-1.757 0-1.942 1.295-1.942 2.682v5.271h-3.33V5.937H9.29v1.48c.462-.833 1.48-1.665 3.144-1.665 3.33 0 3.977 2.22 3.977 5.086v5.735z" fill="#fff"/></g><defs><clipPath id="clip0_12460_204"><path fill="#fff" transform="translate(.41 .572)" d="M0 0h16v16H0z"/></clipPath></defs></svg>