<svg width="118" height="28" fill="none" xmlns="http://www.w3.org/2000/svg"><path d="M11.347-2.035c-.414.78-6 11.304-8.407 15.826-.084.157-.077.27.004.423 2.358 4.43 7.136 13.42 7.186 13.503.05-.083 4.827-9.072 7.185-13.502.081-.153.088-.267.004-.423-1.349-2.527-2.689-5.059-4.038-7.586-.087-.161-.093-.282-.003-.445.371-.673.727-1.355 1.102-2.062.054.092 3.63 6.813 5.382 10.106.074.138.08.242.005.385a11801.94 11801.94 0 00-8.312 15.65c-.074.14-.149.203-.317.2a77.865 77.865 0 00-2.056-.001c-.127.001-.194-.04-.254-.153C6.047 24.64 3.263 19.397.476 14.156c-.057-.11-.063-.191-.003-.304C3.261 8.608 6.043 3.365 8.831-1.877c.035-.066.118-.15.18-.151.765-.011 1.53-.007 2.336-.007z" fill="#8F90A6"/><path d="M14.517 1.176c-1.275 2.393-4.791 9.007-6.707 12.609-.082.153-.088.267-.004.422 1.349 2.528 2.689 5.06 4.038 7.586.087.162.091.282.002.445-.371.673-.727 1.355-1.103 2.063-.05-.086-3.625-6.808-5.382-10.107-.074-.139-.08-.242-.004-.385A14474.78 14474.78 0 0013.668-1.84c.075-.14.15-.202.317-.2a77.91 77.91 0 002.056.002c.128-.001.194.04.254.154a19548.03 19548.03 0 008.352 15.73c.059.11.063.192.003.304-2.787 5.242-5.57 10.486-8.357 15.727-.036.066-.118.15-.18.15-.765.011-1.53.007-2.33.007.052-.103 5.641-10.638 8.402-15.826.083-.157.077-.27-.005-.423C19.822 9.354 15.044.364 14.994.281c-.009.016-.184.343-.477.895zm19.576 19.637h-2.617V9.36c0-.146-.016-.241-.049-.288-.033-.046-.114-.096-.246-.148l-.708-.278.215-1.149h6.61c1.704 0 2.931.327 3.678.98.748.654 1.121 1.708 1.121 3.16 0 1.15-.233 2.035-.698 2.655-.466.622-1.19 1.024-2.174 1.21l3.227 5.31h-2.89L36.63 15.8h-2.537v5.012zm0-6.994h2.91c.906 0 1.552-.165 1.939-.496.386-.33.58-.89.58-1.684 0-.779-.194-1.335-.58-1.664-.387-.33-1.033-.496-1.938-.496h-2.91v4.34zM54.237 7.5v2.02h-6.925v3.548h5.51v1.94h-5.51v3.786h7.082v2.02h-9.697V9.365c0-.147-.016-.242-.05-.288-.033-.047-.114-.096-.245-.149l-.709-.277.216-1.15h10.328zm2.323 1.86c0-.145-.017-.24-.05-.287-.033-.046-.114-.096-.246-.148l-.708-.278.215-1.149h2.952c.197 0 .324.024.384.07.059.047.166.175.324.387l6.788 9.252V7.5h2.42v13.313H66.1l-7.12-9.708v9.707h-2.42V9.361h-.002zM77.982 7.5c.262.475.544 1.046.846 1.713a77.86 77.86 0 011.888 4.606 94.816 94.816 0 011.672 4.913c.237.766.433 1.46.59 2.08h-2.636a49.66 49.66 0 00-.452-1.585 97.77 97.77 0 01-.453-1.526h-5.823a79.237 79.237 0 00-.905 3.111h-2.636c.158-.621.355-1.314.591-2.08a90.702 90.702 0 011.673-4.913 75.81 75.81 0 011.888-4.606c.301-.667.584-1.238.846-1.714h2.91zm-1.457 2.336a67.283 67.283 0 00-2.282 5.924h4.564a89.305 89.305 0 00-2.282-5.924zm7.771-.476c0-.145-.018-.24-.05-.287-.033-.046-.114-.096-.246-.148l-.708-.278.216-1.149h3.226c.118 0 .177.066.177.199v7.706c0 1.268.27 2.179.807 2.735.537.554 1.409.831 2.617.831 1.219 0 2.095-.277 2.627-.831.531-.555.796-1.466.796-2.735V7.498h2.617v8.103c0 .964-.115 1.79-.345 2.477-.229.687-.586 1.251-1.072 1.693-.485.442-1.112.766-1.878.971-.767.205-1.681.307-2.744.307-1.063 0-1.977-.102-2.744-.306-.768-.205-1.394-.528-1.879-.972-.485-.442-.842-1.006-1.071-1.693-.23-.687-.345-1.512-.345-2.477v-6.24h-.001zm15.108 0c0-.145-.016-.24-.05-.287-.033-.046-.114-.096-.245-.148l-.709-.278.216-1.149h3.227c.117 0 .176.066.176.199V18.79h6.039v2.021h-8.656V9.361h.002zm11.489.16h-4.289V7.498h11.194V9.52h-4.288v11.293h-2.617V9.52z" fill="#8F90A6"/></svg>