<svg width="220" height="53" fill="none" xmlns="http://www.w3.org/2000/svg"><g clip-path="url(#clip0_1_258164)"><path opacity=".05" d="M28.75 52.08c13.603 0 24.63-1.513 24.63-3.38 0-1.866-11.027-3.38-24.63-3.38S4.12 46.834 4.12 48.7c0 1.867 11.027 3.38 24.63 3.38z" fill="#000"/><path d="M195.45 16.15a10.887 10.887 0 018.272-10.633A10.89 10.89 0 01216 11.06l-4 1.3a6.778 6.778 0 00-12.392 3.424 6.774 6.774 0 004.272 6.668 6.78 6.78 0 007.68-1.932l-2.38.39-2.89-2.89 6.22-1 6.23-1-1 6.22-1 6.22-2.97-2.96.28-1.71a10.887 10.887 0 01-16.758-1.63 10.894 10.894 0 01-1.842-6.05v.04zM69.6 19.39a7 7 0 00.71 3.39 6.74 6.74 0 002 2.35 8.559 8.559 0 002.92 1.37c1.116.3 2.266.451 3.42.45a12.921 12.921 0 003.81-.5 8.103 8.103 0 002.77-1.4 5.92 5.92 0 001.69-2.17 6.532 6.532 0 00.57-2.71 5.08 5.08 0 00-.78-2.92 6.07 6.07 0 00-1.78-1.84 7.461 7.461 0 00-2.11-1 16.377 16.377 0 00-1.64-.45l-3.25-.83A12.787 12.787 0 0176 12.5a2.13 2.13 0 01-.92-.71 1.9 1.9 0 01-.24-1 2 2 0 01.3-1.13 2.73 2.73 0 01.74-.74 3.23 3.23 0 011-.42 5.48 5.48 0 011.13-.12 7.68 7.68 0 011.62.12c.465.087.91.26 1.31.51.383.246.691.592.89 1 .247.46.39.97.42 1.49h4.52a6.34 6.34 0 00-.71-3.13 5.91 5.91 0 00-1.87-2.14 7.72 7.72 0 00-2.74-1.19 12.77 12.77 0 00-3.18-.39 10.82 10.82 0 00-2.86.39 8 8 0 00-2.56 1.19 6.46 6.46 0 00-1.85 2 5.57 5.57 0 00-.68 2.83 5.39 5.39 0 00.54 2.5 5.41 5.41 0 001.46 1.7c.61.47 1.284.85 2 1.13.76.284 1.534.524 2.32.72.77.22 1.54.42 2.29.59.68.164 1.35.374 2 .63.531.2 1.017.502 1.43.89a1.841 1.841 0 01.57 1.4 2.12 2.12 0 01-.42 1.34 3.001 3.001 0 01-1 .8 4.891 4.891 0 01-1.34.42 10.82 10.82 0 01-1.34.09 7.708 7.708 0 01-1.83-.16 5.202 5.202 0 01-1.52-.68 3.55 3.55 0 01-1-1.22 3.88 3.88 0 01-.39-1.81l-4.49-.01zm51.88-9l2.68 7.8h-5.5l2.82-7.8zm-10.32 15.8V5.2h-6.58l-4.76 14.61-5-14.61h-6.54v21.24h4.37l.06-14.94 5.21 14.91h3.6l5.27-15.06v15.09h9l1.67-4.73h7.94l1.6 4.73h4.85L123.89 5.2h-4.79l-7.94 20.99zm19.2-6.79a7.003 7.003 0 00.72 3.39 6.779 6.779 0 002 2.35A8.579 8.579 0 00136 26.5c1.116.3 2.266.451 3.42.45a12.997 12.997 0 003.81-.5 8.097 8.097 0 002.77-1.4 5.883 5.883 0 001.7-2.17c.38-.852.571-1.776.56-2.71a5.056 5.056 0 00-.77-2.92 6.083 6.083 0 00-1.79-1.84 7.436 7.436 0 00-2.11-1 15.913 15.913 0 00-1.64-.45l-3.24-.83a12.96 12.96 0 01-1.94-.66 2.146 2.146 0 01-.92-.71 1.908 1.908 0 01-.24-1 2.01 2.01 0 01.3-1.13c.196-.292.448-.544.74-.74a3.216 3.216 0 011-.42 5.49 5.49 0 011.13-.12 7.685 7.685 0 011.58.15c.465.087.909.26 1.31.51.383.246.691.592.89 1 .253.46.403.968.44 1.49h4.52a6.332 6.332 0 00-.72-3.13 5.88 5.88 0 00-1.87-2.14 7.695 7.695 0 00-2.74-1.19 12.757 12.757 0 00-3.19-.35c-.966.002-1.928.133-2.86.39a8.001 8.001 0 00-2.56 1.19 6.442 6.442 0 00-1.84 2 5.577 5.577 0 00-.68 2.83 5.379 5.379 0 00.54 2.5 5.448 5.448 0 001.46 1.7 8.272 8.272 0 002 1.13c.76.283 1.534.524 2.32.72.77.22 1.54.42 2.29.59.681.163 1.349.374 2 .63a4.244 4.244 0 011.43.89 1.845 1.845 0 01.56 1.4c.015.482-.133.954-.42 1.34a2.992 2.992 0 01-1 .8 4.902 4.902 0 01-1.34.42 10.72 10.72 0 01-1.34.09c-.599 0-1.196-.07-1.78-.21a5.185 5.185 0 01-1.52-.68 3.6 3.6 0 01-1-1.22 3.907 3.907 0 01-.39-1.81l-4.51.01zm18.68 7h4.67v-9.12h8.6v9.16H167V5.2h-4.67v8.15h-8.6V5.2H149l.04 21.2zm20.07 0h4.67V5.2h-4.67v21.2zm6.81 0h4.37l.06-14.22 8.84 14.22h4.67V5.2h-4.38l-.05 14.3-8.86-14.3h-4.64l-.01 21.2zM36.57 30.61a27.552 27.552 0 00-7-3.78 28.319 28.319 0 01-5.36-2.87c-4-2.787-6-6.243-6-10.37a10.63 10.63 0 012.19-6.9c.267-.331.554-.645.86-.94l-8.55 2a4.62 4.62 0 00-3.46 5.54l7.08 30.59a4.62 4.62 0 005.53 3.46l3.5-.84-.27-.07a33.76 33.76 0 01-6.78-2.93L22 35.34A16.3 16.3 0 0032.4 39c4 0 6-1.43 6-4.27a5.26 5.26 0 00-1.83-4.12zm19.34 4.11L48.83 4.13A4.62 4.62 0 0043.3.67l-5.15 1.19c.594.093 1.18.203 1.76.33a28.131 28.131 0 016.65 2.39l-3 8c-2.24-1.92-5.37-2.88-9.37-2.88-3.586 0-5.383 1.427-5.39 4.28a3.86 3.86 0 001.77 3 36.82 36.82 0 007.56 3.66 23.64 23.64 0 016.39 3.55c.74.59 1.41 1.26 2 2a12.35 12.35 0 012.55 7.85 11.85 11.85 0 01-2.45 7.58l5.83-1.35a4.61 4.61 0 003.46-5.55zM72.5 33.5h1.72l4.24 10.94 4.22-10.94h1.72v12.46h-1.17V35.18L79 45.96h-1.1l-4.2-10.78v10.78h-1.2V33.5zm21.35 0h1.3L100 45.96h-1.29l-1.49-3.88h-5.58l-1.48 3.88h-1.25l4.94-12.46zM92 41.07h4.82l-2.37-6.4-2.45 6.4zm23 4.89h-.84l-.16-2.27a4.415 4.415 0 01-4.24 2.53c-3.86 0-5.78-3.09-5.78-6.5s1.92-6.5 5.78-6.5a4.821 4.821 0 015.12 4.14h-1.17a3.837 3.837 0 00-3.95-3.13c-3.24 0-4.62 2.76-4.62 5.49 0 2.73 1.37 5.49 4.62 5.49 2.71 0 4.29-1.94 4.24-4.58h-4.17v-1H115v6.33zm9.25-12.46h1.3l4.81 12.47h-1.25l-1.49-3.88H122l-1.48 3.88h-1.25l4.98-12.47zm-1.85 7.58h4.82l-2.37-6.4-2.45 6.4zm11.91-7.58h8.82v1l-8.07 10.41h8.24v1h-9.54v-1l8.07-10.41h-7.52v-1zm13.97 0h1.17v12.46h-1.17V33.5zm7.14 0h1.3l7.14 10.55V33.5h1.17v12.46h-1.3l-7.14-10.55v10.55h-1.17V33.5zm15.58 0h8.46v1h-7.3v4.51H179v1h-6.83v4.93h7.38v1H171V33.5z" fill="#E96033"/></g><defs><clipPath id="clip0_1_258164"><path fill="#fff" transform="translate(0 .5)" d="M0 0h220v52H0z"/></clipPath></defs></svg>