<svg width="149" height="26" fill="none" xmlns="http://www.w3.org/2000/svg"><path fill-rule="evenodd" clip-rule="evenodd" d="M17.73 23.952c-1.964-1.23-3.41-5.472-3.41-10.513 0-.185 0-.367.005-.55C8.865 12.03 4.92 9.68 4.819 6.9l-.016.033c-1.335 1.66-2.098 3.58-2.098 5.624 0 6.018 6.61 10.95 14.985 11.389l.036.007.003-.001zM.184 12.999C.185 6.266 8.565.807 18.9.807c10.34 0 18.72 5.459 18.72 12.192 0 6.734-8.381 12.194-18.718 12.194C8.563 25.193.184 19.733.184 13zM18.9 2.566c1.997 0 3.694 3.027 4.323 7.25v-.005c3.882-.61 6.6-2 6.6-3.621 0-2.177-4.89-3.94-10.925-3.94-6.033 0-10.924 1.763-10.924 3.94 0 1.622 2.718 3.016 6.6 3.62v.007c.63-4.224 2.327-7.251 4.323-7.251h.003zm1.209 21.379c8.38-.436 14.986-5.367 14.986-11.389 0-2.045-.763-3.966-2.1-5.624l-.015-.033c-.102 2.78-4.045 5.13-9.505 5.989 0 .183.006.365.006.55 0 5.041-1.447 9.283-3.408 10.513l.034-.007h.002zM18.9 10.13c.895 0 1.764-.039 2.596-.112-.414-2.707-1.424-4.618-2.595-4.618-1.17 0-2.178 1.911-2.593 4.618.831.073 1.7.112 2.595.112H18.9zm0 10.027c1.503 0 2.729-3.127 2.794-7.049h.008c-.905.084-1.843.127-2.802.127a30.35 30.35 0 01-2.8-.127h.007c.065 3.922 1.292 7.049 2.793 7.049zm76.793-7.158a9.32 9.32 0 1118.64-.002 9.32 9.32 0 01-18.64.002zm9.32 5.898c2.874 0 5.204-2.644 5.204-5.898 0-3.254-2.33-5.898-5.204-5.898-2.875 0-5.203 2.644-5.203 5.898 0 3.254 2.329 5.898 5.203 5.898zm19.894-11.335v14.333h-3.926V7.562h.013-5.492v-3.24h14.882v3.24h-5.477zm10.228 10.378l-1.506 3.951h-4.586l7.25-17.573h4.887l7.25 17.573h-4.586l-1.507-3.95h-7.202zm3.598-2.965h2.469l-2.452-6.433h-.035l-2.452 6.432h2.47zM52.526 7.562v14.333h-3.927V7.562h.014-5.492v-3.24h14.883v3.24h-5.478zm6.479 5.437a9.32 9.32 0 1118.64-.002 9.32 9.32 0 01-18.64.002zm9.32 5.898c2.874 0 5.204-2.644 5.204-5.898 0-3.254-2.33-5.898-5.204-5.898-2.873 0-5.204 2.644-5.204 5.898 0 3.254 2.33 5.898 5.204 5.898zm18.345 2.998h1.99v-6.672l6.852-10.9h-4.586l-4.255 7.386-4.257-7.387h-4.586l6.852 10.9v6.673h1.99z" fill="#8F90A6"/></svg>