<svg width="18" height="15" fill="none" xmlns="http://www.w3.org/2000/svg"><path d="M17.268 2.374a7.166 7.166 0 01-1.98.543 3.417 3.417 0 001.511-1.9 6.867 6.867 0 01-2.179.832A3.435 3.435 0 008.676 4.2c0 .273.023.534.08.784a9.727 9.727 0 01-7.083-3.595 3.441 3.441 0 001.056 4.593 3.393 3.393 0 01-1.553-.423v.038A3.452 3.452 0 003.93 8.972a3.43 3.43 0 01-.9.113c-.22 0-.443-.012-.651-.058a3.469 3.469 0 003.21 2.393 6.905 6.905 0 01-4.26 1.466c-.282 0-.552-.012-.822-.047a9.674 9.674 0 005.271 1.542c6.324 0 9.781-5.238 9.781-9.778 0-.152-.005-.299-.012-.445a6.856 6.856 0 001.722-1.784z" fill="#fff"/></svg>