<svg width="220" height="25" fill="none" xmlns="http://www.w3.org/2000/svg"><g clip-path="url(#clip0_1_258126)"><path d="M92.96 6.936l-3.714 9.497-4.482-9.497h-2.581l-4.168 9.712-3.8-9.712h-4.9l7.654 18.039 1.527.002 4.93-10.658 4.955 10.665h1.526l7.685-18.048H92.96zm20.559 10.142l-12.07-.009c.299 1.16.873 2.055 1.715 2.685.844.631 1.891.946 3.138.946 1.689 0 3.285-.615 4.787-1.847l1.94 3.406c-2.035 1.826-4.326 2.737-6.868 2.734-2.704-.002-4.948-.922-6.728-2.761-1.78-1.84-2.667-4.116-2.667-6.831.002-2.69.865-4.96 2.59-6.809 1.723-1.848 3.856-2.773 6.4-2.773 2.382.003 4.324.818 5.825 2.448 1.502 1.629 2.252 3.653 2.25 6.073.002.887-.104 1.802-.312 2.738zm-10.541-6.225c-.741.665-1.25 1.566-1.529 2.701l7.839.005c-.022-1.135-.392-2.036-1.109-2.704-.717-.668-1.583-1-2.601-1-.991 0-1.86.332-2.6.998zm28.316-2.296c1.56 1.815 2.339 4.105 2.337 6.869-.002 2.763-.784 5.051-2.345 6.865-1.561 1.812-3.557 2.718-5.985 2.718-2.428-.002-4.266-.915-5.513-2.743l-.002 2.295-4.301-.002L115.503 0l4.681.002-.006 8.012c1.226-1.456 2.938-2.181 5.134-2.181 2.429.002 4.424.91 5.982 2.724zm-3.682 10.51c.844-.924 1.266-2.15 1.269-3.68 0-1.505-.427-2.72-1.283-3.647-.855-.927-1.907-1.39-3.154-1.392-1.202 0-2.227.437-3.071 1.313-.844.876-1.267 2.129-1.269 3.755 0 1.653.427 2.908 1.282 3.758.855.853 1.873 1.278 3.051 1.28 1.271 0 2.33-.46 3.175-1.386zm33.785-10.449c1.802 1.84 2.702 4.104 2.701 6.794-.003 2.69-.906 4.96-2.71 6.81-1.803 1.852-3.991 2.774-6.556 2.771-2.566-.002-4.734-.922-6.503-2.761-1.767-1.84-2.65-4.116-2.65-6.831.002-2.69.892-4.955 2.674-6.792 1.782-1.837 3.956-2.755 6.522-2.753 2.547 0 4.719.92 6.522 2.762zm-9.713 3.212c-.835.95-1.25 2.152-1.252 3.608 0 1.456.415 2.646 1.247 3.572.832.927 1.895 1.39 3.189 1.392 1.272 0 2.331-.467 3.175-1.405.845-.939 1.267-2.122 1.269-3.552.002-1.43-.42-2.628-1.264-3.592-.845-.963-1.902-1.444-3.173-1.446-1.295 0-2.36.473-3.191 1.423zm14.21 12.517l4.522.002.009-12.844 3.651.002.003-4.108-3.652-.002.001-.222c0-.994.248-1.696.739-2.11.492-.414 1.251-.62 2.278-.62.23 0 .475.013.734.037l.002-4.11a7.98 7.98 0 00-1.872-.217c-1.987-.002-3.552.547-4.692 1.646-1.14 1.098-1.711 2.748-1.711 4.947l-.012 17.599zm9.794 0l4.522.002.009-12.844 3.651.002.003-4.108-3.652-.002.001-.222c0-.994.247-1.696.739-2.11.492-.414 1.251-.62 2.278-.62.23 0 .475.013.734.037l.002-4.11a7.98 7.98 0 00-1.872-.217c-1.987-.002-3.552.547-4.692 1.646-1.14 1.098-1.711 2.748-1.711 4.947l-.012 17.599zM140.04 10.355l-.004 7.47c0 1.037.253 1.77.762 2.202.509.432 1.295.65 2.358.65.416 0 .879-.038 1.388-.112l-.003 4.183a7.978 7.978 0 01-2.565.404c-2.058-.002-3.677-.575-4.855-1.724-1.178-1.148-1.767-2.87-1.765-5.165l.004-7.912.002-4.22.003-6.106 4.682.003-.003 6.105-.004 4.222z" fill="#17449C"/><path d="M141.266 6.98l3.962.002-.002 4.22-3.962-.003.002-4.22zm60.632 10.16l-12.07-.009c.299 1.16.873 2.054 1.715 2.685.845.631 1.891.946 3.138.946 1.689 0 3.285-.615 4.788-1.847l1.94 3.406c-2.036 1.826-4.327 2.737-6.869 2.734-2.704-.002-4.948-.922-6.728-2.761-1.78-1.84-2.667-4.116-2.667-6.832.002-2.69.864-4.959 2.587-6.81 1.724-1.849 3.857-2.773 6.401-2.773 2.381.002 4.324.818 5.825 2.447 1.503 1.63 2.252 3.654 2.249 6.073.005.89-.099 1.803-.309 2.741zm-10.539-6.226c-.74.666-1.249 1.567-1.529 2.702l7.839.005c-.021-1.135-.392-2.036-1.109-2.704-.717-.668-1.583-1-2.6-1-.994 0-1.861.332-2.601.998zm28.618 6.238l-12.07-.01c.298 1.16.872 2.055 1.714 2.686.845.63 1.891.945 3.138.945 1.689 0 3.285-.614 4.788-1.846l1.94 3.406c-2.036 1.826-4.326 2.736-6.868 2.734-2.705-.002-4.948-.922-6.728-2.762-1.78-1.84-2.668-4.116-2.668-6.83.002-2.69.864-4.96 2.588-6.811 1.723-1.849 3.856-2.773 6.4-2.773 2.382.002 4.325.818 5.825 2.447 1.503 1.63 2.252 3.654 2.25 6.073a12.45 12.45 0 01-.309 2.74zm-10.542-6.226c-.74.666-1.249 1.567-1.528 2.702l7.838.004c-.022-1.134-.391-2.036-1.109-2.704-.716-.667-1.583-1-2.6-1-.992 0-1.86.333-2.601.998z" fill="#17449C"/><path d="M47.422 23.593c0 .773-.594 1.407-1.318 1.407h-9.195c-.725 0-1.32-.634-1.32-1.407V13.78c0-.774.595-1.408 1.32-1.408h9.195c.724 0 1.319.634 1.319 1.408v9.813z" fill="#07BFDD"/><path d="M59.405 11.22c0 .774-.594 1.408-1.319 1.408h-9.195c-.725 0-1.319-.634-1.319-1.407V1.408c0-.774.594-1.408 1.32-1.408h9.194c.725 0 1.319.634 1.319 1.408v9.813z" fill="#007FFF"/><path d="M23.797 23.593c0 .773-.594 1.407-1.318 1.407h-9.195c-.725 0-1.32-.634-1.32-1.407V13.78c0-.774.595-1.408 1.32-1.408h9.195c.724 0 1.319.634 1.319 1.408v9.813z" fill="#1DA5F8"/><path d="M11.833 11.222c0 .773-.595 1.407-1.32 1.407H1.32C.594 12.63 0 11.998 0 11.222V1.409C0 .635.594 0 1.319 0h9.195c.725 0 1.319.634 1.319 1.408v9.813z" fill="#8CC936"/></g><defs><clipPath id="clip0_1_258126"><path fill="#fff" d="M0 0h220v25H0z"/></clipPath></defs></svg>