<svg width="317" height="134" fill="none" xmlns="http://www.w3.org/2000/svg"><path d="M267.5 159c36.175 0 65.5-29.773 65.5-66.5 0-36.727-29.325-66.5-65.5-66.5S202 55.773 202 92.5c0 36.727 29.325 66.5 65.5 66.5z" fill="url(#paint0_linear_405_14251)"/><path d="M155.5 133c36.175 0 65.5-29.773 65.5-66.5C221 29.773 191.675 0 155.5 0S90 29.773 90 66.5c0 36.727 29.325 66.5 65.5 66.5z" fill="url(#paint1_linear_405_14251)"/><path d="M57.5 166c36.175 0 65.5-29.773 65.5-66.5C123 62.773 93.675 33 57.5 33S-8 62.773-8 99.5c0 36.727 29.325 66.5 65.5 66.5z" fill="url(#paint2_linear_405_14251)"/><path d="M49.997 51.136s.69-3.359 4.374-4.033c3.686-.674 6.287 2.227 10.778 1.176 4.49-1.051 9.267 1.05 9.171 6.302-.095 5.25 2.579 7.452 6.019 10.032 3.439 2.58-.095 5.672-.86 9.126-.765 3.455 5.609 2.17 4.872 6.733-2.098 13.002-37.663 9.376-43.278 5.622-3.192-2.134-5.293-5.336-3.05-8.775 2.244-3.44 3.113 1.512 1.808-7.876-.513-3.69 3.942-6.428 4.729-9.01.786-2.583-.358-8.745 5.437-9.297z" fill="#120283"/><path d="M79.434 152.292a78.684 78.684 0 01-3.277 1.16c-14.515 4.809-29.665 5.711-29.665 5.711l-2.455-1.277-4.877-2.536-19.43-10.106v-22.978s.134-17.7 18.149-24.686a36.687 36.687 0 014.4-1.386c1.69-.42 3.402-.74 5.13-.958l25.798-.113s1.638.197 4.126.9c2.69.755 5.296 1.79 7.773 3.085 7.785 4.085 16.625 12.198 17.207 28.036.47 12.74-10.526 20.481-22.879 25.148z" fill="#E8ECF8"/><path d="M44.042 157.886l-4.877-2.536-19.43-10.106v-22.978s.134-17.7 18.149-24.686a36.687 36.687 0 014.4-1.386s.988 45.156 1.758 61.692zm35.391-5.594a77.726 77.726 0 01-3.277 1.16c.425-20.432 1.179-57.432 1.179-57.432 7.84 2.204 24.181 9.392 24.98 31.122.469 12.742-10.529 20.483-22.882 25.15z" fill="#120283"/><path d="M73.212 95.12c-2.857 2.378-5.626 3.823-8.234 4.61h-.018c-8.598 2.579-15.45-2.041-18.117-4.277.193-.073.385-.148.576-.225.5-.2.984-.442 1.444-.723 6.796-4.168 5.56-15.617 5.56-15.617h12.066a25.8 25.8 0 00.05 4.846c.396 3.985 1.868 9.301 6.673 11.386z" fill="#E8ECF8"/><path d="M85.108 99.105a57.364 57.364 0 01-7.736 5.237c-16.754 9.349-28.91 2.957-35.024-2.157-2.926-2.448-4.467-4.605-4.467-4.605a36.662 36.662 0 014.4-1.386 42.64 42.64 0 014.35-.85c.258-.04.517-.074.78-.11l25.798-.11s.397.047 1.099.18a32.42 32.42 0 011.677.366 40.22 40.22 0 019.122 3.436z" fill="#E8ECF8"/><path d="M77.371 104.342c-16.754 9.348-28.91 2.957-35.024-2.158 1.039-1.288 2.184-3.39 2.395-6.532.612-.116 1.24-.22 1.883-.311-.42 2.029-.924 7.451 4.522 10.948 6.806 4.371 18.987 2.006 21.21-2.006 1.727-3.125 1.936-7.288 1.945-8.981a32.81 32.81 0 011.678.365c-.286 1.727-.667 5.747 1.391 8.675zM66.532 83.738c-.706 1.208-1.718 2.062-3.15 2.181-5.623.468-8.786-5.056-8.719-5.565l.291-1.462h11.53a25.8 25.8 0 00.048 4.846z" fill="#120283"/><path d="M74.1 68.33c0-1.573-1.112-2.851-2.485-2.851-1.372 0-2.485 1.278-2.485 2.852 0 1.574 1.113 3.555 2.485 3.555 1.373 0 2.486-1.98 2.486-3.555z" fill="#E8ECF8"/><path d="M70.963 69.31l-.175-.019c0-.018.213-1.879 1.94-1.924v.176c-1.57.04-1.764 1.748-1.765 1.766z" fill="#120283"/><path d="M72.665 69.044c-.294-.303-.593-.447-.892-.432-.454.026-.756.421-.764.425l-.14-.107c.015-.02.358-.462.891-.493.36-.02.701.142 1.032.485l-.127.122z" fill="#120283"/><path d="M46.492 68.33c0-1.573 1.113-2.851 2.486-2.851 1.372 0 2.485 1.278 2.485 2.852 0 1.574-1.113 3.555-2.485 3.555-1.373 0-2.486-1.98-2.486-3.555z" fill="#E8ECF8"/><path d="M49.909 69.31l.175-.019c0-.019-.213-1.879-1.94-1.924v.176c1.57.04 1.764 1.748 1.765 1.766z" fill="#120283"/><path d="M48.205 69.044c.294-.303.595-.447.894-.432.452.026.756.421.764.425L50 68.93c-.014-.02-.357-.462-.89-.493-.36-.02-.7.142-1.032.485l.126.122z" fill="#120283"/><path d="M67.405 79.282c-1.841 2.115-4.173 3.478-6.97 3.432-2.793.046-5.127-1.317-6.968-3.432a.323.323 0 00-.033-.039c-3.298-4.17-3.97-10.242-3.076-17.472.642-5.2 5.545-7.217 8.269-7.94a7.04 7.04 0 013.617 0c2.724.724 7.628 2.74 8.27 7.94.897 7.253.219 13.344-3.109 17.511z" fill="#E8ECF8"/><path d="M64.199 69.033a.597.597 0 100-1.195.597.597 0 000 1.195zm-7.905 0a.597.597 0 100-1.195.597.597 0 000 1.195zm11.736-5.765s-1.56.04-3.613.05c-2.051.01-2.58-.01-2.394-.536.185-.527 2.24-.516 3.529-.334a8.705 8.705 0 012.479.82zm-15.706 0s1.561.04 3.612.05c2.05.01 2.58-.01 2.395-.536-.186-.527-2.241-.516-3.53-.334a8.698 8.698 0 00-2.477.82zm7.71 9.366c-.214 0-.427-.034-.544-.144a.32.32 0 01-.095-.299c.087-.55.407-2.73.41-2.751l.174.025c0 .022-.323 2.203-.41 2.753a.145.145 0 00.04.144c.163.152.733.094 1.054.021l.04.171a3.28 3.28 0 01-.669.08zm1.15 1.379a3.26 3.26 0 01-.769-.084.082.082 0 11.042-.159 3.529 3.529 0 002.017-.17.082.082 0 01.064.15 3.53 3.53 0 01-1.354.263zM70.622 59.2l-.32 16.063.925-10.136s2.867-3.819-.605-5.927zm-20.209.714l.156 15.349-.924-10.136s-2.702-3.104.768-5.213z" fill="#120283"/><path d="M101.86 132.227c-1.569 6.98-6.92 12.178-13.719 16.04-.781.443-1.58.87-2.394 1.279a67.396 67.396 0 01-6.312 2.746c-.79-15.621-1.804-46.934-2.1-56.272 7.842 2.204 24.178 9.395 24.975 31.119a19.811 19.811 0 01-.45 5.088zM42.28 96.191l-3.113 59.159-4.813-2.502-2.715-1.413-11.905-6.189v-22.982s.157-20.476 22.547-26.073z" fill="#BF0830"/><path d="M50.454 62.823s.364-3.249 1.87-5.017c0 0 4.453-2.733 15.706 0 0 0 2.165 1.29 2.492 5.017 0 0 1.498-3.923-.687-8.764-2.186-4.841-14.376-4.703-16.943-2.187-2.568 2.516-6.124 7.85-2.438 10.951z" fill="#120283"/><path d="M88.141 148.267c-.78.443-1.58.87-2.394 1.279l-3.493-46.164c.116 1.07 3.212 29.297 5.887 44.885zm-56.502 3.168c2.784-14.531 6.333-46.907 6.459-48.052l-3.743 49.465-2.716-1.413z" fill="#EF9143"/><path d="M44.703 109.116s14.044 10.783 30.668 0c0 0-14.473 14.65-30.668 0zm4.156 31.638s16.194-5.445 25.366-20.636c-.005 0-9.028 21.209-25.366 20.636z" fill="#EDEDED"/><path d="M52.323 57.806s5.35-2.535 5.637.905c.287 3.44 2.683 5.167 5.64 3.625 2.956-1.543 4.247-.757 3.603 1.89-.644 2.647 2.225 2.675 5.59 0 3.365-2.674-3.1-8.024-3.664-8.31-.565-.287-2.129-3.727-6.541-3.082-4.413.645-10.265 4.972-10.265 4.972zm101.802-22.783v30.233c-2.295 2.816-5.846 6.357-8.879 5.85-4.941-.829-6.212-7.3-8.105-17.054-1.892-9.753 3.966-19.585 16.984-19.03z" fill="#120283"/><path d="M154.125 35.023v30.233c2.296 2.816 5.848 6.357 8.879 5.85 4.941-.829 6.212-7.3 8.105-17.054 1.893-9.753-3.958-19.585-16.984-19.03zm47.32 110.494v.246c-.13.215-.261.424-.4.636-.074.113-.148.225-.221.34-2.279 3.399-5.403 6.341-9.052 8.88-.304.212-.614.424-.927.628-.283.19-.57.375-.861.559-.523.334-1.054.658-1.593.972-10.389 6.095-23.77 9.524-34.222 11.412-9.646 1.74-16.8 2.162-16.8 2.162l-13.804-7.177-3.716-1.934-5.271-2.732-4.718-2.452-.445-.23-1.672-.87L105 154.53v-27.772s0-.199.021-.563c.013-.218.031-.495.06-.826 0-.049.008-.098.014-.148.078-.86.222-2.044.486-3.455a40.765 40.765 0 011.395-5.381c.087-.261.182-.528.277-.796a36.887 36.887 0 014.446-8.702c.181-.257.363-.513.554-.77a33.01 33.01 0 019.02-8.372 37.008 37.008 0 016.026-3.046 42.248 42.248 0 013.474-1.198c1.185-.35 2.424-.66 3.715-.932.218-.045.436-.09.658-.13a52.157 52.157 0 013.311-.533l31.175-.132.115.036c.34.104 1.404.444 2.945 1.027l.079.031.099.038a2.3 2.3 0 01.138.055c.357.14.741.297 1.138.445 1.102.452 2.356 1 3.705 1.652a63.51 63.51 0 013.744 1.975c.414.237.83.484 1.247.74 3.546 2.153 7.217 4.918 10.189 8.364.22.249.435.504.642.761a25.646 25.646 0 014.743 8.744c.086.266.17.536.253.808a51.927 51.927 0 011.42 6.183 72.965 72.965 0 01.539 3.667c.099.779.186 1.566.261 2.361.224 2.258.372 4.547.466 6.796l.034.832c.112 3.238.112 6.384.056 9.228z" fill="#120283"/><path d="M114.913 131.952a1.063 1.063 0 00-1.458 0c-.685.651-1.607 1.631-1.607 2.201 0 .571.952 1.583 1.639 2.234a1.019 1.019 0 001.393 0c.688-.651 1.641-1.653 1.641-2.234s-.923-1.55-1.608-2.201zm15.197 0a.947.947 0 00-.679-.29.941.941 0 00-.678.29c-.638.651-1.496 1.63-1.496 2.201 0 .571.89 1.583 1.527 2.234a.913.913 0 00.295.204.91.91 0 00.704 0 .906.906 0 00.296-.204c.64-.651 1.527-1.653 1.527-2.234s-.858-1.55-1.496-2.201zm15.474 0a1.058 1.058 0 00-1.456 0c-.687.651-1.608 1.63-1.608 2.201 0 .571.951 1.583 1.64 2.234a1.021 1.021 0 001.392 0c.689-.651 1.64-1.653 1.64-2.234s-.921-1.55-1.608-2.201zm15.197 0a.951.951 0 00-.678-.289.933.933 0 00-.678.289c-.639.651-1.497 1.631-1.497 2.201 0 .571.889 1.583 1.526 2.234a.905.905 0 001 .204.917.917 0 00.296-.204c.641-.651 1.526-1.653 1.526-2.234s-.858-1.55-1.495-2.201zm15.473 0a1.058 1.058 0 00-1.457 0c-.686.651-1.608 1.63-1.608 2.201 0 .571.952 1.583 1.641 2.234a1.021 1.021 0 001.392 0c.689-.651 1.64-1.653 1.64-2.234s-.922-1.55-1.608-2.201zm15.198 0a.951.951 0 00-.678-.289.933.933 0 00-.679.289c-.637.651-1.495 1.631-1.495 2.201 0 .571.889 1.583 1.527 2.234a.902.902 0 00.647.276.905.905 0 00.648-.276c.64-.651 1.526-1.653 1.526-2.234s-.859-1.55-1.496-2.201zm-82.814-8.188c0 .58-.889 1.583-1.525 2.234a.883.883 0 01-.295.206.873.873 0 01-.705 0 .883.883 0 01-.295-.206 14.011 14.011 0 01-.712-.777c.079-.86.223-2.044.487-3.455l.194-.201a.937.937 0 011.356 0c.637.649 1.495 1.63 1.495 2.199zm13.981-2.201a1.063 1.063 0 00-1.459 0c-.684.651-1.608 1.63-1.608 2.203 0 .572.953 1.582 1.641 2.231a1.012 1.012 0 001.393 0c.688-.649 1.639-1.652 1.639-2.231 0-.58-.922-1.552-1.606-2.203zm15.195 0a.951.951 0 00-.678-.29.937.937 0 00-.678.29c-.638.651-1.496 1.63-1.496 2.203 0 .572.89 1.582 1.527 2.231a.889.889 0 001.295 0c.64-.649 1.527-1.652 1.527-2.231 0-.58-.858-1.552-1.497-2.203zm15.475 0a1.06 1.06 0 00-1.458 0c-.685.651-1.606 1.63-1.606 2.203 0 .572.951 1.582 1.639 2.231a1.012 1.012 0 001.393 0c.688-.649 1.639-1.652 1.639-2.231 0-.58-.922-1.552-1.607-2.203zm15.197 0a.94.94 0 00-1.357 0c-.638.651-1.496 1.631-1.496 2.203 0 .572.89 1.582 1.527 2.232a.883.883 0 00.647.279.883.883 0 00.648-.279c.64-.65 1.527-1.653 1.527-2.232 0-.58-.864-1.552-1.496-2.203zm15.473 0a1.058 1.058 0 00-1.456 0c-.687.651-1.608 1.631-1.608 2.203 0 .572.951 1.582 1.64 2.232a1.016 1.016 0 001.392 0c.689-.65 1.64-1.653 1.64-2.232 0-.58-.921-1.552-1.608-2.203zm16.43 2.914a9.314 9.314 0 01-1.259 1.52.895.895 0 01-1.296 0c-.641-.65-1.527-1.654-1.527-2.233 0-.579.858-1.55 1.497-2.201a.937.937 0 011.356 0c.333.335.646.691.935 1.064.104.614.2 1.227.294 1.85zm-85.476-12.119a1.063 1.063 0 00-1.458 0c-.685.651-1.607 1.63-1.607 2.202 0 .572.952 1.582 1.639 2.232a1.016 1.016 0 001.393 0c.688-.65 1.641-1.652 1.641-2.232 0-.579-.923-1.545-1.608-2.202zm15.197 0a.947.947 0 00-.679-.29.941.941 0 00-.678.29c-.638.651-1.496 1.631-1.496 2.203 0 .572.89 1.581 1.527 2.232a.887.887 0 001 .207.9.9 0 00.295-.207c.64-.651 1.527-1.653 1.527-2.232 0-.58-.858-1.546-1.496-2.203zm15.474 0a1.058 1.058 0 00-1.456 0c-.687.651-1.608 1.631-1.608 2.203 0 .572.951 1.581 1.64 2.232a1.016 1.016 0 001.392 0c.689-.651 1.64-1.653 1.64-2.232 0-.58-.921-1.546-1.608-2.203zm15.197 0a.951.951 0 00-.678-.29.934.934 0 00-.678.29c-.639.651-1.497 1.631-1.497 2.203 0 .572.889 1.581 1.526 2.232a.893.893 0 001.296 0c.641-.651 1.526-1.653 1.526-2.232 0-.58-.858-1.546-1.495-2.203zm15.473 0a1.058 1.058 0 00-1.457 0c-.686.651-1.608 1.631-1.608 2.203 0 .572.952 1.581 1.641 2.232a1.016 1.016 0 001.392 0c.689-.651 1.64-1.653 1.64-2.232 0-.58-.922-1.546-1.608-2.203zm15.198 0a.951.951 0 00-.678-.29.934.934 0 00-.679.29c-.637.651-1.495 1.631-1.495 2.203 0 .572.889 1.581 1.527 2.232a.889.889 0 001.295 0c.64-.651 1.526-1.653 1.526-2.232 0-.58-.859-1.546-1.496-2.203zm-68.833-10.387a1.06 1.06 0 00-1.459 0c-.684.649-1.608 1.63-1.608 2.2 0 .571.953 1.583 1.641 2.232a1.012 1.012 0 001.393 0c.688-.649 1.639-1.652 1.639-2.232 0-.579-.922-1.551-1.606-2.2zm15.195 0a.936.936 0 00-1.356 0c-.638.649-1.496 1.63-1.496 2.201 0 .57.89 1.582 1.527 2.232a.883.883 0 00.648.279.883.883 0 00.647-.279c.64-.65 1.527-1.653 1.527-2.232 0-.58-.858-1.552-1.497-2.201zm15.475 0a1.056 1.056 0 00-1.458 0c-.685.649-1.606 1.63-1.606 2.2 0 .571.951 1.583 1.639 2.232a1.012 1.012 0 001.393 0c.688-.649 1.639-1.652 1.639-2.232 0-.579-.922-1.551-1.607-2.2zm15.197 0a.938.938 0 00-1.048-.216.928.928 0 00-.309.216c-.638.649-1.496 1.63-1.496 2.201 0 .57.89 1.582 1.527 2.232a.883.883 0 00.647.279.883.883 0 00.648-.279c.64-.65 1.527-1.653 1.527-2.232 0-.58-.864-1.552-1.496-2.201zm15.473 0a1.055 1.055 0 00-1.456 0c-.687.649-1.608 1.63-1.608 2.201 0 .57.951 1.582 1.64 2.232a1.016 1.016 0 001.392 0c.689-.65 1.64-1.653 1.64-2.232 0-.58-.921-1.552-1.608-2.201zm-52.353-7.004c0 .58-.89 1.582-1.525 2.231a.905.905 0 01-.649.277.894.894 0 01-.648-.276c-.642-.65-1.527-1.651-1.527-2.232a.82.82 0 01.051-.269 42.247 42.247 0 013.474-1.199c.443.525.824 1.088.824 1.468zm46.255.097c-.095.593-.981 1.52-1.63 2.134a1.013 1.013 0 01-1.392 0c-.689-.649-1.639-1.65-1.639-2.231 0-.4.457-1.005.964-1.555 1.093.452 2.347 1 3.697 1.652z" fill="#B036CE"/><path d="M169.641 91.773c-.212.235-15.308 16.927-34.486.664a52.015 52.015 0 013.311-.532l31.175-.132z" fill="#120283"/><path d="M169.642 91.771c-3.453 2.874-6.799 4.62-9.95 5.571h-.022c-10.395 3.113-18.674-2.469-21.9-5.168.234-.09.468-.179.696-.274.606-.24 1.19-.533 1.746-.874 2.395-1.467 3.964-3.498 4.986-5.632 2.483-5.203 1.734-11.056 1.734-11.056h14.584c-.165 1.95-.145 3.91.06 5.856.177 1.751.527 3.43 1.185 4.974 1.128 2.7 3.191 5 6.881 6.603z" fill="#E8ECF8"/><path d="M161.571 80.19c-.854 1.462-2.075 2.493-3.81 2.639-6.795.564-10.618-6.112-10.538-6.729l.353-1.766h13.931a31.059 31.059 0 00.064 5.856z" fill="#120283"/><path d="M170.722 61.57c0-1.903-1.346-3.447-3.004-3.447s-3.004 1.544-3.004 3.447 1.344 4.298 3.004 4.298 3.004-2.393 3.004-4.298z" fill="#E8ECF8"/><path d="M166.93 62.752l-.21-.021c0-.024.256-2.27 2.343-2.325v.212c-1.896.05-2.13 2.113-2.133 2.134z" fill="#120283"/><path d="M168.99 62.433c-.356-.367-.719-.54-1.08-.522-.547.032-.919.507-.922.512l-.169-.13c.018-.021.431-.556 1.076-.592.434-.025.846.172 1.248.585l-.153.147z" fill="#120283"/><path d="M137.36 61.57c0-1.903 1.344-3.447 3.004-3.447s3.002 1.544 3.002 3.447-1.344 4.298-3.002 4.298c-1.659 0-3.004-2.393-3.004-4.298z" fill="#E8ECF8"/><path d="M141.484 62.752l.211-.021c0-.024-.257-2.27-2.342-2.325v.212c1.895.05 2.129 2.113 2.131 2.134z" fill="#120283"/><path d="M139.425 62.433c.355-.367.718-.54 1.08-.522.547.032.917.507.922.512l.169-.13c-.018-.021-.431-.556-1.078-.592-.434-.025-.846.172-1.246.585l.153.147z" fill="#120283"/><path d="M162.63 74.806c-2.223 2.557-5.039 4.204-8.424 4.15-3.376.055-6.196-1.592-8.422-4.15a.319.319 0 00-.04-.047c-3.987-5.039-4.798-12.378-3.719-21.116.777-6.287 6.705-8.723 9.995-9.6a8.507 8.507 0 014.372 0c3.292.877 9.218 3.313 9.996 9.6 1.084 8.765.264 16.124-3.758 21.163z" fill="#E8ECF8"/><path d="M158.755 62.42a.723.723 0 100-1.447.723.723 0 000 1.447zm-9.553 0a.723.723 0 100-1.447.723.723 0 000 1.447zm13.413-6.733s-1.736.071-4.012.089c-2.276.018-2.866-.018-2.668-.941.199-.924 2.49-.907 3.914-.593 1.425.314 2.766 1.445 2.766 1.445zm-17.444 0s1.734.071 4.012.089c2.278.018 2.867-.018 2.668-.941-.199-.924-2.488-.907-3.914-.593-1.426.314-2.766 1.445-2.766 1.445zm8.55 11.088c-.259 0-.515-.041-.658-.173a.392.392 0 01-.114-.362c.106-.664.492-3.299.497-3.325l.209.03c0 .027-.39 2.669-.495 3.328a.164.164 0 000 .093.17.17 0 00.047.08c.199.184.889.115 1.275.026l.047.207a4.064 4.064 0 01-.808.096zm.725 1.549a3.757 3.757 0 01-.769-.07.116.116 0 01-.044-.019.133.133 0 01-.033-.035.12.12 0 01-.015-.046.11.11 0 01.003-.048.118.118 0 01.02-.043.12.12 0 01.128-.045c.108.025 2.668.58 4.002-1.841a.103.103 0 01.03-.036.117.117 0 01.131-.012.12.12 0 01.048.162c-.965 1.746-2.555 2.033-3.501 2.033zm1.63.501a.117.117 0 01-.122-.107.12.12 0 01.024-.084.122.122 0 01.075-.045c.178-.033.349-.097.506-.188a.115.115 0 01.132.007.118.118 0 01.043.125.117.117 0 01-.054.073c-.18.104-.376.177-.581.216l-.023.003zM165.6 49.84l.794 11.856.855-4.001s2.545-5.306-1.649-7.855zm-22.787-1.386l-1.119 13.24-.531-4.002s-2.544-5.303 1.65-9.238z" fill="#120283"/><path d="M169.642 91.771c-3.453 2.874-6.799 4.62-9.95 5.571h-.022c-10.395 3.113-18.674-2.469-21.9-5.168.234-.09.468-.18.696-.274.606-.241 1.19-.534 1.746-.874 2.395-1.468 3.964-3.498 4.986-5.632 3.167 1.126 10.058 2.816 17.557-.227 1.134 2.7 3.197 5 6.887 6.604z" fill="#E8ECF8"/><path d="M169.139 58.535c-6.912 4.314-10.346-4.446-10.387-8.693-.042-4.248-4.546-4.047-4.546-4.047-2.355-.474-5.62 1.686-5.006 5.898.613 4.212-1.963 5.898-5.164 6.909-3.201 1.01-5.14-.926-5.14-.926l.193-1.005c1.927.148 6.204-.08 7.754-4.553-.105.121-2.639 5.304-7.659 4.062l2.509-12.997 12.565-3.113h3.69s6.818 2.696 8.768 7.162c1.95 4.465.999 9.474.999 9.474-3.081.731-5.493-3.83-5.562-3.952 2.106 5.347 6.914 4.31 6.914 4.31l.072 1.471zm79.279-10.772s9.015-4.371 13.835 6.107c4.821 10.478 3.747 19.115 9.757 23.449 6.01 4.334 3.278 10.893-.137 15.282-3.414 4.389-12.909 9.027-21.139 4.59-8.229-4.436-13.965 1.812-20.111-4.59-6.147-6.402-6.075-12.43-2.355-16.655 3.719-4.225 5.437-34.109 20.15-28.183z" fill="#120283"/><path d="M293.952 128.402v.039c-.044.702-.092 1.394-.137 2.078a509.956 509.956 0 01-.467 6.319C291.736 156.952 289.66 168 289.66 168h-80.497s-2.997-17.324-3.76-31.971c-.273-5.247-.26-10.149.281-13.796 1.291-8.667 6.267-14.225 11.776-17.773l.037-.025c.703-.452 1.416-.87 2.131-1.258.321-.173.639-.341.956-.504a40.246 40.246 0 014.297-1.864 45.48 45.48 0 013.039-.996 50.538 50.538 0 013.825-.939 34.06 34.06 0 013.439-.535l27.499-.117h.022a44.39 44.39 0 014.451.956h.007c.974.255 2.068.57 3.242.956l.143.046c.76.25 1.552.529 2.367.838 1.144.433 2.332.927 3.534 1.491a43.992 43.992 0 012.994 1.537c7.851 4.419 15.311 11.909 14.509 24.356z" fill="#BF0830"/><path d="M262.696 98.227c-3.046 2.535-5.998 4.074-8.776 4.917h-.019c-9.166 2.75-16.469-2.176-19.313-4.558.206-.078.41-.157.615-.239a10.171 10.171 0 001.539-.772c7.239-4.443 5.925-16.646 5.925-16.646h12.863c-.144 1.72-.127 3.45.052 5.166.433 4.25 1.997 9.91 7.114 12.132z" fill="#E8ECF8"/><path d="M255.576 86.095c-.752 1.288-1.832 2.198-3.359 2.322-5.993.497-9.364-5.39-9.288-5.934l.311-1.558h12.294a27.562 27.562 0 00.042 5.17z" fill="#120283"/><path d="M263.646 69.673c0-1.68-1.186-3.04-2.648-3.04-1.463 0-2.65 1.366-2.65 3.04 0 1.675 1.185 3.79 2.65 3.79 1.464 0 2.648-2.104 2.648-3.79z" fill="#E8ECF8"/><path d="M260.303 70.714l-.185-.019c0-.019.226-2 2.066-2.049v.188c-1.673.043-1.879 1.863-1.881 1.88z" fill="#120283"/><path d="M262.119 70.433c-.312-.324-.632-.477-.956-.46-.482.027-.81.448-.812.452l-.149-.114a1.415 1.415 0 01.949-.525c.382-.02.746.151 1.1.517l-.132.13z" fill="#120283"/><path d="M234.225 69.673c0-1.68 1.185-3.04 2.648-3.04s2.65 1.366 2.65 3.04c0 1.675-1.187 3.79-2.65 3.79-1.463 0-2.648-2.104-2.648-3.79z" fill="#E8ECF8"/><path d="M237.861 70.714l.187-.019c0-.019-.227-2-2.067-2.049v.188c1.672.043 1.878 1.863 1.88 1.88z" fill="#120283"/><path d="M236.046 70.433c.312-.324.633-.477.956-.46.483.027.81.448.819.452l.149-.114c-.016-.02-.381-.491-.956-.525-.382-.02-.746.151-1.099.517l.131.13z" fill="#120283"/><path d="M256.509 81.346c-1.962 2.255-4.446 3.707-7.428 3.657-2.977.05-5.463-1.402-7.428-3.657a.404.404 0 00-.035-.043c-3.516-4.443-4.235-10.916-3.278-18.622.956-7.73 10.743-8.86 10.743-8.86s9.788 1.13 10.743 8.86c.955 7.731.231 14.221-3.317 18.665z" fill="#E8ECF8"/><path d="M252.527 71.153a.785.785 0 100-1.57.785.785 0 000 1.57zm-7.507 0a.785.785 0 100-1.57.785.785 0 000 1.57zm12.157-6.882s-1.664.044-3.851.055c-2.187.01-2.749-.011-2.554-.572.195-.562 2.388-.547 3.756-.356.922.156 1.815.45 2.649.873zm-16.742 0s1.665.044 3.852.055c2.186.01 2.749-.011 2.554-.572-.195-.562-2.389-.547-3.756-.356a9.263 9.263 0 00-2.65.873zm8.219 10.407c-.228 0-.455-.037-.581-.154a.34.34 0 01-.1-.318c.093-.585.433-2.91.438-2.933l.184.027c0 .024-.344 2.348-.437 2.936a.161.161 0 000 .081.16.16 0 00.042.07c.175.163.782.101 1.124.024l.043.181a3.534 3.534 0 01-.713.086z" fill="#120283"/><path d="M249.25 75.338s1.987.478 2.875-.478c0 0-.388 2.083-2.875.478z" fill="#E8ECF8"/><path d="M259.129 59.328l.983 13.875.468-6.945s2.248-4.683-1.451-6.93zm-20.095 0l-.79 13.492-.665-6.557s-2.245-4.688 1.455-6.935z" fill="#120283"/><path d="M238.047 66.266s4.687-2.186 7.419-6.938c2.732-4.752 2.82-5.298 5.268.37 2.448 5.669 6.38 12.02 11.962 6.935 0 0-1.181-8.223-2.888-11.027-1.707-2.804-9.027-5.674-10.559-5.674-1.531 0-11.54 2.595-12.238 5.327-.698 2.732 1.036 11.007 1.036 11.007z" fill="#120283"/><path d="M266.395 98.993c-3.931 3.341-10.065 7.615-16.69 8.682-7.454 1.201-13.921-4.73-17.448-8.89 1.818-.344 2.945-.44 2.945-.44l27.499-.117h.021c.189.04 1.577.248 3.673.765z" fill="#E8ECF8"/><path d="M293.952 128.402v.039c-5.831-21.539-26.343-29.094-26.772-29.247.974.255 2.068.571 3.241.956l.143.047c.76.25 1.552.528 2.368.837a49.696 49.696 0 015.54 2.49c.329.173.658.354.987.538 7.835 4.403 15.295 11.893 14.493 24.34z" fill="#120283"/><defs><linearGradient id="paint0_linear_405_14251" x1="327.585" y1="28.914" x2="150.305" y2="102.649" gradientUnits="userSpaceOnUse"><stop stop-color="#E3E7F6"/><stop offset="1" stop-color="#E3E7F6" stop-opacity="0"/></linearGradient><linearGradient id="paint1_linear_405_14251" x1="215.585" y1="2.914" x2="38.304" y2="76.649" gradientUnits="userSpaceOnUse"><stop stop-color="#E3E7F6"/><stop offset="1" stop-color="#E3E7F6" stop-opacity="0"/></linearGradient><linearGradient id="paint2_linear_405_14251" x1="117.585" y1="35.914" x2="-59.696" y2="109.649" gradientUnits="userSpaceOnUse"><stop stop-color="#E3E7F6"/><stop offset="1" stop-color="#E3E7F6" stop-opacity="0"/></linearGradient></defs></svg>