<svg width="591" height="383" fill="none" xmlns="http://www.w3.org/2000/svg"><path d="M381.317 79.14c-.393-5.724-5.574-11.067-11.279-11.618a12.716 12.716 0 00-4.468.354 1.272 1.272 0 01-1.67-1.312v-47.35c0-5.096-2.023-9.983-5.623-13.586A19.188 19.188 0 00344.703 0H215.689a19.192 19.192 0 00-13.575 5.627 19.226 19.226 0 00-5.626 13.587v45.363a3.312 3.312 0 001.253 2.587 3.304 3.304 0 002.804.625 12.551 12.551 0 0114.24 6.925 12.577 12.577 0 01-3.843 15.372 12.558 12.558 0 01-10.834 2.076 2.853 2.853 0 00-3.624 2.743v53.433a19.234 19.234 0 005.624 13.589 19.202 19.202 0 0013.577 5.629h50.714a1.652 1.652 0 011.241.567 1.667 1.667 0 01.398 1.306 12.578 12.578 0 007.427 12.932 12.537 12.537 0 0014.538-3.279 12.57 12.57 0 002.955-9.898 1.448 1.448 0 01.358-1.143 1.441 1.441 0 011.093-.485h50.276c5.093 0 9.977-2.025 13.578-5.629a19.226 19.226 0 005.624-13.589V94.013a1.753 1.753 0 011.337-1.713c.254-.062.518-.066.774-.011a12.552 12.552 0 0014.356-7.405 12.571 12.571 0 00.946-5.722l.017-.022z" fill="#1A2578"/><path d="M345.582 167.202h-24.968c-1.675-6.192-3.222-11.692-4.503-16.029-1.627-5.535-2.807-9.189-3.218-9.95-1.644-3.063 4.669-12.458 9.894-15.315a10.178 10.178 0 012.907-1.116c3.226-.634 5.443 1.203 7.533 3.803 1.552 1.925 4.747 3.5 7.471 7.753a23.352 23.352 0 012.155 4.324 193.348 193.348 0 016.702 21.441 4.106 4.106 0 01-3.973 5.089z" fill="#E0E0E0"/><path d="M305.833 59.79s2.583-12.69-8.683-14.877c-11.266-2.188-9.447 6.664-11.699 8.673-2.251 2.008 2.4 8.953 7.791 10.3 5.39 1.348 12.591-4.096 12.591-4.096z" fill="#30262A"/><path d="M334.967 167.201h-89.274s-3.593-12.75-2.894-18.71c.315-2.696.687-5.312 1.128-7.82.292-1.703.618-3.349.98-4.936.083-.381.19-.756.319-1.124a5.935 5.935 0 011.04-1.882c3.629-4.275 11.9 1.689 14.554-3.964 0 0 4.599-10.388 16.832-15.315a34.061 34.061 0 016.265-1.842 41.567 41.567 0 0112.643-.407l1.211.14h.031l1.232.157c9.806 1.282 21.046 4.083 26.669 13.294a23.56 23.56 0 012.959 7.771c.7 3.501 1.443 7.089 2.186 10.843 1.443 7.176 2.881 14.956 4.119 23.795z" fill="#BF0830"/><path d="M231.345 131.959l25.462 17.63s45.712 6.66 58.058 2.07c14.112-5.251 27.39-16.593 27.39-16.593s-9.155-20.194-43.26-23.659c-3.965-.403-18.637.192-22.515.778-35.176 5.343-45.135 19.774-45.135 19.774z" fill="#BF0830"/><path d="M231.345 131.959c-1.605 2.477-.031 9.662 8.507 14.856 8.539 5.194 15.062 6.358 16.955 2.774 1.425-2.7-2.265-11.989-10.401-16.781-8.385-4.94-13.911-2.612-15.061-.849z" fill="#30262A"/><path d="M253.239 151.637c-.717.954-3.611 6.905-7.546 15.565h-24.854a4.683 4.683 0 01-3.949-2.159 4.696 4.696 0 01-.318-4.492 191.008 191.008 0 017.127-14.003c3.427-6.056 5.298-8.939 7.209-10.987.35-.372.699-.714 1.058-1.046a7.191 7.191 0 011.556-1.077c3.2-1.662 7.974-1.404 11.704 1.151.179.118.358.245.533.381 3.24 2.481 6.518 8.047 7.607 12.213.498 1.947.529 3.57-.127 4.454zm23.188-39.416c4.372 5.102 14.917 8.348 20.662 5.482 4.896-2.437 1.906-6.274 1.906-6.274-2.387-.057-5.334-3.75-5.535-6.127l-.236-2.927-.118-1.448-.385-4.639-.341-4.165-1.403-17.066-4.464 17.346-.761 2.958-2.623 10.191a9.284 9.284 0 01-6.623 6.634l-.079.035z" fill="#E0E0E0"/><path d="M285.73 95.36s2.868 5.046 7.376 5.536l-.385-4.638c-2.811-.56-6.991-.897-6.991-.897zm-14.26-20.163s1.08 2.67.371 8.599c-1.04 8.677 8.989 10.672 11.052 7.92.254-.337-2.339-14.418-2.339-14.418l-3.313-1.313-5.771-.788z" fill="#30262A"/><path d="M295.184 97.243c8.759-1.36 14.5-11.231 12.823-22.047-1.677-10.815-10.136-18.48-18.895-17.12-8.759 1.36-14.5 11.23-12.824 22.046 1.677 10.816 10.137 18.48 18.896 17.12z" fill="#E0E0E0"/><path d="M296.131 61.589c-.345.67 3.712 10.353-14.558 15.656-18.27 5.304-10.584-19.078 3.095-21.73 19.748-3.824 24.714 9.097 23.551 14.204-1.163 5.107-12.088-8.13-12.088-8.13z" fill="#30262A"/><path d="M283.108 73.714s-6.374 9.224-2.457 17.035c0 0-5.168-4.148-5.544-5.934-.376-1.785-.214-8.489-.214-8.489l8.215-2.612z" fill="#30262A"/><path d="M278.88 82.684c2.064 1.436 4.604 1.221 5.683-.481 1.08-1.702.263-4.245-1.801-5.689-2.063-1.444-4.599-1.22-5.683.482-1.084 1.702-.258 4.249 1.801 5.688z" fill="#E0E0E0"/><path d="M293.723 77.547a.368.368 0 00-.061-.691 3.933 3.933 0 00-4.512 1.75.366.366 0 00.092.508.4.4 0 00.511-.092 6.249 6.249 0 013.742-1.47.365.365 0 00.228-.005zm-2.239 4.411c.11.875.704 1.505 1.312 1.427.608-.08 1.049-.84.944-1.707-.105-.867-.699-1.505-1.311-1.427-.612.08-1.05.84-.945 1.707zm15.407-4.529a.366.366 0 00.205-.665 3.958 3.958 0 00-4.844-.083.367.367 0 00-.109.503.402.402 0 00.507.11 6.273 6.273 0 014.022.065c.064.046.14.07.219.07zm-3.764 3.225c-.232.84.074 1.659.686 1.825.612.166 1.29-.376 1.521-1.217.232-.84-.078-1.658-.686-1.829-.608-.17-1.272.377-1.521 1.221z" fill="#080435"/><path opacity=".3" d="M291.335 89.546c3.419-.212 5.939-4.468 5.628-9.507-.312-5.039-3.336-8.952-6.756-8.74-3.42.212-5.939 4.468-5.628 9.507.311 5.039 3.336 8.952 6.756 8.74zm9.605-11.019c-.174 4.814 2.134 9.6 5.155 10.66 3.021 1.059 5.618-2.009 5.793-6.84.175-4.83-2.134-9.626-5.155-10.659-3.021-1.033-5.605 2.026-5.793 6.84z" fill="#fff"/><path d="M285.202 76.025c-.048.14-.092.275-.131.437a.982.982 0 00-.04.123c-.026.078-.043.161-.065.249-.022.087-.04.14-.057.214l-.053.232c-.01.04-.019.079-.026.118.002.04.002.08 0 .119 0 .039 0 .078-.026.113l-.079.477c-.026.162-.043.315-.061.473v.131l.026.057v.061a.066.066 0 010 .04.066.066 0 010 .04c0 .047.035.095.053.14a12.36 12.36 0 01.148-1.615 10.8 10.8 0 01.324-1.466l-.013.056zm0 0c-.048.14-.092.275-.131.437a.982.982 0 00-.04.123c-.026.078-.043.161-.065.249-.022.087-.04.14-.057.214l-.053.232c-.01.04-.019.079-.026.118.002.04.002.08 0 .119 0 .039 0 .078-.026.113l-.079.477c-.026.162-.043.315-.061.473v.131l.026.057v.061a.066.066 0 010 .04.066.066 0 010 .04c0 .047.035.095.053.14a12.36 12.36 0 01.148-1.615 10.8 10.8 0 01.324-1.466l-.013.056zm0 0c-.048.14-.092.275-.131.437a.982.982 0 00-.04.123c-.026.078-.043.161-.065.249-.022.087-.04.14-.057.214l-.053.232c-.01.04-.019.079-.026.118.002.04.002.08 0 .119 0 .039 0 .078-.026.113l-.079.477c-.026.162-.043.315-.061.473v.096a.258.258 0 010 .04l.026.056v.062a.066.066 0 010 .039.066.066 0 010 .04c0 .048.035.096.053.14a12.358 12.358 0 01.148-1.615c.074-.496.182-.985.324-1.466l-.013.053zm0 0c-.048.14-.092.275-.131.437a.982.982 0 00-.04.123c-.026.078-.043.161-.065.249-.022.087-.04.14-.057.214l-.053.232c-.01.04-.019.079-.026.118.002.04.002.08 0 .119 0 .039 0 .078-.026.113l-.079.477c-.026.162-.043.315-.061.473v.144l.026.057v.061a.066.066 0 010 .04.066.066 0 010 .04c0 .047.035.095.053.14a12.357 12.357 0 01.148-1.615c.074-.496.182-.986.324-1.466l-.013.044zm12.814 3.627c0-.385-.053-.757-.101-1.138-.437-3.352-2.094-6.323-4.394-7.675a6.322 6.322 0 00-.874-.437 4.948 4.948 0 00-4.402.372c-1.749 1.023-3.061 2.988-3.677 5.495a12.789 12.789 0 00-.302 1.773c-.07.646-.092 1.297-.065 1.947.019.527.071 1.053.153 1.575.039.25.087.503.144.744a10.825 10.825 0 003.117 5.824 6.319 6.319 0 001.972 1.225 4.96 4.96 0 002.614.285 5.35 5.35 0 001.788-.652 7.876 7.876 0 003.244-4.127c.301-.802.52-1.633.652-2.48.13-.904.168-1.82.113-2.731h.018zm-.735 2.652a11.61 11.61 0 01-.621 2.354 8.461 8.461 0 01-1.425 2.476v.031a5.91 5.91 0 01-1.53 1.313 4.367 4.367 0 01-3.882.324 5.786 5.786 0 01-2.02-1.313c-1.478-1.427-2.496-3.632-2.855-6.091a19.09 19.09 0 01-.113-1.147 6.998 6.998 0 010-1.102c.013-.55.062-1.098.148-1.641.074-.496.182-.986.324-1.466a7.13 7.13 0 01.258-.779.108.108 0 010-.044.26.26 0 000-.04.319.319 0 010-.043 8.4 8.4 0 01.647-1.37c.547-1 1.346-1.84 2.317-2.437a4.404 4.404 0 013.882-.323c.229.088.451.193.664.314 2.235 1.226 3.83 4.105 4.237 7.37.054.38.086.765.096 1.15.029.824-.019 1.649-.144 2.464h.017zm-12.079-6.28c-.048.14-.092.276-.131.438a.982.982 0 00-.04.123c-.026.078-.043.161-.065.249-.022.087-.04.14-.057.214l-.053.232c-.01.04-.019.079-.026.118.002.04.002.08 0 .119 0 .039 0 .078-.026.113l-.079.477c-.026.162-.043.315-.061.473v.14l.026.057v.061a.066.066 0 010 .04.066.066 0 010 .039c0 .048.035.096.053.14a12.357 12.357 0 01.148-1.615c.074-.495.182-.985.324-1.466l-.013.049zm0 0c-.048.14-.092.276-.131.438a.982.982 0 00-.04.123c-.026.078-.043.161-.065.249-.022.087-.04.14-.057.214l-.053.232c-.01.04-.019.079-.026.118.002.04.002.08 0 .119 0 .039 0 .078-.026.113l-.079.477c-.026.162-.043.315-.061.473v.131l.026.057v.061a.066.066 0 010 .04.066.066 0 010 .04c0 .047.035.095.053.14a12.36 12.36 0 01.148-1.615 10.8 10.8 0 01.324-1.466l-.013.056zm0 0c-.048.14-.092.276-.131.438a.982.982 0 00-.04.123c-.026.078-.043.161-.065.249-.022.087-.04.14-.057.214l-.053.232c-.01.04-.019.079-.026.118.002.04.002.08 0 .119 0 .039 0 .078-.026.113l-.079.477c-.026.162-.043.315-.061.473v.131l.026.057v.061a.066.066 0 010 .04.066.066 0 010 .04c0 .047.035.095.053.14a12.36 12.36 0 01.148-1.615 10.8 10.8 0 01.324-1.466l-.013.056zm15.845.001c-.048.14-.092.275-.131.437a.982.982 0 00-.04.123c-.026.078-.043.161-.065.249-.022.087-.039.14-.057.214l-.052.232a1.33 1.33 0 00-.027.118c.002.04.002.08 0 .119 0 .039 0 .078-.026.113l-.079.477c-.026.162-.043.315-.061.473v.131l.026.057v.061a.066.066 0 010 .04.066.066 0 010 .04c0 .047.035.095.053.14a12.361 12.361 0 01.149-1.615c.074-.496.182-.986.323-1.466l-.013.056zm0 0c-.048.14-.092.275-.131.437a.982.982 0 00-.04.123c-.026.078-.043.161-.065.249-.022.087-.039.14-.057.214l-.052.232a1.33 1.33 0 00-.027.118c.002.04.002.08 0 .119 0 .039 0 .078-.026.113l-.079.477c-.026.162-.043.315-.061.473v.131l.026.057v.061a.066.066 0 010 .04.066.066 0 010 .04c0 .047.035.095.053.14a12.361 12.361 0 01.149-1.615c.074-.496.182-.986.323-1.466l-.013.056zm0 0c-.048.14-.092.275-.131.437a.982.982 0 00-.04.123c-.026.078-.043.161-.065.249-.022.087-.039.14-.057.214l-.052.232a1.33 1.33 0 00-.027.118c.002.04.002.08 0 .119 0 .039 0 .078-.026.113l-.079.477c-.026.162-.043.315-.061.473v.096a.13.13 0 010 .04l.026.056v.062a.066.066 0 010 .039.066.066 0 010 .04c0 .048.035.096.053.14a12.36 12.36 0 01.149-1.615c.074-.496.182-.985.323-1.466l-.013.053zm0 0c-.048.14-.092.275-.131.437a.982.982 0 00-.04.123c-.026.078-.043.161-.065.249-.022.087-.039.14-.057.214l-.052.232a1.33 1.33 0 00-.027.118c.002.04.002.08 0 .119 0 .039 0 .078-.026.113l-.079.477c-.026.162-.043.315-.061.473v.144l.026.057v.061a.066.066 0 010 .04.066.066 0 010 .04c0 .047.035.095.053.14a12.358 12.358 0 01.149-1.615c.074-.496.182-.986.323-1.466l-.013.044zm12.814 3.627c0-.385-.053-.757-.101-1.138-.437-3.352-2.094-6.323-4.393-7.675a6.334 6.334 0 00-.875-.437 4.948 4.948 0 00-4.402.372c-1.749 1.023-3.06 2.988-3.677 5.495a12.787 12.787 0 00-.302 1.773 13.328 13.328 0 00-.065 1.947c.02.527.071 1.053.153 1.575.039.25.087.503.144.744a10.825 10.825 0 003.117 5.824 6.319 6.319 0 001.972 1.225 4.96 4.96 0 002.614.285 5.35 5.35 0 001.788-.652 7.876 7.876 0 003.244-4.127c.302-.802.52-1.633.652-2.48.13-.904.168-1.82.113-2.731h.018zm-.735 2.652a11.674 11.674 0 01-.62 2.354 8.487 8.487 0 01-1.426 2.476v.031a5.893 5.893 0 01-1.53 1.313 4.367 4.367 0 01-3.882.324 5.786 5.786 0 01-2.02-1.313c-1.477-1.427-2.496-3.632-2.855-6.091a19.09 19.09 0 01-.113-1.147 7.12 7.12 0 010-1.102c.013-.55.062-1.098.148-1.641.074-.496.182-.986.324-1.466a7.13 7.13 0 01.258-.779.108.108 0 010-.044.26.26 0 000-.04.319.319 0 010-.043 8.44 8.44 0 01.647-1.37 6.56 6.56 0 012.317-2.437 4.404 4.404 0 013.882-.323c.229.088.451.193.665.314 2.234 1.226 3.829 4.105 4.236 7.37.054.38.086.765.096 1.15.029.824-.019 1.649-.144 2.464h.017zm-12.079-6.28c-.048.14-.092.276-.131.438a.982.982 0 00-.04.123c-.026.078-.043.161-.065.249-.022.087-.039.14-.057.214l-.052.232a1.33 1.33 0 00-.027.118c.002.04.002.08 0 .119 0 .039 0 .078-.026.113l-.079.477c-.026.162-.043.315-.061.473v.14l.026.057v.061a.066.066 0 010 .04.066.066 0 010 .039c0 .048.035.096.053.14a12.358 12.358 0 01.149-1.615c.074-.495.182-.985.323-1.466l-.013.049zm0 0c-.048.14-.092.276-.131.438a.982.982 0 00-.04.123c-.026.078-.043.161-.065.249-.022.087-.039.14-.057.214l-.052.232a1.33 1.33 0 00-.027.118c.002.04.002.08 0 .119 0 .039 0 .078-.026.113l-.079.477c-.026.162-.043.315-.061.473v.131l.026.057v.061a.066.066 0 010 .04.066.066 0 010 .04c0 .047.035.095.053.14a12.361 12.361 0 01.149-1.615c.074-.496.182-.986.323-1.466l-.013.056zm0 0c-.048.14-.092.276-.131.438a.982.982 0 00-.04.123c-.026.078-.043.161-.065.249-.022.087-.039.14-.057.214l-.052.232a1.33 1.33 0 00-.027.118c.002.04.002.08 0 .119 0 .039 0 .078-.026.113l-.079.477c-.026.162-.043.315-.061.473v.131l.026.057v.061a.066.066 0 010 .04.066.066 0 010 .04c0 .047.035.095.053.14a12.361 12.361 0 01.149-1.615c.074-.496.182-.986.323-1.466l-.013.056z" fill="#30262A"/><path d="M298.886 91.488a5.68 5.68 0 01-3.738-1.391.186.186 0 01.24-.284c3.327 2.796 7.069.293 7.227.183a.183.183 0 01.262.048.195.195 0 01.029.141.194.194 0 01-.077.122 7.794 7.794 0 01-3.943 1.181z" fill="#020202"/><path d="M294.951 90.863a.191.191 0 01-.188-.184 2.501 2.501 0 01.721-1.628l.027-.03a.192.192 0 01.311.018c.012.02.021.044.025.068a.195.195 0 01-.004.072.178.178 0 01-.031.065l-.039.052c-.374.362-.599.85-.634 1.37a.198.198 0 01-.012.072.192.192 0 01-.171.12l-.005.005z" fill="#020202"/><path d="M301.579 79.954a.562.562 0 00.477-.458.568.568 0 00-.285-.597c-.087-.048-2.186-1.181-5.093-.022a.571.571 0 00.437 1.055c2.422-.967 4.105-.053 4.118-.044.105.06.227.083.346.066zM280.83 59.76s-3.467-12.497-14.48-9.299c-11.012 3.199-7.733 9.19-6.483 13.053.931 2.87 6.199 6.879 11.616 5.627 5.417-1.251 9.347-9.381 9.347-9.381zm-5.198 39.911a.344.344 0 01-.293-.154.344.344 0 010-.388 15.766 15.766 0 016.724-5.295.35.35 0 01.457.195.354.354 0 01-.195.457 15.33 15.33 0 00-6.4 5.032.358.358 0 01-.293.153z" fill="#30262A"/><path d="M173.536 271.922a12.669 12.669 0 00-4.463.359 1.28 1.28 0 01-1.67-1.313v-47.35a19.235 19.235 0 00-5.624-13.589 19.18 19.18 0 00-6.23-4.166 19.179 19.179 0 00-7.348-1.463H96.893a2.489 2.489 0 00-2.124 1.208 2.487 2.487 0 00-.062 2.445 12.579 12.579 0 01-.164 12.431 12.56 12.56 0 01-10.762 6.207 12.542 12.542 0 01-10.828-6.091 12.577 12.577 0 01-.297-12.428 2.586 2.586 0 00-1.034-3.446 2.567 2.567 0 00-1.27-.326h-51.15a19.189 19.189 0 00-13.578 5.629A19.226 19.226 0 000 223.618v129.124a19.232 19.232 0 005.625 13.588 19.196 19.196 0 0013.576 5.63H148.21a19.197 19.197 0 0013.578-5.632 19.23 19.23 0 005.623-13.591v-54.325a1.758 1.758 0 01.644-1.363 1.75 1.75 0 011.464-.356c.912.204 1.845.307 2.78.306a12.559 12.559 0 0011.844-8.383c.574-1.627.808-3.355.686-5.077-.407-5.723-5.587-11.066-11.293-11.617z" fill="#1A2578"/><path d="M146.4 371.711h-24.963a747.347 747.347 0 00-4.499-16.033c-1.63-5.53-2.811-9.189-3.222-9.946-1.643-3.063 4.669-12.457 9.898-15.315a9.959 9.959 0 012.908-1.115c3.222-.635 5.438 1.198 7.532 3.798 1.548 1.929 4.744 3.5 7.467 7.753a23.485 23.485 0 012.156 4.328 191.749 191.749 0 016.702 21.441 4.12 4.12 0 01-2.185 4.672 4.102 4.102 0 01-1.794.417z" fill="#fff"/><path d="M135.781 371.711H46.507S42.918 358.96 43.617 353a133.82 133.82 0 011.124-7.819c.292-1.701.618-3.347.98-4.94.085-.381.192-.756.319-1.125a6.022 6.022 0 011.04-1.881c3.633-4.275 11.9 1.689 14.559-3.96 0 0 4.594-10.393 16.827-15.316a33.8 33.8 0 016.27-1.846 41.414 41.414 0 0112.638-.407l1.211.14h.035l1.228.153c9.807 1.287 21.051 4.087 26.669 13.298a23.667 23.667 0 012.955 7.767c.7 3.501 1.443 7.093 2.186 10.847 1.447 7.181 2.903 14.961 4.123 23.8z" fill="#BF0830"/><path d="M32.164 336.469l25.457 17.63s45.712 6.655 58.059 2.07c14.112-5.251 27.394-16.593 27.394-16.593s-9.159-20.194-43.26-23.66c-3.97-.402-18.641.188-22.52.779-35.17 5.343-45.13 19.774-45.13 19.774z" fill="#BF0830"/><path d="M32.163 336.469c-1.608 2.472-.03 9.662 8.508 14.855 8.538 5.194 15.057 6.358 16.95 2.775 1.43-2.7-2.26-11.99-10.4-16.781-8.386-4.94-13.912-2.613-15.057-.849z" fill="#30262A"/><path d="M54.054 356.146c-.713.95-3.611 6.901-7.546 15.565h-24.85a4.694 4.694 0 01-4.683-4.364 4.702 4.702 0 01.412-2.287 186.688 186.688 0 017.13-14.002c3.428-6.061 5.295-8.94 7.21-10.988.345-.372.695-.713 1.058-1.046a7.005 7.005 0 011.552-1.076c3.2-1.663 7.978-1.405 11.703 1.146.18.123.358.25.533.385 3.24 2.477 6.523 8.047 7.607 12.213.499 1.947.53 3.571-.126 4.454zm21.754-39.162a9.902 9.902 0 008.058-5.899l4.428-10.296 1.286-2.989 7.554-17.568-1.311 18.207-.792 10.939-.223 3.116a4.974 4.974 0 004.101 5.251h.044c1.342 2.188 3.2 6.638-2.348 8.406-6.523 2.078-17.05-3.063-20.858-9.15l.061-.017z" fill="#fff"/><path d="M88.272 300.487v.302c.437 5.868 6.707 8.612 6.707 8.612l.035-.035.79-10.94c-1.918-.704-4.65-1.426-6.246-.638-.814.424-1.343 1.247-1.286 2.699z" fill="#30262A"/><path d="M97.96 304.246c9.441 0 17.095-9.449 17.095-21.105 0-11.655-7.654-21.104-17.094-21.104-9.441 0-17.094 9.449-17.094 21.104 0 11.656 7.653 21.105 17.094 21.105z" fill="#fff"/><path d="M107.172 296.798a37.06 37.06 0 01-11.678-1.916s-.485 5.758 5.837 6.126c3.655.245 5.841-4.21 5.841-4.21z" fill="#fff"/><path d="M99.613 283.348a.388.388 0 00.257-.531.394.394 0 00-.213-.209 4.215 4.215 0 00-5.032 1.125.398.398 0 000 .551.438.438 0 00.55 0 6.679 6.679 0 014.18-.941.393.393 0 00.258.005zm-3.073 4.275c-.031.927.489 1.697 1.162 1.719.674.022 1.242-.713 1.273-1.641.03-.927-.49-1.697-1.163-1.719-.674-.022-1.242.713-1.273 1.641zm16.953-2.25c.06.008.121.002.178-.017a.397.397 0 00.15-.648 4.209 4.209 0 00-5.08-.875.393.393 0 00-.197.516.435.435 0 00.512.197 6.616 6.616 0 014.223.727.368.368 0 00.214.1zm-4.472 2.783c-.381.845-.193 1.751.437 2.031.629.28 1.416-.184 1.797-1.033.38-.849.192-1.75-.438-2.03-.629-.28-1.416.183-1.796 1.032z" fill="#080435"/><path d="M108.68 305.637a8.524 8.524 0 01-3.996-1.015.436.436 0 01.437-.748 6.936 6.936 0 008.486-1.313c3.9-3.938 1.185-8.248 1.067-8.428a.441.441 0 01.127-.608.436.436 0 01.607.127c.031.053 3.227 5.054-1.18 9.522a7.629 7.629 0 01-5.548 2.463z" fill="#74BBFB"/><path d="M92.744 268.207c.617 3.82-.363 6.787 11.367 9.627 0 0 1.932 1.278 2.042-.801.109-2.078-2.833-5.251-1.255-7.662 0 0 8.429 17.464 11.236 13.766 2.806-3.697 6.487-15.66 0-22.959-6.488-7.299-26.84-8.861-30.25-2.919-5.014 8.76 6.335 7.68 6.86 10.948z" fill="#30262A"/><path d="M85.557 261.272s5.168 1.286 4.94 3.601c-.227 2.315 3.41 6.682 0 8.143-3.41 1.462-4.24 2.337-4.227 4.897 0 1.785-3.109 5.723-4.228 9.303-.485 1.557.437 4.857.437 4.857s-13.058-4.411-10.724-19.328c1.513-9.71 10.532-12.79 13.802-11.473z" fill="#30262A"/><path d="M81.19 286.327c1.936 1.847 4.642 2.039 6.046.438 1.403-1.602.97-4.424-.962-6.275s-4.647-2.039-6.05-.438c-1.404 1.602-.971 4.424.966 6.275z" fill="#fff"/><path d="M82.912 301.165a6.674 6.674 0 01-1.084-.087c-3.025-.486-5.587-2.805-5.71-5.172-.227-4.328 4.032-7.767 4.21-7.912a.428.428 0 01.486-.04.44.44 0 01.061.727c-.043.035-4.088 3.309-3.882 7.177.1 1.947 2.378 3.938 4.975 4.375 2.93.469 5.351-1.168 6.645-4.493.945-2.429.971-4.529.08-6.245-1.457-2.796-4.88-3.667-4.915-3.675a.447.447 0 01-.281-.196.432.432 0 01.02-.496.446.446 0 01.297-.171.427.427 0 01.174.014c.153.035 3.847.976 5.482 4.122 1.01 1.947.997 4.292-.039 6.966-1.692 4.328-4.63 5.106-6.519 5.106z" fill="#74BBFB"/><path d="M75.75 260.182a.433.433 0 01-.425-.324.437.437 0 01.207-.494 7.033 7.033 0 017.402 0 .44.44 0 01.128.622.44.44 0 01-.627.096 6.173 6.173 0 00-6.466 0 .436.436 0 01-.218.1zm7.98-1.606a.437.437 0 01-.437-.437c0-.127 0-3.142 1.377-4.284a.437.437 0 01.555.678c-.874.726-1.062 2.844-1.058 3.597a.437.437 0 01-.437.438v.008z" fill="#30262A"/><g filter="url(#filter0_d_1_90251)"><path d="M574.527 347.054c0 2.524-.497 5.023-1.463 7.355a19.212 19.212 0 01-10.394 10.401 19.168 19.168 0 01-7.349 1.462H426.316a19.191 19.191 0 01-13.575-5.627 19.229 19.229 0 01-5.626-13.587v-53.436a2.866 2.866 0 012.327-2.8 2.851 2.851 0 011.302.056 12.543 12.543 0 0010.82-2.084 12.565 12.565 0 005.011-9.822 12.577 12.577 0 00-4.656-9.995 12.546 12.546 0 00-10.738-2.472 3.29 3.29 0 01-2.805-.621 3.296 3.296 0 01-1.256-2.586v-45.364c0-5.097 2.023-9.985 5.623-13.589a19.194 19.194 0 0113.578-5.629h51.15a2.585 2.585 0 012.216 1.235 2.577 2.577 0 01.088 2.537 12.58 12.58 0 005.454 17.207 12.557 12.557 0 006.499 1.294 12.558 12.558 0 0010.141-6.535 12.586 12.586 0 00-.033-12.071 2.483 2.483 0 01.052-2.455 2.476 2.476 0 012.134-1.212h51.303a19.195 19.195 0 0117.74 11.864 19.234 19.234 0 011.462 7.354v129.12z" fill="#fff"/></g><path d="M429.914 365.902h24.964c1.674-6.192 3.222-11.692 4.503-16.028 1.626-5.536 2.807-9.189 3.217-9.951 1.644-3.063-4.669-12.458-9.893-15.315a10.19 10.19 0 00-2.907-1.116c-3.227-.634-5.443 1.204-7.537 3.803-1.548 1.925-4.744 3.5-7.467 7.754a23.38 23.38 0 00-2.156 4.323 191.683 191.683 0 00-6.702 21.441 4.115 4.115 0 00.752 3.514 4.104 4.104 0 003.226 1.575z" fill="#D6D6D6"/><path d="M440.542 365.902h89.274s3.593-12.751 2.894-18.711a136.406 136.406 0 00-1.128-7.82 93.477 93.477 0 00-.979-4.935 9.74 9.74 0 00-.319-1.125 5.948 5.948 0 00-1.041-1.882c-3.629-4.275-11.9 1.69-14.558-3.964 0 0-4.595-10.388-16.827-15.315a34.107 34.107 0 00-6.265-1.842 41.574 41.574 0 00-12.644-.407l-1.211.14h-.035l-1.233.157c-9.806 1.282-21.05 4.083-26.668 13.294a23.593 23.593 0 00-2.96 7.771c-.699 3.501-1.442 7.089-2.186 10.843-1.447 7.177-2.903 14.957-4.114 23.796z" fill="#BF0830"/><path d="M544.156 330.66l-25.462 17.63s-45.712 6.659-58.058 2.069c-14.113-5.251-27.39-16.593-27.39-16.593s9.155-20.194 43.281-23.659c3.966-.403 18.638.192 22.515.779 35.155 5.342 45.114 19.774 45.114 19.774z" fill="#BF0830"/><path d="M544.156 330.659c1.609 2.477.035 9.662-8.503 14.878-8.539 5.216-15.061 6.358-16.954 2.774-1.426-2.7 2.264-11.989 10.4-16.781 8.381-4.962 13.907-2.634 15.057-.871z" fill="#30262A"/><path d="M522.261 350.337c.712.954 3.611 6.901 7.546 15.565h24.841a4.694 4.694 0 004.683-4.364 4.698 4.698 0 00-.412-2.287 191.402 191.402 0 00-7.126-14.003c-3.428-6.056-5.299-8.939-7.214-10.987a19.943 19.943 0 00-1.053-1.046 7.158 7.158 0 00-1.557-1.076c-3.2-1.663-7.978-1.405-11.703 1.15a9.348 9.348 0 00-.534.381c-3.239 2.481-6.522 8.047-7.607 12.213-.489 1.969-.52 3.57.136 4.454z" fill="#D6D6D6"/><path d="M461.768 302.252l.123-.381c-.044 0-4.298-1.4-5.303-4.45-.521-1.584-.084-3.356 1.311-5.251.651-.901 1.25-1.715 1.801-2.459 3.782-5.137 5.198-7.058 4.604-11.539l-.394.053c.573 4.323-.712 6.069-4.529 11.25-.551.744-1.15 1.557-1.801 2.459-1.465 2.026-1.924 3.938-1.36 5.631 1.058 3.225 5.369 4.63 5.548 4.687z" fill="#30262A"/><path d="M464.098 278.181s.993 6.944-4.066 13.753c-5.058 6.809-.529 12.401 5.802 10.112 6.33-2.288 8.079 5.689 16.232 1.974 8.154-3.715-17.968-25.839-17.968-25.839z" fill="#30262A"/><path d="M490.767 304.912l-3.498-10.116-1.01-2.937-5.932-17.271-.057 17.429-.031 10.462v2.98c.062 4.013-3.794 4.726-3.794 4.726-1.434 1.987-4.049 6.065 1.106 8.148 6.059 2.446 16.993-1.982 21.033-7.509-.013 0-6.707-2.682-7.817-5.912z" fill="#D6D6D6"/><path d="M487.321 294.511c0 .092-.022.188-.039.285-.831 5.557-6.995 7.714-6.995 7.714l-.035-.03.03-10.463c1.88-.529 4.53-1.024 5.994-.157.77.45 1.207 1.295 1.045 2.651z" fill="#A6A6A6"/><path d="M463.076 276.089c.835-11.096 8.796-19.542 17.784-18.863 8.989.678 15.595 10.221 14.76 21.318-.835 11.097-8.796 19.542-17.785 18.864-8.989-.678-15.594-10.235-14.759-21.319z" fill="#D6D6D6"/><path d="M493.215 281.397c-1.976 1.619-4.569 1.606-5.789-.03-1.219-1.637-.607-4.284 1.369-5.908 1.976-1.623 4.568-1.61 5.788.031 1.22 1.641.608 4.284-1.368 5.907z" fill="#D6D6D6"/><path d="M469.607 289.654a35.39 35.39 0 0011.253-.989s.048 5.518-5.998 5.431c-3.519-.066-5.255-4.442-5.255-4.442z" fill="#1A2578"/><path d="M469.607 289.654s1.259 1.217 4.398 1.44c3.139.223 6.855-2.429 6.855-2.429s-6.837 1.326-11.253.989z" fill="#fff"/><path d="M477.76 277.376a.359.359 0 01-.232-.236.371.371 0 01.241-.469 4.022 4.022 0 014.712 1.431.375.375 0 01-.052.525.408.408 0 01-.525-.052 6.318 6.318 0 00-3.934-1.19.394.394 0 01-.21-.009zm2.619 4.293c-.035.875-.59 1.584-1.228 1.553-.638-.031-1.132-.766-1.097-1.654.034-.888.59-1.58 1.232-1.553.643.026 1.133.77 1.093 1.654zm-15.974-3.356a.368.368 0 01-.39-.404.375.375 0 01.132-.253 4.02 4.02 0 014.896-.472.377.377 0 01.153.503.404.404 0 01-.503.153 6.333 6.333 0 00-4.07.389.39.39 0 01-.218.084zm4.056 2.97c.302.832.057 1.685-.55 1.904-.608.219-1.338-.28-1.64-1.112-.302-.831-.057-1.689.551-1.907.608-.219 1.338.297 1.639 1.115z" fill="#080435"/><path d="M473.677 260.337s-.175 7.001 8.433 8.839 14.331 5.981 12.679 12.164c-1.653 6.183-16.64 18.138-6.716 23.953 9.924 5.815 8.438-3.746 19.446-.722 11.009 3.024 14.148-11.758 7.109-21.003-7.039-9.246-2.186-31.943-31.123-33.099-28.938-1.155-20.111 22.676-20.111 22.676s9.719-5.111 10.283-12.808z" fill="#30262A"/><path d="M490.955 306.803c-2.103-1.037-3.341-2.446-3.673-4.179-.914-4.77 5.058-11.425 10.331-17.293 1.386-1.545 2.697-3.002 3.869-4.402 3.244-3.881 3.852-8.563 1.622-12.523-2.448-4.341-7.568-6.485-13.36-5.593-5.793.893-9.592-.595-11.774-1.995a10.606 10.606 0 01-3.401-3.304l.205-.113c.04.065 4.04 6.856 14.93 5.18 5.898-.91 11.109 1.278 13.605 5.689 2.243 3.986 1.614 8.887-1.648 12.79-1.171 1.4-2.483 2.862-3.873 4.407-5.246 5.828-11.166 12.435-10.274 17.091.323 1.681 1.482 2.993 3.545 4.013l-.104.232z" fill="#fff"/><path d="M462.839 291.12c-2.374-1.085-4.324-3.938-5.202-7.657-1.434-6.052.38-12.519 4.043-14.44a4.666 4.666 0 014.259-.101c2.374 1.085 4.323 3.938 5.202 7.649 1.434 6.038-.38 12.519-4.044 14.44a4.643 4.643 0 01-2.544.547 5.087 5.087 0 01-1.714-.438zm7.594-14.352c-.826-3.501-2.623-6.17-4.809-7.163a4.029 4.029 0 00-3.62.074c-3.393 1.75-5.036 7.876-3.672 13.613.826 3.5 2.623 6.17 4.809 7.167a4.042 4.042 0 003.615-.074c3.393-1.777 5.041-7.876 3.677-13.617z" fill="#1A2578"/><path opacity=".3" d="M490.246 274.173c.874 5.837-1.679 11.841-5.683 13.407-4.005 1.567-7.988-1.89-8.862-7.723-.874-5.833 1.679-11.815 5.683-13.407 4.005-1.593 7.988 1.89 8.862 7.723zm-18.996 2.91c.875 5.863-1.338 11.981-4.94 13.665-3.602 1.685-7.24-1.702-8.114-7.561-.875-5.859 1.338-11.981 4.94-13.665 3.602-1.685 7.24 1.702 8.114 7.561z" fill="#fff"/><path d="M479.128 287.252c-2.408-1.405-4.113-4.293-4.673-7.925-.962-6.235 1.854-12.689 6.282-14.37a5.99 5.99 0 015.282.438c2.404 1.4 4.1 4.288 4.656 7.911.966 6.249-1.85 12.69-6.283 14.37a5.938 5.938 0 01-2.623.412 6.206 6.206 0 01-2.641-.836zm1.863-21.621c-4.118 1.575-6.728 7.667-5.819 13.565.52 3.365 2.138 6.126 4.324 7.413a5.413 5.413 0 004.643.38c4.122-1.575 6.732-7.666 5.823-13.565-.516-3.36-2.129-6.126-4.311-7.403a5.28 5.28 0 00-4.66-.394v.004z" fill="#1A2578"/><path d="M470.324 279.174a.67.67 0 00.437-.127c.079-.057 1.937-1.312 4.918-.494a.7.7 0 00.835-.473.65.65 0 00-.063-.514.665.665 0 00-.413-.313c-3.594-1.037-5.955.617-6.06.683a.676.676 0 00-.153.945.639.639 0 00.216.204.644.644 0 00.283.089z" fill="#1A2578"/><path d="M555.927 0H426.918a19.193 19.193 0 00-13.576 5.627 19.225 19.225 0 00-5.625 13.587v45.363a3.314 3.314 0 001.256 2.587 3.298 3.298 0 002.805.625 12.553 12.553 0 0114.24 6.925 12.577 12.577 0 01-3.844 15.373 12.554 12.554 0 01-10.833 2.075 2.85 2.85 0 00-3.328 1.474c-.197.394-.3.829-.301 1.27v53.432a19.234 19.234 0 005.624 13.589 19.195 19.195 0 0013.578 5.629h49.454a2.853 2.853 0 012.829 2.971c-.013.526.004 1.052.052 1.575a12.579 12.579 0 004.296 8.281 12.552 12.552 0 0017.292-.843 12.577 12.577 0 003.472-8.659v-.573a2.596 2.596 0 011.543-2.534 2.578 2.578 0 011.023-.218h49.056c5.093 0 9.978-2.025 13.579-5.629a19.229 19.229 0 005.627-13.589V19.214a19.221 19.221 0 00-11.86-17.755A19.178 19.178 0 00555.927 0z" fill="#F5F6FC"/><path d="M486.121 188.853h-.725a12.898 12.898 0 01-12.045-11.561c-.05-.534-.067-1.07-.052-1.606a2.65 2.65 0 00-.748-1.934 2.528 2.528 0 00-.832-.573 2.519 2.519 0 00-.991-.197h-49.45a19.476 19.476 0 01-13.756-5.712 19.51 19.51 0 01-5.707-13.769v-53.45a3.052 3.052 0 011.215-2.463 3.121 3.121 0 012.741-.534 12.289 12.289 0 0014.176-6.272 12.317 12.317 0 00-3.214-15.176 12.293 12.293 0 00-10.525-2.417 3.56 3.56 0 01-4.015-1.917 3.594 3.594 0 01-.357-1.549V24.36a19.51 19.51 0 015.709-13.766 19.476 19.476 0 0113.755-5.71h129.009a19.472 19.472 0 0113.753 5.71 19.508 19.508 0 015.706 13.766v129.119a19.516 19.516 0 01-5.707 13.77 19.481 19.481 0 01-13.757 5.715h-49.082a2.262 2.262 0 00-1.649.705 2.405 2.405 0 00-.655 1.75v.582c0 3.401-1.35 6.663-3.752 9.069a12.814 12.814 0 01-9.058 3.761l.013.022zm-81.189-91.392a2.62 2.62 0 00-1.587.542 2.547 2.547 0 00-1.006 2.048v53.432a18.987 18.987 0 005.552 13.399 18.947 18.947 0 0013.387 5.557h49.45a3.066 3.066 0 012.186.928 3.166 3.166 0 01.874 2.315 12.98 12.98 0 00.053 1.54 12.386 12.386 0 003.74 7.669 12.364 12.364 0 007.81 3.423 12.284 12.284 0 009.137-3.347 12.316 12.316 0 003.848-8.944v-.56a2.949 2.949 0 01.8-2.153 2.777 2.777 0 012.028-.875h49.061a18.958 18.958 0 0013.389-5.56 18.987 18.987 0 005.554-13.4V24.36a18.988 18.988 0 00-5.548-13.389 18.955 18.955 0 00-13.373-5.563H421.278a18.95 18.95 0 00-13.387 5.558 18.986 18.986 0 00-5.552 13.398v45.368a3.04 3.04 0 001.152 2.385 3.031 3.031 0 002.586.568 12.805 12.805 0 0112.558 4.055 12.828 12.828 0 013.053 10.144 12.842 12.842 0 01-5.61 8.983 12.807 12.807 0 01-10.447 1.699 2.75 2.75 0 00-.699-.105z" fill="#30262A"/><path d="M477.691 103.91s-2.36-10.545 2.772-16.925c5.133-6.38 21.663-14.26 18.436-23.31-3.226-9.049-14.387-10.134-18.86-5.758-4.472 4.376-1.972 9.128-4.988 9.718-3.017.591-20.548 1.423-19.276-8.65 1.273-10.073 12.513-24.115 27.482-24.588 14.969-.472 34.874-.271 39.198 19.254 4.324 19.524-3.06 27.182-13.645 32.218-10.584 5.037-5.661 16.479-9.504 18.05-3.843 1.571-21.16 3.4-21.615-.009zm-3.772 19.643c1.149-8.073 5.862-13.127 13.115-13.127s13.26 3.719 15.079 13.039c1.39 7.106-7.843 13.18-15.079 13.18-7.235 0-14.147-5.934-13.115-13.092z" fill="#BF0830"/><path d="M481.377 106.772c-2.763 0-5.154-.271-6.361-.971a1.478 1.478 0 01-.826-1.042 29.175 29.175 0 01-.538-6.086c.044-3.15.66-7.601 3.331-10.918 1.592-1.982 4.28-4.104 7.122-6.353 6.33-5.006 13.505-10.677 11.297-16.86a12.11 12.11 0 00-8.884-7.876c-3.764-.876-7.611 0-9.806 2.14-2.343 2.305-2.745 4.66-3.06 6.563-.276 1.619-.49 2.897-1.976 3.19-2.575.503-13.076.989-17.488-3.146-1.556-1.453-2.186-3.343-1.906-5.614 1.277-9.981 12.386-24.194 27.574-24.67 7.572-.241 16.267-.29 23.608 2.13 8.612 2.831 13.74 8.454 15.673 17.188 2.024 9.12 1.617 16.19-1.238 21.603-2.334 4.428-6.177 7.736-12.459 10.72-6.558 3.116-7.122 8.752-7.542 12.865-.258 2.556-.468 4.577-1.967 5.19-2.125.888-9.076 1.947-14.554 1.947zm2.208-50.605c1.002 0 2.001.114 2.977.341a12.332 12.332 0 019.028 7.973c2.251 6.314-4.98 12.033-11.367 17.065-2.833 2.24-5.513 4.376-7.091 6.323-2.623 3.273-3.244 7.68-3.288 10.795a29.003 29.003 0 00.534 6.047 1.275 1.275 0 00.725.902c3.38 1.96 17.142.503 20.762-.981 1.395-.568 1.592-2.533 1.845-5.027.437-4.157 1.006-9.855 7.655-13.018 6.239-2.971 10.056-6.249 12.368-10.638 2.833-5.373 3.231-12.396 1.224-21.471-4.14-18.685-22.353-19.691-39.101-19.162-15.088.473-26.118 14.589-27.386 24.504a6.007 6.007 0 00.23 2.96 6.007 6.007 0 001.615 2.488c4.372 4.078 14.755 3.593 17.313 3.094 1.346-.267 1.547-1.427 1.818-3.032.306-1.816.731-4.31 3.122-6.66 1.661-1.628 4.241-2.503 7.017-2.503zm.017 81.419a14.127 14.127 0 01-10.558-4.787 10.509 10.509 0 01-2.623-8.437h.101-.101c1.18-8.266 6.121-13.197 13.199-13.197 8.136 0 13.522 4.66 15.179 13.127.476 2.438-.258 4.923-2.125 7.194-2.973 3.588-8.328 6.1-13.072 6.1zm0-26.224c-3.497 0-6.514 1.208-8.744 3.501-2.229 2.292-3.672 5.544-4.24 9.53a10.318 10.318 0 002.588 8.283 13.95 13.95 0 0010.414 4.717c4.673 0 9.981-2.481 12.901-6.034 1.827-2.218 2.549-4.651 2.085-7.032-1.652-8.362-6.973-12.965-15.004-12.965z" fill="#30262A"/><path d="M362.225 291.316c-.936.001-1.87-.102-2.784-.307a1.75 1.75 0 00-2.108 1.72v54.325a19.217 19.217 0 01-19.205 19.218H209.132a19.185 19.185 0 01-13.577-5.626 19.22 19.22 0 01-5.624-13.588v-53.436a2.863 2.863 0 011.132-2.271 2.854 2.854 0 012.492-.473 12.545 12.545 0 0010.833-2.075 12.58 12.58 0 003.844-15.372 12.569 12.569 0 00-8.579-6.939 12.554 12.554 0 00-5.661.013 3.29 3.29 0 01-2.807-.619 3.3 3.3 0 01-1.254-2.588v-45.364a19.233 19.233 0 015.624-13.589 19.19 19.19 0 0113.577-5.629h51.151a2.583 2.583 0 012.304 3.772 12.59 12.59 0 00.515 12.785 12.561 12.561 0 0011.437 5.716 12.555 12.555 0 0010.141-6.535 12.575 12.575 0 00-.033-12.071 2.483 2.483 0 01.052-2.455 2.483 2.483 0 012.134-1.212h51.304a19.187 19.187 0 0113.577 5.629 19.22 19.22 0 015.624 13.589v47.359a1.271 1.271 0 00.484 1.103 1.28 1.28 0 001.186.21 12.692 12.692 0 014.463-.359c5.71.551 10.886 5.894 11.284 11.618a12.575 12.575 0 01-3.341 9.453 12.554 12.554 0 01-9.189 3.998z" fill="#BF0830"/><path d="M335.107 365.994H223.34c.695-6.328 1.579-12.375 2.693-17.91.744-3.698 1.587-7.168 2.549-10.336.114-.389.236-.779.363-1.155a67.582 67.582 0 011.207-3.47s4.083-16.19 30.603-21.677a57.352 57.352 0 011.818-.355h.114a91.03 91.03 0 012.536-.411l.577-.079c.437-.066.896-.127 1.359-.184h.118a91.418 91.418 0 015.478-.503 102.87 102.87 0 013.209-.153h.048c1.035-.035 2.096-.055 3.183-.061h.267c2.331 0 4.564.074 6.697.223.591.044 1.172.092 1.749.144.717.07 1.421.145 2.116.232 2.548.307 5.074.773 7.564 1.396 12.499 3.159 20.985 9.994 26.9 20.019a67.515 67.515 0 015.88 13.403c2.05 6.209 3.554 13.202 4.739 20.877z" fill="#BF0830"/><path d="M343.322 365.994H206.011a5.54 5.54 0 01-5.247-7.286c4.809-14.488 19.389-42.882 60.446-48.002a89.52 89.52 0 014.341-.437c1.661-.135 3.365-.232 5.11-.294.704-.021 1.408-.052 2.116-.083l3.209-.153h.049c1.097-.052 2.185-.105 3.309-.135 2.103-.062 4.21-.062 6.317.078l.56.035c1.281.092 2.54.206 3.782.35 1.471.167 2.916.366 4.332.6.468.079.927.149 1.386.236.459.088.936.18 1.395.28 30.887 6.301 44.894 25.59 49.165 51.341a2.983 2.983 0 01-.676 2.422 2.985 2.985 0 01-2.283 1.048z" fill="#1A2578"/><path d="M286.544 317.554c-7.292 2.543-15.992-1.089-21.02-7.285.044 0 6.995-2.888 8.185-6.713l2.784-8.996.053-.171.826-2.678 1.067-3.452 6.282-20.273.827 20.163.31 7.566v.105l.179 4.441v.77l.123 3.063c.104 2.626 1.831 5.251 3.79 5.969.035-.009 1.242 5.859-3.406 7.491z" fill="#fff"/><path d="M286.077 301.014a15.301 15.301 0 01-9.579-6.463l-.123-.197c.059.006.118.014.175.026.98.145 5.898.875 9.312 1.313v.105l.18 4.441v.438l.035.337zm17.281-39.22a26.64 26.64 0 010 11.062c-1.276 6.157-7.532-8.97-7.532-8.97l7.532-2.092z" fill="#30262A"/><path d="M289.081 298.511c9.859-1.296 16.585-11.992 15.024-23.891-1.561-11.899-10.818-20.495-20.676-19.199-9.859 1.295-16.585 11.991-15.024 23.89 1.561 11.899 10.818 20.495 20.676 19.2z" fill="#fff"/><path d="M267.951 273.105l8.713-.905a6.34 6.34 0 004.709-2.858c1.783-2.796 3.934-4.231 12.062-3.938 10.295.385 17.093-5.758 18.204-11.149 1.137-5.501-4.132-9.233-9.303-6.608-5.172 2.626-2.951-3.811-7.922-4.494-9.29-1.277-11.03 5.895-18.642 5.658-9.972-.306-27.84 7.281-19.367 24.854l11.546-.56z" fill="#30262A"/><path d="M287.2 276.068a.37.37 0 00.166-.28.379.379 0 00-.015-.142.374.374 0 00-.18-.213.366.366 0 00-.137-.039 3.935 3.935 0 00-4.206 2.398.37.37 0 00.166.49.406.406 0 00.49-.167 6.22 6.22 0 013.497-1.991.4.4 0 00.219-.056zm-1.561 4.686c.227.841.909 1.387 1.517 1.221.608-.166.918-.984.691-1.824-.228-.841-.91-1.388-1.522-1.221-.612.166-.94.993-.686 1.824zm15.061-5.772a.254.254 0 00.197-.179.437.437 0 00-.14-.494 2.556 2.556 0 00-2.946-.263 2.552 2.552 0 00-.774.7.437.437 0 000 .512.261.261 0 00.188.119.27.27 0 00.214-.062 3.827 3.827 0 013.091-.359.251.251 0 00.17.026zm-3.326 3.746c-.11.875.31 1.628.94 1.707.629.079 1.224-.56 1.311-1.422.088-.862-.31-1.633-.935-1.711-.625-.079-1.207.56-1.316 1.426z" fill="#080435"/><path d="M256.405 273.678s6.02 13.001 14.554 13.955c0 0-6.899-9.907 7.646-15.946 0 0-13.356-2.1-22.2 1.991z" fill="#30262A"/><path d="M268.441 280.855c1.823 1.159 4.144.778 5.18-.876 1.036-1.654.402-3.898-1.425-5.058-1.827-1.16-4.145-.783-5.185.849-1.041 1.632-.398 3.921 1.43 5.085zm29.274 6.353a36.98 36.98 0 01-11.743.928s.9 5.689 7.104 4.551c3.607-.661 4.639-5.479 4.639-5.479z" fill="#fff"/><path d="M301.229 246.964c-2.846 0-3.104-2.481-3.104-2.503a.409.409 0 01.525-.442.39.39 0 01.142.079.407.407 0 01.142.285c.022.188.262 1.833 2.426 1.75a.41.41 0 01.42.394.409.409 0 01-.393.42l-.158.017z" fill="#BF0830"/><path d="M296.355 262.529l-.07-.236c.109-.035 11.065-3.282 11.516-8.927.131-1.597-.136-2.656-.814-3.238-1.084-.936-3.06-.477-4.809-.07a27.74 27.74 0 01-.782.18l-.053-.241.779-.175c1.801-.438 3.842-.875 5.023.118.739.639 1.032 1.75.896 3.444-.192 2.415-2.282 4.76-6.042 6.791a32.941 32.941 0 01-5.644 2.354zm-21.575-11.447a24.364 24.364 0 01-3.283-.228l.03-.245c5.587.757 9.618-.538 12.001-1.75 1.46-.711 2.78-1.68 3.895-2.862l.188.158c-.048.039-4.223 4.927-12.831 4.927zm6.02 63.204s7.918-2.451 10.021-.552c2.102 1.899.555 10.611-3.087 11.377-3.642.766-10.54-8.725-6.934-10.825z" fill="#fff"/><path d="M285.448 312.229s-10.335-3.654-12.351-7.312c-2.015-3.658-12.718 4.813-12.53 7.312.188 2.498 19.46 16.518 20.719 14.755 1.259-1.764 6.689-12.357 4.162-14.755z" fill="#1A2578"/><path d="M285.448 312.229s1.547-3.838.804-5.92c0 0-.494-1.834 1.08-1.707s10.143 6.126 10.899 7.942c.756 1.816.874 10.405-1.889 11.036-2.763.63-9.452-8.581-10.239-9.491a2.542 2.542 0 01-.655-1.86z" fill="#1A2578"/><path d="M284.062 323.619l5.88-1.855s.14.354.397 1.032c1.688 4.459 8.478 22.693 14.572 43.202h-20.272c1.027-19.564 1.538-37.658-.577-42.379z" fill="#fff"/><path d="M287.668 325.308c-2.312 0-4.293-2.057-4.372-2.144l.276-.258s1.954 2.021 4.109 2.021h.057c2.121-.035 3.393-4.616 3.406-4.664l.363.1c-.053.202-1.36 4.906-3.764 4.945h-.075z" fill="#30262A"/><path opacity=".3" fill-rule="evenodd" clip-rule="evenodd" d="M115.555 131.581a5.3 5.3 0 01-5.298-5.305 5.3 5.3 0 015.298-5.306 5.303 5.303 0 015.311 5.306 5.304 5.304 0 01-5.311 5.305zm0 5.306c-5.857 0-10.596-4.751-10.596-10.611 0-5.861 4.739-10.612 10.596-10.612 5.87 0 10.608 4.751 10.608 10.612 0 5.86-4.738 10.611-10.608 10.611z" fill="#FB5472"/><defs><filter id="filter0_d_1_90251" x="395.115" y="190.716" width="191.411" height="191.556" filterUnits="userSpaceOnUse" color-interpolation-filters="sRGB"><feFlood flood-opacity="0" result="BackgroundImageFix"/><feColorMatrix in="SourceAlpha" values="0 0 0 0 0 0 0 0 0 0 0 0 0 0 0 0 0 0 127 0" result="hardAlpha"/><feOffset dy="4"/><feGaussianBlur stdDeviation="6"/><feComposite in2="hardAlpha" operator="out"/><feColorMatrix values="0 0 0 0 0 0 0 0 0 0 0 0 0 0 0 0 0 0 0.06 0"/><feBlend in2="BackgroundImageFix" result="effect1_dropShadow_1_90251"/><feBlend in="SourceGraphic" in2="effect1_dropShadow_1_90251" result="shape"/></filter></defs></svg>