<svg width="291" height="140" fill="none" xmlns="http://www.w3.org/2000/svg"><path d="M151.93 28H132v93.59h19.93V28z" fill="url(#paint0_linear_405_14250)"/><path d="M129.1 125.15c12.802 0 23.18-10.235 23.18-22.86s-10.378-22.86-23.18-22.86-23.18 10.235-23.18 22.86 10.378 22.86 23.18 22.86z" fill="url(#paint1_linear_405_14250)"/><path d="M200.02 122.77c11.471 0 20.77-9.169 20.77-20.48 0-11.31-9.299-20.48-20.77-20.48s-20.77 9.17-20.77 20.48c0 11.311 9.299 20.48 20.77 20.48z" fill="url(#paint2_linear_405_14250)"/><path d="M165.76 100.56c8.969 0 16.24-7.168 16.24-16.01 0-8.842-7.271-16.01-16.24-16.01-8.969 0-16.24 7.168-16.24 16.01 0 8.842 7.271 16.01 16.24 16.01z" fill="url(#paint3_linear_405_14250)"/><path d="M136.17 85.99c6.246 0 11.31-4.992 11.31-11.15s-5.064-11.15-11.31-11.15-11.31 4.992-11.31 11.15 5.064 11.15 11.31 11.15z" fill="url(#paint4_linear_405_14250)"/><path d="M165.02 73.24c4.269 0 7.73-3.412 7.73-7.62S169.289 58 165.02 58s-7.73 3.412-7.73 7.62 3.461 7.62 7.73 7.62z" fill="url(#paint5_linear_405_14250)"/><path d="M151.27 97.88c7.566 0 13.7-6.049 13.7-13.51 0-7.461-6.134-13.51-13.7-13.51-7.566 0-13.7 6.049-13.7 13.51 0 7.461 6.134 13.51 13.7 13.51z" fill="url(#paint6_linear_405_14250)"/><path d="M41.89 177.74c23.135 0 41.89-18.491 41.89-41.3 0-22.809-18.755-41.3-41.89-41.3S0 113.631 0 136.44c0 22.809 18.755 41.3 41.89 41.3z" fill="url(#paint7_linear_405_14250)"/><path d="M92.18 143.74c17.347 0 31.41-13.861 31.41-30.96s-14.063-30.96-31.41-30.96-31.41 13.861-31.41 30.96 14.063 30.96 31.41 30.96z" fill="url(#paint8_linear_405_14250)"/><path d="M245.78 177.62c24.516 0 44.39-19.596 44.39-43.77 0-24.173-19.874-43.77-44.39-43.77-24.516 0-44.39 19.597-44.39 43.77 0 24.174 19.874 43.77 44.39 43.77z" fill="url(#paint9_linear_405_14250)"/><path d="M135.69 154.56c17.347 0 31.41-13.861 31.41-30.96s-14.063-30.96-31.41-30.96-31.41 13.861-31.41 30.96 14.063 30.96 31.41 30.96z" fill="url(#paint10_linear_405_14250)"/><path d="M173.43 154.55c19.496 0 35.3-15.58 35.3-34.8s-15.804-34.8-35.3-34.8c-19.496 0-35.3 15.58-35.3 34.8s15.804 34.8 35.3 34.8z" fill="url(#paint11_linear_405_14250)"/><path d="M150.483 107.566a5.61 5.61 0 00-1.59-4.125 5.732 5.732 0 00-8.198 0 5.61 5.61 0 00-1.59 4.125s-.734 13.336 5.693 20.434c6.419-7.098 5.685-20.434 5.685-20.434z" fill="#BF0830"/><path d="M125.494 76.575s-21.309 10.322-12.868 40.751c0 0 4.506-15.296 18.967-19.263l-6.099-21.488zm39.932 0s21.309 10.322 12.868 40.751c0 0-4.513-15.296-18.966-19.263l6.098-21.488z" fill="#120283"/><path d="M152.386 104.411h-14.492a1.22 1.22 0 01-1.195-.952l-.781-3.506a1.22 1.22 0 011.195-1.492h16.054a1.217 1.217 0 011.194 1.492l-.78 3.506a1.215 1.215 0 01-1.195.952z" fill="#1A2578"/><path d="M124.229 68.353s2.226 20.41 9.097 33.341a31.497 31.497 0 0123.846 0s7.879-10.932 9.495-34.958c.93-13.852-.179-29.671-4.771-43.305h-32.053c-4.263 11.104-7.3 26.018-5.614 44.922z" fill="#DEE4FA"/><path d="M142.884 1.318a73.13 73.13 0 00-13.04 22.113h32.053c-2.936-8.722-7.293-16.546-13.462-22.378a3.85 3.85 0 00-2.832-1.049 3.864 3.864 0 00-2.719 1.314z" fill="#1A2578"/><path d="M144.891 67.369s-9.831 22.34 0 48.903c0 0 10.923-22.168 0-48.903z" fill="#120283"/><path d="M145.804 59.006c6.831 0 12.368-5.538 12.368-12.369 0-6.83-5.537-12.368-12.368-12.368s-12.368 5.538-12.368 12.368c0 6.831 5.537 12.369 12.368 12.369z" fill="#1A2578"/><path d="M154.168 48.61a8.59 8.59 0 10-16.724-3.927 8.59 8.59 0 0016.724 3.928z" fill="#BF0830"/><defs><linearGradient id="paint0_linear_405_14250" x1="151.106" y1="30.051" x2="119.723" y2="32.873" gradientUnits="userSpaceOnUse"><stop stop-color="#E3E7F6"/><stop offset="1" stop-color="#E3E7F6" stop-opacity="0"/></linearGradient><linearGradient id="paint1_linear_405_14250" x1="150.364" y1="80.432" x2="88.174" y2="107.06" gradientUnits="userSpaceOnUse"><stop stop-color="#E3E7F6"/><stop offset="1" stop-color="#E3E7F6" stop-opacity="0"/></linearGradient><linearGradient id="paint2_linear_405_14250" x1="219.073" y1="82.707" x2="163.352" y2="106.57" gradientUnits="userSpaceOnUse"><stop stop-color="#E3E7F6"/><stop offset="1" stop-color="#E3E7F6" stop-opacity="0"/></linearGradient><linearGradient id="paint3_linear_405_14250" x1="180.657" y1="69.242" x2="137.092" y2="87.902" gradientUnits="userSpaceOnUse"><stop stop-color="#E3E7F6"/><stop offset="1" stop-color="#E3E7F6" stop-opacity="0"/></linearGradient><linearGradient id="paint4_linear_405_14250" x1="146.545" y1="64.179" x2="116.205" y2="77.174" gradientUnits="userSpaceOnUse"><stop stop-color="#E3E7F6"/><stop offset="1" stop-color="#E3E7F6" stop-opacity="0"/></linearGradient><linearGradient id="paint5_linear_405_14250" x1="172.111" y1="58.334" x2="151.375" y2="67.217" gradientUnits="userSpaceOnUse"><stop stop-color="#E3E7F6"/><stop offset="1" stop-color="#E3E7F6" stop-opacity="0"/></linearGradient><linearGradient id="paint6_linear_405_14250" x1="163.837" y1="71.452" x2="127.082" y2="87.191" gradientUnits="userSpaceOnUse"><stop stop-color="#E3E7F6"/><stop offset="1" stop-color="#E3E7F6" stop-opacity="0"/></linearGradient><linearGradient id="paint7_linear_405_14250" x1="80.317" y1="96.95" x2="-32.06" y2="145.081" gradientUnits="userSpaceOnUse"><stop stop-color="#E3E7F6"/><stop offset="1" stop-color="#E3E7F6" stop-opacity="0"/></linearGradient><linearGradient id="paint8_linear_405_14250" x1="120.993" y1="83.177" x2="36.737" y2="119.273" gradientUnits="userSpaceOnUse"><stop stop-color="#E3E7F6"/><stop offset="1" stop-color="#E3E7F6" stop-opacity="0"/></linearGradient><linearGradient id="paint9_linear_405_14250" x1="286.5" y1="91.998" x2="167.412" y2="142.998" gradientUnits="userSpaceOnUse"><stop stop-color="#E3E7F6"/><stop offset="1" stop-color="#E3E7F6" stop-opacity="0"/></linearGradient><linearGradient id="paint10_linear_405_14250" x1="164.503" y1="93.997" x2="80.247" y2="130.093" gradientUnits="userSpaceOnUse"><stop stop-color="#E3E7F6"/><stop offset="1" stop-color="#E3E7F6" stop-opacity="0"/></linearGradient><linearGradient id="paint11_linear_405_14250" x1="205.812" y1="86.475" x2="111.116" y2="127.037" gradientUnits="userSpaceOnUse"><stop stop-color="#E3E7F6"/><stop offset="1" stop-color="#E3E7F6" stop-opacity="0"/></linearGradient></defs></svg>