<svg width="309" height="130" fill="none" xmlns="http://www.w3.org/2000/svg"><path d="M151.5 243c65.998 0 119.5-54.397 119.5-121.5C271 54.397 217.498 0 151.5 0 85.502 0 32 54.397 32 121.5 32 188.603 85.502 243 151.5 243z" fill="url(#paint0_linear_405_14252)"/><path d="M141.219 77.983l-44.096 52.608.936.785 44.097-52.608-.937-.785zM16.599 107.14l-.368 1.165 81.033 25.565.368-1.165-81.034-25.565z" fill="#120283"/><path d="M17.61 122.275c8.013-.656 13.977-7.683 13.32-15.696-.655-8.012-7.682-13.975-15.694-13.32-8.013.656-13.976 7.683-13.32 15.696.656 8.012 7.683 13.976 15.695 13.32z" fill="#353A85"/><path d="M66.992 47.277l-1.142.434 31.254 82.319 1.142-.434-31.254-82.32zm1.128-.244l-.47 1.128 73.805 30.767.47-1.127L68.12 47.033z" fill="#120283"/><path d="M214.132 41.172l-74.26 36.556.539 1.097 74.261-36.557-.54-1.096z" fill="#120283"/><path d="M142.01 77.847l-.639 1.04 78.066 47.99.64-1.041-78.067-47.99z" fill="#120283"/><path d="M290.618 68.658l-71.243 57.24.765.953 71.243-57.24-.765-.953z" fill="#120283"/><path d="M150.996 99.77c13.81-3.47 22.191-17.48 18.719-31.29-3.471-13.809-17.48-22.19-31.289-18.718-13.81 3.471-22.191 17.48-18.719 31.29 3.471 13.809 17.48 22.19 31.289 18.718zm141.221-12.664c9.971-.674 17.507-9.304 16.833-19.276-.675-9.97-9.305-17.507-19.276-16.833-9.971.675-17.507 9.305-16.833 19.276.675 9.971 9.305 17.508 19.276 16.833z" fill="#353A85"/><path d="M87.773 49.926c1.09-10.72-6.715-20.294-17.434-21.385-10.72-1.09-20.294 6.715-21.385 17.435-1.09 10.72 6.715 20.293 17.435 21.384 10.72 1.09 20.293-6.715 21.384-17.434z" fill="#120283"/><path d="M226.51 49.338c4.206-6.685 2.197-15.515-4.488-19.721-6.685-4.207-15.514-2.198-19.721 4.487-4.206 6.685-2.197 15.515 4.488 19.721 6.685 4.207 15.514 2.198 19.721-4.487z" fill="#BF0830"/><path d="M245.693 144.681c14.984-14.985 14.984-39.279 0-54.263-14.984-14.985-39.278-14.985-54.263 0-14.984 14.984-14.984 39.278 0 54.263 14.985 14.984 39.279 14.984 54.263 0z" fill="#120283"/><path d="M98.112 145.212c11.873-1.529 20.259-12.395 18.73-24.268-1.53-11.874-12.395-20.26-24.27-18.731-11.873 1.53-20.259 12.396-18.73 24.269 1.53 11.874 12.396 20.26 24.27 18.73z" fill="#BF0830"/><path d="M15.666 120.631a12.91 12.91 0 009.366-3.19 30.054 30.054 0 00-1.184-3.568 8.327 8.327 0 00-3.98-4.314l.046-.063a7.492 7.492 0 00.984-4.049c0-1.323-.25-2.688-1.047-3.802a4.125 4.125 0 00-3.923-1.8 4.12 4.12 0 00-3.376 2.69c-.558 1.344-.499 2.793-.39 4.224a7.21 7.21 0 00.84 2.911 11.025 11.025 0 00-2.921 2.765c-.929 1.194-.89 1.25-1.473 2.66-.286.698-.57 1.396-.817 2.195a12.89 12.89 0 007.875 3.341zm51.959-55.889a17.043 17.043 0 0012.378-4.214c-.42-1.604-.94-3.18-1.56-4.72a11.006 11.006 0 00-5.26-5.7c0-.03.041-.055.058-.083 1.01-1.627 1.317-3.512 1.299-5.351 0-1.746-.328-3.554-1.396-5.03a5.76 5.76 0 00-5.013-2.374c-2.154.192-3.885 1.784-4.621 3.557-.737 1.773-.66 3.707-.514 5.585a9.371 9.371 0 001.114 3.84 14.516 14.516 0 00-3.864 3.651c-1.226 1.581-1.177 1.655-1.948 3.515-.377.918-.754 1.864-1.079 2.904a17.02 17.02 0 0010.406 4.42zm26.62 78.25a18.332 18.332 0 0013.313-4.538 42.705 42.705 0 00-1.679-5.075 11.844 11.844 0 00-5.658-6.13c.017-.031.042-.059.063-.09 1.085-1.746 1.417-3.777 1.396-5.753-.017-1.882-.349-3.84-1.501-5.407a6.197 6.197 0 00-5.396-2.559c-2.315.21-4.19 1.92-4.968 3.84-.778 1.92-.698 3.99-.555 6.004a10.2 10.2 0 001.198 4.14 15.589 15.589 0 00-4.154 3.927c-1.32 1.7-1.264 1.777-2.095 3.78-.408.985-.813 2.004-1.162 3.124a18.319 18.319 0 0011.198 4.737zm195.838-59.111a15.83 15.83 0 0011.491-3.913 36.86 36.86 0 00-1.452-4.38 10.24 10.24 0 00-4.887-5.293c0-.024.039-.049.053-.077.939-1.508 1.221-3.256 1.207-4.963 0-1.627-.303-3.299-1.295-4.667a5.346 5.346 0 00-4.656-2.21c-1.997.182-3.603 1.658-4.287 3.306-.684 1.647-.614 3.438-.478 5.18a8.819 8.819 0 001.047 3.57 13.53 13.53 0 00-3.588 3.39c-1.135 1.466-1.089 1.536-1.805 3.264a32.974 32.974 0 00-1.002 2.695 15.81 15.81 0 009.652 4.098zM143.436 96.999a22.117 22.117 0 0016.057-5.47 51.311 51.311 0 00-2.028-6.126 14.315 14.315 0 00-6.828-7.4c.023-.038.049-.074.077-.109 1.309-2.094 1.707-4.558 1.686-6.946 0-2.272-.426-4.611-1.812-6.527-1.386-1.917-3.91-3.32-6.51-3.086-2.793.255-5.041 2.318-5.997 4.618-.957 2.3-.845 4.817-.656 7.26a12.3 12.3 0 001.445 4.996c-1.836 1.11-3.463 2.736-5.016 4.74-1.554 2.004-1.522 2.147-2.524 4.566-.492 1.187-.978 2.415-1.396 3.77a22.101 22.101 0 0013.502 5.714zm70.229-43.396a12.662 12.662 0 009.194-3.142 29.327 29.327 0 00-1.159-3.49 8.175 8.175 0 00-3.906-4.235.746.746 0 01.042-.063 7.325 7.325 0 00.967-3.972c0-1.302-.244-2.639-1.047-3.735a4.045 4.045 0 00-7.156.876c-.548 1.316-.492 2.754-.384 4.147a7.048 7.048 0 00.827 2.86 10.755 10.755 0 00-2.869 2.708c-.911 1.176-.873 1.228-1.445 2.614a25.75 25.75 0 00-.803 2.158 12.646 12.646 0 007.739 3.274zm2.824 98.531a35.776 35.776 0 0025.981-8.842 83.138 83.138 0 00-3.281-9.906 23.11 23.11 0 00-11.038-11.963c.039-.059.088-.115.123-.174 2.118-3.411 2.764-7.369 2.733-11.23-.032-3.672-.698-7.452-2.932-10.552-2.234-3.1-6.322-5.369-10.525-4.988-4.517.408-8.151 3.745-9.693 7.466-1.543 3.721-1.397 7.781-1.082 11.715a19.795 19.795 0 002.335 8.074c-2.971 1.794-5.585 4.423-8.109 7.679-2.569 3.313-2.464 3.47-4.081 7.376-.796 1.924-1.584 3.91-2.269 6.095a35.729 35.729 0 0021.838 9.25z" fill="#fff"/><defs><linearGradient id="paint0_linear_405_14252" x1="261.121" y1="5.324" x2="-62.453" y2="139.71" gradientUnits="userSpaceOnUse"><stop stop-color="#E3E7F6"/><stop offset="1" stop-color="#E3E7F6" stop-opacity="0"/></linearGradient></defs></svg>